<?xml version="1.0" encoding="utf-8"?>
<!DOCTYPE svg PUBLIC "-//W3C//DTD SVG 1.1//EN" "http://www.w3.org/Graphics/SVG/1.1/DTD/svg11.dtd">
<svg version="1.1" xmlns="http://www.w3.org/2000/svg" xmlns:xlink="http://www.w3.org/1999/xlink" x="0px" y="0px"
	 width="100px" height="100px" viewBox="5.182 1.307 100 100" enable-background="new 5.182 1.307 100 100" xml:space="preserve">
<g>
	<polygon points="50.849,3.33 15.974,17.673 57.505,27.798 92.756,14.863 	"/>
	<polygon points="58.678,29.02 94.63,15.963 94.992,83.688 58.475,99.003 	"/>
	<path d="M15.468,19.082l41.767,10.125l0.142,33.188l-41.958-9.375C15.416,53.021,15.368,19.081,15.468,19.082L15.468,19.082z
		 M41.307,50.875l-13.267-3.047l0.102,4.097l13.405,3.048L41.307,50.875L41.307,50.875z M38.709,29.23c0-1.658-1.223-3-2.907-3
		c-1.604,0-2.906,1.301-2.906,2.905c0,1.658,1.222,3,2.906,3C37.408,32.134,38.709,30.833,38.709,29.23z"/>
</g>
<path d="M15.502,53.984l42.005,9.77v35.531l-42.134-12.09C15.374,87.194,15.453,53.984,15.502,53.984L15.502,53.984z M41.436,77.083
	l-13.688-3l0.174,4.416l13.688,3.145L41.436,77.083z"/>
</svg>
