<?xml version="1.0" encoding="utf-8"?>
<!DOCTYPE svg PUBLIC "-//W3C//DTD SVG 1.1//EN" "http://www.w3.org/Graphics/SVG/1.1/DTD/svg11.dtd">
<svg version="1.1" xmlns="http://www.w3.org/2000/svg" xmlns:xlink="http://www.w3.org/1999/xlink" x="0px" y="0px"
	 width="158px" height="158px" viewBox="0.084 -4.583 158 158" enable-background="new 0.084 -4.583 158 158" xml:space="preserve">
<g>
	<path d="M117.822,1.503c4.021-2.74,9.771,2.5,7.681,6.75c-2.951,6.99-6.091,13.92-9.19,20.85c4.579,1.24,9.329,1.39,14.04,1.72
		c2.65,0.13,5.119,2.78,4.09,5.47c-1.971,5.02-4.609,9.74-6.77,14.67c3.5,0.62,7.049,0.71,10.58,1.04
		c2.949,0.28,4.869,3.47,3.959,6.26c-1.47,4.649-4.029,8.86-5.72,13.44c-3.47-1.28-7.04-2.28-10.67-3.011
		c0.979-2.159,1.95-4.319,2.931-6.479c-1.931-0.49-3.851-1-5.771-1.521c-1.24,2.521-2.46,5.04-3.66,7.57
		c-4.71,0.34-9.36,1.21-13.83,2.739c4.761-10.1,9.521-20.189,14.29-30.29c-2.439-0.62-4.87-1.29-7.27-2.02
		c-5,11.49-10.051,22.95-15.03,34.45c-1.31,3.47-4.47,5.6-6.94,8.18c-4.959,4.95-8.08,11.44-9.84,18.15
		c-0.43,3.13-3.98,3.62-6.39,4.62c-16.49,5.488-34.05,3.6-51.06,2.719c18.11,6.689,37.6,7.72,56.7,8.201
		c0.79,3.75,1.9,7.41,3.34,10.959c-16.85-0.18-34.209-0.689-50.459-4.93c-1.26-0.08-2.51-0.15-3.77-0.211
		c18.91,8,39.32,11.512,59.62,13.801c3.949,4.33,8.52,8.051,13.65,10.91c-5.58,0.59-11.131-0.449-16.671-0.92
		c-18.46-2.061-37.02-5.121-54.42-11.85c-8.95-3.57-18.16-7.971-24.01-15.961c-5.36-6.459-5.89-16.299-1.72-23.489
		c13.14-25.21,26.16-50.479,39.3-75.7c1.14-2.67,3.83-4.38,6.76-3.76C74.142,14.983,97.753,12.704,117.822,1.503 M53.642,25.253
		c-12.29,22.89-24.37,45.89-36.75,68.73c12.79,2.07,25.76,3.32,38.71,2.45c7.53-0.82,15.68-1.62,22.03-6.05
		c11-24.061,21.16-48.56,31.88-72.771C91.772,24.534,72.462,25.414,53.642,25.253z"/>
	<path d="M61.063,36.954c2.25-6.08,10.34-6.85,15.52-4.47c3.66,2.06,2.639,6.88,1.26,10.07c-1.12,3.93-5.39,5.88-6.23,9.93
		c3.39,0.95,8.01-0.29,10.38,2.76c0.71,5.37-3.76,9.839-7.82,12.66c-10.86,5.96-23.79,5.65-35.78,4.721
		c3.21-5.36,5.89-11.03,9.08-16.391c3.56-5.31,12.76-1.4,14.4-8.41C58.563,44.954,58.682,40.384,61.063,36.954z"/>
	<path d="M115.962,73.854c16.041-2.14,32.551,8.26,37.521,23.66c5.73,15.66-1.699,34.619-16.479,42.289
		c-13.67,7.859-32.311,4.73-42.791-6.99c-9.609-10.17-12.17-26.23-6.029-38.819C93.132,83.063,104.063,75.214,115.962,73.854
		 M106.772,80.924c3.67,0.01,7.449-0.37,10.64-2.33C113.732,78.554,110.142,79.483,106.772,80.924 M117.212,78.193
		c0.43,0.37,1.301,1.11,1.73,1.48c2.37-0.761,4.76-0.57,6.939,0.62c-0.549,1.619-0.17,3.859-2.199,4.459
		c1.02,0.351,3.07,1.051,4.1,1.391c-1.07,0.33-2.12,0.65-3.18,0.98c-0.35-0.601-1.061-1.801-1.41-2.4
		c-2.4,0.189-3.88,2.311-5.75,3.55c-0.49-0.42-1.471-1.25-1.96-1.66c0.71-1.31,1.42-2.61,2.149-3.899
		c-1.229-0.41-2.47-0.811-3.709-1.17c0.16,1.18,0.319,2.359,0.489,3.539c-1.069,0.61-2.14,1.211-3.2,1.82
		c0.15,2.09,0.311,4.19,0.461,6.28c-0.57,0.01-1.721,0.021-2.301,0.021c-1.66,0.959-3.5,1.47-5.38,1.72
		c-3.18,2.069-6.26,4.51-8.149,7.87l0.77,0.979l-1.029,1.32c2.149,1.51,4.529,2.639,7.069,3.35c0.31,2.029,0.729,4.048,1.3,6.029
		c2.35,0.871,4.26,2.48,5.95,4.291c2.239,0.59,4.44,1.34,6.55,2.299c-1.04,2.361-1.82,4.83-1.75,7.43
		c-0.619,0.611-1.24,1.211-1.859,1.82c-0.24,1.93-0.57,3.85-0.951,5.76c2.341,2.23,5.391,3.82,8.721,3.49
		c8.83-0.199,18.641-3.99,22.971-12.09c-2.971,2.85-6.141,5.67-10.15,6.91c0.97-5.221,5.3-10.1,3.539-15.5
		c0.16-0.41,0.48-1.24,0.641-1.65c-0.8-0.51-1.6-1.02-2.391-1.52c-4.969,2.24-11.92-1.59-9.989-7.46
		c-0.091-0.43-0.271-1.279-0.37-1.709c1.43-2.61,3.37-4.86,5.41-7c-0.43-1.61-0.83-3.221-1.221-4.83
		c0.74-0.061,2.23-0.19,2.971-0.25c-1.23-1.23-2.45-2.461-3.721-3.641c0.531-0.97,1.061-1.939,1.601-2.91
		c1.351,1.131,2.729,2.23,4.149,3.291c-0.64-1.4-1.289-2.771-1.989-4.131c0.45-1.21,0.899-2.41,1.36-3.619
		c1.64,0.239,3.289,0.459,4.949,0.67c-2.38-1.57-4.88-2.95-7.41-4.261c0.18,0.7,0.53,2.101,0.7,2.79
		c-0.649-0.31-1.95-0.939-2.6-1.25c0.44-0.38,1.3-1.14,1.729-1.52C126.372,78.644,121.792,78.094,117.212,78.193 M107.142,85.773
		c-1.35,0.08-2.939,0.8-3.35,2.181C104.362,90.153,109.202,86.764,107.142,85.773 M133.003,98.794
		c1.879-0.36,3.77-0.711,5.659-1.041c-0.22-0.289-0.649-0.869-0.87-1.159c-0.459,0.1-1.359,0.31-1.81,0.409
		C136.253,93.764,133.032,97.363,133.003,98.794 M138.722,100.243c2.681,0.32,5.391,0.381,8.08,0.051
		c-1.469-0.9-3.129-1.26-4.799-1.5c-0.371-0.381-1.131-1.141-1.5-1.521C139.902,98.264,139.313,99.253,138.722,100.243
		 M91.673,101.854c-0.91,1.62-1.33,3.39-1.75,5.209c0.85-1.939,3.84-0.459,3.729-2.679l1.63,1.189
		c-0.199-0.97-0.609-2.899-0.82-3.859C93.763,101.743,92.372,101.813,91.673,101.854 M92.382,106.534
		c0.701,2.289,1.36,4.589,1.98,6.9c0.95-0.82,1.91-1.631,2.87-2.441c1.56,0.65,3.13,1.271,4.71,1.871
		c-0.23-1.35-0.471-2.711-0.7-4.06c-2-0.061-4-0.08-6-0.061C94.282,108.002,93.333,107.274,92.382,106.534 M89.563,108.934
		c-0.5,13.638,9.61,25.939,22.43,29.718c-3.67-3.18-6.909-6.789-10.03-10.5c-3.67-3.279-8.109-7.139-6.879-12.639
		C92.872,113.643,91.212,111.273,89.563,108.934 M147.522,120.633c-0.74,0.779-1.28,1.881-1.631,3.291
		c2.431-0.051,2.341-3.311,3.641-5.301C148.322,118.533,147.662,119.203,147.522,120.633z"/>
	<path d="M65.563,80.214c3.12-2.41,6.42-4.65,10.23-5.84c-1.85,3.93-2.64,9.239-6.83,11.42c-2.78,1.449-4.87-1.551-6.86-2.99
		c-2.29,2.41-4.41,4.98-6.66,7.43c-1.09-1.3-2.08-2.66-3.01-4.07c-0.74-0.09-2.22-0.26-2.96-0.34c-1.29,1.601-2.6,3.18-3.92,4.75
		c-1.4-1.46-2.27-3.27-2.92-5.149c-4.72-0.73-6.75,5.939-11.54,3.47c1.7-4.03,3.22-8.15,5.35-11.98c2.05,0.41,4.11,0.83,6.17,1.261
		c-0.39,1.88-0.74,3.77-1.12,5.659c2.99,1.15,4.71-1.369,6.08-3.59c1.11-2.199,3.81-1.49,5.81-1.529c-0.05,1.75-0.06,3.5-0.04,5.24
		c2.44-1.121,3.65-3.541,5.31-5.48c2-1.02,4.32-1.13,6.49-1.63C65.242,77.693,65.452,79.374,65.563,80.214z"/>
</g>
</svg>
