<?xml version="1.0" encoding="utf-8"?>
<!DOCTYPE svg PUBLIC "-//W3C//DTD SVG 1.1//EN" "http://www.w3.org/Graphics/SVG/1.1/DTD/svg11.dtd">
<svg version="1.1" xmlns="http://www.w3.org/2000/svg" xmlns:xlink="http://www.w3.org/1999/xlink" x="0px" y="0px"
	 width="158px" height="158px" viewBox="0.5 -2.25 158 158" enable-background="new 0.5 -2.25 158 158" xml:space="preserve">
<g>
	<path d="M117.811,3.342c2.26-0.5,4.7-0.66,6.54,1c-1.81,1.72-3.601,3.47-5.2,5.39c0.15-1.56,0.28-3.12,0.4-4.68
		C119.112,4.632,118.241,3.772,117.811,3.342z"/>
	<path d="M103.961,12.453c3.22-2.2,6.05-6.86,10.539-5.2c-0.149,2.43-0.51,4.86-0.459,7.3c0.83,10.85-2.23,21.65-0.521,32.48
		c2.13,0.03,5.761-0.54,5.96,2.47c-0.18,4.83-6.43,2.51-9.51,3.06c-3.08-0.54-9.59,1.7-9.51-3.12c0.76-3.17,4.939-2.2,7.32-2.43
		c-1.381-10.22,0.52-20.43,0.81-30.65c-2.07,1.09-4.979,4.54-7.2,1.83C99.271,15.953,102.401,13.802,103.961,12.453z"/>
	<path d="M130.292,7.982c5.08-1.87,11.439-1.08,15.27,2.98c4.811,4.82,6.22,11.99,5.89,18.58c-0.291,6.38-0.93,13.2-4.75,18.56
		c-5.391,7.78-18.84,7.71-23.791-0.55c-3.91-6.52-4.64-14.54-3.979-21.979C119.811,18.502,123.321,10.823,130.292,7.982
		 M133.411,13.073c-6.699,2.12-9.069,10.13-9,16.47c0.291,6.08,0.511,13.59,6.07,17.41c4.721,2.93,11.18,0.08,12.98-4.98
		c2.73-7.07,3.029-15.16,1.07-22.46C143.431,14.712,138.151,11.623,133.411,13.073z"/>
	<path d="M50.931,16.002c15.01,0.54,30.21,0.3,44.84-3.52c0,2.68,0,5.35,0,8.03c0.96,0.99,1.921,1.98,2.88,2.98
		c-14.63,3.4-29.72,4.05-44.689,3.94c-12.24,22.89-24.33,45.86-36.71,68.68c17.31,2.67,35.34,4.571,52.51,0.149
		c3.52-1.31,8.4-1.989,9.56-6.2c5.32-12.59,11.03-25,16.19-37.649c0.03,0.44,0.09,1.33,0.13,1.77c0.95,0.98,1.9,1.97,2.83,2.98
		c2.35,0.34,4.73,0.42,7.109,0.43c-2.649,5.91-5.199,11.86-7.789,17.8c-1.551,4.131-5.69,6.291-8.33,9.62
		c-4.811,5.25-7.09,12.091-9.2,18.72c-17.47,8.76-37.74,6.01-56.54,5.291c18.1,6.6,37.54,7.689,56.62,8.139
		c0.75,3.75,1.79,7.451,3.39,10.941c-18.18,0.18-36.41-1.432-54.19-5.281c18.72,8.371,39.21,11.58,59.43,13.92
		c4.02,3.611,7.609,8.701,13.24,9.631c0.1,0.24,0.32,0.699,0.42,0.93c-2.09,0.92-4.4,0.689-6.61,0.459
		c-21.85-2.02-43.95-4.93-64.55-12.889c-8.89-3.561-18.03-7.939-23.85-15.871c-5.36-6.439-5.95-16.309-1.76-23.479
		c12.97-25,25.94-49.99,38.89-75C45.851,18.123,47.921,15.413,50.931,16.002z"/>
	<path d="M129.981,32.433c2.49,0.88,4.971,2.18,5.35,5.1c-0.979,1-0.81,4.47-2.77,3.67C130.931,38.563,130.25,35.482,129.981,32.433
		z"/>
	<path d="M64.431,35.083c4.53-2.26,12.34-3.07,14.9,2.4c0.6,5.15-1.91,10.35-5.79,13.66c-1.02,0.88-2.11,3.23-0.18,3.75
		c3.14,0.54,6.639,0.07,9.26,2.25c0.109,6.19-4.771,11.35-10.021,13.97c-10.58,4.77-22.5,4.59-33.83,3.67
		c2.78-5.01,5.62-9.98,8.2-15.1c2.21-4.3,7.6-4.91,11.87-5.5c2.12-0.31,2.48-2.81,3.36-4.37
		C57.111,45.712,60.711,38.732,64.431,35.083z"/>
	<path d="M102.301,41.493c-2.35,3.23-2.78-3.06-0.15-2.57C102.181,39.563,102.261,40.842,102.301,41.493z"/>
	<path d="M120.931,57.502c0.399-0.43,1.2-1.29,1.601-1.72c5.85,4.32,13.629,3.2,20.379,2.43c-0.75,5.64-4.279,10.35-6.049,15.67
		c-3.471-1.32-7.031-2.39-10.69-2.97c0.979-2.181,1.95-4.351,2.92-6.53c-1.88-0.49-3.75-1.02-5.601-1.59
		c-1.39,2.47-2.629,5.02-3.77,7.609c-4.7,0.371-9.391,1.121-13.82,2.83c2.25-5.319,4.94-10.43,7.32-15.689
		C115.792,57.552,118.362,57.533,120.931,57.502z"/>
	<path d="M113.5,76.443c14.931-3.19,31.381,4.609,38.201,18.3c5.609,10.419,5.359,23.73-0.711,33.91
		c-6.969,12.48-22.08,19.66-36.16,17.211c-16.42-2.381-29.729-17.68-29.609-34.311C84.671,95.042,97.292,79.472,113.5,76.443
		 M104.532,85.103c3.969-2.761,9.119-1.61,13.039-4.381c2.57,2.28,6.11-0.789,8.631,1.87c-0.41,1.49-0.83,2.98-1.25,4.48
		c0.779,0.329,2.34,1,3.119,1.329c-1.57,0.851-4.789,1.23-3.75-1.829c-2.5,0.819-4.84,2.03-6.64,3.979
		c-2.56-1.39-1.01-3.85,0.271-5.52c-1.951-1.86-4.94-1.21-3.121,1.96c-0.899,1.02-2.069,2.02-3.51,1.39
		c0.08-0.92,0.271-1.83,0.57-2.73c-2.25,2.16-8.13,1.841-7.63,5.69c1.649-0.87,3.26-1.84,4.989-2.56
		c1.851,0.21,1.91,2.71,2.861,3.96c0.689,3.53-2.121,3.01-2.82,0.45c-0.541,0.449-1.62,1.34-2.16,1.789
		c0.48,1.011,2.52,2.94-1.04,1.9c-3.75,0.21-6.04,3.78-8.71,5.971c-2.71,3.85,2,7.539,5.67,7.639c0.33,2.061,0.67,4.121,1.17,6.15
		c2.529,0.689,4.41,2.471,6.08,4.41c2.26,0.35,4.43,1.1,6.449,2.18c-1.889,2.939-0.579,7.311-3.729,9.359
		c0.03,1.852-0.239,3.691-0.81,5.451c1.56,1.6,3.42,3.049,5.67,3.449c10.43,1.25,21.54-3.619,27.07-12.689
		c-3.61,2.689-6.44,6.811-11.211,7.49c1.07-5.02,5.4-9.93,3.551-15.051c0.17-0.52,0.52-1.559,0.689-2.08
		c-3.029-2.859-7.68,1.1-10.4-2.24c-5.029-4.488-1.25-11.84,3.121-15.299c-0.621-1.51-1.021-3.07-1.19-4.69
		c0.58-0.061,1.739-0.181,2.319-0.24c-0.92-2.61-4.869-3.931-1.51-6.711c1.23,1.19,2.49,2.341,3.961,3.25
		c-0.34-1.43-0.971-2.72-1.91-3.85c0.459-1.27,0.939-2.55,1.42-3.81c1.55,0.26,3.109,0.51,4.68,0.75
		c-2.189-1.771-4.689-3.08-7.189-4.32c0.18,0.69,0.539,2.07,0.719,2.76c-0.569-0.26-1.719-0.8-2.289-1.069
		c0.029-0.521,0.09-1.58,0.119-2.11C121.471,79.652,111.581,79.542,104.532,85.103 M137.181,90.762
		C137.741,91.323,137.741,91.323,137.181,90.762 M145.351,97.613C144.401,93.863,141.721,99.813,145.351,97.613 M133.161,100.943
		c2.11-0.561,4.961-0.08,6.33-2.121c-0.689,0.16-2.08,0.5-2.77,0.67c-0.2-0.549-0.59-1.66-0.779-2.209
		C134.952,98.453,134.021,99.672,133.161,100.943 M139.051,102.232c2.59,0.49,5.23,0.529,7.85,0.32c-1.529-2.01-4.58-0.84-6.17-2.9
		C140.311,100.293,139.471,101.592,139.051,102.232 M91.961,103.992c-0.73,1.781-1.59,3.621-1.23,5.611l1.26-1.891
		c1.61,2.279,1.971,5.15,2.76,7.77c0.99-0.799,2-1.59,3.011-2.359c1.42,0.75,2.92,1.33,4.5,1.67c-0.16-0.939-0.47-2.83-0.62-3.77
		c-2-0.182-4.01-0.25-6.01-0.09c-0.53-0.391-1.59-1.16-2.11-1.551c0.14-0.699,0.44-2.1,0.58-2.801l1.58,1.191
		c-0.16-0.99-0.5-2.961-0.66-3.951C94.25,103.873,92.721,103.953,91.961,103.992 M89.821,111.133
		c-0.26,13.49,9.561,25.879,22.381,29.561c-3.41-3.131-6.721-6.352-9.49-10.07c-3.811-3.4-8.711-7.33-7.26-13.121
		C92.981,115.953,91.731,113.223,89.821,111.133 M146.231,126.563c2.48-1.41,3.07-4.459,3.67-7.01
		C148.171,121.592,146.891,123.973,146.231,126.563z"/>
	<path d="M67.681,81.333c2.31-2.351,5.3-3.75,8.39-4.79c-1.94,4.53-3.44,12.84-10.11,11.58c-1.04-1.12-2.12-2.2-3.24-3.23
		c-2.55,2.19-4.47,4.99-6.84,7.351c-1.39-1.03-2.29-2.46-2.9-4.03c-3.45-1.21-5.1,2.23-6.97,4.391c-1.78-1.11-2.09-3.19-3.15-4.801
		c-4.83-1.449-6.59,6.25-11.42,3.131c1.88-3.9,3.09-8.11,5.38-11.801c2.02,0.32,4.03,0.73,6.05,1.1c-0.07,1.961-1.59,4.4,0.05,6.08
		c2.67,0.631,3.65-2.27,4.97-3.939c1.14-2.2,3.95-1.74,5.94-1.21c-0.1,1.569-0.16,3.14-0.16,4.72c2.8-0.59,3.61-3.529,5.36-5.37
		c2.03-0.86,4.26-1.05,6.41-1.439C65.241,80.232,66.111,83.382,67.681,81.333z"/>
</g>
</svg>
