<?xml version="1.0" encoding="utf-8"?>
<!DOCTYPE svg PUBLIC "-//W3C//DTD SVG 1.1//EN" "http://www.w3.org/Graphics/SVG/1.1/DTD/svg11.dtd">
<svg version="1.1" xmlns="http://www.w3.org/2000/svg" xmlns:xlink="http://www.w3.org/1999/xlink" x="0px" y="0px"
	 width="150px" height="150px" viewBox="5.083 0.417 150 150" enable-background="new 5.083 0.417 150 150" xml:space="preserve">
<g>
	<path d="M55.179,15.902c23.23,1.05,47.899-0.83,68.24-13.12c3.979-0.68,8.489,3.34,6.75,7.4c-3,7.02-6.11,14-9.25,20.96
		c4.63,1.26,9.45,1.43,14.21,1.74c2.47,0.18,3.84,2.34,4.5,4.5c-2.45,5.21-4.91,10.41-7.36,15.62c3.71,0.73,7.5,0.66,11.229,1.16
		c3.721,0.89,4.25,5.48,2.57,8.37c-4.07,8.58-7.51,17.48-11.84,25.92c-4.65,2.96-10.609,3.83-14.369,8.16
		c2.709-11.38,9.229-21.48,13.489-32.35c-1.92-0.48-3.84-0.99-5.739-1.53c-3.9,7.69-7.341,15.59-11.16,23.31
		c-6.971,0.26-12.121,5.44-17.121,9.681c8.44-17.62,16.711-35.32,25.061-52.97c-2.439-0.61-4.87-1.27-7.27-2
		c-8.101,18.51-16.18,37.04-24.28,55.56c-2.16,4.771-7.32,7.04-11.82,9.06c-16.98,6.429-35.43,4.401-53.12,3.5
		c19.65,6.98,40.86,8.439,61.56,7.779c2.24-4.68,4.71-9.279,6.39-14.208c-1.33,5.51,3.82,8.289,8,10.15
		c-1.95,4.148-3.739,8.379-5.94,12.41c-1.02,2.129-3.39,3.158-5.67,3c-19.62,0.26-39.379-0.961-58.54-5.4
		c19.84,9.1,41.77,11.99,63.25,14.51c0.76,1.99,1.39,4.119,2.83,5.76c3.319,0.789,6.789,0.609,10.18,0.881
		c-1.41,2.93-4.43,4.68-7.7,4.068c-24.88-2.25-50.32-5.379-73.23-15.959c-8.94-4.041-17.74-10.561-20.98-20.189
		c-0.93-4.93-1.08-10.43,1.39-14.96c13.2-25.459,26.42-50.899,39.6-76.359C50.159,17.982,52.189,15.342,55.179,15.902
		 M58.239,27.302c-12.27,22.9-24.36,45.89-36.73,68.73c12.79,2.07,25.76,3.32,38.72,2.45c7.53-0.8,15.62-1.649,22.01-6.01
		c10.98-24.091,21.16-48.59,31.88-72.82C96.379,26.602,77.069,27.452,58.239,27.302z"/>
	<path d="M66.459,49.812c-5.78-5.05-0.43-15.9,6.65-16.25c3.72-0.6,8.91-0.3,10.459,3.85c0.61,4.89-1.709,9.85-5.27,13.14
		c-0.88,0.98-2.55,2.58-1.34,3.93c3.26,1.02,6.97,0.42,9.96,2.42c0.04,6.52-5.12,11.899-10.77,14.45
		c-10.45,4.39-22.05,4.24-33.15,3.33c3.16-5.36,5.91-10.96,9.02-16.33C55.549,52.912,64.919,56.962,66.459,49.812z"/>
	<path d="M70.139,82.301c3.14-2.39,6.4-4.75,10.25-5.869c-1.27,3.64-2.95,7.09-4.75,10.49c-1.68,0.729-3.45,1.209-5.29,1.25
		c-1.12-1.16-2.27-2.301-3.43-3.42c-2.42,2.379-4.57,5-6.85,7.5c-1.2-1.261-2.18-2.711-3.01-4.23c-3.3-0.891-4.89,2.25-6.71,4.32
		c-0.5-0.391-1.5-1.17-2-1.561c-0.52-1.21-0.29-3.42-2.22-3.15c-4.16-0.34-5.96,5.971-10.42,3.28c1.73-4,3.19-8.14,5.34-11.939
		c2.04,0.42,4.09,0.81,6.13,1.239c-0.07,1.9-1.73,4.41,0,5.961c2.65,0.699,3.59-2.32,5-3.891c1.12-2.24,3.84-1.52,5.85-1.42
		c-0.06,1.67-0.1,3.35-0.13,5.03c2.63-0.9,3.71-3.53,5.41-5.46c2.05-0.881,4.31-1.08,6.48-1.5
		C69.879,79.772,70.049,81.452,70.139,82.301z"/>
	<path d="M105.189,99.352c3.209-2.32,6.039-6.54,10.539-5.38c-0.15,2.5-0.43,4.989-0.43,7.489c0.77,10.871-2.21,21.689-0.53,32.55
		c1.54-0.041,3.08-0.08,4.63-0.121c1.33,1.441,2.07,4.301-0.18,5.291c-5,0.5-10.07,0.359-15.07,0.1
		c-2.15,0.209-2.8-2.109-2.279-3.791c1.779-2.08,4.779-1.359,7.17-1.639c-1.37-10.18,0.459-20.371,0.83-30.55
		c-2.141,1.011-5.051,4.531-7.25,1.781C100.549,102.833,103.669,100.742,105.189,99.352z"/>
	<path d="M131.559,94.881c5.08-1.879,11.43-1.06,15.26,2.98c4.801,4.83,6.201,11.991,5.881,18.58
		c-0.291,6.391-0.931,13.23-4.771,18.58c-5.399,7.76-18.851,7.68-23.771-0.59c-3.92-6.521-4.629-14.551-3.979-21.99
		C121.078,105.392,124.578,97.692,131.559,94.881 M134.619,99.982c-6.67,2.14-9.03,10.121-8.961,16.44
		c0.281,6.09,0.521,13.629,6.09,17.439c4.73,2.93,11.191,0.049,12.971-5.02c2.71-7.01,2.98-15.01,1.12-22.259
		C144.779,101.692,139.439,98.472,134.619,99.982z"/>
</g>
</svg>
