<?xml version="1.0" encoding="utf-8"?>
<!DOCTYPE svg PUBLIC "-//W3C//DTD SVG 1.1//EN" "http://www.w3.org/Graphics/SVG/1.1/DTD/svg11.dtd">
<svg version="1.1" xmlns="http://www.w3.org/2000/svg" xmlns:xlink="http://www.w3.org/1999/xlink" x="0px" y="0px"
	 width="150px" height="150px" viewBox="-1.583 0.083 150 150" enable-background="new -1.583 0.083 150 150" xml:space="preserve">
<g>
	<path d="M118.867,3.15c3.979-2.77,9.72,2.35,7.69,6.61c-2.75,7.14-6.391,13.91-8.99,21.11c6.05,2.4,15.6-1.45,18.59,5.95
		c-2.51,5.19-4.961,10.4-7.32,15.66c5.439,0.88,17.471-0.32,13.99,8.78c-12.2,27.4-24.45,54.79-36.74,82.141
		c-1.6,4.92-7.43,4.119-11.449,3.64c-25.911-2.681-52.801-6.09-75.811-19.16c-10.54-5.89-19-18.899-13.25-30.94
		c13.51-26.109,26.98-52.259,40.66-78.29c2.03-4.52,7.53-2.84,11.43-3.06C78.626,16.45,100.276,13.32,118.867,3.15 M54.687,26.9
		c-12.26,22.81-24.31,45.741-36.63,68.52c16.7,3.01,34.13,4.45,50.82,0.73c4.1-1.311,9.61-2.061,11.19-6.75
		c9.89-23.301,20.47-46.311,30.01-69.74C92.327,25.93,73.356,27.04,54.687,26.9 M113.436,40.38c-7.75,18.29-15.91,36.4-23.76,54.64
		c-2.119,5.45-7.8,8.08-12.859,10.15c-16.771,6.04-34.88,4.24-52.28,3.17c19.51,7.27,40.73,8.391,61.351,7.91
		c11.67-24.641,23.42-49.25,34.859-73.99C118.307,41.65,115.867,41.02,113.436,40.38 M123.966,62.27
		c-9.399,19.93-18.92,39.8-28.26,59.76c-1.19,2.569-2.95,5.659-6.229,5.5c-19.701,0.39-39.59-0.83-58.82-5.341
		c20.69,9.631,43.86,12.65,66.38,14.511c10.61-24.39,21.93-48.47,32.69-72.79C127.807,63.36,125.887,62.82,123.966,62.27z"/>
	<path d="M62.827,49.44c-8.32-9.26,7.06-22.33,15.89-14.49c4.38,6.81-2.8,13.41-6.3,18.85c3.75,0.74,7.65,1.04,11.13,2.76
		c-0.521,6.68-5.53,12.24-11.61,14.64c-10.25,4.03-21.54,4.03-32.35,2.92c5.13-8.91,8.53-21.52,21.24-20.94
		C61.537,51.96,62.126,50.67,62.827,49.44z"/>
	<path d="M67.396,81.5c2.67-2.52,5.88-4.33,9.36-5.46c-1.26,3.66-2.94,7.149-4.68,10.61c-1.8,0.42-3.62,0.8-5.44,1.13
		c-1.03-1.14-2.06-2.261-3.09-3.38c-2.46,2.319-4.74,4.81-7.05,7.27c-1.02-1.24-2.03-2.49-3.03-3.75
		c-0.71-0.12-2.12-0.359-2.83-0.48c-1.28,1.44-2.55,2.871-3.84,4.311c-0.58-0.41-1.75-1.22-2.34-1.62
		c-0.09-0.76-0.26-2.29-0.35-3.05c-4.68-0.63-7.16,5.23-11.9,3.47c1.58-4.08,3.21-8.149,5.26-12.02c2.04,0.43,4.08,0.88,6.12,1.34
		c-0.33,1.85-0.66,3.7-0.98,5.55c3.75,1.21,5.24-3,7.46-5.109c1.45,0,2.9,0.119,4.36,0.14c0.06,1.7,0.15,3.39,0.25,5.09
		c3.23-3.149,5.91-7.229,11.02-7.09C66.256,79.47,66.827,80.48,67.396,81.5z"/>
</g>
</svg>
