<?xml version="1.0" encoding="utf-8"?>
<!DOCTYPE svg PUBLIC "-//W3C//DTD SVG 1.1//EN" "http://www.w3.org/Graphics/SVG/1.1/DTD/svg11.dtd">
<svg xmlns="http://www.w3.org/2000/svg" version="1.1" height="640" width="640" y="0" x="0" viewBox="0 -32 640 640" >
    <g transform="matrix(1,0,0,-1,0,575.97732)">
        <path d="M 520.00,568.00L 120.00,568.00 L0.00,448.00l0.00-420.00 c0.00-11.046, 8.954-20.00, 20.00-20.00l 600.00,0.00 c 11.045,0.00, 20.00,8.954, 20.00,20.00L 640.00,448.00 L 520.00,568.00z M 400.00,208.00l0.00-120.00 L 240.00,88.00 l0.00,120.00 L 120.00,208.00 l 200.00,160.00l 200.00-160.00L 400.00,208.00 z M 96.569,488.00l 40.00,40.00l 366.86,0.00 l 40.00-40.00L 96.569,488.00 z" />
    </g>
</svg>
