<?xml version="1.0" encoding="utf-8"?>
<!DOCTYPE svg PUBLIC "-//W3C//DTD SVG 1.1//EN" "http://www.w3.org/Graphics/SVG/1.1/DTD/svg11.dtd">
<svg xmlns="http://www.w3.org/2000/svg" version="1.1" height="640" width="640" y="0" x="0" viewBox="0 -32 640 640" >
    <g transform="matrix(1,0,0,-1,0,575.97732)">
        <path d="M 600.00,448.00L 440.00,448.00 L 440.00,488.00 c0.00,22.00-18.00,40.00-40.00,40.00L 240.00,528.00 c-22.003,0.00-40.00-18.00-40.00-40.00l0.00-40.00 L 40.00,448.00 c-22.00,0.00-40.00-18.00-40.00-40.00l0.00-360.00 c0.00-22.001, 17.997-40.00, 40.00-40.00l 560.00,0.00 c 22.00,0.00, 40.00,17.999, 40.00,40.00L 640.00,408.00 C 640.00,430.00, 622.00,448.00, 600.00,448.00z M 240.00,487.927c 0.021,0.025, 0.046,0.051, 0.071,0.073l 159.857,0.00 c 0.026-0.021, 0.051-0.048, 0.074-0.073L 400.002,448.00 L 240.00,448.00 L 240.00,487.927 z M 600.00,288.00l-80.00,0.00 l0.00-60.00 c0.00-11.001-9.00-20.00-20.00-20.00l-40.00,0.00 c-11.002,0.00-20.00,8.999-20.00,20.00l0.00,60.00 L 200.00,288.00 l0.00-60.00 c0.00-11.001-9.00-20.00-20.00-20.00l-40.00,0.00 c-11.001,0.00-20.00,8.999-20.00,20.00l0.00,60.00 L 40.00,288.00 l0.00,40.00 l 560.00,0.00 L 600.00,288.00 z" />
    </g>
</svg>
