<?xml version="1.0" encoding="utf-8"?>
<!DOCTYPE svg PUBLIC "-//W3C//DTD SVG 1.1//EN" "http://www.w3.org/Graphics/SVG/1.1/DTD/svg11.dtd">
<svg version="1.1" id="Camada_1" xmlns="http://www.w3.org/2000/svg" xmlns:xlink="http://www.w3.org/1999/xlink" x="0px" y="0px"
	 width="2106px" height="2106px" viewBox="0 0 2106 2106" enable-background="new 0 0 2106 2106" xml:space="preserve">
<g>
	<polygon points="871.428,925.253 1052.103,730.124 898.897,641.265 975.5,426.776 745.691,674.97 898.897,763.829 841.246,925.253 
			"/>
	<path d="M199.305,318.584h1404.366l2.392,417.523l199.113-1.5V217.832c0-13.708-2.57-26.559-7.711-38.553
		c-5.141-11.994-12.337-22.618-21.59-31.871c-9.253-9.253-20.048-16.449-32.385-21.59c-12.337-5.141-25.36-7.711-39.067-7.711H99.58
		c-13.708,0-26.73,2.57-39.067,7.711c-12.337,5.14-23.132,12.337-32.385,21.59c-9.253,9.253-16.449,19.876-21.59,31.871
		c-5.141,11.994-7.711,24.845-7.711,38.553v1003.413c0,28.786,9.767,52.775,29.3,71.966c19.534,19.191,43.351,28.786,71.452,28.786
		h452.588l0.667-200.477H199.305V318.584z"/>
	<path d="M2019.288,1021.158h-351.541v-87.885c0-48.337-39.548-87.885-87.885-87.885h-351.541
		c-48.343,0-87.885,39.548-87.885,87.885v87.885h-351.54c-48.337,0-87.885,39.548-87.885,87.885v790.966
		c0,48.339,39.542,87.885,87.885,87.885h1230.392c48.337,0,87.885-39.546,87.885-87.885v-790.966
		C2107.173,1060.706,2067.625,1021.158,2019.288,1021.158z M1228.322,933.433c0.046-0.055,0.101-0.112,0.156-0.16h351.226
		c0.057,0.046,0.112,0.105,0.163,0.16v87.725h-351.545L1228.322,933.433L1228.322,933.433z M2019.288,1372.698h-175.77v131.828
		c0,24.171-19.774,43.943-43.942,43.943h-87.885c-24.173,0-43.943-19.772-43.943-43.943v-131.828h-527.311v131.828
		c0,24.171-19.774,43.943-43.943,43.943h-87.885c-24.171,0-43.943-19.772-43.943-43.943v-131.828h-175.77v-87.885h1230.392V1372.698
		z"/>
</g>
</svg>
