<?xml version="1.0" encoding="utf-8"?>
<!DOCTYPE svg PUBLIC "-//W3C//DTD SVG 1.1//EN" "http://www.w3.org/Graphics/SVG/1.1/DTD/svg11.dtd">
<svg xmlns="http://www.w3.org/2000/svg" version="1.1" height="640" width="640" y="0" x="0" viewBox="0 -32 640 640" >
    <g transform="matrix(1,0,0,-1,0,575.97732)">
        <path d="M 640.00,339.715c0.00,125.579-36.745,227.461-82.176,228.266c 0.182,0.004, 0.361,0.019, 0.545,0.019l-51.839,0.00 c0.00,0.00-121.75-91.46-297.019-127.346c-5.35-28.308-8.769-62.046-8.769-100.939c0.00-38.892, 3.416-72.63, 8.769-100.938c 175.267-35.886, 297.019-127.347, 297.019-127.347l 51.839,0.00 c-0.182,0.00-0.361,0.015-0.545,0.02C 603.259,112.255, 640.00,214.136, 640.00,339.715z M 540.515,145.968c-5.864,0.00-12.207,6.089-15.466,9.717c-7.894,8.79-15.495,22.475-21.992,39.58c-14.535,38.27-22.541,89.569-22.541,144.452c0.00,54.881, 8.006,106.181, 22.541,144.451c 6.496,17.105, 14.101,30.791, 21.992,39.58c 3.259,3.633, 9.603,9.72, 15.466,9.72c 5.863,0.00, 12.21-6.09, 15.465-9.72c 7.896-8.79, 15.497-22.474, 21.992-39.58c 14.536-38.269, 22.542-89.57, 22.542-144.451c0.00-54.877-8.006-106.18-22.542-144.452c-6.494-17.105-14.101-30.79-21.992-39.58C 552.725,152.056, 546.38,145.968, 540.515,145.968z M 157.382,339.715c0.00,32.469, 2.381,64.019, 6.907,93.184c-29.608-4.096-55.589-6.452-87.713-6.452c-41.911,0.00-41.911,0.00-41.911,0.00L0.00,367.267l0.00-55.106 l 34.663-59.179c0.00,0.00,0.00,0.00, 41.913,0.00c 32.124,0.00, 58.105-2.359, 87.713-6.452C 159.765,275.695, 157.382,307.246, 157.382,339.715z M 230.094,206.642l-79.999,15.319l 51.151-200.965c 2.647-10.396, 12.965-15.649, 22.929-11.659l 74.097,29.657c 9.965,3.985, 13.955,14.977, 8.873,24.428L 230.094,206.642zM 540.515,265.044c-2.261,0.00-4.705,2.346-5.961,3.745c-3.044,3.388-5.972,8.662-8.476,15.255c-5.601,14.75-8.688,34.521-8.688,55.674c0.00,21.152, 3.086,40.924, 8.688,55.674c 2.504,6.593, 5.435,11.867, 8.476,15.255c 1.256,1.40, 3.70,3.746, 5.961,3.746c 2.26,0.00, 4.706-2.347, 5.961-3.746c 3.044-3.388, 5.972-8.661, 8.475-15.255c 5.603-14.749, 8.689-34.521, 8.689-55.674c0.00-21.151-3.086-40.924-8.689-55.674c-2.502-6.593-5.435-11.867-8.475-15.255C 545.221,267.39, 542.776,265.044, 540.515,265.044z" />
    </g>
</svg>
