<?xml version="1.0" encoding="utf-8"?>
<!DOCTYPE svg PUBLIC "-//W3C//DTD SVG 1.1//EN" "http://www.w3.org/Graphics/SVG/1.1/DTD/svg11.dtd">
<svg xmlns="http://www.w3.org/2000/svg" version="1.1" height="640" width="640" y="0" x="0" viewBox="0 -32 640 640" >
    <g transform="matrix(1,0,0,-1,0,575.97732)">
        <path d="M 614.42,472.52l-183.94-185.06l 183.94-183.96c 7.70-7.68, 7.70-20.14,0.00-27.84l-83.52-83.50c-7.66-7.70-20.12-7.70-27.82,0.00l-183.64,183.64l-182.54-183.64c-7.68-7.70-20.14-7.70-27.84,0.00l-83.50,83.50c-7.68,7.70-7.68,20.16,0.00,27.84l 182.54,183.64L 25.58,469.66c-7.68,7.68-7.68,20.14,0.00,27.84l 83.50,83.50c 7.68,7.70, 20.14,7.70, 27.84,0.00l 182.20-182.20l 183.98,185.06c 7.70,7.70, 20.16,7.70, 27.82,0.00l 83.52-83.50C 622.10,492.66, 622.10,480.20, 614.42,472.52z" />
    </g>
</svg>
