<?xml version="1.0" encoding="utf-8"?>
<!DOCTYPE svg PUBLIC "-//W3C//DTD SVG 1.1//EN" "http://www.w3.org/Graphics/SVG/1.1/DTD/svg11.dtd">
<svg xmlns="http://www.w3.org/2000/svg" version="1.1" height="640" width="640" y="0" x="0" viewBox="0 -32 640 640" >
    <g transform="matrix(1,0,0,-1,0,575.97732)">
        <path d="M 265.44,64.00c-13.92,0.00-27.104,6.496-35.552,17.696L 115.52,232.672c-14.88,19.648-11.008,47.616, 8.64,62.496c 19.68,14.912, 47.616,11.008, 62.496-8.64l 75.232-99.328l 189.184,303.712c 13.024,20.896, 40.544,27.296, 61.472,14.272c 20.896-12.992, 27.296-40.544, 14.24-61.44L 303.328,85.024c-7.776-12.512-21.184-20.352-35.872-20.992C 266.784,64.00, 266.112,64.00, 265.44,64.00z" />
    </g>
</svg>
