<?xml version="1.0" encoding="utf-8"?>
<!DOCTYPE svg PUBLIC "-//W3C//DTD SVG 1.1//EN" "http://www.w3.org/Graphics/SVG/1.1/DTD/svg11.dtd">
<svg version="1.1" xmlns="http://www.w3.org/2000/svg" xmlns:xlink="http://www.w3.org/1999/xlink" x="0px" y="0px"
	 width="174px" height="174px" viewBox="-2 -2 174 174" enable-background="new -2 -2 174 174" xml:space="preserve">
<g>
	<path d="M130.828,7.899c15.89-3.51,30.71,14.29,24.271,29.28c-4.94,15.83-28.48,19.33-37.973,5.8
		C106.898,30.79,114.988,9.87,130.828,7.899 M123.628,17.779c1.291,1.42,2.562,2.9,3.24,4.72c-1.449-1.24-2.82-2.57-4.181-3.91
		c-2.271,2.8-3.83,6.12-4.17,9.74c2.448-0.021,4.899,0.28,7.18,1.229c-2.271,0.96-4.729,1.21-7.159,1.17
		c0.312,3.89,2.03,7.47,4.79,10.22c1.449-1.51,2.99-3,5-3.76c-1.329,1.6-2.78,3.08-4.239,4.55c2.67,2.13,5.83,3.54,9.261,3.74
		c0.42-2.24-0.711-5.59,1.938-6.67c0.131,2.14,0.17,4.29,0.19,6.44c3.608,0.32,6.879-1.46,9.629-3.62
		c-1.392-1.46-2.76-2.93-4.01-4.51c1.909,0.8,3.42,2.24,4.811,3.73c2.619-2.79,4.33-6.3,4.601-10.14
		c-1.95-0.08-3.891-0.15-5.829-0.25c-0.011-0.46-0.021-1.37-0.031-1.83c1.961-0.09,3.92-0.16,5.881-0.23
		c-0.312-3.42-1.631-6.63-3.801-9.29c-1.479,1.46-2.959,2.91-4.56,4.24c0.761-2.01,2.261-3.55,3.771-5.01
		c-2.75-2.75-6.34-4.49-10.239-4.78c-0.091,1.95-0.171,3.89-0.261,5.84c-0.461,0.01-1.381,0.02-1.83,0.03
		c-0.09-1.93-0.149-3.85-0.211-5.77C129.718,13.729,126.368,15.41,123.628,17.779z"/>
	<path d="M24.528,8.549c24.71,0,49.42,0,74.13,0c4.199,4.07,8.119,8.43,12.229,12.59c-6.029,15.61,7,33.87,23.641,33.53
		c0,35.29,0,70.59,0,105.879c-36.67,0-73.33,0-110,0C24.528,109.879,24.528,59.219,24.528,8.549 M90.818,21.52
		c1.869,1.7,3.75,3.39,5.629,5.09c1.531-1.54,3.062-3.09,4.601-4.63c-1.858-1.68-3.72-3.36-5.569-5.05
		C93.93,18.459,92.368,19.99,90.818,21.52 M53.898,63.049c-4.96,2.65-8.39,7.25-11.01,12.11c-0.76-1.41-1.52-2.82-2.28-4.23
		c-1.64,0.88-3.28,1.76-4.93,2.64c2.82,1.56,5.35,3.56,7.58,5.87c2.8-3.76,5.9-7.41,9.97-9.85c-0.13-1.87-0.21-3.75-0.27-5.62
		c18.41-6.03,28.4-24.56,42.729-36.59c-0.84-0.68-1.67-1.36-2.5-2.04c-8.879,8.75-17.741,17.52-26.661,26.23
		c-0.34-0.33-1.02-1-1.36-1.34c8.9-8.67,17.74-17.4,26.608-26.1c-0.408-0.49-1.229-1.48-1.639-1.97
		C78.318,35.959,60.948,45.839,53.898,63.049 M34.188,67.209c-1.02,5.15-1.01,10.53,0,15.69c4.82,0.98,9.85,0.99,14.68,0
		c0.62-2.78,0.79-5.63,0.68-8.47c-0.66,0.69-1.31,1.39-1.97,2.08c-0.07,1.64-0.14,3.27-0.21,4.91c-3.9,0.19-7.8,0.19-11.69-0.01
		c-0.22-4.24-0.21-8.48-0.02-12.72c3.17-0.13,6.34-0.19,9.51-0.13c0.43-0.5,1.29-1.51,1.72-2.01
		C42.648,66.56,38.358,66.229,34.188,67.209 M58.528,71.549c0,1.33,0,2.67,0,4c22,0,44,0,66,0c0-1.33,0-2.67,0-4
		C102.527,71.549,80.528,71.549,58.528,71.549 M34.188,88.199c-1.02,5.16-1.01,10.541,0,15.699c4.83,0.98,9.85,0.99,14.68,0
		c1.02-5.158,1.02-10.539,0-15.699C44.038,87.209,39.019,87.209,34.188,88.199 M58.528,93.549c0,1.33,0,2.66,0,4c22,0,44,0,66,0
		c0-1.34,0-2.67,0-4C102.527,93.549,80.528,93.549,58.528,93.549 M42.888,117.158c-0.76-1.408-1.52-2.818-2.28-4.229
		c-1.64,0.879-3.28,1.76-4.93,2.639c2.82,1.563,5.35,3.563,7.58,5.871c2.8-3.76,5.9-7.408,9.97-9.852
		c-0.17-2.068-0.22-4.148-0.22-6.219C48.648,108.34,45.328,112.52,42.888,117.158 M34.188,109.209c-1.02,5.15-1.01,10.529,0,15.689
		c4.82,0.979,9.85,0.99,14.68,0c0.62-2.779,0.79-5.631,0.68-8.471c-0.66,0.689-1.31,1.391-1.97,2.08
		c-0.07,1.631-0.14,3.27-0.21,4.898c-3.89,0.211-7.79,0.199-11.69,0.012c-0.22-4.25-0.22-8.5-0.01-12.74
		c3.17-0.119,6.34-0.18,9.5-0.119c0.43-0.5,1.29-1.512,1.72-2.012C42.648,108.559,38.348,108.229,34.188,109.209 M58.528,114.549
		c0,1.33,0,2.66,0,4c22,0,44,0,66,0c0-1.34,0-2.67,0-4C102.527,114.549,80.528,114.549,58.528,114.549 M34.188,130.199
		c-1.02,5.16-1.02,10.539,0,15.699c4.83,0.979,9.85,0.99,14.68,0c1.02-5.16,1.02-10.539,0-15.699
		C44.038,129.209,39.019,129.209,34.188,130.199 M58.528,135.549c0,1.33,0,2.66,0,4c22,0,44,0,66,0c0-1.34,0-2.67,0-4
		C102.527,135.549,80.528,135.549,58.528,135.549z"/>
	<path d="M134.259,27.18c0.931-2.19,1.83-4.44,3.438-6.25c-0.399,2.36-1.159,4.63-2.159,6.8c0.29,0.41,0.86,1.24,1.142,1.66
		c-0.181,0.54-0.541,1.61-0.722,2.15c-0.8-0.03-2.41-0.07-3.209-0.09c-1.562,0.85-3.131,1.68-4.729,2.45
		c0.851-1.57,2.25-2.66,3.688-3.63C132.479,29.18,133.328,28.14,134.259,27.18z"/>
	<path d="M58.278,59.45c0.56-2.54,1.87-4.77,3.89-6.42c0.93,0.88,1.85,1.76,2.77,2.64C62.979,57.339,60.718,58.609,58.278,59.45z"/>
	<path d="M35.678,89.68c3.9-0.189,7.8-0.189,11.7,0c0.23,4.24,0.23,8.49,0,12.74c-3.9,0.189-7.81,0.199-11.71-0.01
		C35.459,98.17,35.448,93.92,35.678,89.68z"/>
	<path d="M35.678,131.68c3.9-0.189,7.81-0.201,11.71,0.021c0.21,4.229,0.22,8.479-0.01,12.721c-3.9,0.188-7.81,0.188-11.7-0.012
		C35.448,140.17,35.448,135.92,35.678,131.68z"/>
</g>
</svg>
