<?xml version="1.0" encoding="utf-8"?>
<!DOCTYPE svg PUBLIC "-//W3C//DTD SVG 1.1//EN" "http://www.w3.org/Graphics/SVG/1.1/DTD/svg11.dtd">
<svg xmlns="http://www.w3.org/2000/svg" version="1.1" height="640" width="640" y="0" x="0" viewBox="0 -32 640 640" >
    <g transform="matrix(1,0,0,-1,0,575.97732)">
        <path d="M 272.00,576.00L 243.232,576.00 C 236.16,576.00, 230.40,570.24, 230.40,563.20l0.00-121.60 L 117.248,441.60 c-5.28,0.00-11.84-1.216-18.112-3.136C 92.80,436.512, 86.752,433.824, 82.432,430.88l-76.00-52.16C 2.144,375.776,0.00,371.904,0.00,368.00s 2.144-7.776, 6.432-10.72l 76.00-52.16C 86.752,302.176, 92.80,299.488, 99.136,297.536C 105.408,295.616, 111.968,294.40, 117.248,294.40L 230.40,294.40 l0.00-281.60 c0.00-7.072, 5.76-12.80, 12.80-12.80L 272.00,0.00 c 7.072,0.00, 12.80,5.76, 12.80,12.80L 284.80,563.20 C 284.80,570.24, 279.072,576.00, 272.00,576.00z M 633.568,442.688l-76.00,52.16c-4.288,2.944-10.336,5.632-16.672,7.584C 534.592,504.384, 528.032,505.60, 522.752,505.60L 304.00,505.60 l 25.632-147.20l 193.12,0.00 c 5.28,0.00, 11.84,1.216, 18.144,3.136s 12.384,4.64, 16.672,7.552l 76.00,52.16C 637.888,424.224, 640.00,428.096, 640.00,432.00S 637.888,439.776, 633.568,442.688z" />
    </g>
</svg>
