<?xml version="1.0" encoding="utf-8"?>
<!DOCTYPE svg PUBLIC "-//W3C//DTD SVG 1.1//EN" "http://www.w3.org/Graphics/SVG/1.1/DTD/svg11.dtd">
<svg xmlns="http://www.w3.org/2000/svg" version="1.1" height="640" width="640" y="0" x="0" viewBox="0 -32 640 640" >
    <g transform="matrix(1,0,0,-1,0,575.97732)">
        <path d="M 620.736,370.752L 382.496,434.56L 340.80,590.144c-3.488,12.992-17.408,20.576-31.104,16.896L 19.296,529.248C 5.60,525.60-2.656,512.064, 0.80,499.072l 103.328-385.664c 3.488-12.992, 17.408-20.576, 31.072-16.896l 115.616,30.976l-15.776-58.816c-3.488-13.024, 4.768-26.528, 18.464-30.208l 259.52-69.536c 13.696-3.648, 27.616,3.904, 31.104,16.896l 95.072,354.752C 642.688,353.568, 634.432,367.104, 620.736,370.752z M 52.288,491.776l 250.528,67.072l 92.768-346.176l-250.56-67.072L 52.288,491.776z M 501.728,17.12l-218.08,59.648L 300.80,140.864l 124.832,33.44c 13.696,3.68, 21.984,17.184, 18.496,30.208l-48.256,180.064l 190.272-52.192L 501.728,17.12z" />
    </g>
</svg>
