<?xml version="1.0" encoding="utf-8"?>
<!DOCTYPE svg PUBLIC "-//W3C//DTD SVG 1.1//EN" "http://www.w3.org/Graphics/SVG/1.1/DTD/svg11.dtd">
<svg xmlns="http://www.w3.org/2000/svg" version="1.1" height="640" width="640" y="0" x="0" viewBox="0 -32 640 640" >
    <g transform="matrix(1,0,0,-1,0,575.97732)">
        <path d="M 120.00,288.00l 120.00,0.00 l0.00-40.00 L 120.00,248.00 L 120.00,288.00 z M 120.00,208.00l 120.00,0.00 l0.00-40.00 L 120.00,168.00 L 120.00,208.00 z M 120.00,128.00l 120.00,0.00 l0.00-40.00 L 120.00,88.00 L 120.00,128.00 z M 564.645,483.356l-89.29,89.289C 455.91,592.09, 417.50,608.00, 390.00,608.00L 90.00,608.00 C 62.50,608.00, 40.00,585.50, 40.00,558.00l0.00-540.00 c0.00-27.50, 22.50-50.00, 50.00-50.00l 460.00,0.00 c 27.50,0.00, 50.00,22.50, 50.00,50.00L 600.00,398.00 C 600.00,425.50, 584.09,463.911, 564.645,483.356z M 536.361,455.071c 1.956-1.956, 3.906-4.359, 5.80-7.071L 440.00,448.00 L 440.00,550.16 c 2.712-1.894, 5.115-3.844, 7.071-5.80L 536.361,455.071z M 560.00,18.00c0.00-5.42-4.58-10.00-10.00-10.00L 90.00,8.00 c-5.42,0.00-10.00,4.58-10.00,10.00L 80.00,558.00 c0.00,5.42, 4.58,10.00, 10.00,10.00l 300.00,0.00 c 3.02,0.00, 6.409-0.381, 10.00-1.065L 400.00,408.00 l 158.935,0.00 c 0.684-3.591, 1.065-6.979, 1.065-10.00L 560.00,18.00 zM 360.00,168.00 L 477.995,168.00 C 468.729,122.355 428.379,88.00 380.00,88.00 C 324.771,88.00 280.00,132.771 280.00,188.00 C 280.00,236.379 314.356,276.729 360.00,285.995 L 360.00,168.00 ZM 420.00,328.00 C 475.229,328.00 520.00,283.229 520.00,228.00 C 520.00,221.151 519.308,214.463 517.995,208.00 L 400.00,208.00 L 400.00,325.995 C 406.463,327.308 413.151,328.00 420.00,328.00 Z" />
    </g>
</svg>
