<?xml version="1.0" encoding="utf-8"?>
<!-- Generator: Adobe Illustrator 17.0.0, SVG Export Plug-In . SVG Version: 6.00 Build 0)  -->
<!DOCTYPE svg PUBLIC "-//W3C//DTD SVG 1.1//EN" "http://www.w3.org/Graphics/SVG/1.1/DTD/svg11.dtd">
<svg version="1.1" id="Camada_1" xmlns="http://www.w3.org/2000/svg" xmlns:xlink="http://www.w3.org/1999/xlink" x="0px" y="0px"
	 width="640px" height="640px" viewBox="0 0 640 640" enable-background="new 0 0 640 640" xml:space="preserve">
<g transform="matrix(1,0,0,-1,0,575.97732)">
	<path d="M535.146,439.105l-77.292,77.291C441.022,533.228,407.773,547,383.969,547H124.281C100.477,547,81,527.523,81,503.719
		V36.281C81,12.477,100.477-7,124.281-7h398.188c23.805,0,43.281,19.477,43.281,43.281v328.938
		C565.75,389.023,551.978,422.273,535.146,439.105z M510.663,414.621c1.693-1.693,3.381-3.773,5.021-6.121H427.25v88.432
		c2.348-1.639,4.428-3.327,6.121-5.021L510.663,414.621z M531.125,36.281c0-4.692-3.965-8.656-8.656-8.656H124.281
		c-4.692,0-8.656,3.965-8.656,8.656v467.438c0,4.692,3.965,8.656,8.656,8.656h259.688c2.614,0,5.548-0.33,8.656-0.922V373.875
		h137.578c0.592-3.108,0.922-6.041,0.922-8.656V36.281z"/>
</g>
</svg>
