<?xml version="1.0" encoding="utf-8"?>
<!-- Generator: Adobe Illustrator 17.0.0, SVG Export Plug-In . SVG Version: 6.00 Build 0)  -->
<!DOCTYPE svg PUBLIC "-//W3C//DTD SVG 1.1//EN" "http://www.w3.org/Graphics/SVG/1.1/DTD/svg11.dtd">
<svg version="1.1" id="Camada_1" xmlns="http://www.w3.org/2000/svg" xmlns:xlink="http://www.w3.org/1999/xlink" x="0px" y="0px"
	 width="156px" height="156px" viewBox="0 0 156 156" enable-background="new 0 0 156 156" xml:space="preserve">
<g>
	<path d="M28.209,6.052c31.441-0.909,62.977-0.114,94.456-0.398c13.884-0.474,26.668,11.648,26.744,25.579
		c0.027,30.305,0.009,60.619,0.009,90.924c-0.009,13.656-12.14,25.787-25.787,25.797c-30.627-0.019-61.254,0.048-91.871-0.037
		c-13.476-0.218-25.342-12.273-25.342-25.751c0-30.324-0.028-60.647,0.019-90.971C6.608,19.073,16.267,8.002,28.209,6.052
		 M34.828,9.452c0.009,8.05-0.009,16.099,0.009,24.149c8.76-0.009,17.51,0.009,26.27-0.009c0-8.05,0-16.09,0-24.14
		C52.348,9.452,43.588,9.452,34.828,9.452 M95.201,9.452c0,8.05,0,16.099,0,24.149c8.05,0,16.099,0,24.14-0.009
		c0.009-8.04,0.009-16.09,0.009-24.14C111.301,9.452,103.251,9.452,95.201,9.452 M10.215,37.389
		c0.009,28.269-0.047,56.528,0.028,84.797c0.123,11.742,10.711,22.037,22.435,21.98c30.305-0.019,60.619,0.019,90.924-0.019
		c11.601-0.179,21.827-10.398,22.009-21.999c0.037-28.25,0-56.5,0.019-84.749C100.486,37.435,55.35,37.465,10.215,37.389z"/>
	<path d="M74.84,55.382c1.998,0,3.996,0,5.995,0.009c0,2.557-0.009,5.114-0.028,7.671c3.741,0.455,7.511,1.203,10.816,3.116
		c-0.701,2.131-1.469,4.243-2.321,6.326c-5.624-3.807-18.352-5.209-18.258,4.356c2.955,9.319,16.639,7.642,20.645,16.563
		c5.019,8.702-1.496,20.021-11.175,21.232c0.019,2.814,0.009,5.625,0.009,8.438c-2.055,0-4.11,0-6.156,0
		c0.019-2.765-0.009-5.521-0.038-8.286c-4.328-0.179-8.552-1.43-12.207-3.769c0.805-2.035,1.544-4.11,2.15-6.221
		c6.269,4.101,19.035,6.402,20.977-3.362c-0.417-10.115-13.647-9.224-18.865-15.815c-7.557-7.463-1.572-20.929,8.457-22.227
		C74.832,60.732,74.84,58.052,74.84,55.382z"/>
</g>
</svg>
