<?xml version="1.0" encoding="utf-8"?>
<!DOCTYPE svg PUBLIC "-//W3C//DTD SVG 1.1//EN" "http://www.w3.org/Graphics/SVG/1.1/DTD/svg11.dtd">
<svg version="1.1" xmlns="http://www.w3.org/2000/svg" xmlns:xlink="http://www.w3.org/1999/xlink" x="0px" y="0px"
	 width="78px" height="78px" viewBox="4.266 0.348 78 78" enable-background="new 4.266 0.348 78 78" xml:space="preserve">
<rect x="6.448" y="3.104" width="5.813" height="73.501"/>
<path d="M43.104,76.512L60.823,39.48l18.375,37.125L43.104,76.512L43.104,76.512z M57.75,51.504l0.893,15.478l4.391,0.022
	l0.961-15.5H57.75L57.75,51.504z M58.476,73.796l0.094,0.096c1.218,1.218,3.191,1.218,4.41,0c1.218-1.22,1.218-3.191,0-4.409
	l-0.097-0.094c-1.218-1.22-3.189-1.22-4.407,0C57.258,70.605,57.258,72.578,58.476,73.796z"/>
<path d="M48.589,45.152c-8.94-7.472-23.666-9.391-33.983-2.11l0.094-36.563c12.524-7.506,20.272-4.389,33.795,1.922
	C49.045,8.659,48.588,44.87,48.589,45.152z"/>
<path d="M51.493,8.963L51.4,45.338l4.03,1.688l5.345-10.171l6.606,11.625c6.103,0.165,8.1-1.464,12.703-5.109L79.898,5.967
	C66.736,17.886,51.493,8.87,51.493,8.963z"/>
</svg>
