<?xml version="1.0" encoding="utf-8"?>
<!DOCTYPE svg PUBLIC "-//W3C//DTD SVG 1.1//EN" "http://www.w3.org/Graphics/SVG/1.1/DTD/svg11.dtd">
<svg version="1.1" id="Layer_1" xmlns="http://www.w3.org/2000/svg" xmlns:xlink="http://www.w3.org/1999/xlink" x="0px" y="0px"
	 width="173px" height="173px" viewBox="0.25 9 173 173" enable-background="new 0.25 9 173 173" xml:space="preserve">
<g>
	<path d="M94.366,28.757c20.141,0.04,40.271,0.01,60.399,0.01c1.17,4.93,2.42,9.84,3.67,14.75c-22.51,0-45.021,0.05-67.521-0.021
		C91.905,38.547,93.127,33.647,94.366,28.757z"/>
	<path d="M8.777,48.808c2.59-1.55,5.73-0.92,8.6-1.05c47.67,0.03,95.34,0.02,143.009,0.01c5.1-0.37,9.4,4.53,9,9.49
		c-0.039,24.69,0.02,49.381-0.029,74.081c0.119,4.709-4.279,8.771-8.92,8.67c-49.031,0.05-98.07,0.021-147.11,0.011
		c-5.15,0.198-9.64-4.58-9.21-9.711c0.02-24.35-0.01-48.688,0.02-73.03C3.987,53.867,5.727,50.417,8.777,48.808 M91.776,55.277
		c0,7.33,0,14.67,0,22c0.551,0,1.65,0,2.2,0c0-7.33,0-14.67,0-22C93.427,55.277,92.327,55.277,91.776,55.277 M140.247,55.287
		c-0.012,3.021-0.041,6.04,0.08,9.06c-1.49-1.13-3.131-2.55-5.172-2.07c-7.408,0.64-8.238,13.66-0.858,15.01
		c2.5,0.63,4.479-1.03,6.13-2.65c-0.061,0.66-0.18,1.98-0.229,2.65c0.607-0.01,1.83-0.01,2.449-0.02c0-7.33,0-14.66,0-21.99
		C142.046,55.277,140.847,55.277,140.247,55.287 M17.437,56.317c0.04,6.97,0.04,13.95,0,20.93c2.43,0.021,4.86,0.13,7.29-0.05
		c3.84-0.45,7.59-3.05,8.6-6.91c1.23-4.27,0.59-9.89-3.46-12.45C26.127,55.558,21.587,56.417,17.437,56.317 M40.727,62.717
		c-4.85,1.64-5.77,8.36-2.96,12.15c2.69,3.34,8.42,3.25,11.12-0.03c2.11-2.48,2.01-6.18,0.87-9.06
		C48.177,62.487,43.957,61.458,40.727,62.717 M52.237,62.137c1.32,5.09,2.94,10.09,4.33,15.16c0.6-0.02,1.79-0.06,2.39-0.09
		c1.22-3.59,1.75-7.48,3.73-10.77c1.07,3.6,2.01,7.23,3.04,10.84c0.61,0,1.84,0,2.46,0c1.36-5.07,2.93-10.08,4.31-15.15
		c-0.55,0.08-1.67,0.25-2.23,0.33c-1.28,4.03-2.2,8.18-3.41,12.23c-0.94-4.22-2.15-8.38-3.2-12.58c-0.52,0.08-1.55,0.25-2.07,0.34
		c-1.5,3.99-2.37,8.2-3.78,12.24c-0.95-4.12-1.92-8.24-3.18-12.27C54.027,62.347,52.837,62.208,52.237,62.137 M75.247,62.287
		c0,5,0,9.99,0,14.99c0.57,0,1.7,0,2.27,0c0.12-3.46-0.42-7.01,0.41-10.4c0.779-3.01,5.73-3.76,6.65-0.48
		c0.72,3.54,0.199,7.22,0.31,10.81c0.601,0.02,1.8,0.06,2.399,0.07c-0.069-3.66,0.24-7.35-0.209-10.99
		c-0.131-1.8-1.66-2.9-2.812-4.09c-2.729-0.34-5.2,0.65-6.94,2.78c0.06-0.68,0.18-2.03,0.24-2.71
		C76.987,62.277,75.827,62.287,75.247,62.287 M101.837,62.827c-4.479,1.82-5.182,8.05-2.771,11.78c2.781,3.95,9.641,3.56,11.98-0.66
		c1.38-2.521,1.199-5.69,0.18-8.3C109.467,62.327,105.116,61.447,101.837,62.827 M115.847,63.327c-0.111,0.66-0.341,1.97-0.451,2.62
		c1.852-0.82,3.721-2.19,5.86-1.62c1.58,0.6,1.8,2.36,2.319,3.73c-2.039,0.34-4.049,0.81-6.09,1.13c-2.32,0.3-3.879,2.82-3.25,5.06
		c0.25,1.91,2.359,3.021,4.131,3.07c1.979,0.32,3.479-1.25,4.99-2.24c-0.031,0.54-0.08,1.63-0.111,2.18
		c0.602,0.01,1.791,0.02,2.391,0.03c-0.26-4.69,0.87-9.67-1.24-14.08C121.655,61.877,118.577,62.147,115.847,63.327 M146.437,67.277
		c0.66,3.86,7.6,2.64,6.969,6.88c-1.688,2.27-4.799,0.69-7.066,0.38c-1.17,2.67,2.43,2.81,4.107,2.771
		c2.959,0.24,6.32-2.21,5.41-5.45c-1.541-3.05-5.85-2.72-7.65-5.62c1.723-2.71,4.871-2,7.41-1.13c-0.357-1.05-0.398-3.1-2.051-2.82
		C150.466,61.647,145.616,63.387,146.437,67.277 M134.377,80.277c0.01,11.65,0.04,23.31,0.05,34.959
		c-3.329,0-6.648-0.01-9.971,0.021c6.41,6.06,12.979,11.959,19.381,18.04c6.5-6,13.01-11.988,19.459-18.04
		c-3.32-0.03-6.641-0.021-9.959-0.021c-0.01-11.649,0.029-23.311,0.039-34.959C147.046,80.277,140.706,80.277,134.377,80.277z"/>
	<path d="M19.847,75.327c-0.01-5.7,0-11.4-0.01-17.1c3.59-0.01,8.21-0.34,10.37,3.21c2.01,3.97,1.72,9.85-2.24,12.53
		C25.627,75.688,22.567,75.177,19.847,75.327z"/>
	<path d="M39.917,65.817c1.12-1.94,3.59-1.45,5.53-1.44c3.58,2.33,3.65,8.5,0.01,10.79c-1.33,0.07-2.65,0.06-3.97-0.05
		C38.257,73.458,37.687,68.537,39.917,65.817z"/>
	<path d="M103.646,64.337c6.051-1.67,8.291,8.16,3.311,10.54c-3.1,1.71-7.051-1.19-6.818-4.6
		C99.776,67.768,101.187,65.127,103.646,64.337z"/>
	<path d="M133.347,65.237c2.189-2.05,6.02-0.79,6.809,2.02c0.211,2.42,0.58,5.51-1.639,7.17c-1.111,0.98-2.65,0.81-4,1.03
		C131.106,73.327,130.587,68.077,133.347,65.237z"/>
	<path d="M116.655,71.657c2.172-0.87,4.5-1.18,6.813-1.41c-0.34,1.49-0.24,3.521-1.813,4.36c-1.6,1.27-3.75,0.65-5.18-0.54
		C116.526,73.467,116.606,72.257,116.655,71.657z"/>
</g>
</svg>
