<?xml version="1.0" encoding="utf-8"?>
<!DOCTYPE svg PUBLIC "-//W3C//DTD SVG 1.1//EN" "http://www.w3.org/Graphics/SVG/1.1/DTD/svg11.dtd">
<svg version="1.1" xmlns="http://www.w3.org/2000/svg" xmlns:xlink="http://www.w3.org/1999/xlink" x="0px" y="0px"
	 width="184px" height="184px" viewBox="0.25 -16.25 184 184" enable-background="new 0.25 -16.25 184 184" xml:space="preserve">
<g>
	<path d="M-60.5-47.502h0.81c-0.2,0.2-0.61,0.61-0.81,0.81V-47.502z"/>
	<path d="M9.5,16.498c55.67,0,111.33,0,167,0c0,40.33,0,80.67,0,121c-55.67,0-111.33,0-167,0C9.5,97.168,9.5,56.828,9.5,16.498
		 M18.5,37.498c0,30,0,60,0,90c49.67,0,99.33,0,149,0c0-30,0-60,0-90C117.83,37.498,68.17,37.498,18.5,37.498z"/>
	<path d="M26.5,51.498c14,0,28,0,42,0c-0.01,4.66,0,9.33,0,14c-14,0-28,0-42,0C26.5,60.828,26.5,56.168,26.5,51.498z"/>
	<path d="M92.5,51.498c4.66,0,9.33,0,14,0c-0.01,4.66,0,9.33,0,14c-4.67,0-9.33,0-14,0C92.49,60.828,92.5,56.168,92.5,51.498z"/>
	<path d="M130.5,51.498c4.66,0,9.33,0,14,0c-0.01,4.66,0,9.33,0,14c-4.68,0-9.33,0-14,0C130.49,60.828,130.5,56.168,130.5,51.498z"
		/>
	<path d="M149.5,51.498c4.66,0,9.33,0,14,0c-0.01,4.66,0,9.33,0,14c-4.68,0-9.33,0-14,0C149.49,60.828,149.5,56.168,149.5,51.498z"
		/>
	<path d="M26.5,68.498c14,0,28,0,42,0c-0.01,4.66,0,9.33,0,14c-14,0-28,0-42,0C26.5,77.828,26.5,73.168,26.5,68.498z"/>
	<path d="M75.5,69.498c4.66,0,9.33,0,14,0c-0.01,4.33,0,8.67,0,13c-4.67-0.01-9.33,0-14,0C75.49,78.158,75.5,73.828,75.5,69.498z"/>
	<path d="M92.5,69.498c4.66,0,9.33,0,14,0c-0.01,4.33,0,8.67,0,13c-4.67-0.01-9.33,0-14,0C92.49,78.158,92.5,73.828,92.5,69.498z"/>
	<path d="M111.5,69.498c4.66,0,9.33,0,14,0c-0.01,4.33,0,8.67,0,13c-4.67-0.01-9.33,0-14,0C111.49,78.158,111.5,73.828,111.5,69.498
		z"/>
	<path d="M130.5,69.498c4.66,0,9.33,0,14,0c-0.01,4.33,0,8.67,0,13c-4.68-0.01-9.33,0-14,0C130.49,78.158,130.5,73.828,130.5,69.498
		z"/>
	<path d="M149.5,69.498c4.66,0,9.33,0,14,0c-0.01,4.33,0,8.67,0,13c-4.68-0.01-9.33,0-14,0C149.49,78.158,149.5,73.828,149.5,69.498
		z"/>
	<path d="M26.5,87.498c14,0,28,0,42,0c0,4,0,8,0,12c-14,0-28,0-42,0C26.5,95.498,26.5,91.498,26.5,87.498z"/>
	<path d="M75.5,87.498c4.66-0.01,9.33,0,14,0c0,4,0,8,0,12c-4.67-0.01-9.33,0-14,0C75.5,95.498,75.5,91.498,75.5,87.498z"/>
	<path d="M92.5,87.498c4.66-0.01,9.33,0,14,0c0,4,0,8,0,12c-4.67-0.01-9.33,0-14,0C92.5,95.498,92.5,91.498,92.5,87.498z"/>
	<path d="M111.5,87.498c4.66-0.01,9.33,0,14,0c0,4,0,8,0,12c-4.67-0.01-9.33,0-14,0C111.5,95.498,111.5,91.498,111.5,87.498z"/>
	<path d="M130.5,87.498c4.66-0.01,9.33,0,14,0c0,4,0,8,0,12c-4.68-0.01-9.33,0-14,0C130.5,95.498,130.5,91.498,130.5,87.498z"/>
	<path d="M149.5,87.498c4.66-0.01,9.33,0,14,0c0,4,0,8,0,12c-4.68-0.01-9.33,0-14,0C149.5,95.498,149.5,91.498,149.5,87.498z"/>
	<path d="M26.5,104.498c14,0,28,0,42,0c-0.01,4.66,0,9.33,0,14c-14,0-28,0-42,0C26.5,113.828,26.5,109.168,26.5,104.498z"/>
	<path d="M75.5,105.498c4.66-0.01,9.33,0,14,0c-0.01,4.33,0,8.67,0,13c-4.67-0.01-9.33,0-14,0
		C75.49,114.158,75.5,109.828,75.5,105.498z"/>
	<path d="M111.5,105.498c4.66-0.01,9.33,0,14,0c-0.01,4.33,0,8.67,0,13c-4.67-0.01-9.33,0-14,0
		C111.49,114.158,111.5,109.828,111.5,105.498z"/>
	<path d="M149.5,105.498c4.66-0.01,9.33,0,14,0c-0.01,4.33,0,8.67,0,13c-4.68-0.01-9.33,0-14,0
		C149.49,114.158,149.5,109.828,149.5,105.498z"/>
</g>
</svg>