<?xml version="1.0" encoding="utf-8"?>
<!DOCTYPE svg PUBLIC "-//W3C//DTD SVG 1.1//EN" "http://www.w3.org/Graphics/SVG/1.1/DTD/svg11.dtd">
<svg xmlns="http://www.w3.org/2000/svg" version="1.1" height="640" width="640" y="0" x="0" viewBox="0 -32 640 640" >
    <g transform="matrix(1,0,0,-1,0,575.97732)">
        <path d="M 320.00,608.00C 143.269,608.00,0.00,464.731,0.00,288.00s 143.269-320.00, 320.00-320.00s 320.00,143.269, 320.00,320.00S 496.731,608.00, 320.00,608.00z M 280.00,488.00l 80.00,0.00 l0.00-80.00 l-80.00,0.00 L 280.00,488.00 z M 400.00,88.00L 240.00,88.00 l0.00,40.00 l 40.00,0.00 L 280.00,288.00 l-40.00,0.00 l0.00,40.00 l 120.00,0.00 l0.00-200.00 l 40.00,0.00 L 400.00,88.00 z" />
    </g>
</svg>
