<?xml version="1.0" encoding="utf-8"?>
<!DOCTYPE svg PUBLIC "-//W3C//DTD SVG 1.1//EN" "http://www.w3.org/Graphics/SVG/1.1/DTD/svg11.dtd">
<svg version="1.1" xmlns="http://www.w3.org/2000/svg" xmlns:xlink="http://www.w3.org/1999/xlink" x="0px" y="0px"
	 width="148px" height="148px" viewBox="2.75 0.25 148 148" enable-background="new 2.75 0.25 148 148" xml:space="preserve">
<g>
	<path d="M35.506,30.684c5.37-16.15,21.12-28.2,38.15-28.88c17.86-1.39,35.75,9.87,42.28,26.52c8.479,19.53-0.28,44.5-19.35,54.101
		c13.68-0.16,27.36-0.03,41.05-0.07c0.02,21.32-0.04,42.63,0.029,63.951c-40.689,0.068-81.389,0.119-122.079-0.021
		c0.11-21.309,0.02-42.619,0.05-63.929c13.4,0.09,26.81-0.189,40.2,0.15C37.576,73.245,28.556,49.884,35.506,30.684 M69.076,6.384
		c-16.65,2.89-30.23,17.68-31.66,34.52c-2.04,17.79,10.02,35.88,27.2,40.851c4.61,1.02,9.35,0.459,14.03,0.609
		c13.7,1.2,26.27-8.47,32.25-20.24c6.891-13.03,5.15-29.93-4.08-41.38C98.165,9.454,83.056,3.634,69.076,6.384 M22.886,87.864
		c0,17.66,0,35.32,0,52.98c35.83,0.02,71.67,0.02,107.5,0c0-17.66,0-35.32,0-52.98C94.556,87.844,58.716,87.844,22.886,87.864z"/>
	<path d="M72.126,11.494c7.72-1.93,16.26,3.59,17.689,11.41c2.221,8.67-5.13,18.33-14.18,18c-7.82,0.59-15.24-6.24-15.25-14.09
		C59.766,19.694,65.136,12.804,72.126,11.494z"/>
	<path d="M95.016,39.394c6.62-2.25,14.47,2.37,15.42,9.34c1.421,6.65-3.89,13.72-10.71,14.04c-6.359,0.82-12.68-4.41-13.01-10.82
		C86.036,46.474,89.756,40.944,95.016,39.394 M89.686,45.554c1.729,1.69,3.44,3.41,5.13,5.14c-1.72,1.7-3.439,3.42-5.15,5.14
		c1.33,1.32,2.66,2.65,3.99,3.99c1.721-1.71,3.431-3.43,5.141-5.14c1.73,1.68,3.439,3.39,5.14,5.11c1.351-1.31,2.7-2.63,4.06-3.94
		c-1.709-1.75-3.43-3.46-5.18-5.16c1.69-1.72,3.391-3.42,5.12-5.09c-1.2-1.48-2.55-2.84-4.01-4.07c-1.69,1.73-3.399,3.44-5.12,5.14
		c-1.71-1.74-3.43-3.46-5.17-5.16C92.315,42.854,90.995,44.204,89.686,45.554z"/>
	<path d="M63.906,45.254c6.97-3.58,15.371-2.97,22.32,0.32c-5.33,8.89,3.051,20.761,13.131,19.33c0.159,2.06,0.27,4.13,0.35,6.21
		c-2.48,0.311-4.98,0.48-7.48,0.5c-0.98-4.279-2.3-8.67-5.369-11.96c0.299,4.091,0.489,8.19,0.819,12.271
		c-8.521,0.479-17.04,0.34-25.57,0.119c0.25-4.17,0.42-8.33,0.79-12.489c-3.04,3.44-4.59,7.81-5.4,12.26
		c-2.72-0.22-5.44-0.43-8.16-0.649C48.766,60.694,54.286,49.844,63.906,45.254z"/>
	<path d="M29.916,106.394c-0.06-3.04-0.06-6.08,0.03-9.11c3.83,0.11,7.67,0.04,11.51,0.12c-0.06,3.011-0.07,6.021-0.13,9.03
		C37.526,106.304,33.716,106.334,29.916,106.394z"/>
	<path d="M48.646,97.604c3.91-0.01,7.83,0,11.75,0c-0.02,2.91-0.01,5.83,0.03,8.74c-3.93,0.01-7.86,0.02-11.79,0.01
		C48.636,103.434,48.636,100.524,48.646,97.604z"/>
	<path d="M66.876,97.604c3.92,0,7.84-0.01,11.75,0c0.01,2.92,0.01,5.83,0.01,8.75c-3.95-0.01-7.9,0.05-11.84-0.07
		C66.896,103.394,66.906,100.495,66.876,97.604z"/>
	<path d="M84.886,97.604c3.91,0,7.83-0.01,11.74,0c0.01,2.92,0.01,5.83,0.01,8.75c-3.9,0.01-7.79-0.05-11.689,0.07
		C84.866,103.484,84.856,100.543,84.886,97.604z"/>
	<path d="M103.876,97.604c6.51,0,13.01,0,19.52,0c-0.02,7.67,0,15.33-0.01,23c-3.92,0-7.83,0-11.74,0.01
		c-0.07-4.789,0.131-9.57-0.14-14.349c-2.55,0.1-5.11,0.1-7.66,0.08C103.886,103.434,103.886,100.514,103.876,97.604z"/>
	<path d="M30.146,111.664c7.24-0.121,14.48-0.051,21.72-0.041c0.02,2.99,0.02,5.99,0.02,8.99c-7.24,0.021-14.47-0.08-21.71,0.051
		C30.126,117.664,30.116,114.664,30.146,111.664z"/>
	<path d="M58.406,111.623c3.9-0.039,7.81-0.049,11.72,0.041c0.03,3,0.01,6-0.03,9c-3.9-0.09-7.81-0.061-11.71-0.051
		C58.376,117.613,58.376,114.623,58.406,111.623z"/>
	<path d="M76.646,111.604c3.91-0.01,7.83,0,11.75,0c-0.01,3-0.01,6-0.01,9c-3.92,0-7.83,0-11.74,0.01
		C76.636,117.604,76.626,114.604,76.646,111.604z"/>
	<path d="M94.405,111.623c3.74-0.029,7.48-0.029,11.221-0.02c0.01,3,0.01,6,0,9.01c-3.75-0.01-7.49-0.01-11.24,0
		C94.376,117.613,94.376,114.613,94.405,111.623z"/>
	<path d="M29.876,125.863c3.92-0.02,7.84-0.01,11.76-0.01c0,3,0,6,0,9c-3.92,0-7.84,0-11.76-0.01
		C29.886,131.854,29.886,128.854,29.876,125.863z"/>
	<path d="M48.386,125.863c18.83-0.01,37.67-0.01,56.5,0c0,2.99,0,5.99,0,8.98c-18.83,0.01-37.67,0.01-56.5,0
		C48.386,131.854,48.386,128.854,48.386,125.863z"/>
	<path d="M111.386,125.863c3.92-0.02,7.83-0.01,11.75-0.01c0,3,0,6,0,9c-3.92,0-7.83,0-11.75-0.01
		C111.376,131.854,111.376,128.854,111.386,125.863z"/>
</g>
</svg>
