<?xml version="1.0" encoding="utf-8"?>
<!DOCTYPE svg PUBLIC "-//W3C//DTD SVG 1.1//EN" "http://www.w3.org/Graphics/SVG/1.1/DTD/svg11.dtd">
<svg xmlns="http://www.w3.org/2000/svg" version="1.1" height="640" width="400" y="0" x="0" viewBox="0 -32 400 640" >
    <g transform="matrix(1,0,0,-1,0,575.97732)">
        <path d="M 200.00,527.84c 66.22,0.00, 120.00-53.98, 120.00-120.32c0.00-37.90-17.26-72.74-47.46-95.46c-45.16-34.14-63.40-71.88-69.68-103.60L 197.14,208.46 c-6.26,31.72-24.56,69.46-69.68,103.60c-30.16,22.74-47.50,57.58-47.50,95.46C 79.96,473.86, 133.78,527.84, 200.00,527.84 M 200.00,608.00C 89.54,608.00,0.00,518.24,0.00,407.54C0.00,341.90, 30.90,284.56, 79.38,248.00c 22.30-16.88, 40.70-38.60, 40.70-68.60l0.00-51.10 l 159.88,0.00 L 279.96,179.40 c0.00,30.00, 18.40,51.72, 40.66,68.60C 369.14,284.56, 400.00,341.90, 400.00,407.54C 400.00,518.24, 310.46,608.00, 200.00,608.00L 200.00,608.00zM 120.00,48.00L 280.00,48.00L 280.00-32.00L 120.00-32.00z" />
    </g>
</svg>
