<?xml version="1.0" encoding="utf-8"?>
<!DOCTYPE svg PUBLIC "-//W3C//DTD SVG 1.1//EN" "http://www.w3.org/Graphics/SVG/1.1/DTD/svg11.dtd">
<svg xmlns="http://www.w3.org/2000/svg" version="1.1" height="640" width="640" y="0" x="0" viewBox="0 -32 640 640" >
    <g transform="matrix(1,0,0,-1,0,575.97732)">
        <path d="M 240.00,568.00l 400.00,0.00 l0.00-80.00 L 240.00,488.00 L 240.00,568.00 z M 240.00,328.00l 400.00,0.00 l0.00-80.00 L 240.00,248.00 L 240.00,328.00 z M 240.00,88.00l 400.00,0.00 l0.00-80.00 L 240.00,8.00 L 240.00,88.00 zM0.00,528.00A80.00,80.00 2700.00 1 1 160.00,528A80.00,80.00 2700.00 1 1 0.00,528zM0.00,288.00A80.00,80.00 2700.00 1 1 160.00,288A80.00,80.00 2700.00 1 1 0.00,288zM0.00,48.00A80.00,80.00 2700.00 1 1 160.00,48A80.00,80.00 2700.00 1 1 0.00,48z" />
    </g>
</svg>
