<?xml version="1.0" encoding="utf-8"?>
<!DOCTYPE svg PUBLIC "-//W3C//DTD SVG 1.1//EN" "http://www.w3.org/Graphics/SVG/1.1/DTD/svg11.dtd">
<svg version="1.1" id="Camada_1" xmlns="http://www.w3.org/2000/svg" xmlns:xlink="http://www.w3.org/1999/xlink" x="0px" y="0px"
	 width="138.125px" height="55px" viewBox="0 0 138.125 55" enable-background="new 0 0 138.125 55" xml:space="preserve">
<circle fill-rule="evenodd" clip-rule="evenodd" fill="#FED412" cx="28.135" cy="27.555" r="25.551"/>
<path fill-rule="evenodd" clip-rule="evenodd" fill="#FFFFFF" d="M31.016,5.684l-2.991,0.24l0.591,0.389l-0.153,0.153l0,0
	l-1.469-0.068l-1.275-0.561l0,0l0,0l-0.51-0.153h-0.561l-0.867,0.153l-1.071,0.357l-0.825,0.119l0,0L21.224,6.67l0,0l0,0
	l-1.784,0.867l-0.5,1.021L18.012,8.76l0,0c-0.426,0.64-0.653,1.214-0.714,1.275l-0.153,0.357l0,0l-0.357,0.663l-0.357,1.071l0,0
	l-0.204,0.204l0,0l-0.51,1.58l-0.867,1.427l0,0l-0.204,0.153l0,0L14.29,16.05l0,0l-1.071,1.733l0,0l0.918,0.357v0.204l0,0v0.714l0,0
	v0.51l0,0l0,0l0,0v0.714l0,0v0.357l0,0v0.714l0.153,0.714l0,0v0.357l0,0v0.714l-0.357,0.663l-0.357,0.714l-0.357,0.714l0,0
	l-1.417,1.814l-0.164,0.123l1.235-0.369c0,1.114-1.24,3.232-1.569,4.376l1.2,1.141l0,0l0,0l0.357,1.427l0.357,1.224l0.561,1.071
	l0.714,1.224l0.663,1.071l0.918,1.071l0.867,0.867l1.071,0.918l0,0l1.071,0.714l1.071,0.663l2.401,0.564l0,0l1.427,0.357
	l1.224,0.357l1.427,0.153h1.224l0,0l1.58-0.153c1.655,0.634,2.305-0.233,3.971-0.699l1.581-0.222l1.275-0.663l1.224-0.918
	l1.224-1.071l0,0l0.918-1.071l1.02-1.02l0.714-1.275l0.714-1.376l0.561-1.427l0.357-1.427l0.357-1.427l0.153-1.427l0,0l0.204-0.51
	l0,0l0,0l0.867-0.714l0.714-0.714l0.51-0.867l0.426-0.884l0.017-0.152l0.118-0.035l0,0l-0.134-1.121l0.135-0.034l-0.001-0.782
	l-0.339-0.85V22.95l0,0l-0.101-0.731h0.236L46,21.862v-0.357v-0.153l0,0l0.357-0.918l0,0l0,0l0,0l0,0l0,0l0,0l0.153-0.663l0,0l0,0
	l0,0l0,0l0,0l0.204-1.631v-0.153l0,0l-0.561-1.784l0,0L46,15.337l0,0l0,0l0,0l0,0V14.98l0,0l0,0v-0.714l0,0l-0.426-0.528
	l-0.357-0.714l0,0l-1.205-1.256l-1.733-0.714l0,0l0,0l-1.631-0.51l0,0l-1.02-0.714l0,0l0,0l-1.275-1.937l0,0l0,0H38.2V7.69l0,0
	l-0.561-0.51l-0.51-0.153l0,0h-0.153L36.619,6.67l0,0l-0.357-0.204l0,0l-0.561-0.51l-0.714-0.204l-1.229,0.24l-0.602-0.221
	l-0.463-0.172l0,0l-1.071-0.357L31.016,5.684z"/>
<path fill-rule="evenodd" clip-rule="evenodd" d="M33.403,11.476L33.403,11.476l-0.715,0.561l-0.51,0.51l0,0l-0.561,0.561
	l-0.153,0.357v0.306l0,0l0.868-0.153h0.715l1.786,0.153l0,0l-0.204-0.51l-0.357-0.715l-0.51-0.715l-0.153-0.153L33.403,11.476
	L33.403,11.476L33.403,11.476z M34.985,9.026L34.985,9.026V8.821l-0.153-0.153L34.27,8.311l0,0h-0.51h-0.51l-0.357,0.357
	l-0.204,0.51l0,0l0.919,0.357l0.51,0.204l0.357,0.153l0,0l0.357,0.357l0.51,0.204l0,0l0.561-0.204l0,0l-0.715-0.51l-0.204-0.357
	V9.026L34.985,9.026L34.985,9.026z M46.162,23.01v0.204l0.357,0.868v0.868l0,0v1.072l0,0l-0.153,0.204l0,0l-0.357,1.021
	l-0.561,0.715l-0.868,0.715l-0.868,0.715l0,0l-0.204,0.51l0,0v1.429c-1.424,16.766-27.325,18.116-31.184,1.276l0,0l-1.786-1.429l0,0
	l1.276-2.501l0.51-1.072l0,0v-0.357l0,0h-0.868l0,0l1.582-2.093l0.51-0.715l0.357-0.715l0.204-0.715V22.5l0,0v-0.357l0,0
	l-0.204-0.715v-0.715l0,0v-0.357l0,0v-0.868l0,0v0.153v-0.51l0.204-0.715l0,0l-1.072-0.561l0,0l1.225-1.939l0.357-0.51l0,0l0,0l0,0
	l0.868-1.429l0.715-1.582l0,0V12.19l0,0l0.357-1.072l0.561-0.868l0,0l0.153-0.153l0,0l0,0l0.561-1.276l0,0L18.5,8.107l0.919-0.715
	l1.786-0.868l0,0l0,0l0,0l0.663-0.357l0,0L22.94,5.81l1.072-0.357L24.879,5.3h0.561l0.51,0.153l0,0l0,0l1.276,0.561l1.378,0.357l0,0
	L27.584,5.81l0,0l3.522-0.51l0.51-0.204L32.178,5.3l0.715,0.153l0,0l0.357,0.204l0,0h0.357l0,0h1.378L35.7,5.81l0.715,0.561l0,0
	l0.204,0.153l0,0l0.357,0.357h0.153l0,0l0.51,0.204l0.357,0.306l0.357,0.357l0,0l0,0l0,0l2.297,0.357L39.783,9.74l0,0l0.868,0.715
	l0,0l1.633,0.51l0,0l1.735,0.715l0.919,0.51l0.715,0.715l0,0l0.357,0.715l0.153,0.715l0,0v0.715l0,0v0.357l0,0l0,0l0,0l0.204,0.868
	l0,0l0.153,0.715l0.204,1.072l0,0v0.153l0,0l-0.204,1.633l0,0l-0.153,0.664l0,0l0,0l0,0l0,0l-0.204,0.919l0,0v0.153v0.357v0.357l0,0
	V23.01L46.162,23.01L46.162,23.01z M38.915,37.199L38.915,37.199l0.153-1.072v-1.072v-2.144l0,0h0.715l0.357-0.153l0.204-0.357
	v-0.51l0,0l0.306-0.204v-0.153l0.204-0.561l-0.204-0.868v-0.51l0,0v-0.357l-0.153-0.357h-0.153l-0.357-0.204h-0.561l-0.357-0.153
	l-0.153-0.204l0,0l1.225-0.357l1.429-0.153l0,0h0.153l0.204-0.204l0.153-0.357v-0.357l-0.153-0.153l-0.357-0.357h-0.204h-0.51l0,0
	H40.14l-0.357,0.153l-0.357,0.204l0,0h-0.153h-0.561h-0.51l-0.357-0.204l0,0l-0.204-0.306v-0.357v-0.715l0.204-0.715v-0.715l0,0
	l-0.51,0.51l-0.561,0.919l-0.51,0.51l-0.357,0.204l-0.357-0.204l0,0l-0.561-0.357l-0.357-0.357l-0.153-0.357v-0.715l0,0V23.01l0,0
	V22.5l0.357-0.715l0,0l0.51-0.561l0,0l0.357-0.51l0.204-0.204v-0.153l0,0L35.7,19.999h-0.153l-0.561,0.153l0,0l-0.715,0.204h-0.663
	l-0.715-0.357l-0.204-0.153l-0.153-0.357l0,0v-0.204l-0.204-0.153l-0.357,0.153l-0.357,0.715l0,0l-0.153,0.153l-0.204,0.204
	l-0.51,0.153l0,0l-0.51,0.357l-0.357,0.561l-0.204,0.715l-0.51,0.357l0,0l-0.204-0.561v-0.868v-1.225l0,0l0.204-1.276l0.153-0.715
	l0.357-0.357l0,0l-0.357-0.153l-0.153-0.204l-0.561,0.561l0,0l-0.51,0.715l-0.715,0.51l0,0l-0.51,0.357l-0.204,0.561l-0.153,0.306
	l-0.204,0.561l0,0l0.204,1.072l-0.204,0.357L26.155,22.5l0,0l-0.204,0.153L25.798,22.5l-0.357-0.357l-0.204-0.919l0,0v-0.51
	l0.204-0.561l0.357-1.225l0,0l0.153-1.072l0.204-0.51l0.153-0.51l0,0l0.715-0.715l0.204-0.357v-0.357l0,0h-0.919l-0.153-0.204
	v-0.153v-0.204l0,0l0.51-1.072l0.561-0.663l0,0l0.868-0.919l0.153-0.51v-0.204l-0.153-0.357l0,0l-0.204-0.357l0.204-0.306
	l0.357-0.561l0,0l-2.144-0.357l-1.939-0.51l0,0l0.204-0.357h0.306V8.464v-0.51l0,0l-0.306,0.357l-0.357,0.153h-0.715l0,0
	L22.94,8.821l-0.357,0.561l0,0L21.868,9.74l-0.51,0.357l-0.715,0.357l-0.357,0.664h1.072l0,0l-0.51,0.715l-0.561,0.715l-1.225,1.429
	l0,0l-0.868,1.072l-0.357,1.429l0,0l-0.357,1.021v0.715v0.204l0.153,0.153l0,0l0.357,0.357v0.357l-0.153,1.072l0,0l-0.357,1.582
	l-0.357,0.919l-0.357,0.664l0,0l-0.204,0.204v0.153l0.357,0.357l0,0l0.204,0.204v0.153v0.561l0,0v0.153l-0.204,0.357l-0.153,0.357
	l-0.204,0.357l0,0v0.51l-0.153,0.561l0,0l-0.919,1.225l-0.153,0.715v0.715l0,0l1.072-0.715l1.072-0.51l0,0l-0.357,0.51l-0.561,0.357
	l-0.357,0.357l-0.357,0.51l0,0l-0.153,1.072l-0.204,0.919l0.204,0.868v1.072l0.715,1.735l0.868,1.99l-0.153,0.357l0,0l-0.715-0.919
	l-0.715-1.072l-0.715-1.225l-0.51-1.072l-0.357-1.225l-0.357-1.225l-0.204-1.429v-1.429l0,0l0,0l0.357-1.072l0,0l0.357-0.715l0,0
	l0,0l0,0l0,0l0,0l0.868-0.868l0.561-0.51l0.868-0.919l0,0l-1.582,0.561l0,0l0.51-1.429l0.204-0.868l0.153-0.715l0,0l-0.153-0.919
	l0,0v-0.868l0,0v-0.357v-1.072l0,0v-0.153l0,0v-0.715l0.357-0.919l0.153-0.51l0.357-0.868l0,0l-0.715,0.357l0,0l1.072-1.786
	l0.919-1.786v-0.357l0,0l0.357-0.715l0.153-0.715l0,0l1.786-1.378l0.51-0.561l-0.357-0.153l0,0l-0.153-0.204l0,0l1.582-0.715h0.153
	l0.715-0.357l0,0l1.429-0.663l0.715-0.204h0.51l0,0l0,0l1.633,0.715l1.582,0.357l0,0h1.072l0.715-0.204l0,0l0.868-0.153h0.715h0.868
	l0,0l-0.357-0.51l0,0l0.357,0.153h0.561h0.51l0,0h0.715l0.51,0.153l0.204,0.204l0.153,0.153l0,0l0.715,0.561l0.357,0.153
	l0.561,0.204l0,0l0,0l0,0v0.153l0.153,0.357l0,0l0.51,0.204h0.357l0,0l-0.153,0.715l0,0l0.153,0.153l0.204,0.357l0,0l0.715,0.715
	l1.072,0.51l0,0l0.868,0.357l0.868,0.357l0,0l1.633,0.561l0.51,0.357l0.51,0.51l0,0l0.204,0.357l0,0v0.153l0,0h-0.204l0,0
	l-1.378-0.153l-0.715,0.153l-0.561,0.357l0,0l-0.357,0.204l-0.51,0.153l-0.357,0.204v0.153l0.153,0.204l0,0l0.357,0.51h0.357
	l1.072,0.357l0,0l0.561,0.204l0.153,0.306l0.357,0.357l0.357,0.204l0,0l0.153-1.072l0.357-0.868l0.357,0.868l0,0l0.204,0.715
	l0.153,0.715l0,0v0.153l0,0l-0.153,1.429l-0.204,0.715l0,0l-0.153-0.51l0,0l-0.204-0.715l-0.153-0.357l-0.204-0.204l-0.153,0.204
	l0,0l-0.51,0.51l-0.357,0.715l-0.357,0.715l-0.357,0.153l-0.357,0.204l0,0l-0.561,0.153l-0.51,0.357l0,0l-0.204,0.204h-0.306
	l-0.204-0.204h-0.153l0,0l-0.357,0.204l-0.357,0.153l-0.357,0.715l-0.357,1.429l0,0v0.357l0.153,0.715l0.204,0.51l0.153,0.204h0.357
	l0,0l1.072-0.715l0.51-0.357l0.357-0.561l0,0l0.357-0.868l0.561-0.51l0.715-0.357l0.868-0.204l0,0h0.51l0.204-0.153l0,0v0.153v1.072
	l0,0l0.153,0.868l0.204,0.715l0,0v0.715l0,0l-0.357,0.715l-0.561,0.715l-0.664,0.51l-0.715,0.561l0,0l-0.561,0.51l-0.357,0.561
	l-0.153,0.51l-0.204,0.51l0,0l0.204,0.919l0,0v0.715l0,0l-0.204,0.715l0,0l-0.153,0.51l0,0l-0.357,0.357v0.357l0,0v0.357l0,0v0.153
	l0,0l-0.204,1.072l0,0l0,0l0,0l-0.664,1.429l-0.919,1.225l0,0l0,0h-0.153v-0.357V37.199L38.915,37.199z"/>
<path fill-rule="evenodd" clip-rule="evenodd" fill="#FFFFFF" d="M20.283,37.206c0,0.521,0.123,1.581-0.66,1.581
	c-0.434,0-0.49-0.416-0.49-0.757C19.133,37.178,19.623,37.234,20.283,37.206L20.283,37.206L20.283,37.206L20.283,37.206z
	 M36.589,38.758c-0.49,0-0.613-0.312-0.613-1.77c0-0.994,0.047-1.495,0.613-1.495c0.566,0,0.613,0.502,0.613,1.495
	C37.202,38.446,37.08,38.758,36.589,38.758L36.589,38.758L36.589,38.758L36.589,38.758z M36.589,39.61
	c1.716,0,1.943-1.05,1.943-2.546c0-1.306-0.189-2.423-1.943-2.423c-1.754,0-1.943,1.117-1.943,2.423
	C34.647,38.559,34.873,39.61,36.589,39.61L36.589,39.61L36.589,39.61L36.589,39.61z M32.19,32.682v6.833h1.33v-6.833H32.19
	L32.19,32.682L32.19,32.682z M28.625,37.272c0-1.458,0.085-1.808,0.585-1.808c0.49,0,0.537,0.596,0.537,1.647
	c0,1.013-0.066,1.514-0.547,1.514C28.559,38.626,28.625,37.717,28.625,37.272L28.625,37.272L28.625,37.272L28.625,37.272z
	 M29.813,34.736v0.558h-0.019l0,0c-0.189-0.445-0.594-0.653-1.066-0.653c-1.386,0-1.405,1.334-1.405,2.385
	c0,1.079-0.066,2.423,1.396,2.423c0.434,0,0.811-0.189,1.009-0.558l0,0h0.019v0.918l0,0c0,0.483-0.16,0.795-0.49,0.795
	c-0.207,0-0.358-0.066-0.443-0.189c-0.085-0.114-0.113-0.284-0.113-0.483l0,0h-1.301l0,0c0.028,1.164,0.877,1.42,1.867,1.42
	c1.829,0,1.81-1.306,1.81-1.637l0,0v-4.978H29.813L29.813,34.736L29.813,34.736z M24.034,34.736h-1.33v4.779h1.33v-3.294l0,0
	c0-0.426,0.075-0.757,0.5-0.757c0.424,0,0.5,0.331,0.5,0.757l0,0v3.294h1.33v-3.833l0,0c0-0.663-0.556-1.041-1.188-1.041
	c-0.245,0-0.462,0.038-0.651,0.133c-0.179,0.085-0.339,0.227-0.472,0.445l0,0h-0.019V34.736L24.034,34.736L24.034,34.736z
	 M21.585,36.241c0-0.871-0.217-1.599-1.905-1.599c-0.509,0-0.943,0.085-1.245,0.312c-0.311,0.218-0.49,0.587-0.49,1.164l0,0h1.301
	l0,0c0-0.379,0.038-0.729,0.5-0.729c0.481,0,0.538,0.293,0.538,0.7l0,0v0.369l0,0c-1.235-0.019-2.452,0.047-2.452,1.628
	c0,0.833,0.34,1.524,1.264,1.524c0.575,0,0.962-0.237,1.245-0.729l0,0h0.019l0.057,0.634h1.235l0,0
	c-0.028-0.293-0.066-0.596-0.066-0.89l0,0V36.241L21.585,36.241z"/>
<path fill-rule="evenodd" clip-rule="evenodd" d="M7.824,37.769l0.531-0.061c-0.017,0.123-0.012,0.264,0.016,0.419
	c0.027,0.156,0.069,0.286,0.125,0.391c0.099,0.185,0.23,0.307,0.392,0.365c0.162,0.059,0.321,0.045,0.478-0.039
	c0.118-0.063,0.21-0.152,0.277-0.269c0.067-0.116,0.093-0.333,0.077-0.649l-0.02-0.351c-0.016-0.297,0.027-0.534,0.128-0.709
	c0.102-0.177,0.259-0.322,0.474-0.437c0.26-0.139,0.526-0.162,0.795-0.071c0.27,0.093,0.482,0.283,0.637,0.572
	c0.207,0.386,0.288,0.687,0.244,0.906l-0.49,0.081c0.012-0.088,0.004-0.209-0.023-0.362c-0.027-0.153-0.07-0.285-0.13-0.396
	c-0.087-0.162-0.2-0.265-0.343-0.308c-0.142-0.044-0.285-0.027-0.429,0.05c-0.089,0.048-0.161,0.108-0.216,0.181
	c-0.055,0.072-0.091,0.151-0.109,0.237c-0.017,0.085-0.021,0.244-0.011,0.477l0.018,0.359c0.015,0.297-0.03,0.537-0.135,0.716
	c-0.105,0.18-0.278,0.334-0.519,0.463c-0.262,0.14-0.54,0.155-0.835,0.042c-0.296-0.112-0.537-0.345-0.725-0.696
	C7.864,38.369,7.796,38.066,7.824,37.769z"/>
<rect x="9.073" y="39.226" transform="matrix(-0.8204 0.5718 -0.5718 -0.8204 42.6991 65.5809)" fill-rule="evenodd" clip-rule="evenodd" width="3.955" height="0.54"/>
<path fill-rule="evenodd" clip-rule="evenodd" d="M10.313,41.664l0.486-0.222c0.022,0.123,0.07,0.255,0.144,0.394
	c0.074,0.14,0.154,0.251,0.24,0.333c0.152,0.145,0.314,0.221,0.486,0.226c0.172,0.006,0.319-0.056,0.442-0.185
	c0.093-0.096,0.153-0.21,0.181-0.341c0.028-0.132-0.015-0.345-0.128-0.641l-0.127-0.328c-0.107-0.277-0.14-0.516-0.098-0.714
	c0.042-0.2,0.147-0.386,0.316-0.562c0.204-0.213,0.45-0.317,0.735-0.313c0.286,0.004,0.546,0.12,0.782,0.347
	c0.316,0.303,0.486,0.565,0.512,0.786l-0.44,0.229c-0.016-0.088-0.061-0.2-0.133-0.338c-0.073-0.137-0.154-0.249-0.246-0.336
	c-0.132-0.127-0.272-0.19-0.421-0.187c-0.149,0.002-0.28,0.062-0.392,0.18c-0.07,0.073-0.12,0.152-0.15,0.238
	c-0.03,0.086-0.04,0.172-0.03,0.259c0.01,0.086,0.056,0.239,0.137,0.457l0.127,0.336c0.106,0.278,0.137,0.52,0.093,0.723
	c-0.045,0.204-0.161,0.404-0.351,0.601c-0.205,0.214-0.466,0.314-0.781,0.298c-0.316-0.016-0.617-0.162-0.905-0.438
	C10.537,42.223,10.378,41.956,10.313,41.664z"/>
<polygon fill-rule="evenodd" clip-rule="evenodd" points="15.458,42.212 13.178,44.827 12.771,44.472 15.051,41.857 14.103,41.03 
	14.422,40.664 16.768,42.71 16.449,43.076 "/>
<polygon fill-rule="evenodd" clip-rule="evenodd" points="17.183,43.404 16.566,44.315 17.648,45.048 17.391,45.428 16.309,44.695 
	15.509,45.875 16.994,46.881 16.721,47.283 14.79,45.974 17.008,42.7 18.964,44.025 18.692,44.427 "/>
<polygon fill-rule="evenodd" clip-rule="evenodd" points="20.211,49.048 20.859,46.546 18.979,48.533 18.857,48.476 19.148,45.749 
	17.659,47.857 17.194,47.641 19.536,44.368 19.759,44.472 19.392,47.486 21.401,45.238 21.62,45.341 20.676,49.264 "/>
<path fill-rule="evenodd" clip-rule="evenodd" d="M23.663,49.979L23.6,49.104l-1.428-0.357l-0.485,0.739l-0.587-0.146l2.53-3.501
	l0.139,0.035l0.474,4.251L23.663,49.979L23.663,49.979z M23.425,46.855l-1.017,1.541l1.139,0.284L23.425,46.855z"/>
<path fill-rule="evenodd" clip-rule="evenodd" d="M27.101,50.441l-0.796-0.038l0.187-3.951c0.508,0.006,0.833,0.013,0.975,0.019
	c0.552,0.026,0.981,0.214,1.287,0.565c0.306,0.35,0.445,0.804,0.419,1.362C29.106,49.823,28.415,50.503,27.101,50.441L27.101,50.441
	z M27.009,46.963l-0.14,2.953c0.12,0.024,0.268,0.04,0.447,0.049c0.377,0.018,0.681-0.11,0.91-0.383
	c0.229-0.272,0.355-0.661,0.379-1.165c0.044-0.934-0.353-1.422-1.193-1.462C27.362,46.953,27.228,46.956,27.009,46.963z"/>
<polygon fill-rule="evenodd" clip-rule="evenodd" points="30.075,46.862 30.192,47.955 31.491,47.817 31.54,48.273 30.241,48.412 
	30.392,49.829 32.175,49.639 32.227,50.122 29.907,50.37 29.487,46.437 31.836,46.186 31.888,46.669 "/>
<polygon fill-rule="evenodd" clip-rule="evenodd" points="34.183,45.963 34.562,46.995 35.789,46.546 35.947,46.976 34.72,47.426 
	35.211,48.765 36.894,48.147 37.061,48.603 34.871,49.407 33.509,45.693 35.728,44.88 35.895,45.336 "/>
<polygon fill-rule="evenodd" clip-rule="evenodd" points="40.212,47.192 37.053,45.593 38.381,48.101 37.927,48.341 36.076,44.846 
	36.267,44.744 39.306,46.23 38.025,43.813 38.479,43.573 40.356,47.116 "/>
<path fill-rule="evenodd" clip-rule="evenodd" d="M40.805,46.57l-0.104-0.524c0.124,0.007,0.264-0.009,0.417-0.05
	c0.153-0.04,0.28-0.092,0.379-0.157c0.177-0.114,0.287-0.255,0.332-0.421c0.045-0.166,0.019-0.324-0.078-0.473
	c-0.073-0.112-0.169-0.197-0.291-0.254c-0.122-0.057-0.339-0.065-0.654-0.023l-0.348,0.048c-0.295,0.04-0.534,0.017-0.718-0.069
	c-0.185-0.087-0.342-0.232-0.474-0.436c-0.16-0.248-0.205-0.511-0.136-0.787c0.07-0.277,0.243-0.504,0.517-0.681
	c0.368-0.238,0.662-0.343,0.883-0.317l0.121,0.481c-0.089-0.005-0.209,0.013-0.359,0.052c-0.15,0.039-0.278,0.093-0.384,0.161
	c-0.154,0.1-0.248,0.221-0.279,0.367c-0.033,0.145-0.004,0.286,0.085,0.423c0.055,0.085,0.121,0.151,0.198,0.2
	c0.077,0.049,0.158,0.079,0.245,0.089c0.087,0.01,0.245,0.001,0.476-0.028l0.356-0.047c0.295-0.039,0.537-0.014,0.725,0.076
	c0.188,0.09,0.356,0.25,0.504,0.479c0.161,0.249,0.198,0.526,0.11,0.829c-0.088,0.304-0.3,0.563-0.635,0.78
	C41.4,46.48,41.103,46.573,40.805,46.57z"/>
<rect x="40.386" y="42.833" transform="matrix(0.6783 0.7348 -0.7348 0.6783 45.3005 -17.2622)" fill-rule="evenodd" clip-rule="evenodd" width="3.955" height="0.54"/>
<polygon fill-rule="evenodd" clip-rule="evenodd" points="46.495,41.893 42.987,41.408 45.058,43.347 44.707,43.722 41.82,41.018 
	41.968,40.86 45.325,41.278 43.328,39.408 43.679,39.034 46.606,41.774 "/>
<path fill-rule="evenodd" clip-rule="evenodd" d="M45.228,39.734c-0.434-0.373-0.704-0.793-0.809-1.262
	c-0.106-0.468,0-0.888,0.318-1.258c0.357-0.417,0.765-0.621,1.225-0.612c0.459,0.009,0.93,0.22,1.41,0.632
	c0.493,0.423,0.784,0.867,0.872,1.328c0.089,0.462-0.045,0.901-0.402,1.316c-0.325,0.378-0.726,0.548-1.205,0.509
	C46.161,40.348,45.69,40.13,45.228,39.734L45.228,39.734z M45.597,39.303c0.345,0.296,0.691,0.474,1.038,0.537
	c0.347,0.062,0.627-0.031,0.839-0.278c0.24-0.28,0.317-0.584,0.231-0.912c-0.086-0.329-0.32-0.657-0.703-0.985
	c-0.773-0.663-1.406-0.708-1.898-0.134c-0.218,0.254-0.28,0.537-0.186,0.847C45.013,38.688,45.24,38.996,45.597,39.303z"/>
<path fill-rule="evenodd" clip-rule="evenodd" d="M16.05,10.544l-0.368,1.383l-0.143,0.096l-0.282,0.507
	c-6.931,6.747-8.782,14.593-5.593,23.494l-1.642,0.618c-3.795-9.664-1.145-20.628,8.534-27.089L16.05,10.544z"/>
<path fill-rule="evenodd" clip-rule="evenodd" d="M47.511,21.03l0.289-1.236l0.203-0.612l0.191-1.303
	c2.397,5.596,2.679,12.269,0.241,18.072l-1.631-0.662C48.516,31.159,48.954,26.489,47.511,21.03z"/>
<path fill-rule="evenodd" clip-rule="evenodd" d="M68.777,28.227c0,1.848,0.435,5.612-2.344,5.612c-1.54,0-1.741-1.479-1.741-2.688
	C64.692,28.126,66.433,28.328,68.777,28.227L68.777,28.227L68.777,28.227L68.777,28.227z M126.674,33.738
	c-1.741,0-2.177-1.109-2.177-6.284c0-3.528,0.168-5.309,2.177-5.309s2.176,1.781,2.176,5.309
	C128.851,32.629,128.416,33.738,126.674,33.738L126.674,33.738L126.674,33.738L126.674,33.738z M126.674,36.762
	c6.094,0,6.898-3.73,6.898-9.039c0-4.638-0.67-8.603-6.898-8.603c-6.228,0-6.898,3.965-6.898,8.603
	C119.777,33.032,120.581,36.762,126.674,36.762L126.674,36.762L126.674,36.762L126.674,36.762z M111.053,12.164v24.262h4.721V12.164
	H111.053L111.053,12.164L111.053,12.164z M98.395,28.462c0-5.175,0.301-6.418,2.076-6.418c1.741,0,1.908,2.117,1.908,5.847
	c0,3.595-0.234,5.377-1.942,5.377C98.161,33.268,98.395,30.042,98.395,28.462L98.395,28.462L98.395,28.462L98.395,28.462z
	 M102.614,19.456v1.983h-0.067l0,0c-0.67-1.579-2.109-2.319-3.784-2.319c-4.922,0-4.989,4.738-4.989,8.468
	c0,3.831-0.234,8.603,4.955,8.603c1.54,0,2.879-0.672,3.583-1.983l0,0h0.067v3.26l0,0c0,1.714-0.569,2.823-1.741,2.823
	c-0.737,0-1.272-0.235-1.574-0.672c-0.301-0.403-0.402-1.008-0.402-1.714l0,0h-4.621l0,0c0.101,4.133,3.114,5.04,6.63,5.04
	c6.496,0,6.428-4.637,6.428-5.813l0,0V19.456H102.614L102.614,19.456L102.614,19.456z M82.096,19.456h-4.721v16.97h4.721V24.732l0,0
	c0-1.512,0.268-2.688,1.774-2.688c1.507,0,1.775,1.176,1.775,2.688l0,0v11.694h4.721v-13.61l0,0c0-2.353-1.976-3.696-4.219-3.696
	c-0.871,0-1.641,0.134-2.31,0.471c-0.636,0.302-1.205,0.806-1.674,1.579l0,0h-0.067V19.456L82.096,19.456L82.096,19.456z
	 M73.397,24.799c0-3.092-0.77-5.679-6.764-5.679c-1.808,0-3.348,0.302-4.42,1.109c-1.105,0.773-1.741,2.084-1.741,4.133l0,0h4.621
	l0,0c0-1.344,0.134-2.587,1.775-2.587c1.708,0,1.909,1.042,1.909,2.487l0,0v1.31l0,0c-4.386-0.067-8.706,0.168-8.706,5.78
	c0,2.957,1.206,5.41,4.487,5.41c2.042,0,3.415-0.84,4.42-2.587l0,0h0.067l0.201,2.252h4.386l0,0c-0.1-1.042-0.234-2.117-0.234-3.159
	l0,0V24.799L73.397,24.799z"/>
</svg>
