<?xml version="1.0" encoding="utf-8"?>
<!-- Generator: Adobe Illustrator 17.0.0, SVG Export Plug-In . SVG Version: 6.00 Build 0)  -->
<!DOCTYPE svg PUBLIC "-//W3C//DTD SVG 1.1//EN" "http://www.w3.org/Graphics/SVG/1.1/DTD/svg11.dtd">
<svg version="1.1" id="Camada_1" xmlns="http://www.w3.org/2000/svg" xmlns:xlink="http://www.w3.org/1999/xlink" x="0px" y="0px"
	 width="201px" height="48px" viewBox="0 0 201 48" enable-background="new 0 0 201 48" xml:space="preserve">
<g>
	<g>
		<linearGradient id="SVGID_1_" gradientUnits="userSpaceOnUse" x1="94.4861" y1="4.5098" x2="94.4861" y2="37.7568">
			<stop  offset="0" style="stop-color:#868686"/>
			<stop  offset="1" style="stop-color:#1F1F1F"/>
		</linearGradient>
		<path fill="url(#SVGID_1_)" d="M5.413,36.117V33.68c2.215,1.409,4.458,2.114,6.731,2.114c2.417,0,4.25-0.5,5.501-1.5
			c1.251-0.999,1.877-2.397,1.877-4.196c0-1.582-0.421-2.844-1.262-3.786s-2.665-2.226-5.469-3.851
			c-3.136-1.827-5.121-3.355-5.955-4.585c-0.834-1.23-1.251-2.65-1.251-4.261c0-2.186,0.849-4.042,2.546-5.566
			c1.697-1.524,3.962-2.287,6.796-2.287c1.841,0,3.682,0.31,5.523,0.928v2.244c-1.813-0.82-3.747-1.23-5.804-1.23
			c-2.101,0-3.765,0.532-4.995,1.597c-1.229,1.064-1.844,2.417-1.844,4.056c0,1.583,0.42,2.841,1.262,3.776
			c0.842,0.935,2.657,2.208,5.448,3.819c2.891,1.64,4.815,3.096,5.771,4.368c0.957,1.273,1.435,2.737,1.435,4.392
			c0,2.373-0.824,4.308-2.471,5.804s-3.973,2.243-6.979,2.243c-1.064,0-2.291-0.165-3.679-0.496
			C7.207,36.931,6.146,36.549,5.413,36.117z"/>
		<linearGradient id="SVGID_2_" gradientUnits="userSpaceOnUse" x1="94.4861" y1="4.5098" x2="94.4861" y2="37.7568">
			<stop  offset="0" style="stop-color:#868686"/>
			<stop  offset="1" style="stop-color:#1F1F1F"/>
		</linearGradient>
		<path fill="url(#SVGID_2_)" d="M48.499,37.218l-3.538-9.623h-13.42l-3.539,9.623H25.65L37.323,6.279h2.028l11.543,30.939H48.499z
			 M39.005,11.327c-0.158-0.431-0.288-0.855-0.388-1.272c-0.101-0.359-0.208-0.719-0.324-1.079h-0.086
			c-0.245,0.949-0.482,1.719-0.712,2.309l-5.2,14.348h11.931L39.005,11.327z"/>
		<linearGradient id="SVGID_3_" gradientUnits="userSpaceOnUse" x1="94.4861" y1="4.5098" x2="94.4861" y2="37.7568">
			<stop  offset="0" style="stop-color:#868686"/>
			<stop  offset="1" style="stop-color:#1F1F1F"/>
		</linearGradient>
		<path fill="url(#SVGID_3_)" d="M76.287,37.218l-3.538-9.623h-13.42l-3.539,9.623h-2.352L65.111,6.279h2.028l11.543,30.939H76.287z
			 M66.794,11.327c-0.158-0.431-0.288-0.855-0.388-1.272c-0.101-0.359-0.208-0.719-0.324-1.079h-0.086
			c-0.245,0.949-0.482,1.719-0.712,2.309l-5.2,14.348h11.931L66.794,11.327z"/>
		<linearGradient id="SVGID_4_" gradientUnits="userSpaceOnUse" x1="94.4861" y1="4.5098" x2="94.4861" y2="37.7568">
			<stop  offset="0" style="stop-color:#868686"/>
			<stop  offset="1" style="stop-color:#1F1F1F"/>
		</linearGradient>
		<path fill="url(#SVGID_4_)" d="M86.061,8.242v12.622h11.435v1.942H86.061v14.412h-2.136V6.279H98.38v1.963H86.061z"/>
		<linearGradient id="SVGID_5_" gradientUnits="userSpaceOnUse" x1="94.4861" y1="4.5098" x2="94.4861" y2="37.7568">
			<stop  offset="0" style="stop-color:#868686"/>
			<stop  offset="1" style="stop-color:#1F1F1F"/>
		</linearGradient>
		<path fill="url(#SVGID_5_)" d="M129.881,37.218h-1.77l-6.883-23.28c-0.345-1.194-0.539-2.165-0.582-2.913h-0.086
			c-0.044,0.633-0.267,1.589-0.669,2.87l-7.336,23.323h-1.77l-9.191-30.939h2.396l7.056,24.79c0.315,1.122,0.539,2.036,0.668,2.74
			h0.087c0.086-0.531,0.338-1.445,0.755-2.74l7.638-24.79h1.079l7.012,24.79c0.331,1.151,0.554,2.064,0.669,2.74h0.086
			c0.072-0.402,0.187-0.862,0.346-1.381l7.249-26.149h2.309L129.881,37.218z"/>
		<linearGradient id="SVGID_6_" gradientUnits="userSpaceOnUse" x1="94.4861" y1="4.5098" x2="94.4861" y2="37.7568">
			<stop  offset="0" style="stop-color:#868686"/>
			<stop  offset="1" style="stop-color:#1F1F1F"/>
		</linearGradient>
		<path fill="url(#SVGID_6_)" d="M142.459,26.258c0,3.035,0.701,5.408,2.104,7.119c1.402,1.712,3.326,2.568,5.771,2.568
			c2.474,0,4.891-0.914,7.25-2.74v2.114c-2.287,1.625-4.841,2.438-7.659,2.438c-2.849,0-5.149-1.021-6.904-3.063
			c-1.755-2.042-2.633-4.926-2.633-8.651c0-3.222,0.917-5.937,2.751-8.145c1.834-2.208,4.218-3.312,7.152-3.312
			c2.747,0,4.854,0.964,6.321,2.891c1.468,1.927,2.201,4.56,2.201,7.896v0.885H142.459z M156.742,24.445
			c-0.086-2.546-0.698-4.523-1.834-5.933c-1.137-1.41-2.704-2.115-4.703-2.115c-2.071,0-3.787,0.694-5.146,2.082
			c-1.359,1.388-2.198,3.376-2.514,5.966H156.742z"/>
		<linearGradient id="SVGID_7_" gradientUnits="userSpaceOnUse" x1="94.4861" y1="4.5098" x2="94.4861" y2="37.7568">
			<stop  offset="0" style="stop-color:#868686"/>
			<stop  offset="1" style="stop-color:#1F1F1F"/>
		</linearGradient>
		<path fill="url(#SVGID_7_)" d="M166.364,33.291h-0.086v3.927h-1.985V4.51h1.985v15.167h0.086c0.791-1.625,1.924-2.88,3.398-3.765
			c1.474-0.885,3.096-1.327,4.865-1.327c2.805,0,4.994,0.967,6.569,2.902s2.362,4.563,2.362,7.886c0,3.696-0.913,6.685-2.739,8.965
			c-1.827,2.279-4.2,3.419-7.12,3.419C170.392,37.757,167.946,36.269,166.364,33.291z M166.278,25.07v2.784
			c0,2.215,0.697,4.117,2.093,5.706c1.395,1.59,3.229,2.385,5.502,2.385c2.258,0,4.092-0.968,5.501-2.902
			c1.41-1.935,2.114-4.477,2.114-7.627c0-2.762-0.646-4.955-1.941-6.581c-1.294-1.625-3.021-2.438-5.178-2.438
			c-2.575,0-4.567,0.863-5.977,2.589C166.982,20.713,166.278,22.741,166.278,25.07z"/>
	</g>
</g>
<g>
	<path fill="#1F1F1F" d="M184.439,44.213V43.79c0-0.282,0.022-0.536,0.069-0.761c0.046-0.226,0.117-0.433,0.212-0.622
		s0.212-0.367,0.354-0.534c0.141-0.166,0.305-0.332,0.492-0.499c0.188-0.166,0.399-0.336,0.638-0.511s0.498-0.365,0.78-0.572
		c0.273-0.197,0.529-0.394,0.767-0.587c0.238-0.193,0.445-0.402,0.622-0.625c0.177-0.224,0.317-0.469,0.42-0.735
		c0.104-0.268,0.155-0.574,0.155-0.919c0-0.598-0.166-1.063-0.496-1.393s-0.795-0.496-1.393-0.496c-0.404,0-0.793,0.089-1.168,0.266
		s-0.741,0.423-1.099,0.738v-0.682c0.345-0.265,0.718-0.474,1.117-0.625c0.4-0.151,0.817-0.228,1.251-0.228
		c0.361,0,0.69,0.055,0.984,0.164c0.295,0.109,0.547,0.266,0.755,0.468c0.209,0.202,0.369,0.446,0.483,0.732
		c0.113,0.286,0.17,0.606,0.17,0.96c0,0.417-0.06,0.786-0.18,1.108c-0.12,0.321-0.283,0.614-0.489,0.877
		c-0.206,0.264-0.447,0.506-0.723,0.727c-0.276,0.221-0.567,0.441-0.875,0.66c-0.408,0.29-0.754,0.548-1.035,0.773
		c-0.282,0.226-0.512,0.445-0.688,0.66c-0.177,0.214-0.305,0.436-0.382,0.663c-0.078,0.227-0.117,0.49-0.117,0.789v0.095h4.502v0.53
		H184.439z"/>
	<path fill="#1F1F1F" d="M191.929,44.326c-0.144,0-0.264-0.049-0.36-0.148c-0.097-0.099-0.145-0.22-0.145-0.362
		c0-0.147,0.048-0.269,0.145-0.363s0.217-0.143,0.36-0.143c0.143,0,0.265,0.048,0.366,0.143c0.101,0.095,0.151,0.216,0.151,0.363
		c0,0.143-0.051,0.264-0.151,0.362C192.193,44.277,192.071,44.326,191.929,44.326z"/>
	<path fill="#1F1F1F" d="M196.627,44.371c-0.834,0-1.486-0.384-1.958-1.149c-0.472-0.767-0.707-1.88-0.707-3.341
		c0-1.612,0.247-2.828,0.742-3.646c0.494-0.819,1.2-1.229,2.118-1.229c1.743,0,2.614,1.547,2.614,4.642
		c0,1.541-0.246,2.713-0.738,3.518C198.205,43.969,197.515,44.371,196.627,44.371z M196.771,35.536
		c-0.694,0-1.235,0.356-1.623,1.067c-0.387,0.712-0.58,1.779-0.58,3.202c0,1.296,0.185,2.293,0.556,2.989
		c0.37,0.697,0.896,1.045,1.578,1.045c0.67,0,1.19-0.354,1.563-1.063c0.372-0.709,0.559-1.723,0.559-3.041
		C198.824,36.937,198.14,35.536,196.771,35.536z"/>
</g>
<g>
</g>
<g>
</g>
<g>
</g>
<g>
</g>
<g>
</g>
<g>
</g>
</svg>
