<?xml version="1.0" encoding="utf-8"?>
<!-- Generator: Adobe Illustrator 17.0.0, SVG Export Plug-In . SVG Version: 6.00 Build 0)  -->
<!DOCTYPE svg PUBLIC "-//W3C//DTD SVG 1.1//EN" "http://www.w3.org/Graphics/SVG/1.1/DTD/svg11.dtd">
<svg version="1.1" id="Camada_1" xmlns="http://www.w3.org/2000/svg" xmlns:xlink="http://www.w3.org/1999/xlink" x="0px" y="0px"
	 width="96.531px" height="25.417px" viewBox="0 0 96.531 25.417" enable-background="new 0 0 96.531 25.417" xml:space="preserve">
<g id="Layer_2">
</g>
<g>
	<path fill="#FFFFFF" d="M40.643,7.633c0-2.042,0.831-2.699,2.895-2.699c0.703,0,1.391,0.102,2.063,0.292
		c0,0.292-0.08,0.554-0.239,0.802c-0.608-0.161-1.231-0.248-1.855-0.248c-1.215,0-1.823,0.583-1.823,1.75v2.247
		c0,1.167,0.608,1.75,1.823,1.75c0.624,0,1.247-0.088,1.855-0.248c0.159,0.248,0.239,0.525,0.239,0.802
		c-0.672,0.189-1.359,0.292-2.063,0.292c-2.063,0-2.895-0.656-2.895-2.699V7.633z"/>
	<path fill="#FFFFFF" d="M46.638,7.648c0-1.459-0.064-2.713,2.639-2.713c2.719,0,2.639,1.254,2.639,2.713v2.013
		c0,1.342,0.191,2.713-2.639,2.713c-2.767,0-2.639-1.284-2.639-2.713V7.648z M47.677,9.632c0,1.517,0.256,1.896,1.6,1.896
		c1.359,0,1.599-0.423,1.599-1.896V7.677c0-1.517-0.239-1.896-1.599-1.896s-1.6,0.379-1.6,1.896V9.632z"/>
	<path fill="#FFFFFF" d="M57.573,12.301h-4.062v-7.25c0.224-0.029,0.399-0.044,0.512-0.044c0.128,0,0.304,0.015,0.527,0.044v6.404
		h3.022c0.032,0.205,0.048,0.335,0.048,0.409C57.621,11.951,57.606,12.097,57.573,12.301z"/>
	<path fill="#FFFFFF" d="M63.04,12.301h-4.302V5.007h4.302c0.031,0.205,0.048,0.351,0.048,0.438c0,0.073-0.017,0.204-0.048,0.408
		h-3.263v2.378h2.734c0.032,0.204,0.048,0.35,0.048,0.438c0,0.073-0.016,0.204-0.048,0.409h-2.734v2.377h3.263
		c0.031,0.205,0.048,0.335,0.048,0.409C63.088,11.951,63.072,12.097,63.04,12.301z"/>
	<path fill="#FFFFFF" d="M68.443,9.326h-1.375C67.036,9.121,67.02,8.99,67.02,8.917c0-0.087,0.017-0.233,0.048-0.438h1.887
		c0.129,0,0.305,0.015,0.528,0.043v3.56c-0.672,0.189-1.392,0.292-2.143,0.292c-2.095,0-2.975-0.715-2.975-2.699V7.633
		c0-1.984,0.88-2.699,2.975-2.699c0.751,0,1.471,0.102,2.143,0.292c0,0.292-0.08,0.554-0.24,0.802
		c-0.607-0.161-1.247-0.248-1.935-0.248c-1.216,0-1.903,0.583-1.903,1.75v2.247c0,1.167,0.688,1.75,1.903,1.75
		c0.447,0,0.831-0.029,1.135-0.073V9.326z"/>
	<path fill="#FFFFFF" d="M72.118,5.051v7.206c-0.224,0.029-0.399,0.044-0.512,0.044c-0.128,0-0.304-0.015-0.527-0.044V5.051
		c0.224-0.029,0.399-0.044,0.512-0.044C71.719,5.007,71.895,5.022,72.118,5.051z"/>
	<path fill="#FFFFFF" d="M73.717,7.648c0-1.459-0.064-2.713,2.639-2.713c2.718,0,2.639,1.254,2.639,2.713v2.013
		c0,1.342,0.191,2.713-2.639,2.713c-2.767,0-2.639-1.284-2.639-2.713V7.648z M74.756,9.632c0,1.517,0.256,1.896,1.6,1.896
		c1.359,0,1.599-0.423,1.599-1.896V7.677c0-1.517-0.239-1.896-1.599-1.896s-1.6,0.379-1.6,1.896V9.632z"/>
	<path fill="#FFFFFF" d="M42.673,14.473c1.712,0,2.751,0.233,2.751,2.437c0,2.421-1.343,2.421-2.751,2.421h-0.591v2.363
		c-0.24,0.044-0.48,0.073-0.72,0.073c-0.208,0-0.448-0.029-0.72-0.073v-7.221H42.673z M42.657,18.222
		c0.88,0,1.327-0.438,1.327-1.313c0-1.108-0.751-1.211-1.327-1.211h-0.575v2.523H42.657z"/>
	<path fill="#FFFFFF" d="M46.461,14.473h2.11c1.791,0,2.671,0.204,2.751,2.437c0,1.05-0.304,1.75-0.896,2.101l0.863,2.597
		c-0.208,0.102-0.479,0.16-0.783,0.16c-0.272,0-0.496-0.029-0.672-0.088l-0.815-2.349h-1.119v2.363
		c-0.24,0.044-0.48,0.073-0.72,0.073c-0.208,0-0.448-0.029-0.72-0.073V14.473z M48.556,18.222c0.88,0,1.327-0.438,1.327-1.313
		c0-1.108-0.751-1.211-1.327-1.211h-0.655v2.523H48.556z"/>
	<path fill="#FFFFFF" d="M52.68,17.172c0-1.911,0.336-2.771,2.687-2.771s2.687,0.86,2.687,2.771v1.896
		c0,1.823-0.272,2.771-2.687,2.771c-2.415,0-2.687-0.948-2.687-2.771V17.172z M54.119,19.04c0,1.327,0.031,1.575,1.247,1.575
		c1.215,0,1.247-0.292,1.247-1.575v-1.838c0-1.4-0.096-1.532-1.247-1.605c-1.279,0-1.247,0.467-1.247,1.605V19.04z"/>
	<path fill="#FFFFFF" d="M63.072,18.981h-0.943c-0.048-0.219-0.08-0.394-0.08-0.525c0-0.219,0.032-0.408,0.08-0.627h1.663
		c0.111,0,0.352,0.029,0.72,0.073v3.646c-0.656,0.189-1.376,0.292-2.159,0.292c-2.11,0-2.862-0.686-2.862-2.757v-1.911
		c0-1.911,0.815-2.771,2.862-2.771c0.672,0,1.392,0.116,2.159,0.35c0,0.599-0.032,0.627-0.336,1.152
		c-0.624-0.189-1.231-0.277-1.855-0.277c-0.976,0-1.391,0.452-1.391,1.444v2.101c0,1.108,0.352,1.561,1.375,1.561
		c0.271,0,0.527-0.015,0.768-0.043V18.981z"/>
	<path fill="#FFFFFF" d="M65.948,14.473h2.11c1.791,0,2.671,0.204,2.751,2.437c0,1.05-0.304,1.75-0.896,2.101l0.863,2.597
		c-0.208,0.102-0.479,0.16-0.783,0.16c-0.272,0-0.496-0.029-0.672-0.088l-0.815-2.349h-1.119v2.363
		c-0.24,0.044-0.48,0.073-0.72,0.073c-0.208,0-0.448-0.029-0.72-0.073V14.473z M68.042,18.222c0.88,0,1.327-0.438,1.327-1.313
		c0-1.108-0.751-1.211-1.327-1.211h-0.655v2.523H68.042z"/>
	<path fill="#FFFFFF" d="M73.606,18.674v1.984h2.99c0.048,0.175,0.08,0.335,0.08,0.481c0,0.233-0.032,0.438-0.08,0.627h-4.43v-7.294
		h4.43c0.048,0.219,0.08,0.409,0.08,0.628c0,0.276-0.017,0.48-0.048,0.598h-3.022v1.867H76.1c0.048,0.175,0.08,0.336,0.08,0.481
		c0,0.233-0.032,0.438-0.08,0.627H73.606z"/>
	<path fill="#FFFFFF" d="M80.176,20.731c0.896,0,1.295-0.16,1.295-1.152c0-1.021-3.598-0.686-3.598-3.077
		c0-1.532,0.815-2.101,2.799-2.101c0.671,0,1.343,0.116,2.015,0.364c-0.032,0.438-0.16,0.816-0.368,1.152
		c-0.575-0.189-1.119-0.292-1.615-0.292c-0.976,0-1.391,0.132-1.391,0.876c0,1.123,3.598,0.816,3.598,3.077
		c0,1.984-1.151,2.262-2.75,2.262c-1.056,0-1.839-0.233-2.367-0.7c0.017-0.409,0.208-0.759,0.56-1.036
		C78.945,20.527,79.552,20.731,80.176,20.731z"/>
	<path fill="#FFFFFF" d="M86.41,20.731c0.896,0,1.295-0.16,1.295-1.152c0-1.021-3.598-0.686-3.598-3.077
		c0-1.532,0.815-2.101,2.799-2.101c0.671,0,1.343,0.116,2.015,0.364c-0.032,0.438-0.16,0.816-0.368,1.152
		c-0.575-0.189-1.119-0.292-1.615-0.292c-0.976,0-1.391,0.132-1.391,0.876c0,1.123,3.598,0.816,3.598,3.077
		c0,1.984-1.151,2.262-2.75,2.262c-1.056,0-1.839-0.233-2.367-0.7c0.017-0.409,0.208-0.759,0.56-1.036
		C85.179,20.527,85.786,20.731,86.41,20.731z"/>
	<path fill="#FFFFFF" d="M90.422,17.172c0-1.911,0.336-2.771,2.687-2.771s2.687,0.86,2.687,2.771v1.896
		c0,1.823-0.272,2.771-2.687,2.771c-2.415,0-2.687-0.948-2.687-2.771V17.172z M91.862,19.04c0,1.327,0.031,1.575,1.247,1.575
		c1.215,0,1.247-0.292,1.247-1.575v-1.838c0-1.4-0.096-1.532-1.247-1.605c-1.279,0-1.247,0.467-1.247,1.605V19.04z"/>
</g>
<g id="Forma_2">
	<g>
		<polygon fill-rule="evenodd" clip-rule="evenodd" fill="#FFFFFF" points="61.984,2.858 59.883,3.717 60.074,4.29 62.271,3.622 		
			"/>
	</g>
</g>
<g id="Forma_1">
	<g>
		<path fill-rule="evenodd" clip-rule="evenodd" fill="#FFFFFF" d="M19.007,0.908v13.201c0,0,7.271-1.542,7.271-6.601
			C26.278,2.882,19.007,0.908,19.007,0.908z M0.5,12.459c0,7.333,8.923,11.221,8.923,11.221s-3.629-3.089-3.635-6.271
			c-0.007-2.504,3.99-7.591,10.245-7.591V0.578C10.827,0.578,0.5,5.125,0.5,12.459z"/>
	</g>
</g>
<g id="Forma_1_copiar">
	<g>
		<path fill-rule="evenodd" clip-rule="evenodd" fill="#FFFFFF" d="M9.093,18.069c0,3.855,6.097,5.998,6.097,5.998l0.781-0.568
			l0.062-12.361C16.033,11.139,9.093,13.104,9.093,18.069z M25.782,1.733c0,0,3.629,3.09,3.635,6.271
			c0.007,2.504-4.07,7.619-10.325,7.619c0,0,0,5.331,0,7.877c0,0.01,1.732,1.199,1.743,1.206
			c5.468-0.789,13.869-5.137,13.869-11.752C34.705,5.621,25.782,1.733,25.782,1.733z"/>
	</g>
</g>
</svg>
