<?xml version="1.0" encoding="utf-8"?>
<!-- Generator: Adobe Illustrator 17.0.0, SVG Export Plug-In . SVG Version: 6.00 Build 0)  -->
<!DOCTYPE svg PUBLIC "-//W3C//DTD SVG 1.1//EN" "http://www.w3.org/Graphics/SVG/1.1/DTD/svg11.dtd">
<svg version="1.1" id="Layer_1" xmlns="http://www.w3.org/2000/svg" xmlns:xlink="http://www.w3.org/1999/xlink" x="0px" y="0px"
	 width="101.691px" height="26.875px" viewBox="0 0 101.691 26.875" enable-background="new 0 0 101.691 26.875"
	 xml:space="preserve">
<g>
	<path fill="none" d="M54.634,16.859c0,0.467,0.116,0.839,0.349,1.119c0.233,0.28,0.53,0.419,0.892,0.419
		c0.349,0,0.693-0.119,1.031-0.358c0.338-0.239,0.599-0.562,0.786-0.97v-2.185C55.654,14.954,54.634,15.613,54.634,16.859z"/>
	<path fill="none" d="M45.543,11.16c-1.247,0-1.871,1.195-1.871,3.584c0,2.436,0.601,3.653,1.801,3.653
		c0.606,0,1.089-0.262,1.451-0.787c0.362-0.525,0.542-1.253,0.542-2.185V12.96C47.023,11.76,46.383,11.16,45.543,11.16z"/>
	<path fill="none" d="M33.237,16.859c0,0.467,0.116,0.839,0.349,1.119c0.233,0.28,0.53,0.419,0.891,0.419
		c0.35,0,0.694-0.119,1.032-0.358c0.337-0.239,0.599-0.562,0.786-0.97v-2.185C34.257,14.954,33.237,15.613,33.237,16.859z"/>
	<path fill="none" d="M86.344,10.811c-0.652,0-1.122,0.326-1.407,0.979c-0.286,0.653-0.429,1.672-0.429,3.06
		c0,1.352,0.146,2.331,0.438,2.937c0.302,0.641,0.804,0.961,1.504,0.961c0.652,0,1.113-0.321,1.381-0.961
		c0.246-0.583,0.367-1.562,0.367-2.937c0-1.41-0.143-2.437-0.429-3.077C87.483,11.132,87.009,10.811,86.344,10.811z"/>
	<line fill="none" x1="37.852" y1="17.838" x2="37.851" y2="17.838"/>
	<path fill="#FFFFFF" d="M37.188,11.168c-0.443-0.473-1.172-0.709-2.185-0.709c-0.863,0-1.574,0.166-2.133,0.499
		c-0.56,0.332-0.875,0.766-0.944,1.302l1.031,0.979c0.583-0.047,0.875-0.39,0.875-1.031v-0.07c0-0.386,0.117-0.702,0.349-0.953
		c0.233-0.25,0.512-0.376,0.839-0.376c0.477,0,0.809,0.207,0.996,0.62c0.186,0.414,0.28,1.064,0.28,1.95v1.154
		c-3.193,0.094-4.79,0.973-4.79,2.64c0,0.525,0.224,0.977,0.673,1.355s1.005,0.568,1.669,0.568c0.443,0,0.822-0.092,1.137-0.279
		c0.209-0.175,0.425-0.343,0.646-0.507c0.409-0.314,0.852-0.472,1.329-0.472h0.891v-4.336C37.851,12.418,37.63,11.64,37.188,11.168z
		 M36.297,17.069c-0.187,0.408-0.449,0.731-0.786,0.97c-0.338,0.239-0.682,0.358-1.032,0.358c-0.362,0-0.658-0.14-0.891-0.419
		c-0.233-0.28-0.349-0.652-0.349-1.119c0-1.246,1.02-1.905,3.059-1.975L36.297,17.069L36.297,17.069z"/>
	<path fill="#FFFFFF" d="M44.933,10.46c-0.933,0-1.664,0.393-2.194,1.18c-0.531,0.786-0.795,1.903-0.795,3.348
		c0,1.271,0.276,2.273,0.83,3.008c0.554,0.734,1.297,1.101,2.229,1.101c0.956,0,1.719-0.506,2.29-1.52h0.175v2.22
		c0,0.921-0.143,1.588-0.428,2.001c-0.286,0.414-0.778,0.621-1.477,0.621h-0.349v0.209h0.402c1.246,0,2.124-0.259,2.63-0.778
		c0.507-0.518,0.761-1.395,0.761-2.631l0.001-7.15c-0.863-0.012-1.509-0.233-1.94-0.665C46.424,10.775,45.713,10.46,44.933,10.46z
		 M47.466,15.426c0,0.932-0.181,1.66-0.542,2.185c-0.362,0.525-0.845,0.787-1.451,0.787c-1.2,0-1.801-1.218-1.801-3.653
		c0-2.389,0.624-3.584,1.871-3.584c0.839,0,1.48,0.6,1.923,1.8V15.426z"/>
	<path fill="#FFFFFF" d="M56.399,10.46c-0.862,0-1.573,0.166-2.133,0.499c-0.56,0.332-0.875,0.766-0.944,1.302l1.03,0.979
		c0.583-0.047,0.875-0.39,0.875-1.031v-0.07c0-0.386,0.116-0.702,0.349-0.953c0.233-0.25,0.512-0.376,0.839-0.376
		c0.477,0,0.81,0.207,0.996,0.62c0.186,0.414,0.28,1.064,0.28,1.95v1.154c-3.193,0.094-4.79,0.973-4.79,2.64
		c0,0.525,0.224,0.977,0.673,1.355s1.006,0.568,1.669,0.568c0.443,0,0.822-0.092,1.137-0.279c0.21-0.175,0.425-0.343,0.647-0.507
		c0.408-0.314,0.851-0.472,1.329-0.472h0.891v-0.001v-4.336c0-1.084-0.221-1.862-0.664-2.333
		C58.141,10.696,57.413,10.46,56.399,10.46z M57.693,17.069c-0.187,0.408-0.449,0.731-0.786,0.97
		c-0.338,0.239-0.682,0.358-1.031,0.358c-0.362,0-0.659-0.14-0.892-0.419c-0.233-0.28-0.349-0.652-0.349-1.119
		c0-1.246,1.02-1.905,3.059-1.975v2.185H57.693z"/>
	<path fill="#FFFFFF" d="M65.822,5.938h-0.594c0,2.669-0.769,4.009-2.308,4.021c-0.14,0.035-0.21,0.117-0.21,0.245
		c0,0.117,0.071,0.193,0.215,0.227h1.341v6.69c0,1.189,0.352,1.783,1.055,1.783h2.004v-0.175h-0.153
		c-0.581,0-0.951-0.111-1.111-0.333c-0.16-0.221-0.239-0.657-0.239-1.311V10.43h2.36V9.958h-2.36V5.938z"/>
	<path fill="#FFFFFF" d="M78.811,18.257c-0.105-0.209-0.157-0.605-0.157-1.188v-4.543c0-1.561-0.688-2.343-2.063-2.343
		c-1.305,0-2.295,0.822-2.971,2.465h-0.193V5.662h-2.902v0.245h0.052c0.571,0,0.944,0.145,1.119,0.437
		c0.127,0.222,0.193,0.711,0.193,1.468v11.093h1.538v-4.439c0-0.863,0.236-1.635,0.708-2.317c0.472-0.681,0.999-1.022,1.582-1.022
		c0.652,0,1.066,0.309,1.241,0.926c0.128,0.42,0.192,1.34,0.192,2.762v2.499c0,1.06,0.472,1.59,1.416,1.59h1.346v-0.176H79.86
		C79.323,18.729,78.974,18.572,78.811,18.257z"/>
	<path fill="#FFFFFF" d="M86.344,10.461c-2.261,0-3.391,1.463-3.391,4.389c0,2.832,1.13,4.247,3.391,4.247
		c2.273,0,3.409-1.415,3.409-4.247c0-1.387-0.303-2.465-0.909-3.235C88.238,10.846,87.405,10.461,86.344,10.461z M87.83,17.786
		c-0.268,0.64-0.729,0.961-1.381,0.961c-0.699,0-1.201-0.32-1.504-0.961c-0.292-0.606-0.438-1.585-0.438-2.937
		c0-1.387,0.143-2.407,0.429-3.06c0.285-0.653,0.755-0.979,1.407-0.979c0.665,0,1.139,0.32,1.425,0.962
		c0.286,0.64,0.429,1.667,0.429,3.077C88.198,16.224,88.076,17.203,87.83,17.786z"/>
	<path fill="#FFFFFF" d="M97.9,15.093c-0.199-0.186-0.796-0.583-1.793-1.188c-0.996-0.606-1.494-1.142-1.494-1.608
		c0-0.409,0.142-0.74,0.428-0.997c0.285-0.256,0.667-0.385,1.145-0.385c0.979,0,1.555,0.432,1.73,1.294h0.001h0.157v-1.346
		c-0.536-0.268-1.218-0.402-2.045-0.402c-0.828,0-1.501,0.225-2.02,0.673c-0.518,0.449-0.777,1.029-0.777,1.74
		c0,0.792,0.547,1.516,1.643,2.168c1.095,0.652,1.655,0.99,1.678,1.014c0.467,0.349,0.7,0.757,0.7,1.223
		c0,0.839-0.559,1.259-1.679,1.259c-0.524,0-1.154-0.215-1.888-0.647c-0.082-0.047-0.134-0.07-0.157-0.07
		c-0.164,0-0.245,0.081-0.245,0.244c0,0.187,0.233,0.391,0.699,0.613c0.536,0.267,1.124,0.401,1.766,0.401
		c0.886,0,1.588-0.212,2.106-0.637c0.518-0.425,0.777-0.993,0.777-1.704C98.634,16.084,98.389,15.536,97.9,15.093z"/>
	<path fill="#FFFFFF" d="M33.054,10.168c0.665-0.143,1.177-0.312,2.225-0.306c1.633,0.01,2.391,0.564,2.734,1.173
		c-0.441-1.539,0.138-2.746,0.138-2.746L33.054,10.168z"/>
	<path fill="#FFFFFF" d="M19.432,8.108c-0.802-1.827-1.898-3.511-3.394-5.181c-0.346,1.623-0.794,3.19-1.311,4.596
		c0.98,1.777,1.876,3.884,2.436,6.272C18.141,11.757,18.892,9.653,19.432,8.108z"/>
	<path fill="#FFFFFF" d="M11.075,14.59c-0.84,1.221-1.703,2.299-2.541,3.23c0.44,3.646-0.309,6.668-0.596,7.598
		c1.356-0.853,2.544-1.928,3.665-3.134C11.871,20.183,11.881,17.502,11.075,14.59z"/>
	<path fill="#FFFFFF" d="M6.856,12.223c0.878-0.943,1.525-1.816,2.029-2.683C7.882,7.902,6.57,6.266,4.839,4.66
		C4.678,5.492,4.074,6.553,3.334,7.658C4.914,9.106,6.052,10.658,6.856,12.223z"/>
	<path fill="#FFFFFF" d="M17.604,21.889c-0.175,1.285-0.452,2.643-0.881,4.015c1.733-0.599,3.223-1.571,4.446-2.662
		c0.15-0.827,0.517-3.342,0.314-6.575C20.346,18.742,18.972,20.5,17.604,21.889z"/>
	<path fill="#FFFFFF" d="M9.491,1.389c0,0-0.687,0.857-4.601,2.873c11.379,10.227,6.027,22.495,6.027,22.495s2.812,0.13,5.367-0.671
		C20.94,11.198,9.491,1.389,9.491,1.389z"/>
	<path fill="#FFFFFF" d="M16.151,2.423c7.957,8.718,5.473,20.467,5.473,20.467C30.402,13.377,23.203,3.795,16.151,2.423z"/>
	<path fill="#FFFFFF" d="M1.99,6.969C0.712,10.582,0,11.906,0,11.906s4.938,4.927,2.869,10.776l4.533,3.035
		C7.402,25.716,11.479,14.525,1.99,6.969z"/>
</g>
</svg>
