<?xml version="1.0" encoding="utf-8"?>
<!-- Generator: Adobe Illustrator 17.0.0, SVG Export Plug-In . SVG Version: 6.00 Build 0)  -->
<!DOCTYPE svg PUBLIC "-//W3C//DTD SVG 1.1//EN" "http://www.w3.org/Graphics/SVG/1.1/DTD/svg11.dtd">
<svg version="1.1" id="Camada_1" xmlns="http://www.w3.org/2000/svg" xmlns:xlink="http://www.w3.org/1999/xlink" x="0px" y="0px"
	 width="134px" height="27.134px" viewBox="0 0 134 27.134" enable-background="new 0 0 134 27.134" xml:space="preserve">
<g>
	<path fill="#FFFFFF" d="M1.863,1.666h19.888l2.717,7.529l-3.09,1.11c-0.524-1.229-1.136-2.22-1.836-2.971
		c-0.7-0.751-1.474-1.249-2.322-1.494c-0.848-0.245-1.836-0.367-2.962-0.367h-3.636v5.941h1.195c0.899,0,1.505-0.065,1.818-0.196
		c0.313-0.131,0.538-0.335,0.674-0.615c0.137-0.279,0.205-0.834,0.205-1.665V8.034h3.039v10.091h-3.039v-1.029
		c0-0.698-0.083-1.207-0.248-1.527c-0.165-0.321-0.39-0.538-0.674-0.652c-0.285-0.114-0.917-0.172-1.895-0.172h-1.076v5.477
		c0,0.582,0.028,0.936,0.085,1.061c0.057,0.125,0.168,0.222,0.333,0.29c0.165,0.069,0.521,0.103,1.068,0.103h1.998
		c1.492,0,2.75-0.214,3.775-0.644c1.025-0.428,1.938-1.12,2.741-2.075c0.803-0.955,1.421-2.09,1.853-3.405l3.12,1.077l-3.126,8.853
		H1.863v-3.295H2.46c0.797,0,1.332-0.057,1.605-0.171s0.467-0.313,0.581-0.597c0.057-0.171,0.085-0.654,0.085-1.451V6.993
		c0-0.705-0.049-1.167-0.145-1.383C4.489,5.394,4.338,5.232,4.133,5.124C3.928,5.016,3.525,4.962,2.921,4.962H1.863V1.666z"/>
	<path fill="#FFFFFF" d="M44.989,1.666l2.049,7.99l-3.193,0.905c-1.057-1.906-2.256-3.302-3.597-4.188
		c-1.341-0.885-2.767-1.327-4.279-1.327c-0.978,0-1.748,0.2-2.31,0.598c-0.562,0.399-0.844,0.843-0.844,1.332
		c0,0.558,0.256,1.077,0.768,1.555c0.501,0.479,1.423,0.906,2.766,1.282l4.576,1.333c2.538,0.729,4.348,1.697,5.43,2.904
		c1.069,1.219,1.605,2.637,1.605,4.254c0,2.062-0.819,3.805-2.458,5.228c-1.833,1.572-4.109,2.359-6.829,2.359
		c-1.263,0-2.424-0.162-3.483-0.487c-1.059-0.324-2.163-0.868-3.312-1.63l-0.751,1.707h-2.544l-1.691-9.236l3.193-0.768
		c0.751,1.878,1.921,3.446,3.509,4.704c1.588,1.258,3.332,1.887,5.233,1.887c0.854,0,1.562-0.109,2.125-0.325
		c0.563-0.216,0.987-0.518,1.272-0.905c0.284-0.387,0.427-0.785,0.427-1.195c0-0.682-0.331-1.269-0.99-1.758
		c-0.672-0.49-1.844-0.972-3.517-1.45l-3.981-1.16c-0.603-0.171-1.42-0.492-2.449-0.965c-1.029-0.473-1.82-0.965-2.372-1.477
		c-0.552-0.512-1.01-1.17-1.374-1.973c-0.364-0.803-0.546-1.648-0.546-2.536c0-1.263,0.35-2.428,1.05-3.492s1.753-1.927,3.158-2.587
		c1.405-0.661,2.962-0.99,4.669-0.99c2.06,0,3.921,0.535,5.583,1.605l0.666-1.195L44.989,1.666L44.989,1.666z"/>
	<path fill="#FFFFFF" d="M58.75,1.666h5.35l7.148,18.388c0.387,0.979,0.731,1.582,1.032,1.81c0.302,0.228,0.857,0.335,1.665,0.325
		v3.295H62.677v-3.295l0.683-0.017c0.626,0,1.064-0.082,1.315-0.248c0.25-0.165,0.376-0.366,0.376-0.606
		c0-0.205-0.109-0.626-0.325-1.264l-0.711-2.168h-7.241l-0.893,2.407c-0.182,0.512-0.273,0.848-0.273,1.007
		c0,0.182,0.065,0.347,0.197,0.495c0.131,0.147,0.344,0.256,0.64,0.325c0.194,0.046,0.728,0.068,1.605,0.068v3.295h-9.219v-3.295
		c0.591,0,1.024-0.051,1.298-0.154s0.498-0.256,0.674-0.461c0.176-0.204,0.372-0.586,0.589-1.145L58.75,1.666z M58.035,14.488h4.73
		l-2.305-6.54L58.035,14.488z"/>
	<path fill="#FFFFFF" d="M75.329,1.666h10.78l4.139,14.505l4.284-14.505h10.965v3.295h-1.178c-0.638,0-1.079,0.134-1.323,0.401
		c-0.244,0.268-0.366,0.772-0.366,1.511v13.523c0,0.591,0.034,0.962,0.103,1.11c0.103,0.228,0.245,0.387,0.427,0.478
		c0.25,0.137,0.581,0.205,0.99,0.205h1.348v3.295H94.04v-3.295h0.888c0.649,0,1.087-0.051,1.314-0.154
		c0.227-0.103,0.396-0.259,0.503-0.47c0.109-0.21,0.163-0.6,0.163-1.169V5.746l-5.805,19.737h-3.295L82.191,6.378v14.478
		c0,0.331,0.06,0.586,0.179,0.768c0.12,0.182,0.291,0.322,0.512,0.418c0.223,0.097,0.578,0.145,1.067,0.145h1.144v3.295h-9.766
		v-3.295h0.962c0.607,0,1.022-0.054,1.245-0.163c0.223-0.108,0.389-0.278,0.498-0.512c0.109-0.233,0.163-0.663,0.163-1.288V6.873
		c0-0.615-0.04-1.013-0.12-1.195c-0.103-0.25-0.258-0.433-0.464-0.547C77.406,5.018,77.08,4.96,76.633,4.96h-1.305L75.329,1.666
		L75.329,1.666z"/>
	<path fill="#FFFFFF" d="M126.517,1.666h2.422l2.337,8.554l-3.176,0.922c-1.059-2.037-2.055-3.483-2.988-4.336
		c-1.298-1.172-2.704-1.758-4.217-1.758c-1.104,0-2.137,0.307-3.099,0.922c-0.962,0.615-1.724,1.519-2.288,2.714
		c-0.562,1.195-0.844,2.595-0.844,4.2c0,2.448,0.646,4.553,1.938,6.317c1.292,1.764,2.986,2.646,5.08,2.646
		c1.332,0,2.613-0.382,3.842-1.144c1.536-0.945,2.863-2.213,3.978-3.807l2.646,1.963c-1.718,2.345-3.287,3.978-4.708,4.9
		c-2.196,1.423-4.641,2.134-7.336,2.134c-2.241,0-4.268-0.537-6.082-1.614c-1.814-1.075-3.262-2.581-4.343-4.515
		c-1.08-1.935-1.621-4.046-1.621-6.334c0-2.277,0.525-4.351,1.578-6.223c1.052-1.872,2.486-3.332,4.298-4.379
		c1.814-1.047,3.836-1.57,6.065-1.57c2.264,0,4.248,0.478,5.954,1.434L126.517,1.666z"/>
</g>
</svg>
