<?xml version="1.0" encoding="utf-8"?>
<!-- Generator: Adobe Illustrator 17.0.0, SVG Export Plug-In . SVG Version: 6.00 Build 0)  -->
<!DOCTYPE svg PUBLIC "-//W3C//DTD SVG 1.1//EN" "http://www.w3.org/Graphics/SVG/1.1/DTD/svg11.dtd">
<svg version="1.1" id="Camada_1" xmlns="http://www.w3.org/2000/svg" xmlns:xlink="http://www.w3.org/1999/xlink" x="0px" y="0px"
	 width="124.235px" height="119.726px" viewBox="0 0 124.235 119.726" enable-background="new 0 0 124.235 119.726"
	 xml:space="preserve">
<path fill="#0084C8" d="M103.285,98.675c8.946-9.991,14.392-23.18,14.392-37.646c0-31.184-25.28-56.464-56.464-56.464
	S4.75,29.845,4.75,61.029c0,14.466,5.446,27.655,14.392,37.646H103.285z"/>
<path d="M102.271,39.934v-0.049l-0.024-0.075l-0.404-2.128l-0.338-1.58l-0.451-1.918v-0.789v-1.58l-0.338-1.58l-0.789-1.58
	l-1.58-1.58l-2.031-1.127l-3.834-1.58l-3.61-1.128l-1.918-1.58l1.916-3.613l-5.076-0.789l-0.789-0.789l-0.789-0.676l-1.127-0.451
	H80.75l-0.789-0.789l-0.451-0.338l-1.58-1.24l-1.58-0.338h-3.045h-0.789l-0.789-0.451l-1.58-0.338l-1.242-0.451l-1.127,0.451
	l-7.783,1.127l2.188,1.204l-0.015,0.015l-2.963-0.769l-2.82-1.24l-1.127-0.338h-1.24l-1.916,0.338l-2.369,0.789l-2.369,0.789
	L45.9,14.552l-3.947,1.918l-2.031,1.58l-1.472,1.578l-1.162,2.645c-0.004,0.007-0.018,0.033-0.022,0.038l-0.062,0.144l-0.332,0.332
	l-1.24,1.918l-0.789,2.369v0.453l-1.58,3.496l-1.918,3.158l-0.789,1.127l-2.707,4.285l2.369,1.24l-0.451,1.58v0.789v0.338v1.58
	v0.789v1.58l0.451,1.58v0.789v1.127l-0.451,1.58l-0.789,1.58l-1.127,1.58l-3.496,4.625h1.918v0.789l-1.127,2.369l-2.82,5.527
	l3.947,3.158c8.528,37.214,65.765,34.231,68.912-2.82v-3.158l0.451-1.127l1.918-1.58l1.918-1.58l1.24-1.58l0.789-2.256l0.338-0.451
	v-2.369v-1.918l-0.789-1.918v-0.451h0.002v-1.573v-0.789v-0.789v-0.338l0.451-2.031l0.338-1.467l0.451-3.609v-0.338L102.271,39.934z
	"/>
<path fill="#FFFFFF" d="M34.507,23.437l-0.813,3.056l-0.316,0.212l-0.623,1.12C17.439,42.736,13.348,60.074,20.395,79.744
	l-3.629,1.366c-8.386-21.356-2.53-45.585,18.859-59.863L34.507,23.437z"/>
<path fill="#FFFFFF" d="M104.032,46.61l0.639-2.731l0.449-1.352l0.422-2.879c5.297,12.366,5.92,27.113,0.533,39.937l-3.604-1.463
	C106.253,68.993,107.22,58.673,104.032,46.61z"/>
<path fill="#FFFFFF" d="M73.222,25.189L73.222,25.189l-1.58,1.24l-1.127,1.127l0,0l-1.24,1.24l-0.338,0.789v0.676l0,0l1.918-0.338
	h1.58l3.947,0.338l0,0l-0.451-1.127l-0.789-1.58l-1.127-1.58l-0.338-0.338L73.222,25.189L73.222,25.189L73.222,25.189z
	 M76.717,19.775L76.717,19.775v-0.453l-0.338-0.338l-1.242-0.789l0,0H74.01h-1.127l-0.789,0.789l-0.451,1.127l0,0l2.031,0.789
	l1.127,0.451l0.789,0.338l0,0l0.789,0.789l1.127,0.451l0,0l1.24-0.451l0,0l-1.58-1.127l-0.451-0.789L76.717,19.775L76.717,19.775
	L76.717,19.775z M85.402,82.034L85.402,82.034l0.338-2.369v-2.369v-4.738l0,0h1.58l0.789-0.338l0.451-0.789v-1.127l0,0l0.676-0.451
	v-0.338l0.451-1.24l-0.451-1.918V65.23l0,0v-0.789l-0.338-0.789h-0.338l-0.789-0.451h-1.24l-0.789-0.338l-0.338-0.451l0,0
	l2.707-0.789l3.158-0.338l0,0h0.338l0.451-0.451l0.338-0.789v-0.789l-0.338-0.338l-0.789-0.789h-0.451h-1.127l0,0h-1.582
	l-0.789,0.338l-0.789,0.451l0,0h-0.338h-1.24h-1.127l-0.789-0.451l0,0l-0.451-0.676v-0.789v-1.58l0.451-1.58v-1.58l0,0l-1.127,1.127
	l-1.24,2.031l-1.127,1.127l-0.789,0.451l-0.789-0.451l0,0l-1.24-0.789l-0.789-0.789l-0.338-0.789V52.6l0,0v-1.923l0,0v-1.126
	l0.789-1.58l0,0l1.127-1.24l0,0l0.789-1.127l0.451-0.451v-0.338l0,0l-0.457-0.791H77.96l-1.24,0.338l0,0l-1.58,0.451h-1.465
	l-1.58-0.789l-0.451-0.338l-0.338-0.789l0,0v-0.451l-0.451-0.338l-0.789,0.338l-0.789,1.58l0,0l-0.338,0.338l-0.451,0.451
	l-1.127,0.338l0,0l-1.127,0.789l-0.789,1.24l-0.451,1.58l-1.127,0.789l0,0l-0.451-1.24v-1.918v-2.707l0,0l0.451-2.82l0.338-1.58
	l0.789-0.789l0,0l-0.789-0.338l-0.338-0.451l-1.24,1.24l0,0l-1.127,1.58l-1.58,1.127l0,0l-1.127,0.789l-0.451,1.24l-0.338,0.676
	l-0.451,1.24l0,0l0.451,2.369l-0.451,0.789l-0.349,0.793l0,0l-0.451,0.338l-0.338-0.338l-0.789-0.789l-0.45-2.031l0,0v-1.127
	l0.451-1.24l0.789-2.707l0,0l0.338-2.369l0.451-1.127l0.338-1.127l0,0l1.58-1.58l0.451-0.789v-0.789l0,0h-2.031l-0.338-0.451v-0.34
	v-0.451l0,0l1.127-2.369l1.24-1.465l0,0l1.918-2.031l0.338-1.127v-0.45l-0.338-0.789l0,0l-0.451-0.789l0.451-0.676l0.789-1.24l0,0
	l-4.738-0.789l-4.285-1.127l0,0l0.451-0.789h0.676v-0.46v-1.127l0,0l-0.676,0.789l-0.789,0.338h-1.58l0,0L50.1,19.322l-0.789,1.24
	l0,0l-1.58,0.791l-1.127,0.789l-1.58,0.789l-0.789,1.467h2.369l0,0l-1.127,1.58l-1.24,1.58l-2.707,3.158l0,0l-1.918,2.369
	l-0.789,3.158l0,0l-0.789,2.256v1.58v0.451l0.338,0.338l0,0l0.789,0.789v0.789l-0.338,2.369l0,0l-0.789,3.496l-0.789,2.031
	l-0.789,1.467l0,0l-0.451,0.451v0.338l0.789,0.789l0,0l0.451,0.451v0.338v1.24l0,0v0.338l-0.451,0.789l-0.338,0.789l-0.451,0.789
	l0,0v1.127l-0.338,1.24l0,0l-2.031,2.707l-0.338,1.58v1.58l0,0l2.369-1.58l2.369-1.127l0,0l-0.789,1.127l-1.24,0.789l-0.789,0.789
	l-0.789,1.127l0,0l-0.338,2.369L33.64,71.88l0.451,1.918v2.369l1.58,3.834l1.918,4.398l-0.338,0.789l0,0l-1.58-2.031l-1.58-2.369
	l-1.58-2.707l-1.127-2.369l-0.789-2.707l-0.789-2.707l-0.451-3.158v-3.159l0,0l0,0l0.789-2.369l0,0l0.789-1.58l0,0l0,0l0,0l0,0l0,0
	l1.918-1.918l1.24-1.127l1.918-2.031l0,0l-3.496,1.24l0,0l1.127-3.158l0.451-1.918l0.338-1.58l0,0l-0.338-2.031l0,0v-1.918l0,0
	v-0.789v-2.369l0,0v-0.338l0,0v-1.58l0.789-2.031l0.338-1.127l0.789-1.918l0,0l-1.58,0.789l0,0l2.369-3.947l2.031-3.947v-0.789l0,0
	l0.789-1.58l0.338-1.58l0,0l3.947-3.045l1.127-1.24l-0.789-0.338l0,0l-0.337-0.451l0,0l3.496-1.58h0.338l1.58-0.789l0,0l3.158-1.465
	l1.58-0.451h1.127l0,0l0,0l3.609,1.58l3.496,0.789l0,0h2.369l1.58-0.451l0,0l1.918-0.338h1.58h1.918l0,0l-0.789-1.127l0,0
	l0.789,0.338h1.24h1.127l0,0h1.58l1.127,0.338l0.451,0.451l0.338,0.338l0,0l1.58,1.24l0.789,0.338l1.24,0.451l0,0l0,0l0,0v0.338
	l0.338,0.789l0,0l1.127,0.451h0.789l0,0l-0.339,1.58l0,0l0.338,0.338l0.451,0.789l0,0l1.58,1.58l2.369,1.127l0,0l1.918,0.789
	l1.918,0.789l0,0l3.609,1.24l1.127,0.789l1.127,1.127l0,0l0.451,0.789l0,0v0.338l0,0h-0.451l0,0l-3.045-0.338l-1.58,0.338
	l-1.24,0.789l0,0l-0.789,0.451l-1.127,0.338l-0.789,0.451v0.338l0.338,0.451l0,0l0.789,1.127h0.789l2.369,0.789l0,0l1.24,0.451
	l0.338,0.676l0.789,0.789l0.789,0.451l0,0l0.338-2.369l0.789-1.918l0.789,1.918l0,0l0.451,1.58l0.338,1.58l0,0v0.338l0,0
	l-0.338,3.158l-0.451,1.58l0,0l-0.338-1.127l0,0l-0.451-1.58l-0.338-0.789l-0.451-0.451l-0.338,0.451l0,0l-1.127,1.127l-0.789,1.58
	l-0.789,1.58l-0.789,0.338l-0.789,0.451l0,0l-1.24,0.338l-1.127,0.789l0,0l-0.451,0.451h-0.676l-0.451-0.451H87.78l0,0l-0.788,0.45
	l-0.789,0.338l-0.789,1.58l-0.789,3.158l0,0v0.789l0.338,1.58l0.451,1.127l0.338,0.451h0.789l0,0l2.369-1.58l1.127-0.789l0.789-1.24
	l0,0l0.789-1.918l1.24-1.127l1.58-0.789l1.918-0.451l0,0h1.127l0.451-0.338l0,0v0.338v2.369l0,0l0.338,1.918l0.451,1.58l0,0v1.58
	l0,0l-0.789,1.58l-1.24,1.58l-1.467,1.127l-1.58,1.24l0,0l-1.24,1.127l-0.789,1.24l-0.338,1.127l-0.451,1.127l0,0l0.451,2.031l0,0
	v1.58l0,0l-0.451,1.58l0,0l-0.338,1.127l0,0l-0.789,0.789v0.789l0,0v0.789l0,0v0.338l0,0l-0.451,2.369l0,0l0,0l0,0l-1.467,3.158
	l-2.031,2.707l0,0l0,0h-0.338v-0.789v-1.109C85.411,82.034,85.402,82.034,85.402,82.034z"/>
<path fill="#FFFFFF" stroke="#000000" stroke-width="8" stroke-miterlimit="10" d="M17.795,84.561c-2.829,0-7.862,1.572-7.862,1.572
	v5.391c0,0,1.876-1.797,6.514-1.797s4.268,2.696,4.268,2.696s-0.792-0.449-4.942-0.449c-6.225,0-8.312,4.259-8.312,7.188
	s3.588,5.841,7.188,5.841s5.841-3.37,5.841-3.37v2.696l8.985-0.225c0,0,0-3.383,0-11.681C29.475,84.125,18.981,84.561,17.795,84.561
	z M18.694,99.387c-2.258,0.915-3.708-2.127-1.572-2.92s3.594-0.225,3.594-0.225S20.952,98.472,18.694,99.387z"/>
<path fill="#FFFFFF" stroke="#000000" stroke-width="8" stroke-miterlimit="10" d="M31.722,104.105l9.659,0.225V92.424
	c0,0-0.239-1.348,1.348-1.348c1.587,0,1.348,1.348,1.348,1.348l0.225,11.906h9.21V89.279c0,0-0.961-4.717-6.514-4.717
	c-4.577,0-6.29,3.594-6.29,3.594v-2.92h-8.985L31.722,104.105L31.722,104.105z"/>
<path fill="#FFFFFF" stroke="#000000" stroke-width="8" stroke-miterlimit="10" d="M70.359,85.46v3.37c0,0-2.687-3.878-6.29-4.043
	c-3.602-0.166-8.312,2.325-8.312,10.109s5.04,9.21,8.312,9.21c3.272,0,6.29-3.37,6.29-3.37s0.687,5.572-6.29,5.841
	c-1.687,0.217-6.964-1.797-6.964-1.797v6.065c0,0,3.523,0.985,4.268,1.123c0.745,0.138,4.934,0.745,8.536,0
	c3.602-0.745,8.761-2.358,8.761-8.536c0-4.317,0-17.971,0-17.971L70.359,85.46L70.359,85.46z M67.663,98.264
	c0,0-2.022,0.369-2.022-3.819s2.022-3.594,2.022-3.594s2.022-0.755,2.022,3.594S67.663,98.264,67.663,98.264z"/>
<path fill="#FFFFFF" stroke="#000000" stroke-width="8" stroke-miterlimit="10" d="M82.04,103.88h8.985V77.373H82.04V103.88z"/>
<path fill="#FFFFFF" stroke="#000000" stroke-width="8" stroke-miterlimit="10" d="M105.402,84.561
	c-13.033,0-12.13,10.558-12.13,10.558s-0.806,9.884,12.13,9.884s11.681-9.659,11.681-9.659S118.436,84.561,105.402,84.561z
	 M105.177,99.387c-0.581,0-2.022-0.815-2.022-4.493s1.666-4.493,2.246-4.493c0.581,0,2.022,0.751,2.022,4.493
	C107.424,98.636,105.758,99.387,105.177,99.387z"/>
<path fill="#FFFFFF" d="M17.812,84.492c-2.829,0-7.862,1.572-7.862,1.572v5.391c0,0,1.876-1.797,6.514-1.797
	s4.268,2.696,4.268,2.696s-0.792-0.449-4.942-0.449c-6.225,0-8.312,4.259-8.312,7.188s3.588,5.841,7.188,5.841
	s5.841-3.37,5.841-3.37v2.696l8.985-0.225c0,0,0-3.383,0-11.681C29.492,84.056,18.997,84.492,17.812,84.492z M18.711,99.317
	c-2.258,0.915-3.708-2.127-1.572-2.92s3.593-0.224,3.593-0.224S20.969,98.402,18.711,99.317z"/>
<path fill="#FFFFFF" d="M31.739,104.035l9.659,0.225V92.354c0,0-0.239-1.348,1.348-1.348c1.587,0,1.348,1.348,1.348,1.348
	l0.225,11.906h9.21V89.209c0,0-0.961-4.717-6.514-4.717c-4.577,0-6.29,3.594-6.29,3.594v-2.92H31.74L31.739,104.035L31.739,104.035z
	"/>
<path fill="#FFFFFF" d="M70.377,85.39v3.37c0,0-2.687-3.878-6.29-4.043c-3.602-0.166-8.312,2.325-8.312,10.109s5.04,9.21,8.312,9.21
	c3.272,0,6.29-3.37,6.29-3.37s0.687,5.572-6.29,5.841c-1.687,0.217-6.964-1.797-6.964-1.797v6.065c0,0,3.523,0.985,4.268,1.123
	c0.745,0.138,4.934,0.745,8.536,0c3.602-0.745,8.761-2.358,8.761-8.536c0-4.317,0-17.971,0-17.971h-8.311V85.39z M67.681,98.194
	c0,0-2.022,0.369-2.022-3.819s2.022-3.594,2.022-3.594s2.022-0.755,2.022,3.594S67.681,98.194,67.681,98.194z"/>
<path fill="#FFFFFF" d="M82.057,103.81h8.985V77.303h-8.985V103.81z"/>
<path fill="#FFFFFF" d="M105.42,84.492c-13.033,0-12.13,10.558-12.13,10.558s-0.806,9.884,12.13,9.884s11.681-9.659,11.681-9.659
	S118.451,84.492,105.42,84.492z M105.194,99.317c-0.581,0-2.022-0.815-2.022-4.493c0-3.678,1.666-4.493,2.246-4.493
	s2.022,0.751,2.022,4.493C107.441,98.567,105.775,99.317,105.194,99.317z"/>
<path fill="#FFFFFF" stroke="#000000" stroke-width="3" stroke-miterlimit="10" d="M83.57,106.382c-1.641,0-3.393,0.615-3.393,2.032
	s2.293,2.461,2.293,2.461s1.734,0.652,1.435,1.119s-3.729-0.373-3.729-0.373v1.92c0,0,1.678,0.615,3.001,0.615
	s2.424-0.559,2.703-0.932c0.28-0.373,1.435-1.268-0.317-3.095c-0.429-0.41-2.61-1.212-2.61-1.566c0-0.354,3.542,0.093,3.542,0.093
	v-2.181L83.57,106.382z"/>
<path fill="#FFFFFF" stroke="#000000" stroke-width="3" stroke-miterlimit="10" d="M100.631,108.209v1.864h1.025c0,0,0,2.125,0,2.89
	c0,0.764,0.839,1.38,1.79,1.38s1.902-0.671,1.902-0.671l0.006-1.678c0,0-1.55,0.63-1.554,0.279
	c-0.003-0.351-0.021-2.233-0.021-2.233l0.878-0.022l0.019-1.808h-0.858l0.093-1.752h-1.137c0,0-0.896,0.845-0.988,1.044
	c-0.092,0.199-0.037,0.671-0.037,0.671L100.631,108.209z"/>
<path fill="#FFFFFF" stroke="#000000" stroke-width="3" stroke-miterlimit="10" d="M115.722,108.027
	c-1.311,0-2.712,0.492-2.712,1.624s1.833,1.967,1.833,1.967s1.386,0.522,1.148,0.894c-0.238,0.373-2.981-0.298-2.981-0.298v1.535
	c0,0,1.341,0.492,2.399,0.492c1.058,0,1.937-0.447,2.161-0.745s1.148-1.013-0.253-2.474c-0.343-0.328-2.086-0.969-2.086-1.252
	c0-0.283,2.832,0.075,2.832,0.075v-1.744L115.722,108.027z"/>
<path fill="#FFFFFF" stroke="#000000" stroke-width="3" stroke-miterlimit="10" d="M89.887,108.05c-0.854,0-2.373,0.474-2.373,0.474
	v1.627c0,0,0.566-0.542,1.966-0.542c1.4,0,1.288,0.814,1.288,0.814s-0.239-0.136-1.492-0.136c-1.879,0-2.509,1.285-2.509,2.17
	s1.083,1.763,2.17,1.763c1.087,0,1.763-1.017,1.763-1.017v0.814l2.712-0.068c0,0,0-1.021,0-3.526
	C93.413,107.918,90.245,108.05,89.887,108.05z M90.159,112.525c-0.682,0.276-1.119-0.642-0.474-0.881
	c0.645-0.239,1.084-0.068,1.084-0.068S90.84,112.248,90.159,112.525z"/>
<path fill="#FFFFFF" stroke="#000000" stroke-width="3" stroke-miterlimit="10" d="M93.787,114.05l2.915,0.068v-3.594
	c0,0-0.072-0.407,0.407-0.407s0.407,0.407,0.407,0.407l0.068,3.594h2.78v-4.543c0,0-0.29-1.424-1.966-1.424
	c-1.381,0-1.898,1.085-1.898,1.085v-0.881h-2.712L93.787,114.05L93.787,114.05z"/>
<path fill="#FFFFFF" stroke="#000000" stroke-width="3" stroke-miterlimit="10" d="M109.187,108.108
	c-3.859,0-3.592,3.126-3.592,3.126s-0.239,2.927,3.592,2.927c3.831,0,3.459-2.86,3.459-2.86S113.046,108.108,109.187,108.108z
	 M109.12,112.498c-0.172,0-0.599-0.241-0.599-1.33s0.493-1.33,0.665-1.33s0.599,0.222,0.599,1.33
	C109.785,112.276,109.292,112.498,109.12,112.498z"/>
<path fill="#FFFFFF" d="M83.656,106.42c-1.641,0-3.393,0.615-3.393,2.032s2.293,2.461,2.293,2.461s1.734,0.652,1.436,1.119
	s-3.729-0.373-3.729-0.373v1.92c0,0,1.678,0.615,3.001,0.615s2.424-0.559,2.703-0.932s1.436-1.268-0.317-3.095
	c-0.429-0.41-2.61-1.212-2.61-1.566c0-0.354,3.542,0.093,3.542,0.093v-2.181L83.656,106.42z"/>
<path fill="#FFFFFF" d="M100.718,108.247v1.864h1.025c0,0,0,2.125,0,2.89s0.839,1.38,1.79,1.38s1.902-0.671,1.902-0.671l0.006-1.678
	c0,0-1.55,0.63-1.554,0.279c-0.003-0.351-0.021-2.233-0.021-2.233l0.878-0.022l0.019-1.808h-0.858l0.093-1.752h-1.137
	c0,0-0.896,0.845-0.988,1.044c-0.092,0.199-0.037,0.671-0.037,0.671L100.718,108.247z"/>
<path fill="#FFFFFF" d="M115.809,108.064c-1.311,0-2.712,0.492-2.712,1.624c0,1.133,1.833,1.967,1.833,1.967
	s1.386,0.522,1.148,0.894c-0.238,0.373-2.981-0.298-2.981-0.298v1.535c0,0,1.341,0.492,2.399,0.492c1.058,0,1.937-0.447,2.161-0.745
	c0.224-0.298,1.148-1.013-0.253-2.474c-0.343-0.328-2.086-0.969-2.086-1.252c0-0.283,2.832,0.075,2.832,0.075v-1.744
	L115.809,108.064z"/>
<path fill="#FFFFFF" d="M89.974,108.087c-0.854,0-2.373,0.474-2.373,0.474v1.627c0,0,0.566-0.542,1.966-0.542
	s1.288,0.814,1.288,0.814s-0.239-0.136-1.492-0.136c-1.879,0-2.509,1.285-2.509,2.17c0,0.884,1.083,1.763,2.17,1.763
	c1.087,0,1.763-1.017,1.763-1.017v0.814l2.712-0.068c0,0,0-1.021,0-3.526C93.499,107.956,90.331,108.087,89.974,108.087z
	 M90.245,112.562c-0.682,0.276-1.119-0.642-0.474-0.881c0.645-0.239,1.084-0.068,1.084-0.068S90.926,112.286,90.245,112.562z"/>
<path fill="#FFFFFF" d="M93.873,114.087l2.915,0.068v-3.594c0,0-0.072-0.407,0.407-0.407c0.479,0,0.407,0.407,0.407,0.407
	l0.068,3.594h2.78v-4.543c0,0-0.29-1.424-1.966-1.424c-1.381,0-1.898,1.085-1.898,1.085v-0.881h-2.712L93.873,114.087
	L93.873,114.087z"/>
<path fill="#FFFFFF" d="M109.273,108.145c-3.859,0-3.592,3.126-3.592,3.126s-0.239,2.927,3.592,2.927s3.459-2.86,3.459-2.86
	S113.132,108.145,109.273,108.145z M109.206,112.535c-0.172,0-0.599-0.241-0.599-1.33c0-1.089,0.493-1.33,0.665-1.33
	s0.599,0.222,0.599,1.33C109.872,112.313,109.378,112.535,109.206,112.535z"/>
</svg>
