<?xml version="1.0" encoding="utf-8"?>
<!-- Generator: Adobe Illustrator 17.0.0, SVG Export Plug-In . SVG Version: 6.00 Build 0)  -->
<!DOCTYPE svg PUBLIC "-//W3C//DTD SVG 1.1//EN" "http://www.w3.org/Graphics/SVG/1.1/DTD/svg11.dtd">
<svg version="1.1" id="Camada_1" xmlns="http://www.w3.org/2000/svg" xmlns:xlink="http://www.w3.org/1999/xlink" x="0px" y="0px"
	 width="79.344px" height="25.662px" viewBox="0 0 79.344 25.662" enable-background="new 0 0 79.344 25.662" xml:space="preserve">
<g>
	<path fill="#FFFFFF" d="M22.523,17.574c-0.361-0.309-0.656-0.33-0.886-0.063c-0.102,0.118-0.131,0.251-0.087,0.395
		c0.044,0.145,0.15,0.288,0.317,0.432c0.161,0.138,0.322,0.221,0.484,0.251c0.162,0.029,0.293-0.014,0.391-0.13
		c0.112-0.131,0.148-0.272,0.108-0.426C22.811,17.88,22.702,17.727,22.523,17.574z"/>
	<path fill="#FFFFFF" d="M13.383,21.908c-0.023-0.001-0.086,0-0.188,0.004L13.13,23.29c0.056,0.011,0.125,0.019,0.209,0.023
		c0.176,0.008,0.318-0.051,0.425-0.179c0.107-0.127,0.166-0.308,0.177-0.544C13.96,22.154,13.775,21.927,13.383,21.908z"/>
	<polygon fill="#FFFFFF" points="11.048,22.58 11.579,22.713 11.522,21.861 	"/>
</g>
<g>
	<path fill="#FFFFFF" d="M21.618,7.853L21.45,7.447l-0.163,0.406l-0.075,0.499l-0.163-0.093l-0.168-0.168l-0.07-0.14L20.55,7.853
		l-0.504-0.168h-0.163l-0.168-0.238l-0.07-0.093v-0.07l0.163-0.098l0.238-0.07l0.168-0.093l0.261-0.168l0.336-0.07l0.644,0.07h0.093
		v-0.07l-0.093-0.168l-0.238-0.238L20.979,6.21l-0.765-0.261l-0.406-0.168l-0.401-0.163L18.903,5.38l-0.331-0.336l-0.093-0.163
		l-0.075-0.075l0.075-0.331H18.31l-0.238-0.098l-0.07-0.163V4.139l-0.266-0.093l-0.163-0.07l-0.336-0.261l-0.07-0.075l-0.093-0.093
		l-0.238-0.07H16.5h-0.238h-0.261l-0.168-0.075l0.168,0.238h-0.406h-0.331l-0.406,0.075l-0.336,0.093h-0.499L13.285,3.64
		l-0.761-0.331h-0.238L11.95,3.402L11.284,3.71l-0.331,0.168h-0.075l-0.737,0.336l0.075,0.093l0.163,0.07l-0.238,0.261L9.31,5.282
		L9.235,5.618L9.072,5.949v0.168L8.643,6.952l-0.499,0.83l0.331-0.168L8.307,8.021l-0.07,0.238L8.069,8.688v0.336v0.07v0.499v0.168
		v0.406l0.075,0.429l-0.075,0.331l-0.093,0.406L7.738,12l0.737-0.261l-0.406,0.429l-0.261,0.238l-0.406,0.401l-0.163,0.336
		l-0.169,0.5v0.667l0.093,0.667l0.168,0.569L7.5,16.121l0.238,0.499l0.331,0.574l0.336,0.499l0.331,0.429l0.075-0.168l-0.406-0.928
		l-0.336-0.812v-0.499l-0.093-0.406l0.093-0.425l0.075-0.504l0.163-0.238l0.168-0.163l0.261-0.168l0.168-0.238l-0.499,0.238
		l-0.504,0.331v-0.331l0.075-0.336l0.429-0.569l0.07-0.261v-0.238l0.093-0.168l0.075-0.168l0.093-0.163v-0.075v-0.261v-0.07
		l-0.093-0.093L8.475,11.24v-0.07l0.093-0.098l0.168-0.308l0.168-0.429l0.163-0.737l0.075-0.499V8.931L8.974,8.763l-0.07-0.07V8.595
		V8.263l0.163-0.476L9.235,7.12l0.406-0.499l0.569-0.667l0.266-0.336l0.238-0.331H10.21l0.168-0.313l0.336-0.163l0.238-0.168
		l0.331-0.168l0.168-0.261l0.261-0.168h0.331l0.168-0.07l0.145-0.168v0.238v0.098h-0.145l-0.093,0.168l0.9,0.238l1.003,0.168
		l-0.168,0.261l-0.093,0.14l0.093,0.168l0.07,0.168v0.093l-0.07,0.238l-0.406,0.429l-0.261,0.308l-0.238,0.504V7.12v0.07
		l0.075,0.098h0.425v0.163l-0.093,0.168l-0.331,0.336l-0.075,0.238l-0.093,0.238l-0.07,0.499L12.618,9.5L12.52,9.761v0.238
		l0.098,0.429l0.168,0.168l0.07,0.07l0.093-0.07l0.075-0.168l0.093-0.168l-0.093-0.499L13.117,9.5l0.075-0.14l0.093-0.266
		l0.238-0.163l0.336-0.238l0.238-0.336l0.261-0.261l0.07,0.093l0.168,0.075l-0.168,0.163l-0.07,0.336L14.26,9.36v0.569v0.406
		l0.098,0.261l0.238-0.168l0.093-0.331l0.168-0.261l0.238-0.168l0.238-0.07L15.427,9.5l0.075-0.07l0.163-0.336l0.168-0.07
		l0.093,0.07v0.098l0.075,0.168l0.093,0.07l0.336,0.168h0.308L17.069,9.5l0.261-0.07h0.075l0.093,0.168v0.07l-0.093,0.093
		l-0.168,0.238l-0.238,0.261l-0.163,0.336v0.238v0.406v0.331l0.07,0.168l0.168,0.168l0.261,0.168l0.163,0.093l0.168-0.093
		l0.238-0.238l0.261-0.429l0.238-0.238v0.331l-0.093,0.336v0.331v0.168l0.093,0.14l0.168,0.098h0.238h0.261h0.07l0.168-0.098
		l0.168-0.07h0.331h0.238h0.098l0.163,0.168l0.075,0.07v0.168l-0.075,0.168l-0.093,0.093h-0.07l-0.667,0.07l-0.574,0.168
		l0.075,0.093l0.163,0.075h0.261l0.168,0.093h0.07l0.075,0.168v0.168v0.238l0.093,0.401l-0.093,0.261v0.075l-0.145,0.093v0.238
		l-0.093,0.168l-0.168,0.07h-0.331v1.003v0.499l-0.075,0.499h0.005v0.233v0.168h0.07l0.429-0.574l0.308-0.667l0.098-0.499v-0.07
		v-0.168v-0.163l0.163-0.168l0.075-0.238l0.093-0.336V14.64l-0.093-0.429l0.093-0.238l0.07-0.238l0.168-0.261l0.261-0.238
		l0.336-0.261l0.308-0.238l0.261-0.336l0.168-0.331v-0.336l-0.098-0.331l-0.07-0.406v-0.499v-0.075l-0.093,0.075h-0.238
		l-0.406,0.093l-0.336,0.168l-0.261,0.238l-0.163,0.406l-0.168,0.261l-0.238,0.163l-0.499,0.336h-0.168l-0.07-0.093l-0.098-0.238
		l-0.07-0.336v-0.168l0.168-0.667l0.163-0.331l0.168-0.07l0.168-0.098h0.07l0.098,0.098h0.14l0.098-0.098l0.238-0.163l0.261-0.075
		l0.163-0.093l0.168-0.07l0.168-0.336l0.163-0.331l0.238-0.238l0.075-0.098l0.093,0.098l0.07,0.163l0.098,0.336l0.07,0.238
		l0.098-0.336l0.07-0.667V8.52l-0.07-0.331L21.618,7.853z M16.158,6.415h-0.331l-0.406,0.07v-0.14l0.07-0.168l0.266-0.261
		l0.238-0.238l0.331-0.261l0.098,0.093l0.07,0.07l0.238,0.336L16.9,6.247l0.093,0.238L16.158,6.415z M17.232,4.936l-0.238-0.093
		l-0.168-0.168l-0.163-0.07l-0.238-0.093l-0.429-0.168l0.093-0.238l0.168-0.168h0.238h0.238l0.261,0.168l0.07,0.07v0.098v0.163
		l0.098,0.168l0.331,0.238L17.232,4.936z"/>
	<g>
		<path fill="#FFFFFF" d="M13.72,0.935c-6.584,0-11.922,5.337-11.922,11.921S7.136,24.778,13.72,24.778s11.921-5.337,11.921-11.922
			S20.304,0.935,13.72,0.935z M8.707,4.842l0.07-0.07l0.261-0.597l0.313-0.331L9.78,3.508l0.83-0.406l0.313-0.163l0.499-0.168
			l0.499-0.168l0.406-0.07h0.261l0.238,0.07l0.593,0.261l0.644,0.168l-0.476-0.261l1.642-0.238l0.238-0.093l0.266,0.093l0.331,0.07
			l0.168,0.098h0.163h0.644l0.336,0.07l0.331,0.261l0.098,0.07l0.163,0.168h0.075l0.238,0.093l0.163,0.145l0.168,0.168l1.073,0.163
			L19.28,4.604l0.406,0.331l0.761,0.243l0.812,0.331l0.429,0.238l0.331,0.336l0.168,0.331l0.07,0.336v0.331V7.25l0.093,0.406
			l0.075,0.331l0.093,0.499v0.075l-0.093,0.761L22.35,9.629l-0.093,0.429v0.07v0.168v0.168v0.331v0.093l0.168,0.406V11.7v0.5
			l-0.075,0.098l-0.163,0.476l-0.261,0.331l-0.406,0.336l-0.406,0.331L21.02,14.01v0.667c-0.667,7.825-12.752,8.454-14.553,0.597
			l-0.831-0.667l0.593-1.166l0.238-0.499v-0.168H6.061l0.742-0.975l0.238-0.336l0.163-0.331l0.098-0.336v-0.238V10.39l-0.098-0.331
			V9.723V9.559V9.223v-0.07V8.985l0.098-0.331L6.799,8.388l0.574-0.9L7.541,7.25l0.401-0.667l0.336-0.742V5.747l0.168-0.499
			L8.707,4.842z M8.318,4.457L8.081,4.92L7.91,5.565L7.843,5.61L7.712,5.846c-3.234,3.148-4.097,6.809-2.61,10.962l-0.766,0.288
			C2.565,12.587,3.802,7.472,8.318,4.457z M4.678,18.372c-0.138-0.052-0.25-0.161-0.338-0.325c-0.078-0.145-0.11-0.286-0.097-0.425
			l0.248-0.028c-0.008,0.057-0.006,0.123,0.007,0.195c0.013,0.073,0.032,0.133,0.058,0.182c0.046,0.086,0.107,0.143,0.183,0.17
			c0.076,0.028,0.15,0.021,0.223-0.018c0.055-0.029,0.098-0.071,0.129-0.125s0.043-0.155,0.036-0.303l-0.009-0.164
			c-0.007-0.139,0.013-0.249,0.06-0.331c0.048-0.083,0.121-0.15,0.221-0.204c0.121-0.065,0.245-0.076,0.371-0.033
			s0.225,0.132,0.297,0.267c0.097,0.18,0.134,0.321,0.114,0.423l-0.229,0.038c0.006-0.041,0.002-0.098-0.011-0.169
			c-0.013-0.071-0.033-0.133-0.061-0.185c-0.041-0.076-0.093-0.124-0.16-0.144c-0.066-0.021-0.133-0.013-0.2,0.023
			c-0.042,0.022-0.075,0.05-0.101,0.084s-0.042,0.07-0.051,0.111c-0.008,0.04-0.01,0.114-0.005,0.223l0.008,0.167
			c0.007,0.139-0.014,0.251-0.063,0.334c-0.049,0.084-0.13,0.156-0.242,0.216C4.946,18.418,4.816,18.425,4.678,18.372z
			 M5.063,19.059l-0.144-0.207l1.514-1.055l0.144,0.207L5.063,19.059z M6.051,20.018c-0.147-0.007-0.288-0.076-0.422-0.204
			c-0.119-0.113-0.193-0.238-0.223-0.374l0.227-0.104c0.01,0.057,0.033,0.119,0.067,0.184c0.035,0.065,0.072,0.117,0.112,0.155
			c0.071,0.068,0.147,0.103,0.227,0.105c0.08,0.003,0.149-0.026,0.206-0.086c0.043-0.045,0.071-0.098,0.084-0.159
			c0.013-0.062-0.007-0.161-0.06-0.299L6.21,19.083c-0.05-0.129-0.065-0.241-0.046-0.333c0.02-0.093,0.069-0.18,0.147-0.262
			c0.095-0.099,0.21-0.148,0.343-0.146s0.255,0.056,0.365,0.162c0.147,0.141,0.227,0.264,0.239,0.367l-0.205,0.107
			c-0.007-0.041-0.028-0.093-0.062-0.158c-0.034-0.064-0.072-0.116-0.115-0.157c-0.062-0.059-0.127-0.089-0.196-0.087
			c-0.07,0.001-0.131,0.029-0.183,0.084c-0.033,0.034-0.056,0.071-0.07,0.111s-0.019,0.08-0.014,0.121
			c0.005,0.04,0.026,0.112,0.064,0.213l0.059,0.157c0.049,0.13,0.064,0.243,0.043,0.337c-0.021,0.095-0.075,0.188-0.164,0.28
			C6.319,19.979,6.197,20.025,6.051,20.018z M6.552,20.75l1.064-1.22l-0.442-0.386l0.149-0.171l1.095,0.955l-0.149,0.171
			l-0.462-0.403l-1.064,1.22L6.552,20.75z M8.395,22.061L7.494,21.45l1.035-1.528l0.913,0.618l-0.127,0.188L8.61,20.251
			l-0.288,0.425l0.505,0.342l-0.12,0.177l-0.505-0.342l-0.373,0.551l0.693,0.469L8.395,22.061z M10.023,22.885l0.302-1.167
			l-0.877,0.927l-0.057-0.027l0.136-1.272L8.832,22.33l-0.217-0.101l1.093-1.527l0.104,0.049l-0.171,1.406l0.937-1.049l0.102,0.048
			l-0.44,1.83L10.023,22.885z M11.634,23.319l-0.029-0.408l-0.666-0.167l-0.226,0.345l-0.274-0.068l1.18-1.634l0.065,0.016
			l0.221,1.983L11.634,23.319z M13.238,23.535l-0.371-0.018l0.087-1.843c0.237,0.003,0.389,0.006,0.455,0.009
			c0.258,0.012,0.458,0.1,0.601,0.264c0.143,0.163,0.208,0.375,0.195,0.635C14.173,23.246,13.851,23.564,13.238,23.535z
			 M14.547,23.501l-0.196-1.835l1.096-0.117l0.024,0.225l-0.846,0.09l0.055,0.51l0.606-0.064l0.023,0.213l-0.606,0.065l0.07,0.661
			l0.832-0.089l0.024,0.225L14.547,23.501z M16.863,23.052l-0.635-1.733l1.035-0.379l0.078,0.213l-0.799,0.293l0.177,0.482
			l0.572-0.209l0.074,0.201l-0.572,0.21l0.229,0.625l0.785-0.288l0.078,0.213L16.863,23.052z M19.355,22.019l-1.474-0.746l0.62,1.17
			l-0.212,0.112l-0.864-1.631l0.089-0.048l1.418,0.693l-0.598-1.128l0.212-0.112l0.876,1.653L19.355,22.019z M20.342,21.233
			c-0.041,0.142-0.14,0.263-0.296,0.364c-0.137,0.09-0.275,0.133-0.414,0.132l-0.049-0.244c0.058,0.003,0.123-0.004,0.195-0.023
			c0.071-0.019,0.131-0.043,0.177-0.073c0.083-0.053,0.134-0.119,0.155-0.196s0.009-0.151-0.036-0.221
			c-0.034-0.052-0.079-0.092-0.136-0.119s-0.158-0.03-0.305-0.011l-0.162,0.022c-0.138,0.019-0.249,0.008-0.335-0.032
			c-0.086-0.041-0.16-0.108-0.221-0.203c-0.075-0.116-0.096-0.238-0.063-0.367s0.113-0.235,0.241-0.318
			c0.172-0.111,0.309-0.16,0.412-0.148l0.056,0.224c-0.042-0.002-0.098,0.006-0.168,0.024s-0.13,0.043-0.179,0.075
			c-0.072,0.047-0.116,0.103-0.13,0.171c-0.015,0.068-0.002,0.133,0.04,0.197c0.026,0.04,0.056,0.07,0.092,0.093
			s0.074,0.037,0.114,0.042c0.041,0.005,0.114,0,0.222-0.013l0.166-0.022c0.138-0.018,0.251-0.007,0.338,0.035
			c0.088,0.042,0.166,0.117,0.235,0.223C20.366,20.962,20.383,21.092,20.342,21.233z M20.892,20.874l-1.252-1.356l0.185-0.171
			l1.252,1.356L20.892,20.874z M22.286,19.546L20.65,19.32l0.966,0.905L21.452,20.4l-1.347-1.262l0.069-0.074l1.566,0.195
			l-0.932-0.872l0.164-0.175l1.366,1.278L22.286,19.546z M22.915,18.606c-0.152,0.176-0.339,0.256-0.562,0.238
			c-0.222-0.018-0.442-0.12-0.657-0.305c-0.203-0.174-0.328-0.37-0.377-0.589c-0.049-0.218,0-0.414,0.148-0.587
			c0.167-0.195,0.357-0.29,0.572-0.286c0.214,0.004,0.434,0.103,0.658,0.295c0.23,0.197,0.366,0.405,0.407,0.62
			C23.144,18.208,23.081,18.413,22.915,18.606z M22.431,16.465c0.799-1.927,1.003-4.106,0.33-6.653l0.135-0.577L22.99,8.95
			l0.089-0.608c1.118,2.611,1.25,5.724,0.112,8.432L22.431,16.465z"/>
		<path fill="#FFFFFF" d="M8.475,7.615L8.307,8.021l-0.07,0.238L8.069,8.688v0.336v0.07v0.499v0.168v0.406l0.075,0.429l-0.075,0.331
			l-0.093,0.406L7.738,12l0.737-0.261l-0.406,0.429l-0.261,0.238l-0.406,0.401l-0.163,0.336l-0.169,0.5v0.667l0.093,0.667
			l0.168,0.569L7.5,16.121l0.238,0.499l0.331,0.574l0.336,0.499l0.331,0.429l0.075-0.168l-0.406-0.928l-0.336-0.812v-0.499
			l-0.093-0.406l0.093-0.425l0.075-0.504l0.163-0.238l0.168-0.163l0.261-0.168l0.168-0.238l-0.499,0.238l-0.504,0.331v-0.331
			l0.075-0.336l0.429-0.569l0.07-0.261v-0.238l0.093-0.168l0.075-0.168l0.093-0.163v-0.075v-0.261v-0.07l-0.093-0.093L8.475,11.24
			v-0.07l0.093-0.098l0.168-0.308l0.168-0.429l0.163-0.737l0.075-0.499V8.931L8.974,8.763l-0.07-0.07V8.595V8.263l0.163-0.476
			L9.235,7.12l0.406-0.499l0.569-0.667l0.266-0.336l0.238-0.331H10.21l0.168-0.313l0.336-0.163l0.238-0.168l0.331-0.168l0.168-0.261
			l0.261-0.168h0.331l0.168-0.07l0.145-0.168v0.238v0.098h-0.145l-0.093,0.168l0.9,0.238l1.003,0.168l-0.168,0.261l-0.093,0.14
			l0.093,0.168l0.07,0.168v0.093l-0.07,0.238l-0.406,0.429l-0.261,0.308l-0.238,0.504V7.12v0.07l0.075,0.098h0.425v0.163
			l-0.093,0.168l-0.331,0.336l-0.075,0.238l-0.093,0.238l-0.07,0.499L12.618,9.5L12.52,9.761v0.238l0.098,0.429l0.168,0.168
			l0.07,0.07l0.093-0.07l0.075-0.168l0.093-0.168l-0.093-0.499L13.117,9.5l0.075-0.14l0.093-0.266l0.238-0.163l0.336-0.238
			l0.238-0.336l0.261-0.261l0.07,0.093l0.168,0.075l-0.168,0.163l-0.07,0.336L14.26,9.36v0.569v0.406l0.098,0.261l0.238-0.168
			l0.093-0.331l0.168-0.261l0.238-0.168l0.238-0.07L15.427,9.5l0.075-0.07l0.163-0.336l0.168-0.07l0.093,0.07v0.098l0.075,0.168
			l0.093,0.07l0.336,0.168h0.308L17.069,9.5l0.261-0.07h0.075l0.093,0.168v0.07l-0.093,0.093l-0.168,0.238l-0.238,0.261
			l-0.163,0.336v0.238v0.406v0.331l0.07,0.168l0.168,0.168l0.261,0.168l0.163,0.093l0.168-0.093l0.238-0.238l0.261-0.429
			l0.238-0.238v0.331l-0.093,0.336v0.331v0.168l0.093,0.14l0.168,0.098h0.238h0.261h0.07l0.168-0.098l0.168-0.07h0.331h0.238h0.098
			l0.163,0.168l0.075,0.07v0.168l-0.075,0.168l-0.093,0.093h-0.07l-0.667,0.07l-0.574,0.168l0.075,0.093l0.163,0.075h0.261
			l0.168,0.093h0.07l0.075,0.168v0.168v0.238l0.093,0.401l-0.093,0.261v0.075l-0.145,0.093v0.238l-0.093,0.168l-0.168,0.07h-0.331
			v1.003v0.499l-0.075,0.499h0.005v0.233v0.168h0.07l0.429-0.574l0.308-0.667l0.098-0.499v-0.07v-0.168v-0.163l0.163-0.168
			l0.075-0.238l0.093-0.336V14.64l-0.093-0.429l0.093-0.238l0.07-0.238l0.168-0.261l0.261-0.238l0.336-0.261l0.308-0.238
			l0.261-0.336l0.168-0.331v-0.336l-0.098-0.331l-0.07-0.406v-0.499v-0.075l-0.093,0.075h-0.238l-0.406,0.093l-0.336,0.168
			l-0.261,0.238l-0.163,0.406l-0.168,0.261l-0.238,0.163l-0.499,0.336h-0.168l-0.07-0.093l-0.098-0.238l-0.07-0.336v-0.168
			l0.168-0.667l0.163-0.331l0.168-0.07l0.168-0.098h0.07l0.098,0.098h0.14l0.098-0.098l0.238-0.163l0.261-0.075l0.163-0.093
			l0.168-0.07l0.168-0.336l0.163-0.331l0.238-0.238l0.075-0.098l0.093,0.098l0.07,0.163l0.098,0.336l0.07,0.238l0.098-0.336
			l0.07-0.667V8.52l-0.07-0.331l-0.098-0.336L21.45,7.447l-0.163,0.406l-0.075,0.499l-0.163-0.093l-0.168-0.168l-0.07-0.14
			L20.55,7.853l-0.504-0.168h-0.163l-0.168-0.238l-0.07-0.093v-0.07l0.163-0.098l0.238-0.07l0.168-0.093l0.261-0.168l0.336-0.07
			l0.644,0.07h0.093v-0.07l-0.093-0.168l-0.238-0.238L20.979,6.21l-0.765-0.261l-0.406-0.168l-0.401-0.163L18.903,5.38l-0.331-0.336
			l-0.093-0.163l-0.075-0.075l0.075-0.331H18.31l-0.238-0.098l-0.07-0.163V4.139l-0.266-0.093l-0.163-0.07l-0.336-0.261l-0.07-0.075
			l-0.093-0.093l-0.238-0.07H16.5h-0.238h-0.261l-0.168-0.075l0.168,0.238h-0.406h-0.331l-0.406,0.075l-0.336,0.093h-0.499
			L13.285,3.64l-0.761-0.331h-0.238L11.95,3.402L11.284,3.71l-0.331,0.168h-0.075l-0.737,0.336l0.075,0.093l0.163,0.07l-0.238,0.261
			L9.31,5.282L9.235,5.618L9.072,5.949v0.168L8.643,6.952l-0.499,0.83L8.475,7.615z M16.089,4.106l0.168-0.168h0.238h0.238
			l0.261,0.168l0.07,0.07v0.098v0.163l0.098,0.168l0.331,0.238l-0.261,0.093l-0.238-0.093l-0.168-0.168l-0.163-0.07l-0.238-0.093
			l-0.429-0.168L16.089,4.106z M15.421,6.345l0.07-0.168l0.266-0.261l0.238-0.238l0.331-0.261l0.098,0.093l0.07,0.07l0.238,0.336
			L16.9,6.247l0.093,0.238l-0.835-0.07h-0.331l-0.406,0.07C15.421,6.485,15.421,6.345,15.421,6.345z"/>
	</g>
</g>
<path fill="#FFFFFF" d="M10.134,17.367c0,0.243,0.057,0.738-0.308,0.738c-0.202,0-0.229-0.194-0.229-0.353
	C9.598,17.354,9.826,17.38,10.134,17.367L10.134,17.367L10.134,17.367L10.134,17.367z M17.742,18.091
	c-0.229,0-0.286-0.146-0.286-0.826c0-0.464,0.022-0.698,0.286-0.698s0.286,0.234,0.286,0.698
	C18.028,17.945,17.971,18.091,17.742,18.091L17.742,18.091L17.742,18.091L17.742,18.091z M17.742,18.489
	c0.801,0,0.907-0.49,0.907-1.188c0-0.609-0.088-1.131-0.907-1.131s-0.907,0.521-0.907,1.131
	C16.836,17.998,16.942,18.489,17.742,18.489L17.742,18.489L17.742,18.489L17.742,18.489z M15.69,15.256v3.188h0.621v-3.188
	L15.69,15.256L15.69,15.256L15.69,15.256z M14.026,17.398c0-0.68,0.04-0.844,0.273-0.844c0.229,0,0.251,0.278,0.251,0.768
	c0,0.473-0.031,0.706-0.255,0.706C13.996,18.029,14.026,17.605,14.026,17.398L14.026,17.398L14.026,17.398L14.026,17.398z
	 M14.581,16.214v0.26h-0.009l0,0c-0.088-0.208-0.277-0.305-0.497-0.305c-0.647,0-0.656,0.622-0.656,1.113
	c0,0.503-0.031,1.131,0.651,1.131c0.202,0,0.378-0.088,0.471-0.26l0,0h0.009v0.428l0,0c0,0.225-0.075,0.371-0.229,0.371
	c-0.097,0-0.167-0.031-0.207-0.088c-0.04-0.053-0.053-0.133-0.053-0.225l0,0h-0.607l0,0c0.013,0.543,0.409,0.663,0.871,0.663
	c0.853,0,0.845-0.609,0.845-0.764l0,0v-2.323L14.581,16.214L14.581,16.214L14.581,16.214z M11.884,16.214h-0.621v2.23h0.621v-1.537
	l0,0c0-0.199,0.035-0.353,0.233-0.353s0.233,0.154,0.233,0.353l0,0v1.537h0.621v-1.788l0,0c0-0.309-0.259-0.486-0.554-0.486
	c-0.114,0-0.216,0.018-0.304,0.062c-0.084,0.04-0.158,0.106-0.22,0.208l0,0h-0.009V16.214L11.884,16.214L11.884,16.214z
	 M10.742,16.917c0-0.406-0.101-0.746-0.889-0.746c-0.237,0-0.44,0.04-0.581,0.146c-0.145,0.102-0.229,0.274-0.229,0.543l0,0H9.65
	l0,0c0-0.177,0.018-0.34,0.233-0.34c0.224,0,0.251,0.137,0.251,0.327l0,0v0.172l0,0c-0.576-0.009-1.144,0.022-1.144,0.76
	c0,0.389,0.159,0.711,0.59,0.711c0.268,0,0.449-0.111,0.581-0.34l0,0h0.009l0.027,0.296h0.576l0,0
	c-0.013-0.137-0.031-0.278-0.031-0.415l0,0L10.742,16.917L10.742,16.917z"/>
<path fill="#FFFFFF" d="M32.457,7.865c-1.287,0-3.578,0.716-3.578,0.716v2.454c0,0,0.854-0.818,2.965-0.818s1.942,1.227,1.942,1.227
	s-0.36-0.204-2.249-0.204c-2.833,0-3.783,1.939-3.783,3.272s1.633,2.658,3.272,2.658s2.658-1.534,2.658-1.534v1.227l4.089-0.102
	c0,0,0-1.539,0-5.316S32.996,7.865,32.457,7.865z M32.866,14.612c-1.028,0.417-1.688-0.968-0.716-1.329s1.636-0.102,1.636-0.102
	S33.893,14.196,32.866,14.612z"/>
<path fill="#FFFFFF" d="M38.795,16.912l4.396,0.102v-5.418c0,0-0.109-0.613,0.613-0.613s0.613,0.613,0.613,0.613l0.102,5.418h4.192
	v-6.85c0,0-0.437-2.147-2.965-2.147c-2.083,0-2.863,1.636-2.863,1.636V8.324h-4.089L38.795,16.912L38.795,16.912z"/>
<path fill="#FFFFFF" d="M56.38,8.274v1.534c0,0-1.223-1.765-2.863-1.84s-3.783,1.058-3.783,4.601s2.294,4.192,3.783,4.192
	c1.489,0,2.863-1.534,2.863-1.534s0.312,2.536-2.863,2.658c-0.768,0.099-3.169-0.818-3.169-0.818v2.76c0,0,1.604,0.448,1.942,0.511
	c0.339,0.063,2.245,0.339,3.885,0s3.987-1.073,3.987-3.885c0-1.965,0-8.179,0-8.179S56.38,8.274,56.38,8.274z M55.153,14.101
	c0,0-0.92,0.168-0.92-1.738s0.92-1.636,0.92-1.636s0.92-0.343,0.92,1.636S55.153,14.101,55.153,14.101z"/>
<path fill="#FFFFFF" d="M72.328,7.865c-5.931,0-5.521,4.805-5.521,4.805s-0.367,4.498,5.521,4.498c5.887,0,5.316-4.396,5.316-4.396
	S78.26,7.865,72.328,7.865z M72.226,14.612c-0.264,0-0.92-0.371-0.92-2.045s0.758-2.045,1.022-2.045s0.92,0.342,0.92,2.045
	S72.49,14.612,72.226,14.612z"/>
<rect x="61.654" y="4.798" fill="#FFFFFF" width="4.089" height="12.064"/>
<path fill="#FFFFFF" d="M62.029,17.485c-0.756,0-1.563,0.283-1.563,0.936c0,0.653,1.056,1.134,1.056,1.134s0.799,0.301,0.661,0.515
	c-0.137,0.215-1.718-0.172-1.718-0.172v0.885c0,0,0.773,0.283,1.383,0.283s1.117-0.258,1.245-0.429
	c0.129-0.172,0.661-0.584-0.146-1.426c-0.198-0.189-1.202-0.558-1.202-0.721c0-0.163,1.632,0.043,1.632,0.043v-1.005L62.029,17.485z
	"/>
<path fill="#FFFFFF" d="M69.889,18.327v0.859h0.472c0,0,0,0.979,0,1.331c0,0.352,0.387,0.636,0.825,0.636
	c0.438,0,0.876-0.309,0.876-0.309l0.003-0.773c0,0-0.714,0.29-0.716,0.129c-0.001-0.162-0.01-1.029-0.01-1.029l0.405-0.01
	l0.009-0.833h-0.395l0.043-0.807h-0.524c0,0-0.413,0.389-0.455,0.481c-0.042,0.092-0.017,0.309-0.017,0.309L69.889,18.327z"/>
<path fill="#FFFFFF" d="M76.842,18.243c-0.604,0-1.25,0.227-1.25,0.748s0.845,0.906,0.845,0.906s0.639,0.24,0.529,0.412
	c-0.11,0.172-1.373-0.137-1.373-0.137v0.707c0,0,0.618,0.227,1.105,0.227c0.487,0,0.893-0.206,0.996-0.343
	c0.103-0.137,0.529-0.467-0.117-1.14c-0.158-0.151-0.961-0.446-0.961-0.577c0-0.13,1.305,0.034,1.305,0.034v-0.803L76.842,18.243z"
	/>
<path fill="#FFFFFF" d="M64.939,18.254c-0.393,0-1.093,0.219-1.093,0.219v0.75c0,0,0.261-0.25,0.906-0.25s0.593,0.375,0.593,0.375
	s-0.11-0.062-0.687-0.062c-0.866,0-1.156,0.592-1.156,1s0.499,0.812,1,0.812s0.812-0.469,0.812-0.469v0.375l1.249-0.031
	c0,0,0-0.47,0-1.624C66.563,18.193,65.104,18.254,64.939,18.254z M65.064,20.315c-0.314,0.127-0.516-0.296-0.219-0.406
	c0.297-0.11,0.5-0.031,0.5-0.031S65.378,20.188,65.064,20.315z"/>
<path fill="#FFFFFF" d="M66.736,21.018l1.343,0.031v-1.656c0,0-0.033-0.187,0.187-0.187c0.221,0,0.187,0.187,0.187,0.187
	l0.031,1.656h1.281v-2.093c0,0-0.134-0.656-0.906-0.656c-0.636,0-0.875,0.5-0.875,0.5v-0.406h-1.249L66.736,21.018L66.736,21.018z"
	/>
<path fill="#FFFFFF" d="M73.831,18.28c-1.778,0-1.655,1.44-1.655,1.44s-0.11,1.348,1.655,1.348c1.765,0,1.594-1.318,1.594-1.318
	S75.609,18.28,73.831,18.28z M73.8,20.303c-0.079,0-0.276-0.111-0.276-0.613s0.227-0.613,0.306-0.613
	c0.079,0,0.276,0.102,0.276,0.613C74.107,20.201,73.879,20.303,73.8,20.303z"/>
</svg>
