<?xml version="1.0" encoding="utf-8"?>
<!-- Generator: Adobe Illustrator 17.0.0, SVG Export Plug-In . SVG Version: 6.00 Build 0)  -->
<!DOCTYPE svg PUBLIC "-//W3C//DTD SVG 1.1//EN" "http://www.w3.org/Graphics/SVG/1.1/DTD/svg11.dtd">
<svg version="1.1" id="Camada_1" xmlns="http://www.w3.org/2000/svg" xmlns:xlink="http://www.w3.org/1999/xlink" x="0px" y="0px"
	 width="136px" height="27px" viewBox="0 0 136 27" enable-background="new 0 0 136 27" xml:space="preserve">
<g>
	<path fill="#FFFFFF" d="M1.242,24.178v-1.822c1.655,1.054,3.333,1.58,5.031,1.58c1.806,0,3.177-0.373,4.112-1.121
		c0.936-0.747,1.403-1.792,1.403-3.136c0-1.183-0.315-2.126-0.944-2.831c-0.629-0.704-1.991-1.663-4.088-2.878
		c-2.344-1.366-3.828-2.508-4.451-3.427c-0.624-0.919-0.936-1.98-0.936-3.185c0-1.634,0.634-3.021,1.903-4.161
		c1.269-1.139,2.962-1.709,5.08-1.709c1.376,0,2.752,0.231,4.128,0.694v1.677c-1.355-0.613-2.801-0.919-4.338-0.919
		c-1.57,0-2.814,0.398-3.733,1.193C3.492,4.928,3.032,5.938,3.032,7.164c0,1.183,0.314,2.124,0.943,2.822s1.986,1.65,4.072,2.854
		c2.161,1.226,3.599,2.313,4.314,3.266c0.715,0.951,1.072,2.045,1.072,3.281c0,1.774-0.615,3.221-1.846,4.338
		c-1.231,1.119-2.97,1.678-5.217,1.678c-0.795,0-1.712-0.124-2.75-0.371S1.791,24.5,1.242,24.178z"/>
	<path fill="#FFFFFF" d="M33.447,25l-2.645-7.192H20.771L18.127,25h-1.758l8.724-23.125h1.516L35.237,25H33.447z M26.351,5.648
		c-0.118-0.322-0.215-0.639-0.29-0.951c-0.075-0.269-0.156-0.538-0.242-0.807h-0.064c-0.183,0.71-0.36,1.285-0.532,1.726
		L21.336,16.34h8.918L26.351,5.648z"/>
	<path fill="#FFFFFF" d="M54.218,25l-2.645-7.192H41.542L38.898,25H37.14l8.724-23.125h1.516L56.008,25H54.218z M47.122,5.648
		c-0.118-0.322-0.215-0.639-0.29-0.951c-0.075-0.269-0.156-0.538-0.242-0.807h-0.064c-0.183,0.71-0.36,1.285-0.532,1.726
		L42.107,16.34h8.918L47.122,5.648z"/>
	<path fill="#FFFFFF" d="M61.523,3.342v9.434h8.547v1.452h-8.547V25h-1.597V1.875H70.73v1.468H61.523z"/>
	<path fill="#FFFFFF" d="M94.275,25h-1.322L87.81,7.6c-0.259-0.893-0.403-1.618-0.436-2.177H87.31
		c-0.032,0.473-0.199,1.188-0.5,2.145L81.326,25h-1.322l-6.87-23.125h1.79l5.273,18.53c0.236,0.838,0.403,1.521,0.5,2.048h0.064
		c0.064-0.397,0.253-1.081,0.564-2.048l5.709-18.53h0.807l5.24,18.53c0.248,0.86,0.414,1.543,0.5,2.048h0.064
		c0.054-0.301,0.14-0.646,0.259-1.032l5.418-19.545h1.726L94.275,25z"/>
	<path fill="#FFFFFF" d="M103.678,16.808c0,2.269,0.523,4.043,1.572,5.322c1.048,1.279,2.485,1.919,4.313,1.919
		c1.849,0,3.655-0.683,5.419-2.049v1.581c-1.71,1.215-3.618,1.822-5.726,1.822c-2.129,0-3.849-0.764-5.16-2.29
		s-1.968-3.683-1.968-6.467c0-2.408,0.686-4.438,2.057-6.088c1.37-1.65,3.152-2.475,5.346-2.475c2.054,0,3.628,0.72,4.725,2.161
		c1.097,1.441,1.646,3.408,1.646,5.902v0.661H103.678z M114.354,15.453c-0.065-1.903-0.522-3.381-1.371-4.435
		c-0.85-1.053-2.021-1.58-3.516-1.58c-1.548,0-2.83,0.519-3.847,1.556c-1.016,1.038-1.642,2.524-1.878,4.459H114.354z"/>
	<path fill="#FFFFFF" d="M121.546,22.065h-0.065V25h-1.483V0.552h1.483v11.337h0.065c0.591-1.215,1.438-2.153,2.539-2.814
		c1.103-0.661,2.314-0.992,3.637-0.992c2.097,0,3.733,0.723,4.911,2.169c1.177,1.446,1.766,3.411,1.766,5.894
		c0,2.764-0.683,4.997-2.048,6.7c-1.366,1.704-3.14,2.557-5.322,2.557C124.556,25.403,122.728,24.29,121.546,22.065z M121.48,15.921
		v2.08c0,1.656,0.521,3.078,1.564,4.266c1.043,1.188,2.414,1.782,4.112,1.782c1.688,0,3.059-0.724,4.112-2.169
		c1.054-1.446,1.581-3.347,1.581-5.701c0-2.064-0.484-3.704-1.452-4.918s-2.258-1.822-3.87-1.822c-1.925,0-3.413,0.645-4.467,1.935
		S121.48,14.179,121.48,15.921z"/>
</g>
<g>
</g>
<g>
</g>
<g>
</g>
<g>
</g>
<g>
</g>
<g>
</g>
<g>
</g>
<g>
</g>
<g>
</g>
<g>
</g>
<g>
</g>
<g>
</g>
<g>
</g>
<g>
</g>
<g>
</g>
</svg>
