<?xml version="1.0" encoding="utf-8"?>
<!-- Generator: Adobe Illustrator 17.0.0, SVG Export Plug-In . SVG Version: 6.00 Build 0)  -->
<!DOCTYPE svg PUBLIC "-//W3C//DTD SVG 1.1//EN" "http://www.w3.org/Graphics/SVG/1.1/DTD/svg11.dtd">
<svg version="1.1" id="Camada_1" xmlns="http://www.w3.org/2000/svg" xmlns:xlink="http://www.w3.org/1999/xlink" x="0px" y="0px"
	 width="690.343px" height="238px" viewBox="0 0 690.343 238" enable-background="new 0 0 690.343 238" xml:space="preserve">
<path fill-rule="evenodd" clip-rule="evenodd" fill="#FFFFFF" d="M414.253,145.162h-5.757v15.296c0,1.342-0.136,2.421-0.408,3.244
	c-0.272,0.829-0.671,1.429-1.183,1.805c-0.518,0.376-1.145,0.562-1.875,0.556c-0.714,0.006-1.325-0.191-1.837-0.583
	c-0.512-0.398-0.905-1.008-1.178-1.832c-0.277-0.829-0.414-1.892-0.42-3.189v-15.296h-5.757v14.61
	c-0.005,3.658,0.741,6.405,2.241,8.254c1.499,1.853,3.783,2.775,6.852,2.78c2.023,0,3.724-0.414,5.108-1.238
	c1.385-0.817,2.432-2.044,3.14-3.669c0.714-1.625,1.069-3.647,1.074-6.062V145.162L414.253,145.162z M434.051,159.227
	c0-1.597-0.229-2.96-0.676-4.083c-0.453-1.123-1.117-1.985-1.995-2.573c-0.877-0.594-1.962-0.894-3.249-0.899
	c-0.638,0.005-1.221,0.087-1.761,0.245c-0.534,0.158-1.014,0.365-1.439,0.627c-0.431,0.262-0.802,0.551-1.118,0.867
	c-0.322,0.311-0.578,0.627-0.785,0.943h-0.098l-0.294-2.322h-4.939c0.033,0.867,0.066,1.788,0.093,2.77
	c0.022,0.981,0.038,2.022,0.038,3.118v12.527h5.757v-10.794c0.006-0.779,0.131-1.412,0.377-1.886c0.24-0.474,0.55-0.823,0.926-1.036
	c0.376-0.212,0.774-0.321,1.183-0.316c0.545,0.005,0.976,0.152,1.303,0.436c0.327,0.283,0.562,0.676,0.709,1.177
	c0.147,0.502,0.218,1.075,0.212,1.723v10.695h5.757V159.227L434.051,159.227z M443.152,147.027
	c-0.006-0.583-0.131-1.096-0.376-1.532c-0.251-0.442-0.594-0.785-1.036-1.036c-0.436-0.245-0.949-0.37-1.532-0.376
	c-0.572,0.006-1.079,0.131-1.521,0.376c-0.436,0.251-0.785,0.594-1.035,1.036c-0.251,0.436-0.382,0.949-0.387,1.532
	c0.005,0.562,0.131,1.058,0.376,1.494c0.251,0.436,0.594,0.779,1.036,1.03c0.436,0.251,0.948,0.382,1.532,0.387
	c0.561-0.006,1.063-0.126,1.504-0.371c0.442-0.24,0.791-0.583,1.047-1.014C443.016,148.117,443.147,147.61,443.152,147.027
	L443.152,147.027z M443.087,152.031h-5.757v18.415h5.757V152.031L443.087,152.031z M462.655,144.083h-5.757v9.485h-0.098
	c-0.208-0.376-0.502-0.703-0.873-0.986c-0.376-0.284-0.823-0.507-1.346-0.665c-0.529-0.163-1.118-0.245-1.772-0.245
	c-0.965,0-1.881,0.213-2.742,0.626c-0.867,0.42-1.636,1.036-2.306,1.854s-1.204,1.826-1.586,3.025
	c-0.387,1.199-0.589,2.578-0.594,4.143c0.005,1.362,0.168,2.622,0.495,3.772c0.327,1.15,0.796,2.153,1.406,3.004
	c0.611,0.856,1.341,1.521,2.197,1.989c0.855,0.475,1.81,0.715,2.868,0.72c0.66,0,1.297-0.109,1.908-0.327
	c0.616-0.218,1.172-0.529,1.679-0.938c0.502-0.408,0.922-0.905,1.254-1.483h0.098l0.262,2.388h5.037
	c-0.022-0.496-0.043-1.052-0.065-1.662c-0.017-0.611-0.033-1.254-0.044-1.93c-0.016-0.676-0.022-1.352-0.022-2.034V144.083
	L462.655,144.083z M456.899,162.956c-0.006,0.627-0.087,1.151-0.24,1.564c-0.158,0.415-0.36,0.742-0.616,0.982
	c-0.251,0.24-0.523,0.414-0.812,0.512c-0.294,0.103-0.578,0.152-0.851,0.148c-0.594,0-1.112-0.186-1.564-0.551
	c-0.452-0.365-0.801-0.905-1.058-1.624c-0.256-0.719-0.382-1.608-0.388-2.665c0-0.698,0.06-1.358,0.181-1.968
	c0.119-0.61,0.305-1.145,0.556-1.608c0.251-0.469,0.567-0.828,0.949-1.096c0.382-0.262,0.834-0.392,1.358-0.398
	c0.251-0.006,0.518,0.049,0.801,0.158c0.284,0.104,0.556,0.284,0.812,0.535c0.251,0.25,0.464,0.589,0.621,1.019
	c0.164,0.425,0.245,0.954,0.251,1.592V162.956L456.899,162.956z M480.49,159.62c0.006-0.823-0.065-1.625-0.207-2.399
	c-0.136-0.774-0.376-1.493-0.714-2.164c-0.332-0.67-0.791-1.259-1.368-1.766c-0.578-0.507-1.303-0.9-2.175-1.184
	c-0.867-0.289-1.908-0.431-3.123-0.436c-1.058,0.005-2.023,0.092-2.895,0.262c-0.872,0.169-1.63,0.37-2.279,0.61
	c-0.649,0.24-1.167,0.474-1.565,0.698l1.047,3.729c0.594-0.365,1.287-0.665,2.066-0.894c0.78-0.224,1.608-0.344,2.48-0.349
	c0.769,0.005,1.369,0.108,1.794,0.316c0.431,0.201,0.731,0.491,0.905,0.85c0.169,0.366,0.251,0.78,0.245,1.254
	c-1.362,0.006-2.638,0.148-3.816,0.42c-1.183,0.278-2.218,0.698-3.107,1.265c-0.893,0.567-1.592,1.292-2.093,2.169
	c-0.502,0.878-0.752,1.93-0.763,3.146c0.005,0.78,0.136,1.516,0.393,2.197c0.262,0.682,0.638,1.281,1.123,1.799
	c0.485,0.518,1.063,0.921,1.739,1.215c0.681,0.294,1.434,0.442,2.273,0.447c0.638,0,1.243-0.076,1.826-0.224
	c0.583-0.152,1.118-0.382,1.613-0.698c0.496-0.317,0.932-0.714,1.303-1.205h0.099l0.327,1.766h5.168
	c-0.076-0.376-0.136-0.796-0.18-1.259c-0.043-0.464-0.071-0.96-0.087-1.483c-0.022-0.523-0.027-1.063-0.027-1.608V159.62
	L480.49,159.62z M474.897,164.133c-0.011,0.578-0.136,1.057-0.382,1.439c-0.246,0.382-0.562,0.67-0.937,0.861
	c-0.376,0.191-0.763,0.284-1.167,0.284c-0.343,0-0.66-0.076-0.949-0.224c-0.294-0.152-0.528-0.387-0.709-0.709
	c-0.174-0.316-0.267-0.725-0.273-1.226c0.006-0.529,0.12-0.976,0.354-1.336c0.229-0.365,0.551-0.654,0.96-0.867
	c0.403-0.218,0.873-0.376,1.407-0.468c0.528-0.099,1.095-0.142,1.695-0.142V164.133L474.897,164.133z M500.059,144.083h-5.757v9.485
	h-0.098c-0.208-0.376-0.502-0.703-0.873-0.986c-0.376-0.284-0.823-0.507-1.346-0.665c-0.529-0.163-1.118-0.245-1.772-0.245
	c-0.965,0-1.881,0.213-2.742,0.626c-0.867,0.42-1.636,1.036-2.306,1.854s-1.204,1.826-1.586,3.025
	c-0.387,1.199-0.589,2.578-0.594,4.143c0.005,1.362,0.168,2.622,0.496,3.772c0.327,1.15,0.796,2.153,1.407,3.004
	c0.611,0.856,1.341,1.521,2.197,1.989c0.855,0.475,1.81,0.715,2.867,0.72c0.66,0,1.297-0.109,1.908-0.327
	c0.617-0.218,1.172-0.529,1.679-0.938c0.502-0.408,0.922-0.905,1.254-1.483h0.098l0.262,2.388h5.037
	c-0.022-0.496-0.043-1.052-0.065-1.662c-0.017-0.611-0.033-1.254-0.044-1.93c-0.016-0.676-0.022-1.352-0.022-2.034V144.083
	L500.059,144.083z M494.302,162.956c-0.005,0.627-0.087,1.151-0.24,1.564c-0.158,0.415-0.36,0.742-0.616,0.982
	c-0.251,0.24-0.524,0.414-0.812,0.512c-0.294,0.103-0.578,0.152-0.851,0.148c-0.594,0-1.112-0.186-1.565-0.551
	c-0.452-0.365-0.801-0.905-1.058-1.624c-0.256-0.719-0.382-1.608-0.388-2.665c0-0.698,0.06-1.358,0.181-1.968
	c0.119-0.61,0.305-1.145,0.556-1.608c0.251-0.469,0.567-0.828,0.949-1.096c0.382-0.262,0.834-0.392,1.358-0.398
	c0.251-0.006,0.518,0.049,0.801,0.158c0.284,0.104,0.556,0.284,0.812,0.535c0.251,0.25,0.464,0.589,0.621,1.019
	c0.164,0.425,0.245,0.954,0.251,1.592V162.956L494.302,162.956z M516.944,165.769c-0.654,0.218-1.341,0.387-2.071,0.518
	c-0.73,0.131-1.51,0.196-2.344,0.201c-0.807,0-1.538-0.114-2.191-0.343c-0.66-0.229-1.194-0.583-1.603-1.058
	c-0.403-0.474-0.633-1.074-0.687-1.804h10.402c0.065-0.316,0.109-0.687,0.131-1.112c0.022-0.425,0.033-0.861,0.033-1.308
	c-0.005-1.56-0.191-2.917-0.556-4.073c-0.36-1.155-0.877-2.109-1.543-2.867c-0.67-0.758-1.461-1.319-2.371-1.695
	c-0.91-0.37-1.919-0.556-3.02-0.556c-1.102,0.005-2.099,0.18-3.004,0.523c-0.899,0.339-1.696,0.818-2.388,1.439
	c-0.692,0.616-1.27,1.336-1.744,2.164c-0.469,0.828-0.829,1.728-1.069,2.704c-0.245,0.97-0.365,1.989-0.365,3.047
	c0.005,1.925,0.359,3.576,1.063,4.95c0.703,1.374,1.728,2.426,3.075,3.162c1.346,0.736,2.987,1.107,4.922,1.112
	c0.736,0,1.461-0.038,2.175-0.109c0.715-0.076,1.401-0.185,2.061-0.338c0.665-0.147,1.281-0.338,1.848-0.567L516.944,165.769
	L516.944,165.769z M508.015,159.325c0.022-0.392,0.092-0.801,0.207-1.226c0.109-0.425,0.278-0.824,0.501-1.2
	c0.218-0.37,0.502-0.676,0.851-0.91c0.349-0.235,0.763-0.354,1.254-0.36c0.496,0.006,0.91,0.12,1.237,0.349
	c0.327,0.224,0.583,0.518,0.768,0.884c0.191,0.37,0.322,0.768,0.399,1.193c0.082,0.43,0.12,0.856,0.114,1.27H508.015
	L508.015,159.325z M543.447,165.278c-0.299,0.109-0.649,0.208-1.052,0.3c-0.403,0.087-0.828,0.158-1.275,0.207
	c-0.453,0.055-0.894,0.082-1.336,0.082c-1.368,0-2.557-0.305-3.555-0.905c-1.003-0.605-1.777-1.504-2.322-2.693
	c-0.545-1.189-0.823-2.66-0.828-4.416c0.006-1.423,0.185-2.649,0.534-3.68c0.344-1.03,0.829-1.88,1.44-2.546
	c0.616-0.665,1.325-1.155,2.126-1.477c0.802-0.316,1.657-0.479,2.573-0.475c0.802,0.006,1.505,0.082,2.115,0.229
	c0.605,0.147,1.123,0.322,1.548,0.524l1.046-4.677c-0.24-0.136-0.594-0.273-1.058-0.414c-0.464-0.136-1.03-0.257-1.701-0.354
	c-0.665-0.093-1.428-0.142-2.279-0.148c-1.308,0-2.573,0.169-3.789,0.518c-1.216,0.344-2.344,0.867-3.385,1.57
	c-1.042,0.698-1.952,1.581-2.731,2.644c-0.785,1.063-1.39,2.312-1.827,3.745c-0.436,1.434-0.659,3.059-0.665,4.868
	c0,1.407,0.152,2.737,0.458,3.996c0.306,1.259,0.768,2.415,1.39,3.462c0.622,1.046,1.401,1.952,2.344,2.72
	c0.937,0.763,2.044,1.358,3.309,1.777c1.27,0.42,2.704,0.633,4.307,0.638c0.834-0.005,1.597-0.049,2.289-0.136
	c0.698-0.082,1.303-0.191,1.821-0.322c0.518-0.126,0.921-0.257,1.221-0.393L543.447,165.278L543.447,165.278z M561.021,159.62
	c0.006-0.823-0.065-1.625-0.207-2.399c-0.136-0.774-0.376-1.493-0.714-2.164c-0.332-0.67-0.791-1.259-1.368-1.766
	c-0.578-0.507-1.303-0.9-2.175-1.184c-0.867-0.289-1.908-0.431-3.123-0.436c-1.058,0.005-2.023,0.092-2.895,0.262
	c-0.872,0.169-1.63,0.37-2.279,0.61c-0.649,0.24-1.167,0.474-1.565,0.698l1.047,3.729c0.594-0.365,1.287-0.665,2.066-0.894
	c0.78-0.224,1.608-0.344,2.48-0.349c0.769,0.005,1.369,0.108,1.794,0.316c0.431,0.201,0.73,0.491,0.905,0.85
	c0.169,0.366,0.251,0.78,0.246,1.254c-1.363,0.006-2.638,0.148-3.816,0.42c-1.183,0.278-2.218,0.698-3.107,1.265
	c-0.893,0.567-1.592,1.292-2.093,2.169c-0.502,0.878-0.752,1.93-0.763,3.146c0.006,0.78,0.136,1.516,0.393,2.197
	c0.261,0.682,0.638,1.281,1.123,1.799c0.485,0.518,1.063,0.921,1.739,1.215c0.682,0.294,1.434,0.442,2.273,0.447
	c0.638,0,1.243-0.076,1.826-0.224c0.583-0.152,1.118-0.382,1.613-0.698c0.496-0.317,0.933-0.714,1.303-1.205h0.099l0.326,1.766
	h5.168c-0.076-0.376-0.136-0.796-0.18-1.259c-0.043-0.464-0.071-0.96-0.087-1.483c-0.021-0.523-0.027-1.063-0.027-1.608V159.62
	L561.021,159.62z M555.428,164.133c-0.011,0.578-0.136,1.057-0.382,1.439c-0.245,0.382-0.561,0.67-0.938,0.861
	c-0.376,0.191-0.763,0.284-1.167,0.284c-0.343,0-0.66-0.076-0.948-0.224c-0.294-0.152-0.529-0.387-0.709-0.709
	c-0.174-0.316-0.267-0.725-0.272-1.226c0.005-0.529,0.12-0.976,0.354-1.336c0.229-0.365,0.551-0.654,0.96-0.867
	c0.403-0.218,0.872-0.376,1.406-0.468c0.529-0.099,1.096-0.142,1.695-0.142V164.133L555.428,164.133z M590.075,159.26
	c0-1.641-0.224-3.02-0.659-4.149c-0.436-1.128-1.074-1.979-1.909-2.562c-0.834-0.583-1.853-0.878-3.058-0.878
	c-0.709,0.005-1.346,0.104-1.919,0.294c-0.567,0.185-1.063,0.425-1.494,0.719c-0.431,0.294-0.796,0.6-1.101,0.916
	c-0.3,0.321-0.54,0.616-0.719,0.883h-0.066c-0.365-0.877-0.943-1.559-1.728-2.055c-0.791-0.496-1.75-0.747-2.883-0.758
	c-0.655,0.005-1.243,0.087-1.777,0.251c-0.529,0.164-1.003,0.382-1.418,0.643c-0.42,0.268-0.78,0.551-1.09,0.856
	c-0.311,0.31-0.572,0.61-0.785,0.9h-0.098l-0.262-2.29h-4.906c0.033,0.867,0.066,1.788,0.093,2.77
	c0.022,0.981,0.038,2.022,0.038,3.118v12.527h5.659V159.39c0.006-0.588,0.087-1.074,0.245-1.472c0.152-0.392,0.354-0.703,0.6-0.932
	c0.24-0.229,0.491-0.398,0.758-0.496c0.261-0.098,0.501-0.147,0.719-0.141c0.529,0.005,0.948,0.163,1.248,0.474
	c0.3,0.306,0.513,0.714,0.633,1.221c0.125,0.507,0.185,1.063,0.179,1.674v10.728h5.659v-11.088c0.005-0.627,0.103-1.161,0.294-1.608
	c0.196-0.453,0.463-0.796,0.807-1.036c0.343-0.24,0.736-0.365,1.188-0.365c0.524,0.005,0.932,0.163,1.243,0.474
	c0.305,0.316,0.523,0.758,0.66,1.33c0.131,0.567,0.196,1.243,0.19,2.022v10.27h5.659V159.26L590.075,159.26z M598.457,154.353
	l-0.294-2.322h-4.972c0.033,0.884,0.065,1.831,0.093,2.846c0.022,1.014,0.038,2.093,0.038,3.238v19.658h5.757v-8.831h0.099
	c0.218,0.343,0.518,0.654,0.894,0.932c0.376,0.284,0.817,0.507,1.33,0.676c0.512,0.164,1.079,0.251,1.701,0.257
	c0.725,0,1.439-0.12,2.147-0.365c0.709-0.24,1.374-0.616,1.995-1.112c0.627-0.501,1.184-1.14,1.663-1.908
	c0.48-0.769,0.861-1.679,1.134-2.731c0.272-1.052,0.414-2.252,0.419-3.598c-0.005-1.379-0.169-2.644-0.496-3.789
	c-0.327-1.15-0.796-2.142-1.401-2.981c-0.606-0.84-1.325-1.488-2.16-1.952c-0.834-0.458-1.76-0.693-2.78-0.698
	c-1.117,0.005-2.11,0.24-2.981,0.703c-0.867,0.463-1.576,1.123-2.121,1.979H598.457L598.457,154.353z M599.078,159.489
	c0.006-0.659,0.131-1.221,0.371-1.695c0.24-0.474,0.555-0.834,0.948-1.09c0.387-0.256,0.812-0.387,1.265-0.387
	c0.643,0.006,1.188,0.207,1.63,0.605c0.441,0.398,0.774,0.97,1.003,1.712c0.229,0.742,0.344,1.625,0.344,2.655
	c0,0.97-0.115,1.826-0.338,2.578c-0.223,0.747-0.561,1.336-1.014,1.767c-0.453,0.431-1.014,0.649-1.69,0.66
	c-0.495-0.006-0.932-0.147-1.308-0.426c-0.376-0.277-0.671-0.659-0.884-1.144c-0.212-0.485-0.321-1.041-0.327-1.668V159.489
	L599.078,159.489z M618.745,147.027c-0.006-0.583-0.131-1.096-0.376-1.532c-0.251-0.442-0.594-0.785-1.036-1.036
	c-0.436-0.245-0.948-0.37-1.532-0.376c-0.573,0.006-1.079,0.131-1.521,0.376c-0.436,0.251-0.785,0.594-1.036,1.036
	c-0.251,0.436-0.382,0.949-0.387,1.532c0.006,0.562,0.131,1.058,0.376,1.494c0.251,0.436,0.594,0.779,1.036,1.03
	c0.435,0.251,0.948,0.382,1.531,0.387c0.561-0.006,1.063-0.126,1.504-0.371c0.442-0.24,0.791-0.583,1.047-1.014
	C618.608,148.117,618.739,147.61,618.745,147.027L618.745,147.027z M618.679,152.031h-5.757v18.415h5.757V152.031L618.679,152.031z
	 M638.215,159.227c0-1.597-0.228-2.96-0.676-4.083c-0.452-1.123-1.117-1.985-1.995-2.573c-0.877-0.594-1.962-0.894-3.249-0.899
	c-0.638,0.005-1.221,0.087-1.761,0.245c-0.534,0.158-1.014,0.365-1.439,0.627c-0.431,0.262-0.802,0.551-1.118,0.867
	c-0.321,0.311-0.578,0.627-0.785,0.943h-0.098l-0.294-2.322h-4.939c0.033,0.867,0.066,1.788,0.093,2.77
	c0.022,0.981,0.038,2.022,0.038,3.118v12.527h5.757v-10.794c0.006-0.779,0.132-1.412,0.377-1.886c0.24-0.474,0.55-0.823,0.926-1.036
	c0.376-0.212,0.774-0.321,1.183-0.316c0.545,0.005,0.976,0.152,1.303,0.436c0.327,0.283,0.562,0.676,0.709,1.177
	c0.147,0.502,0.218,1.075,0.213,1.723v10.695h5.757V159.227L638.215,159.227z M656.017,159.62c0.006-0.823-0.065-1.625-0.207-2.399
	c-0.136-0.774-0.376-1.493-0.714-2.164c-0.332-0.67-0.791-1.259-1.368-1.766c-0.578-0.507-1.303-0.9-2.175-1.184
	c-0.867-0.289-1.908-0.431-3.123-0.436c-1.058,0.005-2.022,0.092-2.895,0.262c-0.872,0.169-1.63,0.37-2.279,0.61
	c-0.649,0.24-1.167,0.474-1.565,0.698l1.047,3.729c0.594-0.365,1.287-0.665,2.067-0.894c0.779-0.224,1.608-0.344,2.48-0.349
	c0.769,0.005,1.369,0.108,1.794,0.316c0.431,0.201,0.731,0.491,0.905,0.85c0.169,0.366,0.251,0.78,0.245,1.254
	c-1.362,0.006-2.638,0.148-3.816,0.42c-1.183,0.278-2.218,0.698-3.107,1.265c-0.893,0.567-1.592,1.292-2.093,2.169
	c-0.502,0.878-0.752,1.93-0.763,3.146c0.005,0.78,0.136,1.516,0.393,2.197c0.261,0.682,0.638,1.281,1.122,1.799
	c0.485,0.518,1.063,0.921,1.739,1.215c0.681,0.294,1.434,0.442,2.273,0.447c0.638,0,1.243-0.076,1.826-0.224
	c0.583-0.152,1.118-0.382,1.614-0.698c0.496-0.317,0.932-0.714,1.303-1.205h0.099l0.327,1.766h5.168
	c-0.076-0.376-0.136-0.796-0.18-1.259c-0.043-0.464-0.071-0.96-0.087-1.483c-0.022-0.523-0.028-1.063-0.028-1.608V159.62
	L656.017,159.62z M650.424,164.133c-0.011,0.578-0.136,1.057-0.382,1.439c-0.245,0.382-0.561,0.67-0.937,0.861
	c-0.376,0.191-0.763,0.284-1.167,0.284c-0.343,0-0.66-0.076-0.949-0.224c-0.294-0.152-0.528-0.387-0.709-0.709
	c-0.174-0.316-0.267-0.725-0.273-1.226c0.006-0.529,0.12-0.976,0.354-1.336c0.229-0.365,0.551-0.654,0.96-0.867
	c0.403-0.218,0.872-0.376,1.406-0.468c0.528-0.099,1.095-0.142,1.695-0.142V164.133L650.424,164.133z M670.418,152.653
	c-0.562-0.273-1.237-0.502-2.028-0.687c-0.791-0.191-1.663-0.289-2.617-0.294c-1.079,0.005-2.055,0.158-2.928,0.463
	c-0.867,0.306-1.608,0.73-2.224,1.276c-0.617,0.551-1.091,1.194-1.418,1.93c-0.327,0.736-0.491,1.543-0.496,2.415
	c-0.005,0.638,0.131,1.276,0.409,1.924c0.284,0.643,0.763,1.265,1.44,1.864c0.67,0.6,1.597,1.145,2.764,1.641
	c0.616,0.245,1.101,0.474,1.45,0.681c0.349,0.208,0.594,0.42,0.736,0.644c0.142,0.223,0.207,0.48,0.201,0.768
	c0,0.442-0.174,0.785-0.523,1.019c-0.349,0.235-0.883,0.355-1.603,0.355c-0.501-0.005-1.019-0.065-1.559-0.191
	c-0.545-0.12-1.052-0.272-1.537-0.458c-0.48-0.185-0.872-0.37-1.188-0.561l-0.981,4.122c0.398,0.24,0.877,0.452,1.439,0.632
	c0.562,0.18,1.172,0.322,1.832,0.426c0.66,0.098,1.336,0.152,2.028,0.152c1.553-0.005,2.895-0.24,4.012-0.709
	c1.123-0.469,1.99-1.15,2.595-2.038c0.605-0.889,0.911-1.969,0.916-3.239c-0.006-0.785-0.159-1.52-0.458-2.196
	c-0.295-0.682-0.769-1.309-1.418-1.876c-0.654-0.567-1.51-1.074-2.573-1.521c-0.67-0.277-1.194-0.528-1.57-0.747
	c-0.376-0.218-0.643-0.431-0.796-0.632c-0.153-0.207-0.224-0.436-0.218-0.682c0-0.414,0.163-0.747,0.485-0.992
	c0.327-0.251,0.807-0.376,1.444-0.382c0.442,0,0.867,0.049,1.293,0.142c0.419,0.093,0.807,0.207,1.172,0.349
	c0.36,0.136,0.67,0.278,0.938,0.425L670.418,152.653z"/>
<path fill-rule="evenodd" clip-rule="evenodd" fill="#FFFFFF" d="M29.324,153.274c-3.548-10.17-5.483-21.112-5.483-32.501
	c0-33.318,16.546-62.809,41.662-80.327l1.684-1.151c-1.36,2.949-2.576,5.983-3.483,9.203c-0.237,0.841-1.092,1.135-1.26,1.941
	c-0.616,0.541-1.284,1.088-1.975,1.663C41.7,68.819,29.802,93.42,29.802,120.772c0,10.477,1.746,20.55,4.955,29.932L29.324,153.274z
	"/>
<path fill-rule="evenodd" clip-rule="evenodd" fill="#FFFFFF" d="M206.644,83.657c4.716,11.419,7.229,24.229,7.229,37.116
	c0,10.973-1.729,21.188-4.913,30.829l-5.563-2.212c2.929-9.005,4.515-18.628,4.515-28.617c0-9.752-1.486-19.163-4.315-27.973
	c-0.218-0.68-1.13-1.465-0.791-2.27c1.225-2.908,1.968-6.298,2.382-10.018C205.342,79.128,206.317,82.864,206.644,83.657z"/>
<path fill-rule="evenodd" clip-rule="evenodd" fill="#FFFFFF" d="M73.441,157.605"/>
<g>
	<path fill="#FFFFFF" d="M123.761,155.044c-2.246,0-2.628,1.573-2.628,8.123c0,1.999-0.296,6.081,2.585,6.081
		c2.161,0,2.458-2.254,2.458-6.805C126.176,157.724,125.965,155.044,123.761,155.044z"/>
	<path fill="#FFFFFF" d="M78.478,166.57c0,1.531,0.254,3.402,2.203,3.402c3.517,0,2.967-4.763,2.967-7.103
		C80.682,162.997,78.478,162.742,78.478,166.57z"/>
	<path fill="#FFFFFF" d="M156.925,155.172c-2.543,0-2.755,2.254-2.755,6.72c0,6.55,0.551,7.953,2.755,7.953
		c2.203,0,2.754-1.404,2.754-7.953C159.679,157.426,159.467,155.172,156.925,155.172z"/>
	<path fill="#FFFFFF" d="M201.549,72.013l-0.688-3.211l-0.917-3.899v-1.605v-3.211l-0.688-3.211l-1.606-3.211l-3.211-3.211
		l-4.128-2.294l-7.798-3.211l-7.339-2.294l-3.899-3.211l3.899-7.339L164.853,30.5l-1.606-1.605l-1.605-1.376l-2.294-0.917h-0.688
		l-1.606-1.606l-0.917-0.688l-3.211-2.523l-3.211-0.688h-6.193h-1.605l-1.606-0.917l-3.211-0.688l-2.523-0.917l-2.293,0.917
		l-15.826,2.294l4.587,2.523l-6.193-1.605l-5.734-2.523l-2.294-0.688h-2.523l-3.899,0.688l-4.816,1.606l-4.816,1.605l-2.982,1.606
		l-8.027,3.899l-4.128,3.211l-2.982,3.211l-2.523,5.734l-0.688,0.688l-2.523,3.899l-1.606,4.816v0.917l-3.211,7.11l-3.899,6.422
		l-1.605,2.294l-5.505,8.715l4.816,2.523l-0.917,3.211v1.606v0.688v3.211v1.605v3.211l0.917,3.211v1.606v2.294l-0.917,3.211
		l-1.606,3.211l-2.294,3.211l-7.11,9.403h3.899v1.606l-2.294,4.816l-5.734,11.238l8.027,6.422
		c17.345,75.674,133.736,69.607,140.136-5.734v-6.422l0.917-2.294l3.899-3.211l3.899-3.211l2.523-3.211l1.606-4.587l0.688-0.917
		v-4.817v-3.899l-1.605-3.899v-0.917v-3.211v-1.606v-1.606v-0.688l0.917-4.128l0.688-2.982l0.917-7.339v-0.688L201.549,72.013z
		 M84.242,173.247l-0.254-2.849h-0.085c-1.271,2.212-3.009,3.275-5.594,3.275c-4.153,0-5.679-3.104-5.679-6.847
		c0-7.103,5.467-7.4,11.018-7.315v-1.659c0-1.829-0.254-3.147-2.416-3.147c-2.076,0-2.246,1.573-2.246,3.275h-5.848
		c0-2.594,0.805-4.253,2.203-5.231c1.356-1.02,3.305-1.404,5.594-1.404c7.586,0,8.56,3.275,8.56,7.188v10.717
		c0,1.319,0.169,2.679,0.297,3.998H84.242z M110.972,173.247h-5.975v-14.8c0-1.914-0.339-3.402-2.246-3.402
		c-1.907,0-2.246,1.489-2.246,3.402v14.8H94.53V151.77h5.975v2.169h0.085c0.593-0.978,1.314-1.616,2.119-1.999
		c0.848-0.425,1.822-0.596,2.924-0.596c2.839,0,5.339,1.701,5.339,4.678V173.247z M132.151,174.14c0,1.489,0.085,7.358-8.136,7.358
		c-4.45,0-8.264-1.148-8.391-6.379h5.848c0,0.893,0.127,1.659,0.508,2.169c0.381,0.553,1.059,0.851,1.992,0.851
		c1.483,0,2.203-1.403,2.203-3.573v-4.125h-0.085c-0.89,1.659-2.585,2.509-4.534,2.509c-6.568,0-6.272-6.039-6.272-10.887
		c0-4.721,0.085-10.718,6.314-10.718c2.119,0,3.941,0.936,4.789,2.935h0.085v-2.509h5.678V174.14z M143.13,173.247h-5.975v-30.706
		h5.975V173.247z M156.925,173.672c-7.713,0-8.729-4.721-8.729-11.44c0-5.869,0.847-10.888,8.729-10.888
		c7.882,0,8.73,5.019,8.73,10.888C165.654,168.952,164.637,173.672,156.925,173.672z M195.128,77.518l-0.688,6.422l-0.917,3.211
		l-0.688-2.294l-0.917-3.211l-0.688-1.605l-0.917-0.917l-0.688,0.917l-2.294,2.294l-1.606,3.211l-1.605,3.211l-1.606,0.688
		l-1.606,0.917l-2.523,0.688l-2.294,1.605l-0.917,0.917h-1.376l-0.917-0.917h-0.688l-1.605,0.917l-1.606,0.688l-1.605,3.211
		l-1.606,6.422v1.605l0.688,3.211l0.917,2.293l0.688,0.918h1.606l4.816-3.211l2.293-1.606l1.606-2.523l1.605-3.899l2.523-2.294
		l3.211-1.605l3.899-0.917h2.293l0.917-0.688v0.688v4.816l0.688,3.899l0.917,3.211v3.211l-1.606,3.211l-2.523,3.211l-2.982,2.294
		l-3.211,2.523l-2.523,2.294l-1.606,2.523l-0.688,2.294l-0.917,2.293l0.917,4.128v3.211l-0.917,3.211l-0.688,2.294l-1.606,1.605
		v1.606v1.606v0.688l-0.917,4.816l-2.982,6.422l-4.128,5.504h-0.688v-1.605v-2.294l0.688-4.816v-4.817v-9.633h3.211l1.605-0.688
		l0.917-1.605v-2.294l1.376-0.917v-0.688l0.917-2.523l-0.917-3.899v-2.294v-1.606l-0.688-1.605h-0.688l-1.606-0.917h-2.523
		l-1.606-0.688l-0.688-0.917l5.504-1.606l6.422-0.688h0.688l0.917-0.917l0.688-1.606v-1.605l-0.688-0.688l-1.605-1.606h-0.917
		h-2.294h-3.211l-1.605,0.688l-1.606,0.917h-0.688h-2.523h-2.294l-1.605-0.917l-0.917-1.376v-1.606v-3.211l0.917-3.211v-3.211
		l-2.294,2.293l-2.523,4.129l-2.293,2.293l-1.606,0.918l-1.606-0.918l-2.523-1.606l-1.606-1.605l-0.688-1.606v-3.211v-3.899v-2.294
		l1.606-3.211l2.293-2.523l1.606-2.294l0.917-0.917v-0.688l-0.917-1.606h-0.688l-2.523,0.688l-3.211,0.917h-2.982l-3.211-1.606
		l-0.917-0.688l-0.688-1.605v-0.917l-0.917-0.688l-1.606,0.688l-1.606,3.211l-0.688,0.688l-0.917,0.917l-2.294,0.688l-2.293,1.605
		l-1.605,2.523l-0.917,3.211l-2.294,1.606l-0.917-2.523v-3.899v-5.505l0.917-5.734l0.688-3.211l1.606-1.605l-1.606-0.688
		l-0.688-0.917l-2.523,2.523l-2.294,3.211l-3.211,2.293l-2.294,1.606l-0.917,2.523l-0.688,1.376l-0.917,2.523l0.917,4.816
		l-0.917,1.606l-0.688,1.606l-0.917,0.688l-0.688-0.688l-1.606-1.606l-0.917-4.128v-2.294l0.917-2.523l1.606-5.505l0.688-4.816
		l0.917-2.294l0.688-2.293l3.211-3.211l0.917-1.606v-1.606h-4.128l-0.688-0.917v-0.688V62.38l2.293-4.817l2.523-2.982l3.899-4.128
		l0.688-2.294v-0.917l-0.688-1.605l-0.917-1.606l0.917-1.376l1.606-2.523l-9.633-1.605l-8.716-2.294l0.917-1.605h1.376v-0.917
		v-2.294l-1.376,1.606l-1.605,0.688H98.11l-2.523,1.605l-1.606,2.523l-3.211,1.606l-2.294,1.605l-3.211,1.606l-1.606,2.982h4.817
		l-2.294,3.211l-2.523,3.211l-5.505,6.422l-3.899,4.816l-1.605,6.422l-1.606,4.587v3.211v0.917l0.688,0.688l1.605,1.605v1.606
		l-0.688,4.816l-1.606,7.11l-1.605,4.128l-1.606,2.982l-0.917,0.918v0.688l1.606,1.605l0.917,0.917v0.688v2.523v0.688l-0.917,1.606
		l-0.688,1.606l-0.917,1.605v2.294l-0.688,2.523l-4.128,5.505l-0.688,3.211v3.211l4.817-3.211l4.816-2.294l-1.605,2.294
		l-2.523,1.606l-1.606,1.605l-1.605,2.294l-0.688,4.816l-0.917,4.129l0.917,3.899v4.816l3.211,7.798l3.899,8.945l-0.688,1.606
		l-3.211-4.128l-3.211-4.816l-3.211-5.505l-2.294-4.816l-1.605-5.504l-1.606-5.505l-0.917-6.422v-6.422l1.606-4.817l1.606-3.211
		l3.899-3.899l2.523-2.293l3.899-4.128l-7.11,2.523l2.293-6.422l0.917-3.899l0.688-3.211l-0.688-4.129v-3.899v-1.605v-4.816v-0.688
		v-3.211l1.606-4.128l0.688-2.294l1.606-3.899l-3.211,1.605l4.816-8.027l4.128-8.027v-1.606l1.605-3.211l0.688-3.211l8.027-6.193
		l2.294-2.523l-1.606-0.688l-0.688-0.917l7.11-3.211h0.688l3.211-1.606l6.422-2.982l3.211-0.917h2.294l7.339,3.211l7.11,1.605h4.817
		l3.211-0.917l3.899-0.688h3.211h3.899l-1.605-2.294l1.605,0.688h2.523h2.293h3.211l2.294,0.688l0.917,0.917l0.688,0.688
		l3.211,2.523l1.605,0.688l2.523,0.917v0.688l0.688,1.606l2.294,0.918h1.605l-0.688,3.211l0.688,0.688l0.917,1.605l3.211,3.211
		l4.816,2.293l3.899,1.606l3.899,1.605l7.339,2.523l2.294,1.605l2.293,2.294l0.917,1.605v0.688h-0.917l-6.193-0.688l-3.211,0.688
		l-2.523,1.606l-1.605,0.917l-2.294,0.688l-1.605,0.917v0.688l0.688,0.917l1.605,2.294h1.606l4.817,1.606l2.523,0.917l0.688,1.376
		l1.606,1.606l1.605,0.917l0.688-4.817l1.605-3.899l1.606,3.899l0.917,3.211l0.688,3.211V77.518z"/>
	<polygon fill="#FFFFFF" points="146.504,52.059 144.211,48.848 143.522,48.16 142.605,47.243 139.394,49.766 137.101,52.059 
		134.578,54.582 133.89,56.187 133.89,57.564 137.789,56.876 141,56.876 149.027,57.564 148.11,55.27 	"/>
	<polygon fill="#FFFFFF" points="149.715,37.839 149.715,36.234 149.715,35.316 149.027,34.628 146.504,33.023 144.211,33.023 
		141.917,33.023 140.312,34.628 139.394,36.922 143.522,38.527 145.816,39.445 147.422,40.133 149.027,41.738 151.321,42.656 
		153.844,41.738 150.633,39.445 	"/>
</g>
<polygon fill-rule="evenodd" clip-rule="evenodd" fill="#FFFFFF" points="68.702,51.862 68.702,51.862 68.702,51.862 "/>
<path fill-rule="evenodd" clip-rule="evenodd" fill="#FFFFFF" d="M73.506,157.55"/>
<g>
	<path fill="#FFFFFF" d="M533.523,100.829c-0.672-0.658-1.388-1.131-2.131-1.403c-0.744-0.286-1.446-0.429-2.104-0.415
		c-1.374,0.014-2.561,0.358-3.563,1.045c-1.001,0.701-1.832,1.645-2.49,2.875c-0.658,1.216-1.144,2.619-1.46,4.221
		c-0.315,1.603-0.472,3.334-0.472,5.166c0.014,2.776,0.344,5.108,1.016,6.997c0.672,1.888,1.588,3.305,2.776,4.264
		c1.188,0.958,2.547,1.445,4.107,1.445c0.716,0.014,1.46-0.115,2.233-0.386c0.758-0.258,1.473-0.715,2.132-1.345
		c0.672-0.63,1.202-1.488,1.617-2.576c0.401-1.087,0.615-2.461,0.63-4.107v-8.928c-0.015-1.674-0.229-3.063-0.659-4.179
		C534.74,102.374,534.182,101.487,533.523,100.829z"/>
	<path fill="#FFFFFF" d="M430.051,115.037c-1.073,0.558-1.917,1.316-2.518,2.275c-0.615,0.944-0.916,2.118-0.931,3.506
		c0.015,1.316,0.258,2.389,0.716,3.219c0.472,0.844,1.087,1.459,1.86,1.86c0.758,0.387,1.588,0.587,2.49,0.587
		c1.059,0,2.074-0.243,3.062-0.744c0.987-0.501,1.817-1.259,2.461-2.261c0.644-1.001,0.973-2.261,1.001-3.778v-6.267
		c-1.574,0-3.062,0.115-4.45,0.372C432.34,114.05,431.11,114.465,430.051,115.037z"/>
	<path fill="#FFFFFF" d="M311.653,115.037c-1.073,0.558-1.917,1.316-2.518,2.275c-0.615,0.944-0.916,2.118-0.931,3.506
		c0.015,1.316,0.258,2.389,0.716,3.219c0.472,0.844,1.087,1.459,1.86,1.86c0.758,0.387,1.589,0.587,2.49,0.587
		c1.059,0,2.074-0.243,3.062-0.744c0.987-0.501,1.817-1.259,2.461-2.261c0.644-1.001,0.973-2.261,1.002-3.778v-6.267
		c-1.574,0-3.062,0.115-4.45,0.372C313.943,114.05,312.713,114.465,311.653,115.037z"/>
	<path fill="#FFFFFF" d="M572.661,115.037c-1.073,0.558-1.917,1.316-2.518,2.275c-0.615,0.944-0.916,2.118-0.931,3.506
		c0.015,1.316,0.258,2.389,0.716,3.219c0.472,0.844,1.087,1.459,1.86,1.86c0.759,0.387,1.589,0.587,2.49,0.587
		c1.059,0,2.074-0.243,3.062-0.744c0.987-0.501,1.817-1.259,2.461-2.261c0.644-1.001,0.973-2.261,1.001-3.778v-6.267
		c-1.573,0-3.062,0.115-4.45,0.372C574.95,114.05,573.72,114.465,572.661,115.037z"/>
	<path fill="#FFFFFF" d="M678.961,98.225c-1.243-3.992-3.111-7.428-5.575-10.233c-2.294-2.592-5.024-4.618-8.157-6.046l7.495-9.878
		c1.701-2.241,1.985-5.253,0.733-7.773c-1.251-2.521-3.822-4.114-6.636-4.114h-13.393c-2.757,0-5.285,1.53-6.563,3.973
		l-7.642,14.595c-0.808,1.542-1.034,3.292-0.69,4.947c-0.328,0.199-0.651,0.406-0.969,0.618c-0.953-2.205-2.953-3.88-5.438-4.346
		c-0.773-0.145-1.445-0.24-2.112-0.299c-0.667-0.06-1.417-0.086-2.431-0.086c-2.377,0-4.776,0.52-7.082,1.522
		c-0.43,0.183-0.853,0.383-1.27,0.601c-1.159-0.747-2.537-1.179-4.011-1.179h-12.964c-2.016,0-3.943,0.821-5.341,2.273
		c-0.819,0.853-1.414,1.879-1.75,2.988c-0.044-0.039-0.088-0.078-0.132-0.117c-2.262-1.983-5.056-3.525-8.251-4.563
		c-3.021-1.008-6.459-1.507-10.582-1.525c-3.223,0.018-6.24,0.294-8.969,0.822c-2.726,0.527-5.063,1.158-7.138,1.927
		c-0.372,0.138-0.734,0.276-1.088,0.416V67.074c0-4.092-3.317-7.409-7.409-7.409h-15.109c-4.092,0-7.409,3.317-7.409,7.409v12.723
		c-1.071-0.143-2.182-0.214-3.323-0.214c-3.625,0-7.127,0.8-10.426,2.386c-3.245,1.571-6.123,3.871-8.554,6.837
		c-0.281,0.344-0.556,0.695-0.822,1.056c-1.628-2.726-3.72-4.954-6.239-6.645c-3.531-2.39-7.787-3.612-12.746-3.633
		c-2.343,0.02-4.577,0.337-6.664,0.949c-1.226,0.363-2.391,0.805-3.473,1.314c-1.203-0.835-2.662-1.32-4.222-1.32h-12.963
		c-2.013,0-3.939,0.819-5.336,2.27c-0.821,0.853-1.418,1.881-1.754,2.992c-0.043-0.038-0.087-0.077-0.131-0.115
		c-2.261-1.984-5.056-3.526-8.252-4.565c-3.021-1.008-6.459-1.507-10.582-1.525c-3.223,0.018-6.24,0.294-8.968,0.822
		c-2.724,0.527-5.061,1.158-7.139,1.927c-2.007,0.741-3.746,1.522-5.168,2.322c-0.821,0.461-1.526,1.061-2.097,1.756
		c-1.059-1.207-2.245-2.271-3.553-3.187c-3.455-2.415-7.584-3.641-12.332-3.641c-2.623,0.021-5.084,0.408-7.28,1.14
		c-2.137,0.698-4.088,1.645-5.801,2.814c-0.026,0.018-0.052,0.036-0.078,0.054c-0.414-0.309-0.843-0.604-1.288-0.885
		c-3.235-2.03-7.083-3.081-11.438-3.122c-0.045-0.002-0.09-0.002-0.133,0c-2.467,0.021-4.682,0.342-6.793,0.989
		c-1.115,0.345-2.187,0.762-3.209,1.25c-1.196-0.82-2.641-1.296-4.186-1.296h-12.877c-2.013,0-3.94,0.819-5.336,2.27
		c-0.821,0.853-1.418,1.881-1.754,2.992c-0.043-0.038-0.087-0.077-0.131-0.115c-2.261-1.984-5.056-3.526-8.252-4.565
		c-3.021-1.008-6.459-1.507-10.583-1.525c-3.223,0.018-6.24,0.294-8.968,0.822c-0.646,0.125-1.27,0.256-1.873,0.393V69.907
		c0-4.092-3.317-7.409-7.409-7.409h-45.33c-4.092,0-7.409,3.317-7.409,7.409v13.222c0,4.092,3.317,7.409,7.409,7.409h7.615v45.733
		c0,4.092,3.317,7.409,7.409,7.409h15.11c4.092,0,7.409-3.317,7.409-7.409v-3.735c0.959,1.977,2.199,3.781,3.7,5.384
		c1.956,2.087,4.314,3.74,7.03,4.924c2.687,1.162,5.668,1.761,8.861,1.781c2.293,0.008,4.5-0.269,6.714-0.827
		c1.107-0.289,2.18-0.657,3.211-1.099c1.092,0.627,2.354,0.981,3.686,0.981h13.565c0.984,0,1.945-0.195,2.832-0.563
		c0.874,0.362,1.833,0.563,2.837,0.563h14.853c2.322,0,4.394-1.067,5.752-2.739c1.359,1.672,3.431,2.739,5.752,2.739h14.852
		c2.322,0,4.394-1.067,5.752-2.739c1.358,1.672,3.43,2.739,5.752,2.739h14.853c2.3,0,4.356-1.049,5.715-2.694
		c1.063,0.71,2.201,1.33,3.41,1.857c2.688,1.162,5.668,1.761,8.861,1.781c0.015,0,0.03,0,0.046,0c2.247,0,4.468-0.272,6.668-0.827
		c1.107-0.289,2.18-0.657,3.211-1.099c1.092,0.627,2.354,0.981,3.686,0.981h13.565c0.984,0,1.945-0.195,2.832-0.563
		c0.874,0.362,1.832,0.563,2.837,0.563h15.111c2.582,0,4.854-1.32,6.182-3.322c1.326,2.002,3.599,3.322,6.181,3.322h15.11
		c3.239,0,5.993-2.079,7-4.976c1.353,1.209,2.816,2.247,4.378,3.102c3.336,1.851,7.064,2.798,11.081,2.818c0.013,0,0.024,0,0.037,0
		c2.579,0,5.103-0.435,7.479-1.283c0.721-0.255,1.426-0.545,2.113-0.871c1.17,0.767,2.566,1.21,4.058,1.21h13.222
		c2.021,0,3.956-0.826,5.354-2.287c0.104-0.108,0.203-0.22,0.3-0.333c1.031,0.679,2.133,1.274,3.3,1.783
		c2.688,1.162,5.669,1.761,8.86,1.781c0.016,0,0.03,0,0.046,0c2.247,0,4.469-0.272,6.669-0.827c1.107-0.29,2.18-0.657,3.211-1.099
		c1.092,0.627,2.354,0.981,3.686,0.981h13.564c0.983,0,1.944-0.195,2.832-0.563c0.874,0.362,1.832,0.563,2.837,0.563h15.11
		c4.092,0,7.409-3.317,7.409-7.409v-12.875c0.573,2.092,1.33,4.06,2.268,5.893c2.524,4.93,6.263,8.772,11.11,11.422
		c4.612,2.522,10.148,3.811,16.455,3.829c0.007,0,0.015,0,0.021,0c2.112,0,4.278-0.108,6.5-0.329
		c2.27-0.243,4.326-0.582,6.219-1.021c2.118-0.469,4.146-1.093,6.027-1.854c3.272-1.323,5.156-4.771,4.503-8.24l-1.724-9.142
		c1.842-1.019,3.222-2.806,3.672-4.983c0.251-1.209,0.41-2.529,0.488-4.045c0.063-1.249,0.096-2.531,0.096-3.836
		C680.738,106.267,680.132,101.928,678.961,98.225z M281.073,83.129v53.143h-15.11V83.129h-15.024V69.907h45.33v13.222H281.073z
		 M289.856,110.431c-0.249,0.435-0.481,0.878-0.698,1.332V90.538h1.003c-0.066,0.849,0.013,1.721,0.254,2.578l2.748,9.787
		c0.212,0.757,0.542,1.466,0.967,2.104C292.442,106.596,291.012,108.409,289.856,110.431z M321.684,136.271l-0.859-4.636h-0.257
		c-0.973,1.287-2.118,2.332-3.42,3.162c-1.302,0.83-2.704,1.432-4.235,1.832c-1.531,0.387-3.119,0.587-4.793,0.587
		c-2.204-0.014-4.178-0.4-5.967-1.174c-1.774-0.773-3.291-1.831-4.565-3.19c-1.274-1.36-2.261-2.934-2.947-4.722
		c-0.673-1.789-1.016-3.721-1.03-5.767c0.028-3.191,0.686-5.952,2.003-8.256c1.317-2.304,3.148-4.207,5.495-5.695
		c2.332-1.488,5.051-2.59,8.156-3.319c3.091-0.716,6.44-1.088,10.016-1.102c0.014-1.245-0.2-2.332-0.644-3.29
		c-0.458-0.944-1.245-1.703-2.375-2.233c-1.116-0.543-2.69-0.815-4.708-0.83c-2.289,0.014-4.464,0.329-6.51,0.916
		c-2.047,0.601-3.864,1.388-5.423,2.346l-2.747-9.787c1.044-0.587,2.404-1.202,4.107-1.832c1.703-0.629,3.692-1.159,5.981-1.603
		c2.289-0.444,4.822-0.672,7.598-0.687c3.191,0.014,5.924,0.386,8.199,1.144c2.289,0.744,4.192,1.774,5.709,3.105
		c1.517,1.33,2.719,2.876,3.592,4.636c0.887,1.76,1.517,3.649,1.874,5.68c0.372,2.032,0.558,4.135,0.544,6.296v16.998
		c0,1.432,0.014,2.848,0.071,4.221c0.043,1.374,0.115,2.676,0.229,3.892c0.114,1.216,0.272,2.319,0.472,3.306H321.684z
		 M408.485,136.271h-14.853v-26.958c0.015-2.046-0.157-3.82-0.501-5.309c-0.358-1.502-0.93-2.661-1.731-3.491
		c-0.816-0.816-1.889-1.231-3.263-1.245c-1.187,0-2.217,0.329-3.119,0.959c-0.901,0.63-1.603,1.531-2.118,2.718
		c-0.501,1.174-0.759,2.576-0.773,4.221v29.104h-14.852v-28.16c0.015-1.602-0.143-3.062-0.472-4.392
		c-0.315-1.331-0.873-2.404-1.66-3.205c-0.787-0.816-1.889-1.231-3.277-1.245c-0.572-0.014-1.202,0.115-1.888,0.372
		c-0.701,0.257-1.359,0.701-1.989,1.302c-0.644,0.601-1.173,1.417-1.574,2.447c-0.415,1.044-0.63,2.318-0.644,3.864v29.018h-14.852
		V103.39c0-2.876-0.043-5.609-0.1-8.184c-0.072-2.576-0.157-4.994-0.243-7.269h12.878l0.686,6.01h0.258
		c0.558-0.758,1.245-1.545,2.061-2.361c0.815-0.801,1.759-1.545,2.861-2.247c1.088-0.686,2.333-1.259,3.721-1.689
		c1.402-0.429,2.947-0.644,4.664-0.658c2.977,0.029,5.495,0.687,7.57,1.989c2.061,1.302,3.578,3.09,4.536,5.394h0.172
		c0.472-0.701,1.102-1.473,1.888-2.318c0.802-0.83,1.76-1.631,2.891-2.404c1.131-0.773,2.432-1.402,3.921-1.888
		c1.503-0.501,3.177-0.758,5.037-0.773c3.162,0,5.838,0.773,8.027,2.304c2.189,1.531,3.863,3.763,5.008,6.725
		c1.144,2.962,1.731,6.582,1.731,10.889V136.271z M440.082,136.271l-0.859-4.636h-0.257c-0.973,1.287-2.118,2.332-3.42,3.162
		c-1.302,0.83-2.705,1.432-4.236,1.832c-1.531,0.387-3.119,0.587-4.793,0.587c-2.204-0.014-4.178-0.4-5.967-1.174
		c-1.774-0.773-3.291-1.831-4.565-3.19c-1.274-1.36-2.261-2.934-2.947-4.722c-0.673-1.789-1.016-3.721-1.03-5.767
		c0.029-3.191,0.687-5.952,2.003-8.256c1.317-2.304,3.148-4.207,5.495-5.695c2.332-1.488,5.051-2.59,8.156-3.319
		c3.091-0.716,6.439-1.088,10.016-1.102c0.014-1.245-0.2-2.332-0.644-3.29c-0.458-0.944-1.245-1.703-2.376-2.233
		c-1.116-0.543-2.69-0.815-4.708-0.83c-2.29,0.014-4.464,0.329-6.51,0.916c-2.047,0.601-3.864,1.388-5.424,2.346l-2.747-9.787
		c1.045-0.587,2.404-1.202,4.107-1.832c1.703-0.629,3.692-1.159,5.981-1.603c2.29-0.444,4.823-0.672,7.598-0.687
		c3.191,0.014,5.924,0.386,8.199,1.144c2.289,0.744,4.192,1.774,5.709,3.105c1.517,1.33,2.719,2.876,3.592,4.636
		c0.887,1.76,1.517,3.649,1.874,5.68c0.372,2.032,0.558,4.135,0.544,6.296v16.998c0,1.432,0.014,2.848,0.071,4.221
		c0.043,1.374,0.115,2.676,0.229,3.892c0.114,1.216,0.272,2.319,0.472,3.306H440.082z M501.899,136.271h-15.11v-28.074
		c0.014-1.703-0.172-3.205-0.558-4.522c-0.386-1.316-1.001-2.347-1.86-3.091c-0.859-0.744-1.989-1.13-3.42-1.145
		c-1.073-0.014-2.118,0.272-3.105,0.83c-0.987,0.558-1.803,1.474-2.433,2.719c-0.644,1.245-0.973,2.905-0.987,4.951v28.332h-15.11
		V103.39c0-2.876-0.043-5.609-0.1-8.184c-0.071-2.576-0.157-4.994-0.243-7.269h12.964l0.773,6.096h0.257
		c0.544-0.83,1.216-1.66,2.061-2.475c0.83-0.83,1.803-1.589,2.933-2.275c1.116-0.687,2.376-1.23,3.778-1.646
		c1.416-0.415,2.947-0.63,4.622-0.644c3.377,0.014,6.224,0.801,8.528,2.361c2.304,1.545,4.05,3.806,5.237,6.754
		c1.174,2.948,1.774,6.525,1.774,10.717V136.271z M538.045,136.271l-0.687-6.267h-0.258c-0.873,1.517-1.975,2.818-3.291,3.892
		c-1.33,1.073-2.79,1.889-4.407,2.462c-1.602,0.572-3.276,0.858-5.007,0.858c-2.776-0.014-5.28-0.644-7.527-1.889
		c-2.246-1.23-4.164-2.976-5.767-5.222c-1.602-2.232-2.833-4.865-3.692-7.884c-0.858-3.019-1.287-6.325-1.302-9.902
		c0.014-4.107,0.543-7.727,1.56-10.875c1.002-3.148,2.404-5.795,4.164-7.941c1.76-2.147,3.778-3.763,6.053-4.865
		c2.261-1.087,4.665-1.646,7.198-1.646c1.717,0,3.263,0.214,4.65,0.644c1.374,0.415,2.547,1.002,3.534,1.746
		c0.973,0.744,1.745,1.602,2.289,2.589h0.258V67.074h15.11v54.431c0,1.789,0.014,3.563,0.057,5.337
		c0.028,1.774,0.071,3.463,0.115,5.065c0.057,1.603,0.114,3.062,0.172,4.364H538.045z M582.692,136.271l-0.859-4.636h-0.257
		c-0.973,1.287-2.118,2.332-3.42,3.162c-1.302,0.83-2.704,1.432-4.235,1.832c-1.531,0.387-3.119,0.587-4.793,0.587
		c-2.204-0.014-4.178-0.4-5.967-1.174c-1.775-0.773-3.291-1.831-4.565-3.19c-1.274-1.36-2.261-2.934-2.948-4.722
		c-0.673-1.789-1.016-3.721-1.03-5.767c0.029-3.191,0.687-5.952,2.003-8.256c1.317-2.304,3.148-4.207,5.495-5.695
		c2.332-1.488,5.051-2.59,8.156-3.319c3.091-0.716,6.44-1.088,10.017-1.102c0.014-1.245-0.2-2.332-0.644-3.29
		c-0.458-0.944-1.245-1.703-2.375-2.233c-1.116-0.543-2.69-0.815-4.708-0.83c-2.29,0.014-4.464,0.329-6.51,0.916
		c-2.047,0.601-3.864,1.388-5.423,2.346l-2.747-9.787c1.045-0.587,2.404-1.202,4.107-1.832c1.703-0.629,3.692-1.159,5.981-1.603
		c2.289-0.444,4.822-0.672,7.598-0.687c3.191,0.014,5.924,0.386,8.199,1.144c2.289,0.744,4.192,1.774,5.709,3.105
		c1.517,1.33,2.719,2.876,3.592,4.636c0.887,1.76,1.517,3.649,1.874,5.68c0.372,2.032,0.558,4.135,0.544,6.296v16.998
		c0,1.432,0.014,2.848,0.071,4.221c0.043,1.374,0.115,2.676,0.229,3.892c0.114,1.216,0.272,2.319,0.472,3.306H582.692z
		 M652.753,67.589h13.393l-11.075,14.594h-9.959L652.753,67.589z M630.085,101.759c-0.515-0.129-1.059-0.215-1.659-0.272
		c-0.587-0.057-1.274-0.072-2.032-0.072c-1.302,0-2.533,0.201-3.706,0.63c-1.159,0.414-2.189,1.073-3.062,1.975
		c-0.887,0.901-1.545,2.06-1.989,3.491c-0.215,0.573-0.372,1.26-0.458,2.047c-0.1,0.801-0.143,1.631-0.143,2.503v24.211h-15.11
		v-32.71c0-3.162-0.043-6.009-0.1-8.557c-0.071-2.547-0.158-4.894-0.243-7.068h12.964l0.6,8.07h0.344
		c0.83-2.118,1.874-3.835,3.148-5.165c1.274-1.331,2.648-2.304,4.092-2.919c1.446-0.629,2.833-0.93,4.178-0.93
		c0.715,0,1.302,0.014,1.774,0.057c0.486,0.043,0.944,0.115,1.402,0.201V101.759z M672.586,114.551
		c-0.058,1.116-0.172,2.089-0.344,2.919H644.94c0.143,1.917,0.744,3.491,1.803,4.736c1.073,1.245,2.475,2.175,4.207,2.776
		c1.717,0.601,3.635,0.901,5.752,0.901c2.19-0.014,4.236-0.186,6.154-0.529c1.917-0.343,3.72-0.787,5.437-1.359l1.975,10.474
		c-1.488,0.601-3.105,1.102-4.85,1.488c-1.732,0.401-3.535,0.687-5.409,0.887c-1.874,0.186-3.778,0.286-5.709,0.286
		c-5.08-0.014-9.387-0.988-12.921-2.919c-3.534-1.932-6.224-4.693-8.07-8.299c-1.846-3.606-2.776-7.941-2.79-12.992
		c0-2.776,0.315-5.452,0.959-7.999c0.63-2.561,1.574-4.922,2.804-7.097c1.245-2.175,2.762-4.064,4.579-5.68
		c1.817-1.631,3.906-2.891,6.268-3.778c2.375-0.901,4.994-1.359,7.884-1.374c2.891,0,5.538,0.486,7.927,1.459
		c2.39,0.988,4.464,2.462,6.224,4.45c1.745,1.989,3.105,4.493,4.05,7.526c0.959,3.034,1.445,6.596,1.459,10.689
		C672.671,112.29,672.643,113.434,672.586,114.551z"/>
	<path fill="#FFFFFF" d="M657.504,100.614c-0.487-0.959-1.159-1.731-2.018-2.318c-0.858-0.601-1.946-0.902-3.248-0.916
		c-1.288,0.014-2.375,0.329-3.291,0.944c-0.916,0.615-1.66,1.417-2.232,2.39c-0.587,0.987-1.03,2.032-1.317,3.148
		c-0.3,1.117-0.486,2.19-0.543,3.22h13.994c0.015-1.088-0.086-2.204-0.3-3.334C658.348,102.631,658.005,101.587,657.504,100.614z"/>
</g>
<path fill-rule="evenodd" clip-rule="evenodd" fill="#FFFFFF" d="M118.857,3.572C55.263,3.572,3.711,55.125,3.711,118.719
	c0,63.593,51.553,115.147,115.147,115.147c63.594,0,115.146-51.553,115.146-115.147C234.004,55.125,182.451,3.572,118.857,3.572z
	 M119.143,227.532c-60.096,0-108.814-48.718-108.814-108.814c0-60.096,48.717-108.813,108.814-108.813
	c60.096,0,108.813,48.717,108.813,108.813C227.956,178.814,179.239,227.532,119.143,227.532z"/>
</svg>
