<?xml version="1.0" encoding="utf-8"?>
<!-- Generator: Adobe Illustrator 19.0.0, SVG Export Plug-In . SVG Version: 6.00 Build 0)  -->
<svg version="1.1" id="Camada_1" xmlns="http://www.w3.org/2000/svg" xmlns:xlink="http://www.w3.org/1999/xlink" x="0px" y="0px"
	 viewBox="-257 408.2 79.3 25.7" style="enable-background:new -257 408.2 79.3 25.7;" xml:space="preserve">
<style type="text/css">
	.st0{fill:#FFFFFF;}
</style>
<g>
	<path class="st0" d="M-234.5,425.8c-0.4-0.3-0.7-0.3-0.9-0.1c-0.1,0.1-0.1,0.3-0.1,0.4c0,0.1,0.1,0.3,0.3,0.4
		c0.2,0.1,0.3,0.2,0.5,0.3c0.2,0,0.3,0,0.4-0.1c0.1-0.1,0.1-0.3,0.1-0.4C-234.2,426.1-234.3,426-234.5,425.8z"/>
	<path class="st0" d="M-243.6,430.1c0,0-0.1,0-0.2,0l-0.1,1.4c0.1,0,0.1,0,0.2,0c0.2,0,0.3-0.1,0.4-0.2c0.1-0.1,0.2-0.3,0.2-0.5
		C-243,430.4-243.2,430.2-243.6,430.1z"/>
	<polygon class="st0" points="-246,430.8 -245.4,430.9 -245.5,430.1 	"/>
</g>
<g>
	<path class="st0" d="M-235.4,416.1l-0.2-0.4l-0.2,0.4l-0.1,0.5l-0.2-0.1l-0.2-0.2l-0.1-0.1l-0.3-0.1l-0.5-0.2h-0.2l-0.2-0.2
		l-0.1-0.1v-0.1l0.2-0.1l0.2-0.1l0.2-0.1l0.3-0.2l0.3-0.1l0.6,0.1h0.1V415l-0.1-0.2l-0.2-0.2l-0.2-0.2l-0.8-0.3l-0.4-0.2l-0.4-0.2
		l-0.5-0.2l-0.3-0.3l-0.1-0.2l-0.1-0.1l0.1-0.3h-0.2l-0.2-0.1l-0.1-0.2v-0.1l-0.3-0.1l-0.2-0.1l-0.3-0.3l-0.1-0.1l-0.1-0.1l-0.2-0.1
		h-0.3h-0.2h-0.3l-0.2-0.1l0.2,0.2h-0.4h-0.3l-0.4,0.1l-0.3,0.1h-0.5l-0.7-0.2l-0.8-0.3h-0.2l-0.3,0.1l-0.7,0.3l-0.3,0.2h-0.1
		l-0.7,0.3l0.1,0.1l0.2,0.1l-0.2,0.3l-0.8,0.6l-0.1,0.3l-0.2,0.3v0.2l-0.4,0.8l-0.5,0.8l0.3-0.2l-0.2,0.4l-0.1,0.2l-0.2,0.4v0.3v0.1
		v0.5v0.2v0.4l0.1,0.4l-0.1,0.3l-0.1,0.4l-0.2,0.7l0.7-0.3l-0.4,0.4l-0.3,0.2l-0.4,0.4l-0.2,0.3l-0.2,0.5v0.7l0.1,0.7l0.2,0.6
		l0.2,0.6l0.2,0.5l0.3,0.6l0.3,0.5l0.3,0.4l0.1-0.2l-0.4-0.9l-0.3-0.8v-0.5l-0.1-0.4l0.1-0.4l0.1-0.5l0.2-0.2l0.2-0.2l0.3-0.2
		l0.2-0.2l-0.5,0.2l-0.5,0.3V422l0.1-0.3l0.4-0.6l0.1-0.3v-0.2l0.1-0.2l0.1-0.2l0.1-0.2v-0.1v-0.3v-0.1l-0.1-0.1l-0.2-0.2v-0.1
		l0.1-0.1l0.2-0.3l0.2-0.4l0.2-0.7l0.1-0.5v-0.2l-0.2-0.2l-0.1-0.1v-0.1v-0.3l0.2-0.5l0.2-0.7l0.4-0.5l0.6-0.7l0.3-0.3l0.2-0.3h-0.5
		l0.2-0.3l0.3-0.2l0.2-0.2l0.3-0.2l0.2-0.3l0.3-0.2h0.3l0.2-0.1l0.1-0.2v0.2v0.1h-0.1l-0.1,0.2l0.9,0.2l1,0.2l-0.2,0.3l-0.1,0.1
		l0.1,0.2l0.1,0.2v0.1l-0.1,0.2l-0.4,0.4l-0.3,0.3l-0.2,0.5v0.1v0.1l0.1,0.1h0.4v0.2l-0.1,0.2l-0.3,0.3l-0.1,0.2l-0.1,0.2l-0.1,0.5
		l-0.2,0.6l-0.1,0.3v0.2l0.1,0.4l0.2,0.2l0.1,0.1l0.1-0.1l0.1-0.2l0.1-0.2l-0.1-0.5l0.1-0.3l0.1-0.1l0.1-0.3l0.2-0.2l0.3-0.2
		l0.2-0.3l0.3-0.3l0.1,0.1l0.2,0.1l-0.2,0.2l-0.1,0.3l-0.1,0.6v0.6v0.4l0.1,0.3l0.2-0.2l0.1-0.3l0.2-0.3l0.2-0.2l0.2-0.1l0.1-0.1
		l0.1-0.1l0.2-0.3l0.2-0.1l0.1,0.1v0.1l0.1,0.2l0.1,0.1l0.3,0.2h0.3l0.3-0.1l0.3-0.1h0.1l0.1,0.2v0.1l-0.1,0.1l-0.2,0.2l-0.2,0.3
		l-0.2,0.3v0.2v0.4v0.3l0.1,0.2l0.2,0.2l0.3,0.2l0.2,0.1l0.2-0.1l0.2-0.2l0.3-0.4l0.2-0.2v0.3l-0.1,0.3v0.3v0.2l0.1,0.1l0.2,0.1h0.2
		h0.3h0.1l0.2-0.1l0.2-0.1h0.3h0.2h0.1l0.2,0.2l0.1,0.1v0.2l-0.1,0.2l-0.1,0.1h-0.1l-0.7,0.1l-0.6,0.2l0.1,0.1l0.2,0.1h0.3l0.2,0.1
		h0.1l0.1,0.2v0.2v0.2l0.1,0.4l-0.1,0.3v0.1l-0.1,0.1v0.2l-0.1,0.2l-0.2,0.1h-0.3v1v0.5l-0.1,0.5h0v0.2v0.2h0.1l0.4-0.6l0.3-0.7
		l0.1-0.5v-0.1v-0.2v-0.2l0.2-0.2l0.1-0.2l0.1-0.3v-0.3l-0.1-0.4l0.1-0.2l0.1-0.2l0.2-0.3l0.3-0.2l0.3-0.3l0.3-0.2l0.3-0.3l0.2-0.3
		V420l-0.1-0.3l-0.1-0.4v-0.5v-0.1l-0.1,0.1h-0.2l-0.4,0.1l-0.3,0.2l-0.3,0.2l-0.2,0.4l-0.2,0.3l-0.2,0.2l-0.5,0.3h-0.2l-0.1-0.1
		l-0.1-0.2l-0.1-0.3v-0.2l0.2-0.7l0.2-0.3l0.2-0.1l0.2-0.1h0.1l0.1,0.1h0.1l0.1-0.1l0.2-0.2l0.3-0.1l0.2-0.1l0.2-0.1l0.2-0.3
		l0.2-0.3l0.2-0.2l0.1-0.1l0.1,0.1l0.1,0.2l0.1,0.3l0.1,0.2l0.1-0.3l0.1-0.7v-0.1l-0.1-0.3L-235.4,416.1z M-240.8,414.6h-0.3
		l-0.4,0.1v-0.1l0.1-0.2l0.3-0.3l0.2-0.2l0.3-0.3l0.1,0.1l0.1,0.1l0.2,0.3l0.2,0.3l0.1,0.2L-240.8,414.6z M-239.8,413.2l-0.2-0.1
		l-0.2-0.2l-0.2-0.1l-0.2-0.1l-0.4-0.2l0.1-0.2l0.2-0.2h0.2h0.2l0.3,0.2l0.1,0.1v0.1v0.2l0.1,0.2l0.3,0.2L-239.8,413.2z"/>
	<g>
		<path class="st0" d="M-243.3,409.2c-6.6,0-11.9,5.3-11.9,11.9c0,6.6,5.3,11.9,11.9,11.9s11.9-5.3,11.9-11.9
			S-236.7,409.2-243.3,409.2z M-248.3,413.1L-248.3,413.1l0.3-0.7l0.3-0.3l0.4-0.3l0.8-0.4l0.3-0.2l0.5-0.2l0.5-0.2l0.4-0.1h0.3
			l0.2,0.1l0.6,0.3l0.6,0.2l-0.5-0.3l1.6-0.2l0.2-0.1l0.3,0.1l0.3,0.1l0.2,0.1h0.2h0.6l0.3,0.1l0.3,0.3l0.1,0.1l0.2,0.2h0.1l0.2,0.1
			l0.2,0.1l0.2,0.2l1.1,0.2l-0.4,0.8l0.4,0.3l0.8,0.2l0.8,0.3l0.4,0.2l0.3,0.3l0.2,0.3l0.1,0.3v0.3v0.2l0.1,0.4l0.1,0.3l0.1,0.5v0.1
			l-0.1,0.8l-0.1,0.3l-0.1,0.4v0.1v0.2v0.2v0.3v0.1l0.2,0.4v0.4v0.5l-0.1,0.1l-0.2,0.5l-0.3,0.3l-0.4,0.3l-0.4,0.3l-0.1,0.2v0.7
			c-0.7,7.8-12.8,8.5-14.6,0.6l-0.8-0.7l0.6-1.2l0.2-0.5V421h-0.4l0.7-1l0.2-0.3l0.2-0.3l0.1-0.3v-0.2v-0.2l-0.1-0.3V418v-0.2v-0.3
			v-0.1v-0.2l0.1-0.3l-0.5-0.3l0.6-0.9l0.2-0.2l0.4-0.7l0.3-0.7V414l0.2-0.5L-248.3,413.1z M-248.7,412.7l-0.2,0.5l-0.2,0.6l-0.1,0
			l-0.1,0.2c-3.2,3.1-4.1,6.8-2.6,11l-0.8,0.3C-254.4,420.8-253.2,415.7-248.7,412.7z M-252.3,426.6c-0.1-0.1-0.3-0.2-0.3-0.3
			c-0.1-0.1-0.1-0.3-0.1-0.4l0.2,0c0,0.1,0,0.1,0,0.2c0,0.1,0,0.1,0.1,0.2c0,0.1,0.1,0.1,0.2,0.2c0.1,0,0.2,0,0.2,0
			c0.1,0,0.1-0.1,0.1-0.1c0-0.1,0-0.2,0-0.3l0-0.2c0-0.1,0-0.2,0.1-0.3c0-0.1,0.1-0.1,0.2-0.2c0.1-0.1,0.2-0.1,0.4,0
			c0.1,0,0.2,0.1,0.3,0.3c0.1,0.2,0.1,0.3,0.1,0.4l-0.2,0c0,0,0-0.1,0-0.2c0-0.1,0-0.1-0.1-0.2c0-0.1-0.1-0.1-0.2-0.1
			c-0.1,0-0.1,0-0.2,0c0,0-0.1,0.1-0.1,0.1s0,0.1-0.1,0.1c0,0,0,0.1,0,0.2l0,0.2c0,0.1,0,0.3-0.1,0.3c0,0.1-0.1,0.2-0.2,0.2
			C-252.1,426.6-252.2,426.7-252.3,426.6z M-251.9,427.3l-0.1-0.2l1.5-1.1l0.1,0.2L-251.9,427.3z M-250.9,428.2
			c-0.1,0-0.3-0.1-0.4-0.2c-0.1-0.1-0.2-0.2-0.2-0.4l0.2-0.1c0,0.1,0,0.1,0.1,0.2c0,0.1,0.1,0.1,0.1,0.2c0.1,0.1,0.1,0.1,0.2,0.1
			c0.1,0,0.1,0,0.2-0.1c0,0,0.1-0.1,0.1-0.2c0-0.1,0-0.2-0.1-0.3l-0.1-0.2c-0.1-0.1-0.1-0.2,0-0.3c0-0.1,0.1-0.2,0.1-0.3
			c0.1-0.1,0.2-0.1,0.3-0.1c0.1,0,0.3,0.1,0.4,0.2c0.1,0.1,0.2,0.3,0.2,0.4l-0.2,0.1c0,0,0-0.1-0.1-0.2c0-0.1-0.1-0.1-0.1-0.2
			c-0.1-0.1-0.1-0.1-0.2-0.1c-0.1,0-0.1,0-0.2,0.1c0,0-0.1,0.1-0.1,0.1c0,0,0,0.1,0,0.1c0,0,0,0.1,0.1,0.2l0.1,0.2
			c0,0.1,0.1,0.2,0,0.3c0,0.1-0.1,0.2-0.2,0.3C-250.7,428.2-250.8,428.3-250.9,428.2z M-250.4,429l1.1-1.2l-0.4-0.4l0.1-0.2l1.1,1
			l-0.1,0.2l-0.5-0.4l-1.1,1.2L-250.4,429z M-248.6,430.3l-0.9-0.6l1-1.5l0.9,0.6l-0.1,0.2l-0.7-0.5l-0.3,0.4l0.5,0.3l-0.1,0.2
			l-0.5-0.3l-0.4,0.6l0.7,0.5L-248.6,430.3z M-247,431.1l0.3-1.2l-0.9,0.9l-0.1,0l0.1-1.3l-0.7,1l-0.2-0.1l1.1-1.5l0.1,0l-0.2,1.4
			l0.9-1l0.1,0l-0.4,1.8L-247,431.1z M-245.4,431.5l0-0.4l-0.7-0.2l-0.2,0.3l-0.3-0.1l1.2-1.6l0.1,0l0.2,2L-245.4,431.5z
			 M-243.8,431.8l-0.4,0l0.1-1.8c0.2,0,0.4,0,0.5,0c0.3,0,0.5,0.1,0.6,0.3c0.1,0.2,0.2,0.4,0.2,0.6
			C-242.8,431.5-243.1,431.8-243.8,431.8z M-242.5,431.7l-0.2-1.8l1.1-0.1l0,0.2l-0.8,0.1l0.1,0.5l0.6-0.1l0,0.2l-0.6,0.1l0.1,0.7
			l0.8-0.1l0,0.2L-242.5,431.7z M-240.1,431.3l-0.6-1.7l1-0.4l0.1,0.2l-0.8,0.3l0.2,0.5l0.6-0.2l0.1,0.2l-0.6,0.2l0.2,0.6l0.8-0.3
			l0.1,0.2L-240.1,431.3z M-237.6,430.2l-1.5-0.7l0.6,1.2l-0.2,0.1l-0.9-1.6l0.1,0l1.4,0.7l-0.6-1.1l0.2-0.1L-237.6,430.2
			L-237.6,430.2z M-236.7,429.5c0,0.1-0.1,0.3-0.3,0.4c-0.1,0.1-0.3,0.1-0.4,0.1l0-0.2c0.1,0,0.1,0,0.2,0c0.1,0,0.1,0,0.2-0.1
			c0.1-0.1,0.1-0.1,0.2-0.2s0-0.2,0-0.2c0-0.1-0.1-0.1-0.1-0.1c-0.1,0-0.2,0-0.3,0l-0.2,0c-0.1,0-0.2,0-0.3,0
			c-0.1,0-0.2-0.1-0.2-0.2c-0.1-0.1-0.1-0.2-0.1-0.4s0.1-0.2,0.2-0.3c0.2-0.1,0.3-0.2,0.4-0.1l0.1,0.2c0,0-0.1,0-0.2,0
			c-0.1,0-0.1,0-0.2,0.1c-0.1,0-0.1,0.1-0.1,0.2c0,0.1,0,0.1,0,0.2c0,0,0.1,0.1,0.1,0.1s0.1,0,0.1,0c0,0,0.1,0,0.2,0l0.2,0
			c0.1,0,0.3,0,0.3,0c0.1,0,0.2,0.1,0.2,0.2C-236.6,429.2-236.6,429.3-236.7,429.5z M-236.1,429.1l-1.3-1.4l0.2-0.2l1.3,1.4
			L-236.1,429.1z M-234.7,427.8l-1.6-0.2l1,0.9l-0.2,0.2l-1.3-1.3l0.1-0.1l1.6,0.2l-0.9-0.9l0.2-0.2L-234.7,427.8L-234.7,427.8z
			 M-234.1,426.8c-0.2,0.2-0.3,0.3-0.6,0.2c-0.2,0-0.4-0.1-0.7-0.3c-0.2-0.2-0.3-0.4-0.4-0.6c0-0.2,0-0.4,0.1-0.6
			c0.2-0.2,0.4-0.3,0.6-0.3c0.2,0,0.4,0.1,0.7,0.3c0.2,0.2,0.4,0.4,0.4,0.6C-233.9,426.4-233.9,426.6-234.1,426.8z M-234.6,424.7
			c0.8-1.9,1-4.1,0.3-6.7l0.1-0.6l0.1-0.3l0.1-0.6c1.1,2.6,1.3,5.7,0.1,8.4L-234.6,424.7z"/>
		<path class="st0" d="M-248.5,415.8l-0.2,0.4l-0.1,0.2l-0.2,0.4v0.3v0.1v0.5v0.2v0.4l0.1,0.4l-0.1,0.3l-0.1,0.4l-0.2,0.7l0.7-0.3
			l-0.4,0.4l-0.3,0.2l-0.4,0.4l-0.2,0.3l-0.2,0.5v0.7l0.1,0.7l0.2,0.6l0.2,0.6l0.2,0.5l0.3,0.6l0.3,0.5l0.3,0.4l0.1-0.2l-0.4-0.9
			l-0.3-0.8v-0.5l-0.1-0.4l0.1-0.4l0.1-0.5l0.2-0.2l0.2-0.2l0.3-0.2l0.2-0.2l-0.5,0.2l-0.5,0.3V422l0.1-0.3l0.4-0.6l0.1-0.3v-0.2
			l0.1-0.2l0.1-0.2l0.1-0.2v-0.1v-0.3v-0.1l-0.1-0.1l-0.2-0.2v-0.1l0.1-0.1l0.2-0.3l0.2-0.4l0.2-0.7l0.1-0.5v-0.2l-0.2-0.2l-0.1-0.1
			v-0.1v-0.3l0.2-0.5l0.2-0.7l0.4-0.5l0.6-0.7l0.3-0.3l0.2-0.3h-0.5l0.2-0.3l0.3-0.2l0.2-0.2l0.3-0.2l0.2-0.3l0.3-0.2h0.3l0.2-0.1
			l0.1-0.2v0.2v0.1h-0.1l-0.1,0.2l0.9,0.2l1,0.2l-0.2,0.3l-0.1,0.1l0.1,0.2l0.1,0.2v0.1l-0.1,0.2l-0.4,0.4l-0.3,0.3l-0.2,0.5v0.1
			v0.1l0.1,0.1h0.4v0.2l-0.1,0.2l-0.3,0.3l-0.1,0.2l-0.1,0.2l-0.1,0.5l-0.2,0.6l-0.1,0.3v0.2l0.1,0.4l0.2,0.2l0.1,0.1l0.1-0.1
			l0.1-0.2l0.1-0.2l-0.1-0.5l0.1-0.3l0.1-0.1l0.1-0.3l0.2-0.2l0.3-0.2l0.2-0.3l0.3-0.3l0.1,0.1l0.2,0.1l-0.2,0.2l-0.1,0.3l-0.1,0.6
			v0.6v0.4l0.1,0.3l0.2-0.2l0.1-0.3l0.2-0.3l0.2-0.2l0.2-0.1l0.1-0.1l0.1-0.1l0.2-0.3l0.2-0.1l0.1,0.1v0.1l0.1,0.2l0.1,0.1l0.3,0.2
			h0.3l0.3-0.1l0.3-0.1h0.1l0.1,0.2v0.1l-0.1,0.1l-0.2,0.2l-0.2,0.3l-0.2,0.3v0.2v0.4v0.3l0.1,0.2l0.2,0.2l0.3,0.2l0.2,0.1l0.2-0.1
			l0.2-0.2l0.3-0.4l0.2-0.2v0.3l-0.1,0.3v0.3v0.2l0.1,0.1l0.2,0.1h0.2h0.3h0.1l0.2-0.1l0.2-0.1h0.3h0.2h0.1l0.2,0.2l0.1,0.1v0.2
			l-0.1,0.2l-0.1,0.1h-0.1l-0.7,0.1l-0.6,0.2l0.1,0.1l0.2,0.1h0.3l0.2,0.1h0.1l0.1,0.2v0.2v0.2l0.1,0.4l-0.1,0.3v0.1l-0.1,0.1v0.2
			l-0.1,0.2l-0.2,0.1h-0.3v1v0.5l-0.1,0.5h0v0.2v0.2h0.1l0.4-0.6l0.3-0.7l0.1-0.5v-0.1v-0.2v-0.2l0.2-0.2l0.1-0.2l0.1-0.3v-0.3
			l-0.1-0.4l0.1-0.2l0.1-0.2l0.2-0.3l0.3-0.2l0.3-0.3l0.3-0.2l0.3-0.3l0.2-0.3V420l-0.1-0.3l-0.1-0.4v-0.5v-0.1l-0.1,0.1h-0.2
			l-0.4,0.1l-0.3,0.2l-0.3,0.2l-0.2,0.4l-0.2,0.3l-0.2,0.2l-0.5,0.3h-0.2l-0.1-0.1l-0.1-0.2l-0.1-0.3v-0.2l0.2-0.7l0.2-0.3l0.2-0.1
			l0.2-0.1h0.1l0.1,0.1h0.1l0.1-0.1l0.2-0.2l0.3-0.1l0.2-0.1l0.2-0.1l0.2-0.3l0.2-0.3l0.2-0.2l0.1-0.1l0.1,0.1l0.1,0.2l0.1,0.3
			l0.1,0.2l0.1-0.3l0.1-0.7v-0.1l-0.1-0.3l-0.1-0.3l-0.2-0.4l-0.2,0.4l-0.1,0.5l-0.2-0.1l-0.2-0.2l-0.1-0.1l-0.3-0.1l-0.5-0.2h-0.2
			l-0.2-0.2l-0.1-0.1v-0.1l0.2-0.1l0.2-0.1l0.2-0.1l0.3-0.2l0.3-0.1l0.6,0.1h0.1V415l-0.1-0.2l-0.2-0.2l-0.2-0.2l-0.8-0.3l-0.4-0.2
			l-0.4-0.2l-0.5-0.2l-0.3-0.3l-0.1-0.2l-0.1-0.1l0.1-0.3h-0.2l-0.2-0.1l-0.1-0.2v-0.1l-0.3-0.1l-0.2-0.1l-0.3-0.3l-0.1-0.1
			l-0.1-0.1l-0.2-0.1h-0.3h-0.2h-0.3l-0.2-0.1l0.2,0.2h-0.4h-0.3l-0.4,0.1l-0.3,0.1h-0.5l-0.7-0.2l-0.8-0.3h-0.2l-0.3,0.1l-0.7,0.3
			l-0.3,0.2h-0.1l-0.7,0.3l0.1,0.1l0.2,0.1l-0.2,0.3l-0.8,0.6l-0.1,0.3l-0.2,0.3v0.2l-0.4,0.8l-0.5,0.8L-248.5,415.8z M-240.9,412.3
			l0.2-0.2h0.2h0.2l0.3,0.2l0.1,0.1v0.1v0.2l0.1,0.2l0.3,0.2l-0.3,0.1l-0.2-0.1l-0.2-0.2l-0.2-0.1l-0.2-0.1l-0.4-0.2L-240.9,412.3z
			 M-241.6,414.6l0.1-0.2l0.3-0.3l0.2-0.2l0.3-0.3l0.1,0.1l0.1,0.1l0.2,0.3l0.2,0.3l0.1,0.2l-0.8-0.1h-0.3l-0.4,0.1
			C-241.6,414.7-241.6,414.6-241.6,414.6z"/>
	</g>
</g>
<path class="st0" d="M-246.9,425.6c0,0.2,0.1,0.7-0.3,0.7c-0.2,0-0.2-0.2-0.2-0.4C-247.4,425.6-247.2,425.6-246.9,425.6
	L-246.9,425.6L-246.9,425.6L-246.9,425.6z M-239.3,426.3c-0.2,0-0.3-0.1-0.3-0.8c0-0.5,0-0.7,0.3-0.7c0.3,0,0.3,0.2,0.3,0.7
	C-239,426.2-239,426.3-239.3,426.3L-239.3,426.3L-239.3,426.3L-239.3,426.3z M-239.3,426.7c0.8,0,0.9-0.5,0.9-1.2
	c0-0.6-0.1-1.1-0.9-1.1s-0.9,0.5-0.9,1.1C-240.2,426.2-240.1,426.7-239.3,426.7L-239.3,426.7L-239.3,426.7L-239.3,426.7z
	 M-241.3,423.5v3.2h0.6v-3.2H-241.3L-241.3,423.5L-241.3,423.5z M-243,425.6c0-0.7,0-0.8,0.3-0.8c0.2,0,0.3,0.3,0.3,0.8
	c0,0.5,0,0.7-0.3,0.7C-243,426.3-243,425.8-243,425.6L-243,425.6L-243,425.6L-243,425.6z M-242.4,424.4v0.3h0l0,0
	c-0.1-0.2-0.3-0.3-0.5-0.3c-0.6,0-0.7,0.6-0.7,1.1c0,0.5,0,1.1,0.7,1.1c0.2,0,0.4-0.1,0.5-0.3l0,0h0v0.4l0,0c0,0.2-0.1,0.4-0.2,0.4
	c-0.1,0-0.2,0-0.2-0.1c0-0.1-0.1-0.1-0.1-0.2l0,0h-0.6l0,0c0,0.5,0.4,0.7,0.9,0.7c0.9,0,0.8-0.6,0.8-0.8l0,0v-2.3L-242.4,424.4
	L-242.4,424.4L-242.4,424.4z M-245.1,424.4h-0.6v2.2h0.6v-1.5l0,0c0-0.2,0-0.4,0.2-0.4s0.2,0.2,0.2,0.4l0,0v1.5h0.6v-1.8l0,0
	c0-0.3-0.3-0.5-0.6-0.5c-0.1,0-0.2,0-0.3,0.1c-0.1,0-0.2,0.1-0.2,0.2l0,0h0V424.4L-245.1,424.4L-245.1,424.4z M-246.3,425.1
	c0-0.4-0.1-0.7-0.9-0.7c-0.2,0-0.4,0-0.6,0.1c-0.1,0.1-0.2,0.3-0.2,0.5l0,0h0.6l0,0c0-0.2,0-0.3,0.2-0.3c0.2,0,0.3,0.1,0.3,0.3l0,0
	v0.2l0,0c-0.6,0-1.1,0-1.1,0.8c0,0.4,0.2,0.7,0.6,0.7c0.3,0,0.4-0.1,0.6-0.3l0,0h0l0,0.3h0.6l0,0c0-0.1,0-0.3,0-0.4l0,0V425.1
	L-246.3,425.1z"/>
<path class="st0" d="M-223.4,421c0,0.9,0.2,2.6-1.1,2.6c-0.7,0-0.8-0.7-0.8-1.3C-225.3,421-224.5,421.1-223.4,421L-223.4,421
	L-223.4,421L-223.4,421z M-196.4,423.6c-0.8,0-1-0.5-1-2.9c0-1.6,0.1-2.5,1-2.5c0.9,0,1,0.8,1,2.5
	C-195.4,423.1-195.6,423.6-196.4,423.6L-196.4,423.6L-196.4,423.6L-196.4,423.6z M-196.4,425c2.8,0,3.2-1.7,3.2-4.2
	c0-2.2-0.3-4-3.2-4c-2.9,0-3.2,1.9-3.2,4C-199.6,423.3-199.2,425-196.4,425L-196.4,425L-196.4,425L-196.4,425z M-203.7,413.5v11.3
	h2.2v-11.3H-203.7L-203.7,413.5L-203.7,413.5z M-209.6,421.1c0-2.4,0.1-3,1-3c0.8,0,0.9,1,0.9,2.7c0,1.7-0.1,2.5-0.9,2.5
	C-209.7,423.4-209.6,421.9-209.6,421.1L-209.6,421.1L-209.6,421.1L-209.6,421.1z M-207.6,416.9v0.9h0l0,0c-0.3-0.7-1-1.1-1.8-1.1
	c-2.3,0-2.3,2.2-2.3,4c0,1.8-0.1,4,2.3,4c0.7,0,1.3-0.3,1.7-0.9l0,0h0v1.5l0,0c0,0.8-0.3,1.3-0.8,1.3c-0.3,0-0.6-0.1-0.7-0.3
	c-0.1-0.2-0.2-0.5-0.2-0.8l0,0h-2.2l0,0c0,1.9,1.5,2.4,3.1,2.4c3,0,3-2.2,3-2.7l0,0v-8.2H-207.6L-207.6,416.9L-207.6,416.9z
	 M-217.2,416.9h-2.2v7.9h2.2v-5.5l0,0c0-0.7,0.1-1.3,0.8-1.3c0.7,0,0.8,0.5,0.8,1.3l0,0v5.5h2.2v-6.4l0,0c0-1.1-0.9-1.7-2-1.7
	c-0.4,0-0.8,0.1-1.1,0.2c-0.3,0.1-0.6,0.4-0.8,0.7l0,0h0L-217.2,416.9L-217.2,416.9L-217.2,416.9z M-221.2,419.4
	c0-1.4-0.4-2.6-3.2-2.6c-0.8,0-1.6,0.1-2.1,0.5c-0.5,0.4-0.8,1-0.8,1.9l0,0h2.2l0,0c0-0.6,0.1-1.2,0.8-1.2c0.8,0,0.9,0.5,0.9,1.2
	l0,0v0.6l0,0c-2,0-4.1,0.1-4.1,2.7c0,1.4,0.6,2.5,2.1,2.5c1,0,1.6-0.4,2.1-1.2l0,0h0l0.1,1.1h2l0,0c0-0.5-0.1-1-0.1-1.5l0,0
	L-221.2,419.4L-221.2,419.4z"/>
</svg>
