<?xml version="1.0" encoding="utf-8"?>
<!-- Generator: Adobe Illustrator 17.0.0, SVG Export Plug-In . SVG Version: 6.00 Build 0)  -->
<!DOCTYPE svg PUBLIC "-//W3C//DTD SVG 1.1//EN" "http://www.w3.org/Graphics/SVG/1.1/DTD/svg11.dtd">
<svg version="1.1" id="Layer_1" xmlns="http://www.w3.org/2000/svg" xmlns:xlink="http://www.w3.org/1999/xlink" x="0px" y="0px"
	 width="130.435px" height="27.583px" viewBox="0 0 130.435 27.583" enable-background="new 0 0 130.435 27.583"
	 xml:space="preserve">
<g>
	<path fill="#FFFFFF" d="M60.522,6.541c-0.967-0.811-2.378-1.358-3.708-1.927c0.047,0.144,0.097,0.288,0.146,0.432
		c-0.046,0.029-0.138,0.086-0.184,0.114c-0.82,0.273-1.834-0.084-1.885-0.643c-0.258-1.188,0.467-2.366,0.192-3.554
		C55.005,0.589,54.684,0.247,54.216,0c0.139,0.456,0.386,0.917,0.27,1.385c-0.213,0.899-0.879,1.728-1.179,2.616
		c-0.27,0.627-0.056,1.342,0.598,1.857c0.013,0.01,0.034,0.027,0.052,0.041c-0.019-0.015-0.04-0.031-0.053-0.041
		c0.044,0.036,0.136,0.106,0.181,0.14c-0.013-0.01-0.034-0.026-0.052-0.04c0.019,0.014,0.04,0.031,0.053,0.04
		c0.69,0.609,2.052,1.07,2.662,1.591c0.47,0.358,0.632,0.899,0.619,1.396c-0.001,0-0.001,0.001-0.002,0.001
		c-0.184,0.758-1.096,1.306-2.05,1.75c1.828,0.046,3.69-0.409,4.881-1.257C61.157,8.637,61.466,7.436,60.522,6.541
		C60.522,6.541,60.522,6.541,60.522,6.541z"/>
	<path fill="#FFFFFF" d="M53.484,10.741c1.243,0.053,2.382-0.536,2.59-1.266c0.087-0.436-0.027-0.721-0.243-1.192
		c-0.244-0.372-0.304-0.433-0.508-0.604c-0.977-0.82-2.449-1.388-3.256-2.288c0,0,0,0,0,0c-0.295-0.484-0.12-0.98-0.003-1.47
		c-0.908,0.465-0.787,1.239-0.472,1.859c0,0,0,0,0,0c0.438,0.656,1.015,1.276,1.401,1.944c0.138,0.303,0.13,0.702-0.371,0.882
		c-1.073,0.442-2.997-0.173-2.706-0.987h-0.052c-0.162,0.423-0.61,0.763-0.57,1.181c-0.036,0.344,0.148,0.677,0.468,0.959
		C50.616,10.444,52.068,10.827,53.484,10.741z"/>
	<path fill="#FFFFFF" d="M32.3,15.295c-1.686,0.02-3.369,0.004-5.055,0.007c-0.002-1.441-0.003-2.882-0.006-4.323
		c-0.896,0.007-1.793,0.002-2.689,0.01c-0.007,1.87-0.017,3.741-0.001,5.611c-0.001,0-0.002,0-0.003,0
		c0.032,2.29-0.004,4.581,0.024,6.871c0.886,0.011,1.773,0.01,2.658,0c0.035-1.921,0.01-3.841,0.014-5.762
		c1.688,0.008,3.376-0.014,5.063,0.014c0.006,1.915-0.015,3.831,0.014,5.745c0.882,0,1.764,0.006,2.648-0.004
		c0.011-2.262,0.005-4.522,0.008-6.784c0.001,0,0.002,0,0.003,0c0.011-1.897-0.001-3.796,0.003-5.693
		c-0.89,0.004-1.779,0.005-2.667-0.017C32.281,12.412,32.313,13.854,32.3,15.295z"/>
	<path fill="#FFFFFF" d="M36.412,10.971c0.013,1.907-0.013,3.815,0.013,5.722c0,0,0,0,0,0c0.02,2.26-0.014,4.518,0.013,6.777
		c0.881,0.007,1.762,0.003,2.645-0.003c0.028-2.256,0.005-4.512,0.014-6.767l0,0c-0.006-1.911,0.019-3.824-0.014-5.735
		C38.192,10.978,37.303,10.987,36.412,10.971z"/>
	<path fill="#FFFFFF" d="M54.566,16.647c-0.452-1.059-0.861-2.14-1.365-3.173c-0.031-0.066-0.093-0.2-0.123-0.267
		c-0.001-0.004-0.003-0.007-0.004-0.011c0.031,0.067,0.066,0.143,0.088,0.19c-0.022-0.048-0.058-0.125-0.089-0.193
		c-0.1-0.416-0.302-0.797-0.469-1.186c-1.148-0.152-2.193-0.663-3.268-1.054c0.37,0.886,0.715,1.787,1.147,2.642
		c0.034,0.067,0.099,0.2,0.131,0.265c0.171,0.553,0.41,1.083,0.664,1.602c0,0-0.001-0.002-0.001-0.002
		c0,0.001,0.001,0.002,0.001,0.002c0.013,0.028,0.025,0.056,0.039,0.084c0.033,0.066,0.102,0.196,0.135,0.261
		c0.059,0.287,0.187,0.552,0.308,0.818c0,0,0,0,0,0c1.172,2.566,2.169,5.215,3.393,7.759c0.528-0.987,0.895-2.047,1.369-3.06
		c-0.618-1.573-1.313-3.115-1.958-4.677C54.565,16.647,54.565,16.647,54.566,16.647z"/>
	<path fill="#FFFFFF" d="M57.689,12.012c-0.684,1.515-1.193,3.033-1.9,4.536c-0.014,0.001-0.028,0-0.041,0.001
		c0.005,0.017,0.013,0.033,0.019,0.05c-0.007,0.015-0.013,0.029-0.02,0.044c0.012-0.001,0.024,0,0.036,0
		c0.355,1.092,0.818,2.152,1.319,3.186c0.533-1.063,0.94-2.184,1.436-3.264c-0.002,0-0.003,0-0.005,0
		c0.794-1.867,1.644-3.712,2.372-5.604C59.869,11.411,58.814,11.851,57.689,12.012z"/>
	<path fill="#FFFFFF" d="M9.653,16.579c-1.029-2.157-1.995-4.509-3.13-6.602c-1.048,2.116-2.068,4.382-3.061,6.53
		c0,0-0.001,0-0.001,0c-1.069,2.318-2.174,4.621-3.216,6.952c0.938,0.032,1.877,0.009,2.814,0.018
		c1.026-2.242,2.011-4.505,3.021-6.756c0,0,0.001,0,0.001,0c0.135-0.312,0.333-0.726,0.502-1.022
		c0.14,0.304,0.353,0.711,0.473,1.024l-0.021-0.052c0.193,0.467,0.401,0.928,0.59,1.397c-0.441,0.043-0.953-0.102-1.347,0.089
		c-0.415,0.708-0.698,1.49-1.023,2.244c1.13,0.035,2.261,0.001,3.39,0.018c0.445,1.017,0.907,2.026,1.345,3.047
		c0.946,0.003,1.891,0.014,2.836-0.01C11.827,21.137,10.707,18.874,9.653,16.579L9.653,16.579z"/>
	<path fill="#FFFFFF" d="M22.965,19.417l0.003-0.064c-1.265,1.117-2.849,2.099-4.613,1.864c-2.172-0.165-3.625-2.428-3.338-4.503
		c0.202-1.907,1.919-3.507,3.868-3.382c1.562-0.127,2.94,0.736,4.064,1.726c0.064-1.003,0.022-2.008,0.022-3.01
		c-1.589-1.082-3.578-1.512-5.468-1.155c-2.781,0.455-4.973,2.929-5.262,5.709c-0.003,0-0.007,0-0.01,0
		c-0.001,0.018,0.002,0.035,0.001,0.053c-0.004,0.042-0.017,0.083-0.02,0.125c0.008,0,0.016,0,0.023,0
		c-0.021,1.41,0.238,2.86,1.035,4.042c1.924,3.223,6.77,3.863,9.699,1.683C22.952,21.476,22.932,20.446,22.965,19.417z"/>
	<path fill="#FFFFFF" d="M47.876,17.679c0.006-0.358,0.01-0.718,0.01-1.076c-0.001,0-0.001,0-0.002,0
		c-0.004-0.349-0.008-0.696-0.012-1.045c-1.564-0.005-3.124,0.01-4.686-0.008c-0.035-0.723-0.027-1.449-0.019-2.174
		c1.568-0.015,3.137-0.001,4.705-0.007c0.016-0.8,0.025-1.601,0.003-2.403c-2.444,0.02-4.89,0.022-7.335,0.004
		c-0.021,1.91-0.005,3.82-0.006,5.728c0,0,0.001,0,0.001,0c0.003,2.259-0.017,4.517,0.005,6.774c2.447,0.002,4.893,0.02,7.339-0.008
		c0.008-0.821,0.004-1.641-0.002-2.462c-1.569-0.002-3.139,0.009-4.709-0.004c0-1.104-0.025-2.209,0.017-3.311
		C44.749,17.698,46.313,17.712,47.876,17.679z"/>
	<path fill="#FFFFFF" d="M69.762,18.078c0.007-0.458,0.008-0.915,0.01-1.373c0,0,0.001,0,0.001,0c0-0.01,0-0.019-0.001-0.029
		c0-0.025,0-0.05,0.001-0.074c-0.001,0-0.001,0-0.002,0c-0.004-0.345-0.01-0.688-0.02-1.033c-1.549-0.003-3.097,0.005-4.645-0.006
		c0.008-0.727,0.007-1.456,0.004-2.184c1.55-0.001,3.102-0.002,4.652,0.006c0.013-0.808,0.017-1.619-0.011-2.427
		c-2.437,0.064-4.875,0.027-7.312,0.025c-0.051,1.874,0.012,3.748-0.022,5.622c0,0,0,0,0,0c-0.008,2.289-0.022,4.578,0.013,6.866
		c2.442,0.006,4.884,0.015,7.327-0.007c0.023-0.822,0.024-1.645,0.007-2.467c-1.555,0.007-3.112,0.016-4.668-0.003
		c0.004-0.97-0.015-1.942,0.01-2.912C66.657,18.084,68.21,18.086,69.762,18.078z"/>
	<path fill="#FFFFFF" d="M22.97,22.507c0.194-1,0.205-2.09-0.004-3.088C22.932,20.448,22.953,21.478,22.97,22.507z"/>
</g>
<g>
	<path fill="#FFFFFF" d="M112.011,17.589c0.045,0.05,0.135,0.153,0.18,0.204C112.147,17.743,112.056,17.64,112.011,17.589z"/>
</g>
<g>
	<path fill="#FFFFFF" d="M114.663,14.191c0.003,0.003,0.008,0.008,0.011,0.013C114.671,14.199,114.665,14.194,114.663,14.191z"/>
	<path fill="#FFFFFF" d="M114.674,14.203c0.064,0.036,0.194,0.109,0.259,0.145C114.868,14.312,114.738,14.24,114.674,14.203z"/>
	<path fill="#FFFFFF" d="M114.933,14.348c0.063,0.038,0.189,0.114,0.254,0.152C115.123,14.463,114.996,14.386,114.933,14.348z"/>
	<path fill="#FFFFFF" d="M111.469,15.802c0.03-0.065,0.091-0.198,0.121-0.264C111.56,15.604,111.499,15.737,111.469,15.802z"/>
	<path fill="#FFFFFF" d="M81.53,16.862c0.016-0.013,0.048-0.04,0.063-0.054C81.577,16.821,81.545,16.849,81.53,16.862z"/>
	<path fill="#FFFFFF" d="M89.804,16.838c0.004,0.016,0.013,0.048,0.016,0.063C89.816,16.885,89.808,16.853,89.804,16.838z"/>
	<path fill="#FFFFFF" d="M81.494,17.178c0.01-0.078,0.028-0.237,0.036-0.316C81.521,16.941,81.504,17.1,81.494,17.178z"/>
</g>
<g>
	<path fill="#FFFFFF" d="M77.519,14.292h0.48v4.342h1.849v0.464h-2.33L77.519,14.292L77.519,14.292z"/>
	<path fill="#FFFFFF" d="M83.577,14.292l2.242,4.806H85.3l-0.756-1.581h-2.071l-0.749,1.581h-0.536l2.271-4.806
		C83.46,14.292,83.577,14.292,83.577,14.292z M83.517,15.313l-0.823,1.74h1.643L83.517,15.313z"/>
	<path fill="#FFFFFF" d="M87.57,19.098v-4.806h0.105l3.198,3.684v-3.684h0.474v4.806h-0.108l-3.172-3.639v3.639H87.57z"/>
	<path fill="#FFFFFF" d="M98.157,15.099l-0.373,0.353c-0.268-0.264-0.561-0.463-0.88-0.6s-0.63-0.204-0.933-0.204
		c-0.377,0-0.736,0.092-1.076,0.277c-0.341,0.185-0.605,0.436-0.792,0.753s-0.281,0.652-0.281,1.004c0,0.362,0.097,0.705,0.291,1.03
		c0.194,0.326,0.462,0.581,0.804,0.768s0.717,0.279,1.124,0.279c0.494,0,0.913-0.139,1.255-0.418
		c0.342-0.279,0.544-0.641,0.607-1.085h-1.532v-0.463h2.072c-0.004,0.743-0.225,1.332-0.662,1.769
		c-0.437,0.437-1.021,0.655-1.753,0.655c-0.889,0-1.592-0.303-2.111-0.908c-0.399-0.466-0.598-1.005-0.598-1.617
		c0-0.455,0.115-0.879,0.343-1.271c0.229-0.392,0.542-0.699,0.941-0.92s0.849-0.332,1.353-0.332c0.407,0,0.791,0.074,1.15,0.22
		C97.464,14.539,97.815,14.774,98.157,15.099z"/>
	<path fill="#FFFFFF" d="M100.377,14.292h0.48v2.902c0,0.344,0.007,0.559,0.019,0.643c0.024,0.189,0.08,0.348,0.167,0.476
		c0.087,0.127,0.221,0.234,0.402,0.32c0.181,0.086,0.363,0.129,0.545,0.129c0.159,0,0.312-0.034,0.457-0.101
		c0.146-0.068,0.268-0.161,0.366-0.281c0.098-0.12,0.17-0.265,0.216-0.435c0.033-0.122,0.049-0.372,0.049-0.751v-2.902h0.481v2.902
		c0,0.429-0.042,0.776-0.126,1.04c-0.084,0.265-0.251,0.495-0.503,0.691c-0.251,0.196-0.556,0.294-0.913,0.294
		c-0.388,0-0.72-0.092-0.997-0.277s-0.462-0.43-0.555-0.735c-0.059-0.187-0.088-0.525-0.088-1.013L100.377,14.292L100.377,14.292z"
		/>
	<path fill="#FFFFFF" d="M107.709,14.292l2.242,4.806h-0.519l-0.756-1.581h-2.07l-0.749,1.581h-0.536l2.271-4.806H107.709z
		 M107.648,15.313l-0.823,1.74h1.643L107.648,15.313z"/>
	<path fill="#FFFFFF" d="M116.336,15.099l-0.373,0.353c-0.268-0.264-0.561-0.463-0.88-0.6s-0.63-0.204-0.933-0.204
		c-0.377,0-0.736,0.092-1.076,0.277c-0.341,0.185-0.605,0.436-0.792,0.753s-0.281,0.652-0.281,1.004c0,0.362,0.097,0.705,0.291,1.03
		c0.194,0.326,0.462,0.581,0.804,0.768s0.717,0.279,1.124,0.279c0.494,0,0.913-0.139,1.255-0.418
		c0.342-0.279,0.544-0.641,0.607-1.085h-1.532v-0.463h2.072c-0.004,0.743-0.225,1.332-0.662,1.769
		c-0.437,0.437-1.021,0.655-1.753,0.655c-0.889,0-1.592-0.303-2.111-0.908c-0.399-0.466-0.598-1.005-0.598-1.617
		c0-0.455,0.115-0.879,0.343-1.271c0.229-0.392,0.542-0.699,0.941-0.92s0.849-0.332,1.353-0.332c0.407,0,0.791,0.074,1.15,0.22
		C115.643,14.539,115.993,14.774,116.336,15.099z"/>
	<path fill="#FFFFFF" d="M118.542,14.292h2.754v0.471h-2.274v1.506h2.254v0.471h-2.254v1.889h2.254V19.1h-2.735
		C118.542,19.099,118.542,14.292,118.542,14.292z"/>
	<path fill="#FFFFFF" d="M122.633,18.203l0.409-0.245c0.287,0.529,0.62,0.794,0.997,0.794c0.161,0,0.312-0.038,0.454-0.113
		s0.25-0.176,0.323-0.302c0.074-0.126,0.111-0.26,0.111-0.402c0-0.161-0.055-0.319-0.163-0.473c-0.15-0.214-0.425-0.471-0.823-0.771
		c-0.401-0.303-0.65-0.522-0.748-0.657c-0.17-0.226-0.255-0.472-0.255-0.735c0-0.209,0.05-0.4,0.15-0.572s0.241-0.308,0.423-0.406
		c0.182-0.099,0.38-0.149,0.593-0.149c0.226,0,0.439,0.056,0.636,0.168s0.405,0.318,0.626,0.619l-0.392,0.297
		c-0.181-0.24-0.335-0.398-0.462-0.473c-0.127-0.076-0.266-0.115-0.416-0.115c-0.194,0-0.352,0.059-0.475,0.176
		s-0.184,0.262-0.184,0.435c0,0.105,0.022,0.206,0.065,0.304c0.044,0.098,0.123,0.205,0.239,0.32
		c0.063,0.061,0.27,0.221,0.621,0.481c0.416,0.307,0.702,0.58,0.856,0.82c0.154,0.24,0.232,0.48,0.232,0.722
		c0,0.348-0.132,0.651-0.397,0.908s-0.586,0.385-0.966,0.385c-0.292,0-0.557-0.078-0.794-0.234
		C123.053,18.829,122.833,18.569,122.633,18.203z"/>
</g>
</svg>
