<?xml version="1.0" encoding="utf-8"?>
<!-- Generator: Adobe Illustrator 17.0.0, SVG Export Plug-In . SVG Version: 6.00 Build 0)  -->
<!DOCTYPE svg PUBLIC "-//W3C//DTD SVG 1.1//EN" "http://www.w3.org/Graphics/SVG/1.1/DTD/svg11.dtd">
<svg version="1.1" id="Camada_1" xmlns="http://www.w3.org/2000/svg" xmlns:xlink="http://www.w3.org/1999/xlink" x="0px" y="0px"
	 width="163.063px" height="55px" viewBox="0 0 163.063 55" enable-background="new 0 0 163.063 55" xml:space="preserve">
<path fill-rule="evenodd" clip-rule="evenodd" fill="#DDB23F" d="M30.621,25.51v-4.004h4.368v4.004H30.621z"/>
<path fill-rule="evenodd" clip-rule="evenodd" fill="#DDB23F" d="M34.99,27.573v19.293h-4.368V27.573"/>
<path fill-rule="evenodd" clip-rule="evenodd" fill="#DDB23F" d="M15.94,42.619c0,0-0.798-1.17,0.243-1.82
	c1.983-1.203,0.584-3.234,0.243-3.64c-1.382-1.268-0.511-1.843-0.121-2.184c0.845-0.959,0.106-3.129-0.121-3.519
	c-0.228-0.39-1.955-2.465-2.427-3.033c-0.471-0.569-0.733-1.015-1.335-1.941c-0.601-0.926-1.286-3.12-1.335-3.64
	c-0.228-1.641-0.075-4.193,0.364-5.46c0.439-1.268,0.913-2.635,2.896-4.991s3.536-2.666,5.112-3.381
	c1.577-0.715,5.68-1.082,8.736,0.364s4.227,2.769,5.946,5.339s1.326,5.952,1.456,6.31c0.13,0.358,0.459,0.364,0.849,0.364
	c0.39,0,0.817-0.16,0.849-0.485c0.033-0.325-0.399-4.91-1.456-6.795c-1.057-1.885-3.815-5.05-7.038-6.188s-7.618-1.16-9.828-0.364
	c-2.211,0.796-3.914,1.405-5.946,3.761s-2.821,4.645-3.276,5.946c-0.455,1.3-0.373,4.435-0.243,5.703
	c0.13,1.268,1.091,3.565,1.335,4.004c0.244,0.439,1.228,2.102,1.456,2.427c0.228,0.325,2.24,2.572,2.305,2.669
	c0.618,1.121,0.731,1.882,0,2.548c-0.731,0.666-0.82,1.808-0.121,2.669c0.699,0.861,1.861,1.596,0.121,2.912
	c-0.91,0.878-0.769,1.607-0.607,2.305c0.163,0.699,0.971,1.577,0.971,1.577l0.728,0.364l0.607-0.243l0.121-0.728L15.94,42.619z"/>
<path fill-rule="evenodd" clip-rule="evenodd" fill="#DDB23F" d="M37.416,27.573h4.004v2.548c0,0,0.564-1.022,0.971-1.456
	c0.406-0.434,1.232-1.55,2.063-1.577c0.831-0.028,2.151,0.321,2.548,0.607c1.113,0.695,1.411,2.079,1.577,2.669
	c0.166,0.591,0.103,0.898,0.121,1.092c0.018,0.194,0,15.289,0,15.289h-4.125V31.941c0,0-0.578-1.083-1.335-1.092
	c-1.643,0.452-1.699,2.184-1.699,2.184v13.711h-4.247L37.416,27.573z"/>
<path fill-rule="evenodd" clip-rule="evenodd" fill="#E7B93B" d="M61.32,25.51v-4.004h4.368v4.004H61.32z"/>
<path fill-rule="evenodd" clip-rule="evenodd" fill="#E7B93B" d="M65.688,27.573v19.293H61.32V27.573"/>
<path fill-rule="evenodd" clip-rule="evenodd" fill="#E7B93B" d="M82.19,21.506h4.004v8.615c0,0,0.564-1.022,0.971-1.456
	c0.406-0.434,1.232-1.55,2.063-1.577c0.831-0.028,2.151,0.321,2.548,0.607c1.113,0.695,1.411,2.079,1.577,2.669
	c0.166,0.591,0.103,0.898,0.121,1.092c0.018,0.194,0,15.289,0,15.289h-4.125V31.941c0,0-0.578-1.083-1.335-1.092
	c-1.643,0.452-1.699,2.184-1.699,2.184v13.711h-4.247L82.19,21.506z"/>
<path fill-rule="evenodd" clip-rule="evenodd" fill="#DDB23F" d="M26.739,16.289c-0.728,0.017-1.681,0.173-2.548,1.82
	c-0.017,0.624,0,1.577,0,1.577h-1.577c0,0,0.035-0.988,0-2.427s-1.837-2.496-3.276-2.548s-3.276,0.797-3.397,3.519
	s2.548,3.155,2.548,3.155h2.548v3.64c0,0-0.017,0.572,0.728,0.607c0.745,0.035,0.728-0.485,0.728-0.485l0.121-3.761h1.577
	c0,0,0.035,1.543,0.121,1.82s0.433,0.364,0.728,0.364s0.589-0.052,0.607-0.364c0.017-0.312,0.121-1.941,0.121-1.941h1.577
	c0,0,1.751-0.815,1.82-2.548S27.467,16.271,26.739,16.289z M20.914,19.686c0,0-2.135,0.011-2.305,0
	c-1.031-0.56-1.064-1.5-0.971-2.184c0.068-0.5,0.994-1.213,1.699-1.213s1.566,0.687,1.577,1.335
	C20.926,18.271,20.914,19.686,20.914,19.686z M26.981,19.686h-1.213c0,0-0.011-1.11,0-1.213c0.389-0.755,0.806-0.607,1.092-0.607
	s0.815,0.151,0.849,0.849C27.744,19.413,26.981,19.686,26.981,19.686z"/>
<path fill-rule="evenodd" clip-rule="evenodd" fill="#E7B93B" d="M50.764,42.498c0,0,0,0.018,0,0.05c0,0.429,0,3.833,0,3.833
	s1.906,0.967,4.125,0.849c2.22-0.118,4.984-2.297,4.854-5.339c-0.131-3.042-2.912-6.067-2.912-6.067s-0.317-0.263-2.184-2.548
	c-1.867-2.285,1.679-2.623,2.305-2.427s1.699,0.485,1.699,0.485l0.121-3.397c0,0-0.668-0.616-3.397-0.485
	c-2.729,0.131-4.923,2.539-4.975,4.732s1.118,4.112,3.155,6.188s1.393,1.332,1.941,2.063c1.371,3.93-2.427,2.791-2.427,2.791
	L50.764,42.498z"/>
<path fill-rule="evenodd" clip-rule="evenodd" fill="#E7B93B" d="M79.642,27.452h-3.883l-0.121,2.427h-0.121
	c0,0-1.313-1.991-1.699-2.184c-0.385-0.193-0.404-0.485-1.941-0.485s-4.004,0.934-4.004,9.222c0,7.159,1.862,8.179,2.238,8.58
	c1.525,1.631,3.544,0.054,3.544,0.054l1.863-2.082c0,0,0.188,2.13,0.243,2.791s-1.592,2.509-3.519,2.427s-3.276-0.849-3.276-0.849
	l-0.243,3.519c0,0,1.242,0.645,1.82,0.728s2.165,0.248,3.761,0s3.321-1.258,3.761-1.699c0.44-0.44,1.385-1.746,1.577-3.397
	S79.642,27.452,79.642,27.452z M73.696,41.891c0,0-1.699,0.364-1.699-5.339s1.699-5.46,1.699-5.46s1.82-0.243,1.82,5.46
	S73.696,41.891,73.696,41.891z"/>
<path fill-rule="evenodd" clip-rule="evenodd" fill="#E7B93B" d="M96.265,30.849H94.93v-3.276h1.213l0.121-4.975h4.125v4.854
	l2.184,0.121v3.276h-2.184c0,0-0.121,10.361-0.121,11.648s0.728,1.092,0.728,1.092l1.577-0.243l-0.121,2.912
	c0,0-0.738,0.971-2.669,0.971s-3.519-0.59-3.519-4.368S96.265,30.849,96.265,30.849z"/>
<path fill-rule="evenodd" clip-rule="evenodd" fill="#7D69AD" d="M22.249,50.87c-0.111,0.269-4.519,2.332-7.887,2.791
	c-0.237,0.063-1.094,0.364-2.548,0.364s-4.108-1.126-4.489-1.456c-0.382-0.33-0.849-1.168-0.849-1.941
	c0-0.774,0.121-1.82,0.121-1.82s-0.112-0.961-0.607-1.456c-0.495-0.495-0.728-1.064-0.728-1.456s0.243-0.728,0.243-0.728
	s0.364-0.581,0.364-0.849c0-0.268-0.607-0.849-0.607-0.849s-0.454-0.527-0.485-0.971c-0.031-0.444,0.364-1.092,0.364-1.092
	s0.374-0.53,0.364-0.849c-0.01-0.32-0.849-0.971-0.849-0.971l-1.699-1.213c0,0-1.263-0.656-1.335-0.728
	c-0.072-0.072-0.808-0.814-0.849-1.577c-0.041-0.763,0.728-1.82,0.728-1.82l2.184-2.791c0,0,1.092-1.922,1.092-2.912
	c0-0.99-0.364-3.155-0.364-3.155L3.442,20.05L3.32,17.745c0,0-0.026-1.575,0.607-3.883C6.852,2.085,22.249,1,22.249,1l2.791,0.243
	l0.485,0.728l-0.728,0.607c0,0-2.643-0.227-2.912-0.243C21.348,2.351,4.75,3.849,4.655,17.745c0,3.778,0.971,7.523,0.971,7.523
	s0.364,1.348,0.364,3.276s-1.213,3.519-1.213,3.519l-2.305,2.912c0,0-0.364,0.539-0.364,1.092s1.456,1.335,1.456,1.335
	s2.005,1.156,2.305,1.456s0.971,0.445,0.971,1.699c-0.239,1.179-0.445,1.01-0.607,1.82c-0.007,0.176,0.364,0.607,0.364,0.607
	s0.728,0.892,0.728,1.335s-0.485,0.971-0.485,0.971s-0.243,0.317-0.243,0.728s0.607,0.849,0.607,0.849s0.607,1.119,0.607,1.941
	s-0.121,1.82-0.121,1.82s0.043,0.681,0.485,1.092c2.261,1.201,3.64,1.092,3.64,1.092s2.105-0.301,2.548-0.364
	c4.458-0.869,6.838-2.701,7.28-2.669s0.607,0.243,0.607,0.243S22.36,50.601,22.249,50.87z"/>
<g>
	<path fill="#626468" d="M110.218,34.82h-2.525v-6.604h2.425v0.93h-1.679v1.87h1.548v0.926h-1.548v1.952h1.779V34.82z"/>
	<path fill="#626468" d="M114.77,34.82h-0.815l-2.15-4.854c-0.054-0.123-0.099-0.251-0.135-0.383h-0.019
		c0.017,0.142,0.025,0.444,0.025,0.907v4.329h-0.722v-6.604h0.869l2.077,4.738c0.088,0.196,0.145,0.332,0.169,0.405h0.013
		c-0.021-0.175-0.031-0.471-0.031-0.889v-4.255h0.719V34.82z"/>
	<path fill="#626468" d="M119.33,34.369c-0.469,0.374-0.99,0.562-1.565,0.562c-0.665,0-1.204-0.304-1.616-0.912
		c-0.412-0.607-0.618-1.412-0.618-2.413c0-1.021,0.226-1.86,0.677-2.517c0.45-0.655,1.023-0.983,1.718-0.983
		c0.5,0,0.92,0.107,1.261,0.322v1.129c-0.345-0.338-0.756-0.507-1.232-0.507c-0.479,0-0.872,0.232-1.179,0.695
		c-0.307,0.464-0.46,1.064-0.46,1.801c0,0.759,0.132,1.354,0.396,1.789s0.621,0.651,1.073,0.651c0.31,0,0.577-0.087,0.804-0.262
		v-1.57h-0.948v-0.922h1.691V34.369z"/>
	<path fill="#626468" d="M122.728,34.82h-2.491v-6.604h0.746v5.678h1.745V34.82z"/>
	<path fill="#626468" d="M124.078,34.82h-0.769v-6.604h0.769V34.82z"/>
	<path fill="#626468" d="M124.915,34.558V33.43c0.068,0.092,0.15,0.175,0.246,0.248c0.095,0.074,0.196,0.137,0.303,0.187
		c0.106,0.051,0.213,0.09,0.32,0.118c0.106,0.027,0.205,0.041,0.295,0.041c0.313,0,0.547-0.076,0.701-0.23
		c0.153-0.153,0.23-0.376,0.23-0.667c0-0.157-0.025-0.293-0.077-0.408c-0.051-0.115-0.123-0.22-0.215-0.315
		c-0.092-0.095-0.2-0.187-0.324-0.273c-0.125-0.088-0.258-0.179-0.4-0.274c-0.152-0.12-0.295-0.241-0.427-0.363
		c-0.132-0.123-0.246-0.259-0.344-0.408c-0.097-0.148-0.174-0.316-0.229-0.504c-0.056-0.188-0.084-0.407-0.084-0.659
		c0-0.31,0.048-0.579,0.144-0.808c0.095-0.229,0.221-0.417,0.376-0.566c0.156-0.149,0.333-0.26,0.532-0.331
		c0.198-0.072,0.401-0.109,0.608-0.109c0.471,0,0.813,0.078,1.029,0.235v1.082c-0.255-0.27-0.584-0.405-0.985-0.405
		c-0.11,0-0.221,0.016-0.331,0.046c-0.109,0.031-0.208,0.082-0.295,0.152s-0.157,0.161-0.212,0.271
		c-0.054,0.11-0.081,0.244-0.081,0.4c0,0.147,0.021,0.275,0.063,0.383s0.103,0.206,0.184,0.295c0.08,0.089,0.179,0.176,0.295,0.26
		c0.116,0.085,0.251,0.176,0.403,0.274c0.157,0.119,0.305,0.245,0.444,0.377c0.139,0.133,0.261,0.278,0.366,0.438
		c0.106,0.16,0.189,0.337,0.252,0.532c0.062,0.195,0.092,0.417,0.092,0.665c0,0.335-0.046,0.617-0.138,0.848
		s-0.216,0.418-0.372,0.562c-0.155,0.145-0.335,0.249-0.538,0.313s-0.417,0.097-0.644,0.097c-0.075,0-0.167-0.009-0.277-0.025
		c-0.109-0.017-0.223-0.041-0.337-0.073c-0.115-0.032-0.225-0.071-0.327-0.117C125.061,34.668,124.978,34.616,124.915,34.558z"/>
	<path fill="#626468" d="M132.171,34.82h-0.75v-2.864h-2.118v2.864h-0.746v-6.604h0.746v2.776h2.118v-2.776h0.75V34.82z"/>
	<path fill="#626468" d="M110.184,46.138h-2.491v-6.604h0.746v5.678h1.745V46.138z"/>
	<path fill="#626468" d="M113.295,46.138h-2.525v-6.604h2.425v0.93h-1.679v1.87h1.548v0.926h-1.548v1.952h1.779V46.138z"/>
	<path fill="#626468" d="M117.787,46.138h-0.819l-0.404-1.681h-1.771l-0.389,1.681h-0.815l1.685-6.604h0.841L117.787,46.138z
		 M116.365,43.563l-0.624-2.635c-0.019-0.085-0.039-0.224-0.06-0.414h-0.013c-0.019,0.175-0.04,0.313-0.063,0.414l-0.618,2.635
		H116.365z"/>
	<path fill="#626468" d="M121.817,46.138h-0.872l-0.719-1.769c-0.065-0.162-0.128-0.302-0.19-0.417
		c-0.062-0.115-0.124-0.209-0.188-0.283c-0.064-0.073-0.134-0.127-0.209-0.161c-0.075-0.033-0.16-0.051-0.254-0.051h-0.302v2.681
		h-0.743v-6.604h1.48c0.212,0,0.406,0.036,0.584,0.11c0.178,0.073,0.333,0.185,0.465,0.334c0.131,0.148,0.234,0.334,0.309,0.557
		s0.111,0.483,0.111,0.781c0,0.233-0.023,0.447-0.07,0.642c-0.047,0.195-0.114,0.369-0.201,0.521
		c-0.087,0.152-0.191,0.282-0.313,0.39s-0.26,0.19-0.413,0.248v0.019c0.082,0.068,0.153,0.143,0.214,0.224s0.118,0.165,0.173,0.251
		c0.054,0.086,0.107,0.184,0.161,0.293c0.054,0.108,0.112,0.235,0.178,0.38L121.817,46.138z M119.084,40.423v2.146h0.621
		c0.115,0,0.222-0.025,0.319-0.078c0.097-0.052,0.181-0.127,0.252-0.226s0.127-0.218,0.167-0.359c0.039-0.141,0.06-0.299,0.06-0.474
		c0-0.316-0.068-0.563-0.204-0.742c-0.137-0.178-0.332-0.267-0.587-0.267H119.084z"/>
	<path fill="#626468" d="M126.093,46.138h-0.815l-2.15-4.854c-0.054-0.123-0.099-0.251-0.135-0.383h-0.019
		c0.017,0.142,0.025,0.444,0.025,0.907v4.329h-0.722v-6.604h0.869l2.077,4.738c0.088,0.196,0.145,0.332,0.169,0.405h0.013
		c-0.021-0.175-0.031-0.471-0.031-0.889v-4.255h0.719V46.138z"/>
	<path fill="#626468" d="M127.908,46.138h-0.769v-6.604h0.769V46.138z"/>
	<path fill="#626468" d="M132.767,46.138h-0.815l-2.15-4.854c-0.054-0.123-0.099-0.251-0.135-0.383h-0.019
		c0.017,0.142,0.025,0.444,0.025,0.907v4.329h-0.722v-6.604h0.869l2.077,4.738c0.088,0.196,0.145,0.332,0.169,0.405h0.013
		c-0.021-0.175-0.031-0.471-0.031-0.889v-4.255h0.719V46.138z"/>
	<path fill="#626468" d="M137.327,45.687c-0.469,0.374-0.99,0.562-1.565,0.562c-0.665,0-1.204-0.304-1.616-0.912
		c-0.412-0.607-0.618-1.412-0.618-2.413c0-1.021,0.226-1.86,0.677-2.517c0.45-0.655,1.023-0.983,1.718-0.983
		c0.5,0,0.92,0.108,1.261,0.323v1.128c-0.345-0.338-0.756-0.507-1.232-0.507c-0.479,0-0.872,0.232-1.179,0.695
		c-0.307,0.464-0.46,1.064-0.46,1.801c0,0.759,0.132,1.354,0.396,1.789s0.621,0.651,1.073,0.651c0.31,0,0.577-0.087,0.804-0.262
		v-1.57h-0.948V42.55h1.691V45.687z"/>
	<path fill="#626468" d="M143.073,45.861c-0.339,0.258-0.761,0.387-1.265,0.387c-0.652,0-1.176-0.302-1.569-0.907
		c-0.393-0.604-0.59-1.398-0.59-2.381c0-1.056,0.222-1.909,0.664-2.561c0.442-0.65,1.001-0.977,1.677-0.977
		c0.436,0,0.796,0.091,1.083,0.272v1.087c-0.304-0.265-0.638-0.396-1.004-0.396c-0.487,0-0.883,0.229-1.185,0.687
		c-0.303,0.457-0.454,1.068-0.454,1.833c0,0.728,0.142,1.307,0.424,1.738c0.282,0.431,0.654,0.646,1.114,0.646
		c0.425,0,0.793-0.147,1.104-0.441V45.861z"/>
	<path fill="#626468" d="M146.389,46.138h-2.525v-6.604h2.425v0.93h-1.679v1.87h1.548v0.926h-1.548v1.952h1.779V46.138z"/>
	<path fill="#626468" d="M150.94,46.138h-0.815l-2.15-4.854c-0.054-0.123-0.099-0.251-0.135-0.383h-0.019
		c0.017,0.142,0.025,0.444,0.025,0.907v4.329h-0.722v-6.604h0.869l2.077,4.738c0.088,0.196,0.145,0.332,0.169,0.405h0.013
		c-0.021-0.175-0.031-0.471-0.031-0.889v-4.255h0.719V46.138z"/>
	<path fill="#626468" d="M154.877,40.464h-1.293v5.674h-0.747v-5.674h-1.289v-0.93h3.329V40.464z"/>
	<path fill="#626468" d="M157.997,46.138h-2.525v-6.604h2.425v0.93h-1.679v1.87h1.548v0.926h-1.548v1.952h1.779V46.138z"/>
	<path fill="#626468" d="M162.21,46.138h-0.872l-0.719-1.769c-0.065-0.162-0.128-0.302-0.19-0.417
		c-0.062-0.115-0.124-0.209-0.188-0.283c-0.064-0.073-0.134-0.127-0.209-0.161c-0.075-0.033-0.16-0.051-0.254-0.051h-0.302v2.681
		h-0.743v-6.604h1.48c0.212,0,0.406,0.036,0.584,0.11c0.178,0.073,0.333,0.185,0.465,0.334c0.131,0.148,0.234,0.334,0.309,0.557
		s0.111,0.483,0.111,0.781c0,0.233-0.023,0.447-0.07,0.642c-0.047,0.195-0.114,0.369-0.201,0.521
		c-0.087,0.152-0.191,0.282-0.313,0.39s-0.26,0.19-0.413,0.248v0.019c0.082,0.068,0.153,0.143,0.214,0.224s0.118,0.165,0.173,0.251
		c0.054,0.086,0.107,0.184,0.161,0.293c0.054,0.108,0.112,0.235,0.178,0.38L162.21,46.138z M159.477,40.423v2.146h0.621
		c0.115,0,0.222-0.025,0.319-0.078c0.097-0.052,0.181-0.127,0.252-0.226s0.127-0.218,0.167-0.359c0.039-0.141,0.06-0.299,0.06-0.474
		c0-0.316-0.068-0.563-0.204-0.742c-0.137-0.178-0.332-0.267-0.587-0.267H159.477z"/>
</g>
</svg>
