<?xml version="1.0" encoding="utf-8"?>
<!-- Generator: Adobe Illustrator 17.0.0, SVG Export Plug-In . SVG Version: 6.00 Build 0)  -->
<!DOCTYPE svg PUBLIC "-//W3C//DTD SVG 1.1//EN" "http://www.w3.org/Graphics/SVG/1.1/DTD/svg11.dtd">
<svg version="1.1" id="Camada_1" xmlns="http://www.w3.org/2000/svg" xmlns:xlink="http://www.w3.org/1999/xlink" x="0px" y="0px"
	 width="173.792px" height="25.417px" viewBox="0 0 173.792 25.417" enable-background="new 0 0 173.792 25.417"
	 xml:space="preserve">
<g id="Layer_2">
</g>
<g id="Layer_1">
	<g>
		<g>
			<g>
				<path fill="#FFFFFF" d="M26.474,1.648l9.298,11.015c-3.111,3.663-6.204,7.33-9.298,10.992
					c7.232,1.422,13.062-5.033,13.062-10.992c0-8.228-7.339-11.101-11.787-11.106C27.289,1.557,26.86,1.593,26.474,1.648z"/>
				<polygon fill="#FFFFFF" points="131.124,1.977 139.58,23.238 143.769,23.238 152.22,1.977 146.307,1.977 141.545,14.359 
					136.682,1.977 				"/>
				<rect x="124.958" y="1.977" fill="#FFFFFF" width="5.237" height="21.263"/>
				<polygon fill="#FFFFFF" points="109.65,1.977 109.65,6.614 114.025,6.614 114.025,23.238 119.763,23.238 119.763,6.614 
					124.084,6.614 124.084,1.977 				"/>
				<polygon fill="#FFFFFF" points="96.565,1.977 96.565,23.238 108.845,23.238 108.845,18.648 102.117,18.648 102.117,14.615 
					107.981,14.615 107.981,10.141 102.117,10.141 102.117,6.614 108.845,6.614 108.845,1.977 				"/>
				<path fill="#FFFFFF" d="M89.748,1.977v14.218c-0.43,1.262-0.889,2.065-2.753,2.526v4.905c4.805-0.185,8.376-3.273,8.403-7.432
					V1.977H89.748z"/>
				<path fill="#FFFFFF" d="M78.572,19.092h-2.999v-4.794h2.999C82.187,15.19,81.155,19.079,78.572,19.092L78.572,19.092z
					 M75.573,6.152h2.999c1.652,0.904,1.652,3.1,0,3.989h-2.999V6.152L75.573,6.152z M82.143,12.046
					c4.535-3.4,1.951-9.223-2.136-10.071h-9.674v21.278h10.49C88.357,22.206,87.61,13.599,82.143,12.046z"/>
				<path fill="#FFFFFF" d="M161.229,18.807c-3.299,0-5.983-2.77-5.983-6.173c0-3.398,2.683-6.169,5.983-6.169
					c3.302,0,5.984,2.77,5.984,6.169C167.213,16.037,164.531,18.807,161.229,18.807L161.229,18.807z M161.258,1.557
					c-6.455,0-11.72,4.984-11.72,11.077c0,6.088,5.265,11.066,11.72,11.066c6.46,0,11.729-4.979,11.729-11.066
					C172.984,6.541,167.715,1.557,161.258,1.557z"/>
				<path fill="#FFFFFF" d="M57.984,18.963c-3.302,0-5.985-2.766-5.985-6.167c0-3.4,2.683-6.171,5.985-6.171
					c3.294,0,5.979,2.77,5.979,6.171S61.278,18.963,57.984,18.963L57.984,18.963z M58.011,1.721c-6.46,0-11.725,4.979-11.725,11.075
					c0,6.082,5.266,11.064,11.725,11.064c6.455,0,11.72-4.984,11.72-11.064C69.731,6.698,64.464,1.721,58.011,1.721z"/>
				<path fill="#FFFFFF" d="M22.962,18.347c-2.29,0-4.269-1.371-5.158-3.327l2.047-2.45l-2.013-2.266
					c0.905-1.927,2.863-3.262,5.125-3.262c3.1,0,5.648,2.542,5.648,5.662C28.608,15.805,26.061,18.347,22.962,18.347L22.962,18.347z
					 M11.605,16.17c0.757-0.993,1.21-2.231,1.21-3.566c0-1.107-0.31-2.146-0.843-3.036l2.685,3.094L11.605,16.17L11.605,16.17z
					 M22.25,3.32c-3.039,2.206-4.156,4.324-4.642,6.725l-7.428-8.397H5.108l5.51,6.359C9.6,7.181,8.307,6.68,6.905,6.68
					c-3.26,0-5.922,2.667-5.922,5.926c0,3.248,2.663,5.907,5.922,5.907c1.636,0,3.127-0.674,4.199-1.76l-5.995,6.903h5.07
					l7.398-8.36c0.582,2.491,2.028,5.092,4.785,6.789l8.24-9.42L22.25,3.32z"/>
			</g>
		</g>
	</g>
</g>
</svg>
