<?xml version="1.0" encoding="utf-8"?>
<!-- Generator: Adobe Illustrator 17.0.0, SVG Export Plug-In . SVG Version: 6.00 Build 0)  -->
<!DOCTYPE svg PUBLIC "-//W3C//DTD SVG 1.1//EN" "http://www.w3.org/Graphics/SVG/1.1/DTD/svg11.dtd">
<svg version="1.1" id="Camada_1" xmlns="http://www.w3.org/2000/svg" xmlns:xlink="http://www.w3.org/1999/xlink" x="0px" y="0px"
	 width="275.271px" height="172.5px" viewBox="0 0 275.271 172.5" enable-background="new 0 0 275.271 172.5" xml:space="preserve">
<g>
	<path fill-rule="evenodd" clip-rule="evenodd" fill="#FFFFFF" d="M62.126,85.874c0-42.088,34.119-76.208,76.208-76.208
		c42.088,0,76.208,34.119,76.208,76.208c0,18.125-6.332,34.769-16.899,47.85l6.244-1.15c9.376-13.178,14.89-29.295,14.89-46.7
		c0-44.538-36.105-80.643-80.643-80.643c-44.538,0-80.643,36.105-80.643,80.643c0,17.54,5.603,33.771,15.113,47.005l5.32-0.55
		C68.02,119.468,62.126,103.361,62.126,85.874z"/>
</g>
<g>
	<path fill-rule="evenodd" clip-rule="evenodd" fill="#FFFFFF" d="M196.048,53.164l-0.482-2.249l-0.643-2.731V47.06v-2.249
		l-0.482-2.249l-1.124-2.249l-2.249-2.249l-2.891-1.606l-5.461-2.249l-5.14-1.606l-2.731-2.249l2.731-5.14l-7.228-1.124
		l-1.124-1.124l-1.124-0.964l-1.606-0.642h-0.482l-1.125-1.124l-0.642-0.482l-2.249-1.767l-2.249-0.482h-4.337h-1.124l-1.124-0.643
		l-2.249-0.482l-1.767-0.642l-1.606,0.642l-11.083,1.606l3.213,1.767l-4.337-1.124l-4.016-1.767l-1.606-0.482h-1.767l-2.731,0.482
		l-3.373,1.125l-3.373,1.124l-2.088,1.125l-5.622,2.731l-2.891,2.249l-2.088,2.249l-1.767,4.016l-0.482,0.482l-1.767,2.731
		l-1.125,3.373v0.643l-2.249,4.979l-2.731,4.498L94.53,49.79l-3.855,6.104l3.373,1.767l-0.642,2.249v1.124v0.482v2.249v1.124v2.249
		l0.642,2.249v1.124v1.606l-0.642,2.249l-1.124,2.249l-1.606,2.249l-4.979,6.586h2.731v1.125l-1.606,3.373l-4.016,7.871l5.622,4.498
		c3.476,15.163,12.633,25.631,24.036,31.627l1.963-0.808h5.049h5.251l5.655,1.414l2.121,0.707l2.525-2.121h4.721l4.166,0.505
		l3.131,0.555l4.544-1.06l5.655,1.06l2.626,0.555l0.341,0.575c13.981-6.264,24.807-18.723,26.361-37.025v-4.498l0.642-1.606
		l2.731-2.249l2.731-2.249l1.767-2.249l1.124-3.212l0.482-0.643v-3.373v-2.731l-1.124-2.731v-0.643v-2.249v-1.125V67.62v-0.482
		l0.643-2.891l0.482-2.088l0.643-5.14v-0.482L196.048,53.164z M113.891,124.063l-0.178-1.996h-0.059
		c-0.89,1.549-2.107,2.293-3.918,2.293c-2.908,0-3.977-2.174-3.977-4.795c0-4.974,3.829-5.183,7.717-5.123v-1.162
		c0-1.281-0.178-2.204-1.692-2.204c-1.454,0-1.573,1.102-1.573,2.293h-4.096c0-1.817,0.564-2.979,1.543-3.664
		c0.95-0.715,2.315-0.983,3.918-0.983c5.313,0,5.995,2.294,5.995,5.034v7.506c0,0.924,0.119,1.877,0.208,2.8H113.891z
		 M132.612,124.063h-4.185v-10.365c0-1.34-0.237-2.383-1.573-2.383c-1.335,0-1.573,1.043-1.573,2.383v10.365h-4.185v-15.042h4.185
		v1.519h0.059c0.415-0.685,0.92-1.132,1.484-1.4c0.594-0.298,1.276-0.417,2.048-0.417c1.988,0,3.739,1.191,3.739,3.277V124.063z
		 M147.444,124.688c0,1.043,0.059,5.153-5.698,5.153c-3.116,0-5.787-0.804-5.877-4.468h4.096c0,0.626,0.089,1.162,0.356,1.519
		c0.267,0.387,0.742,0.596,1.395,0.596c1.039,0,1.543-0.983,1.543-2.502v-2.889H143.2c-0.623,1.162-1.81,1.757-3.176,1.757
		c-4.6,0-4.392-4.229-4.392-7.625c0-3.306,0.059-7.506,4.422-7.506c1.484,0,2.76,0.655,3.354,2.055h0.059v-1.757h3.977V124.688z
		 M155.133,124.063h-4.185v-21.505h4.185V124.063z M164.795,124.361c-5.401,0-6.114-3.306-6.114-8.012
		c0-4.11,0.593-7.625,6.114-7.625c5.52,0,6.114,3.515,6.114,7.625C170.908,121.055,170.196,124.361,164.795,124.361z M191.55,57.019
		l-0.482,4.498l-0.643,2.249l-0.482-1.606l-0.643-2.249l-0.482-1.124l-0.642-0.642l-0.482,0.642l-1.606,1.606l-1.124,2.249
		l-1.124,2.249l-1.124,0.482l-1.125,0.643l-1.767,0.482l-1.606,1.124l-0.642,0.643h-0.964l-0.643-0.643h-0.482l-1.124,0.643
		l-1.124,0.482l-1.124,2.249l-1.124,4.498v1.124l0.482,2.249l0.643,1.606l0.482,0.643h1.124l3.373-2.249l1.606-1.125l1.124-1.767
		l1.124-2.731l1.767-1.606l2.249-1.124l2.731-0.642h1.606l0.643-0.482v0.482v3.373l0.482,2.731l0.643,2.249v2.249l-1.124,2.249
		l-1.767,2.249l-2.088,1.606l-2.249,1.767l-1.767,1.606l-1.124,1.767l-0.482,1.606l-0.643,1.606l0.643,2.891v2.249l-0.643,2.249
		l-0.482,1.606l-1.124,1.124v1.124v1.124v0.482l-0.642,3.373l-2.088,4.498l-2.891,3.855h-0.482v-1.124v-1.606l0.482-3.373v-3.373
		v-6.746h2.249l1.124-0.482l0.643-1.124v-1.606l0.964-0.643v-0.482l0.642-1.767l-0.642-2.731v-1.606v-1.124l-0.482-1.124h-0.482
		l-1.124-0.643h-1.767l-1.124-0.482l-0.482-0.642l3.855-1.125l4.498-0.482h0.482l0.643-0.643l0.482-1.125v-1.124l-0.482-0.482
		l-1.124-1.125h-0.643h-1.606h-2.249l-1.124,0.482l-1.124,0.643h-0.482h-1.767h-1.606l-1.124-0.643l-0.643-0.964v-1.124v-2.249
		l0.643-2.249v-2.249l-1.606,1.606l-1.767,2.892l-1.606,1.606l-1.125,0.643l-1.124-0.643l-1.767-1.124l-1.125-1.124l-0.482-1.124
		v-2.249v-2.731v-1.606l1.124-2.249l1.606-1.767l1.124-1.606l0.643-0.642v-0.482l-0.643-1.124h-0.482l-1.767,0.482l-2.249,0.642
		h-2.088l-2.249-1.124l-0.643-0.482l-0.482-1.124v-0.643l-0.643-0.482l-1.124,0.482l-1.124,2.249l-0.482,0.482l-0.642,0.642
		l-1.606,0.482l-1.606,1.124l-1.124,1.767l-0.642,2.249l-1.606,1.124l-0.643-1.767v-2.731v-3.855l0.643-4.016l0.482-2.249
		l1.124-1.124l-1.124-0.482l-0.482-0.642l-1.767,1.767l-1.606,2.249l-2.249,1.606l-1.606,1.125l-0.642,1.767l-0.482,0.964
		l-0.643,1.767l0.643,3.373l-0.643,1.125l-0.482,1.124l-0.643,0.482l-0.482-0.482l-1.124-1.124l-0.642-2.891V64.89l0.642-1.767
		l1.124-3.855l0.482-3.373l0.643-1.606l0.482-1.606l2.249-2.249l0.642-1.125v-1.124h-2.891l-0.482-0.643V47.06v-0.643l1.606-3.373
		l1.767-2.088l2.731-2.891l0.482-1.606v-0.643l-0.482-1.124l-0.643-1.125l0.643-0.964l1.124-1.767l-6.746-1.124l-6.104-1.606
		l0.643-1.124h0.964v-0.643v-1.606l-0.964,1.124l-1.124,0.482h-2.249l-1.767,1.124l-1.124,1.767l-2.249,1.124l-1.606,1.124
		l-2.249,1.124l-1.125,2.088h3.373l-1.606,2.249l-1.767,2.249l-3.855,4.498l-2.731,3.373l-1.124,4.498l-1.124,3.213v2.249v0.643
		l0.482,0.482l1.124,1.124v1.125l-0.482,3.373l-1.124,4.979l-1.124,2.891l-1.124,2.088l-0.642,0.643v0.482l1.124,1.124l0.643,0.643
		v0.482v1.767v0.482l-0.643,1.124l-0.482,1.125l-0.642,1.124v1.606l-0.482,1.767l-2.891,3.855l-0.482,2.249v2.249l3.373-2.249
		l3.373-1.606l-1.124,1.606l-1.767,1.124l-1.125,1.124l-1.124,1.606l-0.482,3.373l-0.643,2.891l0.643,2.731v3.373l2.249,5.461
		l2.731,6.265l-0.482,1.124l-2.249-2.891l-2.249-3.373l-2.249-3.855l-1.606-3.373l-1.124-3.855l-1.124-3.855l-0.643-4.498v-4.498
		l1.124-3.373l1.124-2.249l2.731-2.731l1.767-1.606l2.731-2.891l-4.979,1.767l1.606-4.498l0.643-2.731l0.482-2.249l-0.482-2.891
		V64.89v-1.124v-3.373V59.91v-2.249l1.124-2.891l0.482-1.606l1.125-2.731l-2.249,1.124l3.373-5.622l2.891-5.622v-1.124l1.124-2.249
		l0.482-2.249l5.622-4.337l1.606-1.767l-1.125-0.482l-0.482-0.643l4.98-2.249h0.482l2.249-1.124l4.498-2.088l2.249-0.642h1.606
		l5.14,2.249l4.979,1.124h3.373l2.249-0.643l2.731-0.482h2.249h2.731l-1.124-1.606l1.124,0.482h1.767h1.606h2.249l1.606,0.482
		l0.643,0.643l0.482,0.482l2.249,1.767l1.124,0.482l1.767,0.643v0.482l0.482,1.124l1.606,0.643h1.124l-0.482,2.249l0.482,0.482
		l0.642,1.124l2.249,2.249l3.373,1.606l2.731,1.124l2.731,1.124l5.14,1.767l1.606,1.124l1.606,1.606l0.643,1.124v0.482h-0.643
		l-4.337-0.482l-2.249,0.482l-1.767,1.125l-1.124,0.643l-1.606,0.482l-1.124,0.643v0.482l0.482,0.642l1.124,1.606h1.124l3.373,1.124
		l1.767,0.643l0.482,0.964l1.124,1.124l1.124,0.643l0.482-3.373l1.124-2.731l1.125,2.731l0.643,2.249l0.482,2.249V57.019z"/>
</g>
<path fill-rule="evenodd" clip-rule="evenodd" fill="#FFFFFF" d="M75.429,110.075c-2.485-7.122-3.84-14.786-3.84-22.762
	c0-23.334,11.588-43.989,29.178-56.257l1.18-0.806c-0.952,2.065-1.804,4.19-2.439,6.445c-0.166,0.589-0.765,0.795-0.883,1.359
	c-0.431,0.379-0.899,0.762-1.383,1.165C84.097,50.927,75.764,68.156,75.764,87.312c0,7.338,1.223,14.392,3.47,20.963L75.429,110.075
	z"/>
<path fill-rule="evenodd" clip-rule="evenodd" fill="#FFFFFF" d="M199.616,61.318c3.303,7.998,5.063,16.969,5.063,25.994
	c0,7.685-1.211,14.839-3.441,21.591l-3.896-1.549c2.051-6.307,3.162-13.046,3.162-20.042c0-6.83-1.041-13.421-3.022-19.591
	c-0.153-0.476-0.791-1.026-0.554-1.59c0.858-2.037,1.378-4.411,1.668-7.016C198.703,58.146,199.386,60.763,199.616,61.318z"/>
<path fill-rule="evenodd" clip-rule="evenodd" fill="#FFFFFF" d="M106.327,113.108"/>
<g>
	<path fill="#FFFFFF" d="M164.795,111.404c-1.781,0-1.929,1.579-1.929,4.706c0,4.587,0.386,5.57,1.929,5.57
		c1.543,0,1.929-0.983,1.929-5.57C166.724,112.983,166.575,111.404,164.795,111.404z"/>
	<path fill="#FFFFFF" d="M109.855,119.387c0,1.072,0.178,2.383,1.543,2.383c2.463,0,2.078-3.336,2.078-4.974
		C111.398,116.885,109.855,116.706,109.855,119.387z"/>
	<path fill="#FFFFFF" d="M141.568,111.315c-1.573,0-1.84,1.102-1.84,5.689c0,1.4-0.208,4.259,1.81,4.259
		c1.513,0,1.721-1.579,1.721-4.766C143.26,113.191,143.111,111.315,141.568,111.315z"/>
	<polygon fill="#FFFFFF" points="159.745,29.23 159.745,28.105 159.745,27.463 159.263,26.981 157.496,25.857 155.89,25.857 
		154.284,25.857 153.159,26.981 152.517,28.587 155.408,29.712 157.015,30.354 158.139,30.836 159.263,31.961 160.87,32.603 
		162.637,31.961 160.388,30.354 	"/>
	<polygon fill="#FFFFFF" points="157.496,39.189 155.89,36.94 155.408,36.458 154.766,35.816 152.517,37.583 150.911,39.189 
		149.144,40.956 148.662,42.08 148.662,43.044 151.393,42.562 153.641,42.562 159.263,43.044 158.621,41.438 	"/>
</g>
<polygon fill-rule="evenodd" clip-rule="evenodd" fill="#FFFFFF" points="103.007,39.051 103.007,39.051 103.007,39.051 "/>
<path fill-rule="evenodd" clip-rule="evenodd" fill="#FFFFFF" d="M106.372,113.07"/>
<g>
	<path fill="#FFFFFF" d="M181.589,143.005c-0.407-0.399-0.841-0.685-1.291-0.85c-0.451-0.173-0.876-0.26-1.275-0.251
		c-0.832,0.009-1.552,0.217-2.159,0.633c-0.607,0.425-1.11,0.997-1.508,1.742c-0.399,0.737-0.693,1.587-0.885,2.558
		c-0.191,0.971-0.286,2.02-0.286,3.13c0.009,1.682,0.208,3.095,0.616,4.24c0.407,1.144,0.962,2.003,1.682,2.584
		c0.72,0.581,1.543,0.875,2.488,0.875c0.434,0.009,0.885-0.069,1.353-0.234c0.459-0.156,0.893-0.433,1.292-0.815
		c0.407-0.382,0.728-0.902,0.98-1.561c0.243-0.659,0.373-1.491,0.382-2.488v-5.41c-0.009-1.014-0.139-1.856-0.399-2.532
		C182.326,143.942,181.988,143.404,181.589,143.005z"/>
	<path fill="#FFFFFF" d="M118.894,151.614c-0.65,0.338-1.162,0.797-1.526,1.378c-0.373,0.572-0.555,1.283-0.564,2.124
		c0.009,0.797,0.156,1.448,0.434,1.951c0.286,0.511,0.659,0.884,1.127,1.127c0.46,0.234,0.962,0.356,1.509,0.356
		c0.641,0,1.257-0.148,1.855-0.451c0.598-0.304,1.101-0.763,1.491-1.37c0.39-0.607,0.589-1.37,0.607-2.289v-3.797
		c-0.954,0-1.855,0.07-2.696,0.226C120.281,151.016,119.535,151.267,118.894,151.614z"/>
	<path fill="#FFFFFF" d="M47.156,151.614c-0.65,0.338-1.162,0.797-1.526,1.378c-0.373,0.572-0.555,1.283-0.564,2.124
		c0.009,0.797,0.156,1.448,0.434,1.951c0.286,0.511,0.659,0.884,1.127,1.127c0.46,0.234,0.963,0.356,1.509,0.356
		c0.642,0,1.257-0.148,1.855-0.451c0.598-0.304,1.101-0.763,1.491-1.37c0.39-0.607,0.589-1.37,0.607-2.289v-3.797
		c-0.954,0-1.855,0.07-2.696,0.226C48.543,151.016,47.797,151.267,47.156,151.614z"/>
	<path fill="#FFFFFF" d="M205.302,151.614c-0.65,0.338-1.162,0.797-1.526,1.378c-0.373,0.572-0.555,1.283-0.564,2.124
		c0.009,0.797,0.156,1.448,0.434,1.951c0.286,0.511,0.659,0.884,1.127,1.127c0.46,0.234,0.963,0.356,1.509,0.356
		c0.642,0,1.257-0.148,1.855-0.451c0.598-0.304,1.101-0.763,1.491-1.37c0.39-0.607,0.589-1.37,0.607-2.289v-3.797
		c-0.953,0-1.855,0.07-2.696,0.226C206.69,151.016,205.944,151.267,205.302,151.614z"/>
	<path fill="#FFFFFF" d="M269.711,141.428c-0.753-2.419-1.885-4.501-3.378-6.201c-1.39-1.57-3.044-2.798-4.943-3.663l4.541-5.985
		c1.031-1.358,1.203-3.183,0.444-4.71c-0.758-1.527-2.316-2.493-4.021-2.493h-8.115c-1.67,0-3.202,0.927-3.977,2.407l-4.63,8.843
		c-0.489,0.934-0.627,1.995-0.418,2.998c-0.199,0.121-0.395,0.246-0.587,0.375c-0.578-1.336-1.789-2.351-3.295-2.633
		c-0.469-0.088-0.876-0.146-1.28-0.181c-0.404-0.036-0.859-0.052-1.473-0.052c-1.44,0-2.894,0.315-4.291,0.922
		c-0.26,0.111-0.517,0.232-0.769,0.364c-0.702-0.453-1.537-0.714-2.43-0.714h-7.855c-1.221,0-2.389,0.498-3.236,1.378
		c-0.496,0.517-0.857,1.138-1.06,1.811c-0.027-0.024-0.053-0.047-0.08-0.071c-1.37-1.202-3.063-2.136-4.999-2.765
		c-1.831-0.611-3.914-0.913-6.412-0.924c-1.953,0.011-3.781,0.178-5.434,0.498c-1.651,0.32-3.067,0.702-4.325,1.167
		c-0.225,0.083-0.445,0.167-0.659,0.252v-9.497c0-2.479-2.01-4.489-4.489-4.489h-9.155c-2.479,0-4.489,2.01-4.489,4.489v7.709
		c-0.649-0.086-1.322-0.13-2.014-0.13c-2.196,0-4.318,0.485-6.317,1.446c-1.966,0.952-3.71,2.346-5.183,4.143
		c-0.17,0.208-0.337,0.421-0.498,0.64c-0.986-1.651-2.254-3.002-3.78-4.026c-2.14-1.448-4.718-2.189-7.723-2.201
		c-1.419,0.012-2.773,0.204-4.038,0.575c-0.743,0.22-1.449,0.488-2.104,0.796c-0.729-0.506-1.613-0.8-2.558-0.8h-7.855
		c-1.22,0-2.387,0.496-3.233,1.375c-0.498,0.517-0.859,1.14-1.063,1.813c-0.026-0.023-0.053-0.047-0.079-0.07
		c-1.37-1.202-3.063-2.137-5-2.766c-1.831-0.611-3.914-0.913-6.412-0.924c-1.953,0.011-3.781,0.178-5.434,0.498
		c-1.651,0.32-3.066,0.702-4.326,1.167c-1.216,0.449-2.269,0.922-3.132,1.407c-0.498,0.279-0.925,0.643-1.27,1.064
		c-0.641-0.731-1.36-1.376-2.153-1.931c-2.093-1.463-4.595-2.206-7.472-2.206c-1.589,0.013-3.081,0.247-4.411,0.691
		c-1.295,0.423-2.477,0.996-3.515,1.705c-0.016,0.011-0.032,0.022-0.047,0.033c-0.251-0.187-0.511-0.366-0.78-0.536
		c-1.96-1.23-4.292-1.867-6.931-1.892c-0.027-0.001-0.055-0.001-0.081,0c-1.495,0.012-2.837,0.207-4.116,0.599
		c-0.675,0.209-1.325,0.462-1.945,0.757c-0.725-0.497-1.6-0.785-2.536-0.785h-7.803c-1.22,0-2.387,0.496-3.233,1.375
		c-0.498,0.517-0.859,1.14-1.063,1.813c-0.026-0.023-0.053-0.047-0.079-0.07c-1.37-1.202-3.063-2.137-5-2.766
		c-1.83-0.611-3.914-0.913-6.412-0.924c-1.953,0.011-3.781,0.178-5.434,0.498c-0.391,0.076-0.769,0.155-1.135,0.238v-6.599
		c0-2.479-2.01-4.489-4.489-4.489H10.777c-2.479,0-4.489,2.01-4.489,4.489v8.011c0,2.479,2.01,4.489,4.489,4.489h4.614v27.71
		c0,2.479,2.01,4.489,4.489,4.489h9.155c2.479,0,4.489-2.01,4.489-4.489v-2.263c0.581,1.198,1.332,2.291,2.242,3.262
		c1.185,1.264,2.614,2.266,4.259,2.983c1.628,0.704,3.435,1.067,5.369,1.079c1.389,0.005,2.727-0.163,4.068-0.501
		c0.671-0.175,1.321-0.398,1.946-0.666c0.662,0.38,1.426,0.595,2.233,0.595h8.219c0.596,0,1.178-0.118,1.716-0.341
		c0.53,0.22,1.11,0.341,1.719,0.341h8.999c1.407,0,2.662-0.647,3.485-1.66c0.823,1.013,2.079,1.66,3.485,1.66h8.999
		c1.407,0,2.662-0.647,3.485-1.66c0.823,1.013,2.078,1.66,3.485,1.66h9c1.394,0,2.639-0.635,3.463-1.633
		c0.644,0.43,1.333,0.806,2.066,1.125c1.628,0.704,3.435,1.067,5.369,1.079c0.009,0,0.018,0,0.028,0c1.362,0,2.707-0.165,4.04-0.501
		c0.671-0.175,1.321-0.398,1.946-0.666c0.662,0.38,1.426,0.595,2.233,0.595h8.219c0.596,0,1.178-0.118,1.716-0.341
		c0.53,0.22,1.11,0.341,1.719,0.341h9.156c1.564,0,2.941-0.8,3.745-2.013c0.804,1.213,2.18,2.013,3.745,2.013h9.156
		c1.963,0,3.631-1.26,4.241-3.015c0.82,0.733,1.706,1.362,2.653,1.879c2.021,1.121,4.28,1.695,6.714,1.708c0.008,0,0.015,0,0.022,0
		c1.563,0,3.092-0.263,4.532-0.777c0.437-0.154,0.864-0.33,1.28-0.528c0.709,0.464,1.555,0.733,2.459,0.733h8.011
		c1.225,0,2.397-0.501,3.244-1.386c0.063-0.066,0.123-0.133,0.182-0.202c0.625,0.411,1.292,0.772,1.999,1.08
		c1.628,0.704,3.435,1.067,5.369,1.079c0.009,0,0.018,0,0.028,0c1.362,0,2.708-0.165,4.041-0.501
		c0.671-0.176,1.321-0.398,1.946-0.666c0.662,0.38,1.426,0.595,2.233,0.595h8.219c0.596,0,1.178-0.118,1.716-0.341
		c0.53,0.22,1.11,0.341,1.719,0.341h9.155c2.479,0,4.489-2.01,4.489-4.489v-7.801c0.347,1.267,0.806,2.46,1.374,3.57
		c1.53,2.987,3.795,5.315,6.732,6.921c2.795,1.528,6.149,2.309,9.97,2.32c0.004,0,0.009,0,0.013,0c1.28,0,2.592-0.066,3.938-0.199
		c1.375-0.147,2.621-0.353,3.768-0.618c1.283-0.284,2.512-0.662,3.652-1.123c1.983-0.802,3.124-2.891,2.728-4.993l-1.044-5.539
		c1.116-0.617,1.952-1.7,2.225-3.019c0.152-0.733,0.249-1.533,0.296-2.451c0.038-0.757,0.058-1.534,0.058-2.324
		C270.787,146.301,270.42,143.672,269.711,141.428z M28.627,132.281v32.2h-9.155v-32.2h-9.103v-8.011h27.466v8.011H28.627z
		 M33.948,148.824c-0.151,0.263-0.291,0.532-0.423,0.807V136.77h0.608c-0.04,0.514,0.008,1.043,0.154,1.562l1.665,5.93
		c0.129,0.459,0.328,0.888,0.586,1.275C35.515,146.5,34.649,147.598,33.948,148.824z M53.233,164.48l-0.52-2.809h-0.156
		c-0.59,0.78-1.283,1.413-2.072,1.916c-0.789,0.503-1.639,0.867-2.566,1.11c-0.928,0.234-1.89,0.356-2.904,0.356
		c-1.335-0.009-2.531-0.243-3.615-0.711c-1.075-0.468-1.994-1.11-2.766-1.933c-0.772-0.824-1.37-1.778-1.786-2.861
		c-0.408-1.084-0.616-2.254-0.624-3.494c0.017-1.933,0.416-3.607,1.214-5.002c0.798-1.396,1.908-2.549,3.329-3.451
		c1.413-0.901,3.061-1.569,4.942-2.011c1.873-0.434,3.902-0.659,6.069-0.668c0.009-0.754-0.121-1.413-0.39-1.994
		c-0.277-0.572-0.754-1.032-1.439-1.353c-0.676-0.329-1.63-0.494-2.852-0.503c-1.387,0.009-2.705,0.199-3.944,0.555
		c-1.24,0.364-2.341,0.841-3.286,1.422l-1.665-5.93c0.633-0.356,1.457-0.728,2.488-1.11c1.032-0.381,2.237-0.702,3.624-0.971
		c1.387-0.269,2.922-0.407,4.604-0.416c1.933,0.009,3.589,0.234,4.968,0.693c1.387,0.451,2.54,1.075,3.459,1.882
		c0.919,0.806,1.647,1.743,2.176,2.809c0.538,1.066,0.919,2.211,1.136,3.442c0.226,1.231,0.338,2.506,0.33,3.815v10.3
		c0,0.867,0.009,1.725,0.043,2.558c0.026,0.832,0.07,1.621,0.139,2.358c0.069,0.737,0.165,1.405,0.286,2.003H53.233z
		 M105.827,164.48h-9v-16.334c0.009-1.24-0.095-2.315-0.303-3.217c-0.217-0.91-0.564-1.612-1.049-2.115
		c-0.494-0.494-1.145-0.746-1.977-0.755c-0.719,0-1.344,0.2-1.89,0.581c-0.546,0.381-0.971,0.928-1.283,1.647
		c-0.303,0.711-0.46,1.561-0.468,2.558v17.635h-8.999v-17.062c0.009-0.971-0.087-1.855-0.286-2.661
		c-0.191-0.806-0.529-1.457-1.006-1.942c-0.477-0.494-1.145-0.746-1.986-0.755c-0.347-0.009-0.728,0.069-1.144,0.226
		c-0.425,0.156-0.824,0.425-1.205,0.789c-0.39,0.364-0.711,0.858-0.954,1.482c-0.251,0.633-0.381,1.405-0.39,2.341v17.582h-8.999
		v-19.923c0-1.742-0.026-3.398-0.061-4.959c-0.043-1.561-0.095-3.026-0.147-4.404h7.803l0.416,3.641h0.156
		c0.338-0.459,0.754-0.936,1.249-1.43c0.494-0.485,1.066-0.936,1.734-1.361c0.659-0.416,1.413-0.763,2.254-1.023
		c0.85-0.26,1.786-0.39,2.826-0.399c1.804,0.017,3.329,0.416,4.587,1.205c1.249,0.789,2.168,1.872,2.748,3.268h0.104
		c0.286-0.425,0.667-0.893,1.144-1.404c0.486-0.503,1.067-0.988,1.751-1.457c0.685-0.468,1.474-0.85,2.376-1.144
		c0.91-0.303,1.925-0.46,3.052-0.468c1.916,0,3.537,0.468,4.864,1.396c1.326,0.928,2.341,2.28,3.035,4.075
		c0.693,1.794,1.049,3.988,1.049,6.598V164.48z M124.971,164.48l-0.52-2.809h-0.156c-0.59,0.78-1.283,1.413-2.072,1.916
		c-0.789,0.503-1.639,0.867-2.566,1.11c-0.928,0.234-1.89,0.356-2.904,0.356c-1.335-0.009-2.531-0.243-3.615-0.711
		c-1.075-0.468-1.994-1.11-2.766-1.933c-0.772-0.824-1.37-1.778-1.786-2.861c-0.408-1.084-0.616-2.254-0.624-3.494
		c0.017-1.933,0.416-3.607,1.214-5.002c0.798-1.396,1.908-2.549,3.329-3.451c1.413-0.901,3.06-1.569,4.941-2.011
		c1.873-0.434,3.902-0.659,6.069-0.668c0.009-0.754-0.121-1.413-0.39-1.994c-0.277-0.572-0.754-1.032-1.439-1.353
		c-0.676-0.329-1.63-0.494-2.852-0.503c-1.387,0.009-2.705,0.199-3.945,0.555c-1.24,0.364-2.341,0.841-3.286,1.422l-1.664-5.93
		c0.633-0.356,1.456-0.728,2.488-1.11c1.032-0.381,2.237-0.702,3.624-0.971c1.387-0.269,2.922-0.407,4.604-0.416
		c1.933,0.009,3.589,0.234,4.968,0.693c1.387,0.451,2.54,1.075,3.459,1.882c0.919,0.806,1.647,1.743,2.176,2.809
		c0.538,1.066,0.919,2.211,1.136,3.442c0.226,1.231,0.338,2.506,0.33,3.815v10.3c0,0.867,0.009,1.725,0.043,2.558
		c0.026,0.832,0.069,1.621,0.139,2.358c0.069,0.737,0.165,1.405,0.286,2.003H124.971z M162.427,164.48h-9.155v-17.01
		c0.009-1.032-0.104-1.942-0.338-2.74c-0.234-0.797-0.607-1.422-1.127-1.873c-0.52-0.451-1.205-0.685-2.072-0.694
		c-0.65-0.009-1.283,0.165-1.882,0.503c-0.598,0.338-1.093,0.893-1.474,1.647c-0.39,0.754-0.589,1.76-0.598,3v17.166h-9.156v-19.923
		c0-1.742-0.026-3.398-0.061-4.959c-0.043-1.561-0.095-3.026-0.147-4.404h7.855l0.468,3.693h0.156c0.33-0.503,0.737-1.006,1.249-1.5
		c0.503-0.503,1.092-0.963,1.777-1.379c0.676-0.416,1.44-0.746,2.289-0.997c0.858-0.251,1.786-0.381,2.8-0.39
		c2.046,0.009,3.771,0.485,5.167,1.43c1.396,0.936,2.454,2.306,3.173,4.092c0.711,1.786,1.075,3.953,1.075,6.494V164.48z
		 M184.328,164.48l-0.416-3.797h-0.156c-0.529,0.919-1.196,1.708-1.994,2.358c-0.806,0.65-1.691,1.145-2.67,1.492
		c-0.971,0.347-1.985,0.52-3.034,0.52c-1.682-0.009-3.199-0.39-4.561-1.144c-1.361-0.746-2.523-1.803-3.494-3.164
		c-0.971-1.353-1.716-2.948-2.237-4.777c-0.52-1.829-0.78-3.832-0.789-6c0.009-2.488,0.329-4.682,0.945-6.589
		c0.607-1.907,1.457-3.511,2.523-4.812c1.067-1.301,2.289-2.28,3.667-2.948c1.37-0.659,2.827-0.997,4.361-0.997
		c1.04,0,1.977,0.13,2.818,0.39c0.832,0.252,1.543,0.607,2.141,1.058c0.589,0.451,1.057,0.971,1.387,1.569h0.156v-15.085h9.155
		v32.98c0,1.084,0.009,2.159,0.035,3.234c0.017,1.075,0.043,2.098,0.069,3.069c0.035,0.971,0.069,1.855,0.104,2.644H184.328z
		 M211.38,164.48l-0.52-2.809h-0.156c-0.59,0.78-1.283,1.413-2.072,1.916c-0.789,0.503-1.639,0.867-2.566,1.11
		c-0.928,0.234-1.89,0.356-2.904,0.356c-1.335-0.009-2.531-0.243-3.615-0.711c-1.075-0.468-1.994-1.11-2.766-1.933
		c-0.772-0.824-1.37-1.778-1.786-2.861c-0.408-1.084-0.616-2.254-0.624-3.494c0.017-1.933,0.416-3.607,1.214-5.002
		c0.798-1.396,1.907-2.549,3.329-3.451c1.413-0.901,3.06-1.569,4.941-2.011c1.873-0.434,3.902-0.659,6.069-0.668
		c0.009-0.754-0.121-1.413-0.39-1.994c-0.277-0.572-0.754-1.032-1.439-1.353c-0.676-0.329-1.63-0.494-2.853-0.503
		c-1.387,0.009-2.705,0.199-3.945,0.555c-1.24,0.364-2.341,0.841-3.286,1.422l-1.665-5.93c0.633-0.356,1.457-0.728,2.488-1.11
		c1.032-0.381,2.237-0.702,3.624-0.971c1.387-0.269,2.922-0.407,4.604-0.416c1.933,0.009,3.589,0.234,4.968,0.693
		c1.387,0.451,2.54,1.075,3.459,1.882c0.919,0.806,1.647,1.743,2.176,2.809c0.538,1.066,0.919,2.211,1.136,3.442
		c0.226,1.231,0.338,2.506,0.33,3.815v10.3c0,0.867,0.009,1.725,0.043,2.558c0.026,0.832,0.07,1.621,0.139,2.358
		c0.069,0.737,0.165,1.405,0.286,2.003H211.38z M253.831,122.865h8.115l-6.71,8.843h-6.034L253.831,122.865z M240.096,143.569
		c-0.312-0.078-0.642-0.13-1.005-0.165c-0.356-0.035-0.772-0.044-1.231-0.044c-0.789,0-1.534,0.122-2.245,0.382
		c-0.703,0.251-1.326,0.65-1.855,1.196c-0.538,0.546-0.936,1.248-1.205,2.115c-0.13,0.347-0.226,0.763-0.277,1.24
		c-0.061,0.485-0.087,0.988-0.087,1.517v14.67h-9.155v-19.819c0-1.916-0.026-3.641-0.061-5.185
		c-0.043-1.543-0.096-2.965-0.147-4.283h7.855l0.364,4.89h0.208c0.503-1.283,1.136-2.323,1.907-3.13
		c0.772-0.806,1.604-1.396,2.48-1.769c0.876-0.381,1.717-0.563,2.532-0.563c0.433,0,0.789,0.009,1.075,0.035
		c0.295,0.026,0.572,0.07,0.85,0.122V143.569z M265.848,151.32c-0.035,0.676-0.104,1.266-0.208,1.769h-16.542
		c0.087,1.162,0.451,2.115,1.093,2.87c0.65,0.754,1.5,1.318,2.549,1.682c1.04,0.364,2.202,0.546,3.485,0.546
		c1.327-0.009,2.566-0.112,3.728-0.321c1.161-0.208,2.254-0.477,3.294-0.824l1.196,6.346c-0.901,0.364-1.881,0.667-2.939,0.902
		c-1.049,0.243-2.142,0.416-3.277,0.538c-1.136,0.113-2.289,0.173-3.459,0.173c-3.078-0.009-5.688-0.598-7.829-1.769
		c-2.141-1.17-3.771-2.844-4.89-5.028c-1.118-2.185-1.682-4.812-1.691-7.872c0-1.682,0.191-3.303,0.581-4.847
		c0.381-1.552,0.954-2.982,1.699-4.3c0.755-1.318,1.673-2.462,2.774-3.442c1.101-0.988,2.367-1.751,3.798-2.289
		c1.439-0.546,3.026-0.824,4.777-0.832c1.751,0,3.356,0.295,4.803,0.884c1.448,0.598,2.705,1.492,3.771,2.697
		c1.057,1.205,1.881,2.722,2.454,4.56c0.581,1.838,0.876,3.997,0.884,6.476C265.899,149.95,265.882,150.643,265.848,151.32z"/>
	<path fill="#FFFFFF" d="M256.709,142.875c-0.295-0.581-0.702-1.049-1.223-1.404c-0.52-0.364-1.179-0.546-1.968-0.555
		c-0.78,0.009-1.439,0.199-1.994,0.572c-0.555,0.373-1.006,0.858-1.353,1.448c-0.356,0.598-0.624,1.231-0.798,1.907
		c-0.182,0.677-0.295,1.327-0.329,1.951h8.479c0.009-0.659-0.052-1.335-0.182-2.02C257.221,144.097,257.013,143.465,256.709,142.875
		z"/>
</g>
</svg>
