<?xml version="1.0" encoding="utf-8"?>
<!DOCTYPE svg PUBLIC "-//W3C//DTD SVG 1.1//EN" "http://www.w3.org/Graphics/SVG/1.1/DTD/svg11.dtd">
<svg version="1.1" id="Camada_1" xmlns="http://www.w3.org/2000/svg" xmlns:xlink="http://www.w3.org/1999/xlink" x="0px" y="0px"
	 width="179px" height="42.268px" viewBox="0 0 179 42.268" enable-background="new 0 0 179 42.268" xml:space="preserve">
<g>
	<path fill="#1B3A69" d="M3.613,5.523h26.164l3.574,9.905l-4.065,1.46c-0.689-1.617-1.494-2.92-2.415-3.908
		s-1.939-1.643-3.055-1.965c-1.116-0.322-2.415-0.483-3.897-0.483h-4.784v7.816h1.572c1.183,0,1.98-0.086,2.392-0.258
		c0.412-0.172,0.708-0.441,0.887-0.809c0.18-0.367,0.27-1.097,0.27-2.19v-1.19h3.998v13.275h-3.998v-1.354
		c0-0.918-0.109-1.588-0.326-2.009c-0.217-0.422-0.513-0.708-0.887-0.858c-0.375-0.15-1.206-0.226-2.493-0.226h-1.415v7.205
		c0,0.766,0.037,1.231,0.112,1.396c0.075,0.165,0.221,0.292,0.438,0.382c0.217,0.091,0.686,0.136,1.405,0.136h2.629
		c1.963,0,3.618-0.282,4.966-0.847c1.348-0.563,2.55-1.474,3.606-2.73c1.056-1.256,1.869-2.749,2.438-4.479l4.104,1.417
		L30.72,36.856H3.613v-4.335h0.786c1.048,0,1.752-0.075,2.111-0.225s0.614-0.412,0.764-0.786c0.075-0.225,0.112-0.861,0.112-1.909
		V12.531c0-0.928-0.064-1.535-0.191-1.819c-0.127-0.284-0.326-0.498-0.595-0.64c-0.27-0.142-0.801-0.213-1.595-0.213H3.613V5.523z"
		/>
	<path fill="#1B3A69" d="M60.349,5.523l2.695,10.512l-4.2,1.19c-1.391-2.508-2.968-4.344-4.732-5.509
		c-1.764-1.164-3.64-1.746-5.629-1.746c-1.286,0-2.299,0.263-3.039,0.787c-0.74,0.525-1.11,1.109-1.11,1.753
		c0,0.734,0.337,1.417,1.011,2.046c0.659,0.63,1.872,1.192,3.639,1.687l6.02,1.754c3.339,0.959,5.72,2.232,7.143,3.821
		c1.407,1.604,2.111,3.469,2.111,5.597c0,2.713-1.078,5.006-3.234,6.878c-2.411,2.068-5.406,3.103-8.984,3.103
		c-1.662,0-3.189-0.213-4.582-0.641c-1.393-0.426-2.845-1.142-4.357-2.145l-0.988,2.246h-3.347l-2.224-12.151l4.2-1.011
		c0.988,2.471,2.527,4.533,4.616,6.188c2.089,1.655,4.383,2.482,6.884,2.482c1.123,0,2.055-0.143,2.796-0.427
		c0.741-0.284,1.299-0.681,1.673-1.19c0.374-0.509,0.562-1.033,0.562-1.572c0-0.897-0.435-1.669-1.303-2.313
		c-0.884-0.644-2.426-1.279-4.627-1.908l-5.237-1.526c-0.793-0.225-1.868-0.647-3.222-1.269s-2.395-1.27-3.121-1.943
		c-0.726-0.674-1.329-1.539-1.808-2.595c-0.479-1.056-0.718-2.168-0.718-3.336c0-1.662,0.46-3.194,1.381-4.594
		s2.306-2.535,4.155-3.403c1.849-0.869,3.897-1.303,6.143-1.303c2.71,0,5.158,0.704,7.345,2.111l0.876-1.572H60.349z"/>
	<path fill="#1B3A69" d="M78.452,5.523h7.039l9.404,24.191c0.509,1.288,0.962,2.081,1.358,2.381c0.397,0.3,1.127,0.441,2.19,0.427
		v4.335H83.619v-4.335l0.898-0.022c0.824,0,1.4-0.108,1.73-0.326c0.329-0.217,0.494-0.482,0.494-0.797
		c0-0.27-0.143-0.824-0.427-1.663l-0.935-2.852h-9.526l-1.175,3.167c-0.24,0.674-0.359,1.115-0.359,1.325
		c0,0.239,0.086,0.457,0.259,0.651c0.172,0.194,0.452,0.337,0.842,0.427c0.255,0.06,0.958,0.09,2.111,0.09v4.335H65.403v-4.335
		c0.778,0,1.347-0.067,1.707-0.202s0.655-0.337,0.887-0.606s0.49-0.771,0.775-1.506L78.452,5.523z M77.512,22.391h6.223
		l-3.032-8.604L77.512,22.391z"/>
	<path fill="#1B3A69" d="M100.263,5.523h14.182l5.445,19.082l5.636-19.082h14.426v4.335h-1.55c-0.839,0-1.419,0.176-1.741,0.528
		c-0.321,0.352-0.482,1.015-0.482,1.988v17.79c0,0.778,0.045,1.266,0.135,1.46c0.135,0.3,0.322,0.509,0.562,0.629
		c0.329,0.18,0.764,0.27,1.303,0.27h1.774v4.335H124.88v-4.335h1.168c0.854,0,1.43-0.067,1.729-0.202s0.521-0.341,0.662-0.618
		c0.143-0.276,0.214-0.789,0.214-1.538V10.891l-7.637,25.965h-4.335l-7.39-25.134v19.047c0,0.435,0.079,0.771,0.235,1.011
		c0.158,0.239,0.383,0.423,0.674,0.55c0.293,0.128,0.761,0.191,1.404,0.191h1.505v4.335h-12.848v-4.335h1.266
		c0.798,0,1.344-0.071,1.638-0.214c0.294-0.142,0.512-0.366,0.655-0.674c0.144-0.307,0.215-0.872,0.215-1.695V12.373
		c0-0.809-0.053-1.333-0.158-1.572c-0.136-0.329-0.339-0.569-0.61-0.719c-0.271-0.149-0.7-0.225-1.288-0.225h-1.717V5.523z"/>
	<path fill="#1B3A69" d="M167.605,5.523h3.187l3.075,11.253l-4.178,1.213c-1.393-2.68-2.703-4.582-3.931-5.705
		c-1.707-1.542-3.557-2.313-5.548-2.313c-1.452,0-2.812,0.404-4.077,1.213c-1.265,0.809-2.268,1.999-3.01,3.571
		c-0.74,1.572-1.111,3.414-1.111,5.525c0,3.22,0.85,5.99,2.549,8.311c1.7,2.321,3.928,3.481,6.683,3.481
		c1.752,0,3.437-0.502,5.054-1.505c2.021-1.243,3.766-2.912,5.233-5.009l3.481,2.583c-2.26,3.085-4.324,5.233-6.194,6.446
		c-2.889,1.872-6.105,2.808-9.651,2.808c-2.948,0-5.615-0.707-8.002-2.123c-2.387-1.414-4.291-3.395-5.713-5.94
		c-1.421-2.546-2.132-5.323-2.132-8.333c0-2.995,0.691-5.724,2.076-8.187c1.384-2.463,3.27-4.383,5.655-5.761
		c2.387-1.377,5.047-2.066,7.979-2.066c2.978,0,5.589,0.629,7.833,1.887L167.605,5.523z"/>
</g>
<g>
</g>
<g>
</g>
<g>
</g>
<g>
</g>
<g>
</g>
<g>
</g>
</svg>
