<?xml version="1.0" encoding="utf-8"?>
<!-- Generator: Adobe Illustrator 17.0.0, SVG Export Plug-In . SVG Version: 6.00 Build 0)  -->
<!DOCTYPE svg PUBLIC "-//W3C//DTD SVG 1.1//EN" "http://www.w3.org/Graphics/SVG/1.1/DTD/svg11.dtd">
<svg version="1.1" id="Camada_1" xmlns="http://www.w3.org/2000/svg" xmlns:xlink="http://www.w3.org/1999/xlink" x="0px" y="0px"
	 width="132.494px" height="25.417px" viewBox="0 0 132.494 25.417" enable-background="new 0 0 132.494 25.417"
	 xml:space="preserve">
<g id="Layer_2">
</g>
<g id="Layer_1">
	<g>
		<g>
			<g>
				<path fill="#FFFFFF" d="M20.295,1.195l7.048,8.35c-2.358,2.777-4.703,5.556-7.048,8.332c5.482,1.078,9.901-3.815,9.901-8.332
					c0-6.237-5.563-8.415-8.935-8.419C20.913,1.126,20.588,1.153,20.295,1.195z"/>
				<polygon fill="#FFFFFF" points="99.623,1.444 106.033,17.561 109.208,17.561 115.614,1.444 111.132,1.444 107.522,10.83 
					103.836,1.444 				"/>
				<rect x="94.949" y="1.444" fill="#FFFFFF" width="3.97" height="16.118"/>
				<polygon fill="#FFFFFF" points="83.345,1.444 83.345,4.959 86.661,4.959 86.661,17.561 91.011,17.561 91.011,4.959 
					94.286,4.959 94.286,1.444 				"/>
				<polygon fill="#FFFFFF" points="73.426,1.444 73.426,17.561 82.735,17.561 82.735,14.081 77.635,14.081 77.635,11.024 
					82.08,11.024 82.08,7.633 77.635,7.633 77.635,4.959 82.735,4.959 82.735,1.444 				"/>
				<path fill="#FFFFFF" d="M68.259,1.444v10.778c-0.326,0.957-0.674,1.565-2.087,1.915v3.718c3.642-0.14,6.349-2.481,6.37-5.634
					V1.444H68.259z"/>
				<path fill="#FFFFFF" d="M59.787,14.418h-2.273v-3.634h2.273C62.527,11.46,61.745,14.408,59.787,14.418L59.787,14.418z
					 M57.514,4.609h2.273c1.252,0.685,1.252,2.35,0,3.024h-2.273V4.609L57.514,4.609z M62.494,9.077
					c3.438-2.577,1.479-6.991-1.619-7.634h-7.333v16.129h7.952C67.204,16.778,66.638,10.254,62.494,9.077z"/>
				<path fill="#FFFFFF" d="M122.443,14.202c-2.501,0-4.535-2.1-4.535-4.679c0-2.576,2.034-4.676,4.535-4.676
					c2.503,0,4.536,2.1,4.536,4.676C126.979,12.102,124.946,14.202,122.443,14.202L122.443,14.202z M122.465,1.126
					c-4.893,0-8.884,3.778-8.884,8.397c0,4.615,3.991,8.388,8.884,8.388c4.897,0,8.891-3.774,8.891-8.388
					C131.354,4.904,127.36,1.126,122.465,1.126z"/>
				<path fill="#FFFFFF" d="M44.181,14.32c-2.503,0-4.537-2.097-4.537-4.675c0-2.577,2.034-4.678,4.537-4.678
					c2.497,0,4.532,2.1,4.532,4.678S46.678,14.32,44.181,14.32L44.181,14.32z M44.201,1.25c-4.897,0-8.888,3.774-8.888,8.395
					c0,4.61,3.992,8.387,8.888,8.387c4.893,0,8.884-3.778,8.884-8.387C53.085,5.023,49.093,1.25,44.201,1.25z"/>
				<path fill="#FFFFFF" d="M86.654,22.681l1.083-0.105c0.064,0.364,0.196,0.63,0.398,0.802c0.196,0.171,0.468,0.255,0.807,0.255
					c0.358,0,0.629-0.076,0.812-0.225c0.183-0.154,0.274-0.331,0.274-0.533c0-0.133-0.04-0.242-0.119-0.336
					c-0.075-0.089-0.206-0.172-0.401-0.235c-0.125-0.05-0.426-0.131-0.891-0.246c-0.597-0.145-1.017-0.33-1.258-0.546
					c-0.339-0.304-0.509-0.675-0.509-1.109c0-0.283,0.08-0.545,0.24-0.792c0.16-0.244,0.39-0.431,0.689-0.558
					c0.3-0.128,0.663-0.193,1.089-0.193c0.692,0,1.213,0.152,1.564,0.456c0.348,0.307,0.533,0.708,0.552,1.217l-1.116,0.046
					c-0.046-0.281-0.149-0.485-0.308-0.608c-0.157-0.126-0.39-0.188-0.704-0.188c-0.326,0-0.578,0.066-0.762,0.199
					c-0.119,0.085-0.18,0.198-0.18,0.343c0,0.131,0.058,0.243,0.168,0.335c0.139,0.116,0.481,0.243,1.025,0.371
					c0.546,0.127,0.942,0.261,1.204,0.398c0.26,0.135,0.462,0.323,0.613,0.562c0.145,0.237,0.217,0.529,0.217,0.876
					c0.001,0.318-0.089,0.614-0.263,0.888c-0.178,0.278-0.425,0.486-0.744,0.617c-0.323,0.136-0.723,0.201-1.205,0.201
					c-0.698,0-1.236-0.16-1.609-0.483C86.949,23.768,86.728,23.298,86.654,22.681z"/>
				<path fill="#FFFFFF" d="M95.633,23.138c-0.287,0.321-0.65,0.481-1.095,0.481c-0.444,0-0.812-0.16-1.101-0.485
					c-0.288-0.323-0.434-0.796-0.434-1.42c0-0.635,0.141-1.11,0.423-1.426c0.281-0.314,0.652-0.473,1.111-0.473
					c0.461,0,0.829,0.155,1.108,0.466c0.276,0.313,0.414,0.785,0.414,1.417C96.059,22.337,95.919,22.816,95.633,23.138
					L95.633,23.138z M96.483,19.618c-0.49-0.506-1.145-0.759-1.956-0.759c-0.45,0-0.847,0.074-1.191,0.217
					c-0.258,0.113-0.497,0.276-0.713,0.5c-0.219,0.223-0.39,0.478-0.517,0.756c-0.165,0.383-0.252,0.852-0.252,1.417
					c0,0.875,0.244,1.569,0.73,2.071c0.483,0.499,1.138,0.751,1.957,0.751c0.811,0,1.46-0.251,1.941-0.753
					c0.486-0.507,0.729-1.202,0.729-2.094C97.212,20.822,96.97,20.123,96.483,19.618z"/>
				<path fill="#FFFFFF" d="M100.028,21.292h-0.823v-1.404h0.868c0.454,0,0.727,0.006,0.816,0.021c0.18,0.03,0.32,0.1,0.421,0.215
					c0.097,0.115,0.147,0.262,0.147,0.452c0,0.164-0.04,0.3-0.115,0.414c-0.074,0.109-0.178,0.188-0.313,0.232
					C100.897,21.266,100.562,21.292,100.028,21.292L100.028,21.292z M102.378,23.4c-0.264-0.43-0.476-0.728-0.632-0.896
					c-0.159-0.17-0.356-0.323-0.599-0.465c0.486-0.07,0.85-0.24,1.096-0.51c0.24-0.268,0.364-0.613,0.364-1.026
					c0-0.328-0.08-0.615-0.243-0.871c-0.161-0.253-0.372-0.431-0.642-0.53c-0.265-0.098-0.694-0.148-1.285-0.148H98.09v5.523h1.117
					v-2.305h0.225c0.256,0,0.442,0.018,0.561,0.061c0.116,0.043,0.23,0.117,0.335,0.229c0.106,0.114,0.302,0.386,0.586,0.813
					l0.809,1.202h1.335L102.378,23.4z"/>
				<path fill="#FFFFFF" d="M107.209,23.138c-0.289,0.321-0.651,0.481-1.097,0.481c-0.445,0-0.811-0.16-1.101-0.485
					c-0.289-0.323-0.433-0.796-0.433-1.42c0-0.635,0.141-1.11,0.422-1.426c0.281-0.314,0.651-0.473,1.111-0.473
					c0.458,0,0.827,0.155,1.106,0.466c0.276,0.313,0.416,0.785,0.416,1.417C107.633,22.337,107.491,22.816,107.209,23.138
					L107.209,23.138z M108.055,19.618c-0.49-0.506-1.141-0.759-1.952-0.759c-0.45,0-0.848,0.074-1.194,0.217
					c-0.256,0.113-0.495,0.276-0.713,0.5c-0.217,0.223-0.388,0.478-0.513,0.756c-0.167,0.383-0.25,0.852-0.25,1.417
					c0,0.875,0.24,1.569,0.724,2.071c0.484,0.499,1.137,0.751,1.961,0.751c0.811,0,1.459-0.251,1.943-0.753
					c0.486-0.507,0.728-1.202,0.728-2.094C108.787,20.822,108.542,20.123,108.055,19.618z"/>
				<path fill="#FFFFFF" d="M113.194,22.449l1.079,0.339c-0.165,0.603-0.442,1.053-0.827,1.347
					c-0.384,0.289-0.873,0.434-1.466,0.434c-0.735,0-1.339-0.251-1.808-0.751c-0.473-0.501-0.712-1.187-0.712-2.054
					c0-0.92,0.242-1.633,0.714-2.144c0.476-0.507,1.099-0.764,1.874-0.764c0.676,0,1.224,0.201,1.646,0.6
					c0.251,0.238,0.442,0.576,0.566,1.018l-1.105,0.263c-0.066-0.288-0.199-0.515-0.408-0.677c-0.208-0.167-0.461-0.249-0.754-0.249
					c-0.408,0-0.742,0.145-0.997,0.442c-0.254,0.289-0.382,0.769-0.382,1.426c0,0.699,0.125,1.194,0.375,1.49
					c0.25,0.297,0.577,0.445,0.982,0.445c0.295,0,0.55-0.094,0.764-0.282C112.945,23.151,113.1,22.849,113.194,22.449z"/>
				<path fill="#FFFFFF" d="M116.65,22.291l0.745-2.049l0.762,2.049H116.65L116.65,22.291z M117.998,18.954h-1.181l-2.148,5.523
					h1.182l0.456-1.256h2.205l0.485,1.256h1.213L117.998,18.954z"/>
				<path fill="#FFFFFF" d="M124.12,23.293c-0.104,0.117-0.237,0.191-0.403,0.22c-0.11,0.022-0.367,0.036-0.767,0.036h-1.032v-1.477
					h0.901c0.506,0,0.836,0.023,0.989,0.076c0.152,0.054,0.266,0.139,0.349,0.251c0.076,0.117,0.121,0.257,0.121,0.423
					C124.28,23.02,124.224,23.177,124.12,23.293L124.12,23.293z M121.918,19.875h0.642c0.525,0,0.844,0.004,0.952,0.018
					c0.188,0.02,0.326,0.089,0.42,0.191c0.096,0.109,0.14,0.248,0.14,0.419c0.001,0.178-0.05,0.323-0.164,0.431
					c-0.108,0.111-0.258,0.172-0.447,0.197c-0.107,0.012-0.376,0.019-0.812,0.019h-0.73L121.918,19.875L121.918,19.875z
					 M125.16,22.044c-0.179-0.235-0.441-0.406-0.777-0.501c0.24-0.11,0.427-0.271,0.569-0.487c0.139-0.216,0.209-0.45,0.209-0.709
					c0-0.241-0.058-0.456-0.169-0.649c-0.113-0.193-0.253-0.347-0.425-0.46c-0.17-0.117-0.362-0.193-0.575-0.227
					c-0.214-0.039-0.542-0.056-0.979-0.056h-2.211v5.523h1.884c0.712-0.004,1.159-0.017,1.344-0.04
					c0.295-0.03,0.547-0.118,0.749-0.26c0.203-0.141,0.36-0.331,0.477-0.568c0.116-0.238,0.176-0.485,0.176-0.735
					C125.431,22.559,125.34,22.28,125.16,22.044z"/>
				<path fill="#FFFFFF" d="M127.79,22.291l0.745-2.049l0.764,2.049H127.79L127.79,22.291z M129.143,18.954h-1.182l-2.149,5.523
					h1.18l0.457-1.256h2.208l0.484,1.256h1.215L129.143,18.954z"/>
				<path fill="#FFFFFF" d="M17.633,13.853c-1.736,0-3.236-1.039-3.91-2.522l1.552-1.857l-1.526-1.718
					c0.686-1.461,2.17-2.473,3.885-2.473c2.35,0,4.281,1.927,4.281,4.292C21.913,11.926,19.982,13.853,17.633,13.853L17.633,13.853z
					 M9.024,12.203C9.598,11.45,9.941,10.512,9.941,9.5c0-0.839-0.235-1.627-0.639-2.301l2.035,2.345L9.024,12.203L9.024,12.203z
					 M17.093,2.462c-2.304,1.672-3.15,3.278-3.519,5.098L7.943,1.195H4.099l4.177,4.82C7.504,5.389,6.524,5.009,5.461,5.009
					c-2.471,0-4.489,2.022-4.489,4.492c0,2.462,2.019,4.478,4.489,4.478c1.24,0,2.37-0.511,3.183-1.334L4.1,17.878h3.843
					l5.608-6.337c0.441,1.888,1.537,3.86,3.627,5.146l6.246-7.141L17.093,2.462z"/>
			</g>
		</g>
	</g>
</g>
</svg>
