<?xml version="1.0" encoding="utf-8"?>
<!-- Generator: Adobe Illustrator 17.0.0, SVG Export Plug-In . SVG Version: 6.00 Build 0)  -->
<!DOCTYPE svg PUBLIC "-//W3C//DTD SVG 1.1//EN" "http://www.w3.org/Graphics/SVG/1.1/DTD/svg11.dtd">
<svg version="1.1" id="Camada_1" xmlns="http://www.w3.org/2000/svg" xmlns:xlink="http://www.w3.org/1999/xlink" x="0px" y="0px"
	 width="34px" height="27px" viewBox="0 0 34 27" enable-background="new 0 0 34 27" xml:space="preserve">
<g id="Layer_2">
</g>
<g id="Forma_1">
	<g>
		<path fill-rule="evenodd" clip-rule="evenodd" fill="#FFFFFF" d="M18.206,3.429v11.331c0,0,6.24-1.324,6.24-5.665
			C24.446,5.123,18.206,3.429,18.206,3.429z M2.321,13.343c0,6.294,7.659,9.631,7.659,9.631s-3.115-2.652-3.12-5.382
			c-0.006-2.149,3.425-6.515,8.793-6.515V3.146C11.184,3.146,2.321,7.049,2.321,13.343z"/>
	</g>
</g>
<g id="Forma_1_copiar">
	<g>
		<path fill-rule="evenodd" clip-rule="evenodd" fill="#FFFFFF" d="M9.696,18.159c0,3.309,5.233,5.148,5.233,5.148l0.67-0.487
			l0.054-10.609C15.653,12.21,9.696,13.897,9.696,18.159z M24.02,4.137c0,0,3.115,2.652,3.12,5.382
			c0.006,2.149-3.493,6.539-8.861,6.539c0,0,0,4.576,0,6.761c0,0.008,1.486,1.029,1.496,1.035
			c4.693-0.677,11.904-4.409,11.904-10.086C31.679,7.474,24.02,4.137,24.02,4.137z"/>
	</g>
</g>
</svg>
