<?xml version="1.0" encoding="utf-8"?>
<!-- Generator: Adobe Illustrator 17.0.0, SVG Export Plug-In . SVG Version: 6.00 Build 0)  -->
<!DOCTYPE svg PUBLIC "-//W3C//DTD SVG 1.1//EN" "http://www.w3.org/Graphics/SVG/1.1/DTD/svg11.dtd">
<svg version="1.1" id="Camada_1" xmlns="http://www.w3.org/2000/svg" xmlns:xlink="http://www.w3.org/1999/xlink" x="0px" y="0px"
	 width="166.379px" height="53.828px" viewBox="-1.455 1.247 166.379 53.828" enable-background="new -1.455 1.247 166.379 53.828"
	 xml:space="preserve">
<g>
	<path fill="#023854" d="M79.945,21.197c0-3.04,1.237-4.017,4.306-4.017c1.047,0,2.069,0.152,3.069,0.435
		c0,0.434-0.119,0.825-0.357,1.194c-0.903-0.239-1.831-0.369-2.759-0.369c-1.809,0-2.712,0.869-2.712,2.606v3.344
		c0,1.737,0.904,2.605,2.712,2.605c0.928,0,1.855-0.13,2.759-0.369c0.238,0.369,0.357,0.782,0.357,1.194
		c-1,0.282-2.022,0.434-3.069,0.434c-3.068,0-4.306-0.977-4.306-4.017V21.197z"/>
	<path fill="#023854" d="M88.865,21.219c0-2.171-0.095-4.039,3.925-4.039c4.045,0,3.926,1.868,3.926,4.039v2.997
		c0,1.998,0.285,4.039-3.926,4.039c-4.115,0-3.925-1.911-3.925-4.039V21.219z M90.412,24.172c0,2.258,0.38,2.823,2.378,2.823
		c2.022,0,2.379-0.629,2.379-2.823v-2.91c0-2.258-0.356-2.823-2.379-2.823c-2.021,0-2.378,0.565-2.378,2.823V24.172z"/>
	<path fill="#023854" d="M105.136,28.146h-6.042V17.354c0.333-0.043,0.595-0.065,0.761-0.065c0.19,0,0.452,0.021,0.785,0.065v9.532
		h4.496c0.048,0.304,0.071,0.5,0.071,0.608C105.207,27.625,105.184,27.841,105.136,28.146z"/>
	<path fill="#023854" d="M113.272,28.146h-6.398V17.289h6.398c0.048,0.304,0.072,0.521,0.072,0.651c0,0.108-0.024,0.304-0.072,0.608
		h-4.853v3.539h4.068c0.047,0.304,0.071,0.521,0.071,0.651c0,0.109-0.024,0.304-0.071,0.608h-4.068v3.54h4.853
		c0.048,0.304,0.072,0.5,0.072,0.608C113.344,27.625,113.32,27.841,113.272,28.146z"/>
	<path fill="#023854" d="M121.312,23.716h-2.046c-0.048-0.304-0.071-0.499-0.071-0.608c0-0.13,0.023-0.347,0.071-0.651h2.807
		c0.19,0,0.452,0.022,0.785,0.065v5.298c-0.999,0.282-2.069,0.434-3.188,0.434c-3.116,0-4.425-1.064-4.425-4.017v-3.04
		c0-2.953,1.309-4.017,4.425-4.017c1.118,0,2.188,0.152,3.188,0.435c0,0.434-0.119,0.825-0.356,1.194
		c-0.904-0.239-1.855-0.369-2.879-0.369c-1.808,0-2.83,0.869-2.83,2.606v3.344c0,1.737,1.022,2.605,2.83,2.605
		c0.666,0,1.237-0.043,1.689-0.108V23.716z"/>
	<path fill="#023854" d="M126.782,17.354V28.08c-0.333,0.044-0.595,0.065-0.761,0.065c-0.19,0-0.452-0.021-0.785-0.065V17.354
		c0.333-0.043,0.595-0.065,0.761-0.065C126.188,17.289,126.449,17.311,126.782,17.354z"/>
	<path fill="#023854" d="M129.161,21.219c0-2.171-0.095-4.039,3.925-4.039c4.045,0,3.926,1.868,3.926,4.039v2.997
		c0,1.998,0.285,4.039-3.926,4.039c-4.115,0-3.925-1.911-3.925-4.039V21.219z M130.708,24.172c0,2.258,0.38,2.823,2.378,2.823
		c2.022,0,2.379-0.629,2.379-2.823v-2.91c0-2.258-0.356-2.823-2.379-2.823c-2.021,0-2.378,0.565-2.378,2.823V24.172z"/>
	<path fill="#023854" d="M82.966,31.375c2.545,0,4.092,0.348,4.092,3.626c0,3.604-1.999,3.604-4.092,3.604h-0.88v3.518
		c-0.357,0.065-0.714,0.108-1.071,0.108c-0.31,0-0.666-0.043-1.071-0.108V31.375H82.966z M82.943,36.955
		c1.308,0,1.974-0.651,1.974-1.954c0-1.65-1.118-1.802-1.974-1.802h-0.856v3.756H82.943z"/>
	<path fill="#023854" d="M88.604,31.375h3.141c2.664,0,3.973,0.304,4.091,3.626c0,1.563-0.451,2.605-1.332,3.127l1.285,3.864
		c-0.31,0.152-0.714,0.239-1.166,0.239c-0.404,0-0.737-0.043-0.999-0.13l-1.213-3.496h-1.665v3.518
		c-0.357,0.065-0.714,0.108-1.071,0.108c-0.309,0-0.666-0.043-1.07-0.108V31.375z M91.72,36.955c1.309,0,1.975-0.651,1.975-1.954
		c0-1.65-1.118-1.802-1.975-1.802h-0.975v3.756H91.72z"/>
	<path fill="#023854" d="M97.857,35.392c0-2.845,0.5-4.125,3.997-4.125c3.496,0,3.996,1.28,3.996,4.125v2.823
		c0,2.714-0.404,4.125-3.996,4.125c-3.593,0-3.997-1.411-3.997-4.125V35.392z M99.998,38.171c0,1.976,0.047,2.345,1.855,2.345
		c1.808,0,1.855-0.434,1.855-2.345v-2.735c0-2.085-0.144-2.28-1.855-2.389c-1.903,0-1.855,0.694-1.855,2.389V38.171z"/>
	<path fill="#023854" d="M113.32,38.084h-1.404c-0.071-0.325-0.118-0.586-0.118-0.781c0-0.326,0.047-0.608,0.118-0.934h2.475
		c0.166,0,0.523,0.043,1.07,0.108v5.428c-0.976,0.283-2.046,0.435-3.212,0.435c-3.14,0-4.258-1.021-4.258-4.104v-2.845
		c0-2.845,1.213-4.125,4.258-4.125c1,0,2.07,0.174,3.212,0.521c0,0.891-0.048,0.934-0.5,1.716c-0.928-0.282-1.831-0.413-2.759-0.413
		c-1.451,0-2.069,0.674-2.069,2.15v3.126c0,1.65,0.522,2.323,2.045,2.323c0.405,0,0.785-0.021,1.143-0.064V38.084z"/>
	<path fill="#023854" d="M117.601,31.375h3.141c2.664,0,3.973,0.304,4.091,3.626c0,1.563-0.451,2.605-1.332,3.127l1.285,3.864
		c-0.31,0.152-0.714,0.239-1.166,0.239c-0.404,0-0.737-0.043-0.999-0.13l-1.213-3.496h-1.665v3.518
		c-0.357,0.065-0.714,0.108-1.071,0.108c-0.309,0-0.666-0.043-1.07-0.108V31.375z M120.717,36.955c1.309,0,1.975-0.651,1.975-1.954
		c0-1.65-1.118-1.802-1.975-1.802h-0.975v3.756H120.717z"/>
	<path fill="#023854" d="M128.995,37.628v2.953h4.448c0.071,0.261,0.119,0.5,0.119,0.717c0,0.348-0.048,0.651-0.119,0.934h-6.59
		V31.375h6.59c0.071,0.325,0.119,0.607,0.119,0.934c0,0.412-0.024,0.717-0.072,0.891h-4.495v2.779h3.711
		c0.071,0.26,0.118,0.499,0.118,0.716c0,0.348-0.047,0.651-0.118,0.934H128.995z"/>
	<path fill="#023854" d="M138.772,40.689c1.332,0,1.927-0.238,1.927-1.715c0-1.521-5.353-1.021-5.353-4.582
		c0-2.279,1.214-3.126,4.163-3.126c0.999,0,1.998,0.174,2.998,0.542c-0.048,0.652-0.238,1.217-0.548,1.716
		c-0.856-0.282-1.665-0.435-2.402-0.435c-1.451,0-2.069,0.195-2.069,1.303c0,1.672,5.353,1.217,5.353,4.582
		c0,2.953-1.713,3.365-4.092,3.365c-1.57,0-2.736-0.348-3.521-1.042c0.023-0.608,0.309-1.129,0.832-1.542
		C136.94,40.386,137.844,40.689,138.772,40.689z"/>
	<path fill="#023854" d="M148.049,40.689c1.332,0,1.927-0.238,1.927-1.715c0-1.521-5.353-1.021-5.353-4.582
		c0-2.279,1.214-3.126,4.163-3.126c0.999,0,1.998,0.174,2.998,0.542c-0.048,0.652-0.238,1.217-0.548,1.716
		c-0.856-0.282-1.665-0.435-2.402-0.435c-1.451,0-2.069,0.195-2.069,1.303c0,1.672,5.353,1.217,5.353,4.582
		c0,2.953-1.713,3.365-4.092,3.365c-1.57,0-2.736-0.348-3.521-1.042c0.023-0.608,0.309-1.129,0.832-1.542
		C146.217,40.386,147.121,40.689,148.049,40.689z"/>
	<path fill="#023854" d="M154.02,35.392c0-2.845,0.5-4.125,3.997-4.125c3.496,0,3.996,1.28,3.996,4.125v2.823
		c0,2.714-0.404,4.125-3.996,4.125c-3.593,0-3.997-1.411-3.997-4.125V35.392z M156.161,38.171c0,1.976,0.047,2.345,1.855,2.345
		c1.808,0,1.855-0.434,1.855-2.345v-2.735c0-2.085-0.144-2.28-1.855-2.389c-1.903,0-1.855,0.694-1.855,2.389V38.171z"/>
</g>
<g id="Forma_2">
	<g>
		<polygon fill-rule="evenodd" clip-rule="evenodd" fill="#023854" points="111.701,14.09 108.575,15.369 108.859,16.221 
			112.127,15.226 		"/>
	</g>
</g>
<g id="Forma_1">
	<g>
		<path fill-rule="evenodd" clip-rule="evenodd" fill="#023854" d="M38.06,4.661v26.436c0,0,14.559-3.089,14.559-13.218
			C52.62,8.614,38.06,4.661,38.06,4.661z M1,27.792c0,14.685,17.868,22.47,17.868,22.47s-7.267-6.187-7.28-12.557
			c-0.014-5.014,7.991-15.2,20.516-15.2V4C21.679,4,1,13.107,1,27.792z"/>
	</g>
</g>
<g id="Forma_1_copiar">
	<g>
		<path fill-rule="evenodd" clip-rule="evenodd" fill="#366E90" d="M18.207,39.027c0,7.72,12.209,12.01,12.209,12.01l1.563-1.137
			l0.125-24.752C32.104,25.148,18.207,29.083,18.207,39.027z M51.627,6.313c0,0,7.267,6.187,7.28,12.557
			c0.014,5.014-8.15,15.257-20.675,15.257c0,0,0,10.676,0,15.774c0,0.02,3.468,2.402,3.491,2.416
			c10.948-1.579,27.773-10.287,27.773-23.533C69.495,14.098,51.627,6.313,51.627,6.313z"/>
	</g>
</g>
</svg>
