<?xml version="1.0" encoding="utf-8"?>
<!-- Generator: Adobe Illustrator 17.0.0, SVG Export Plug-In . SVG Version: 6.00 Build 0)  -->
<!DOCTYPE svg PUBLIC "-//W3C//DTD SVG 1.1//EN" "http://www.w3.org/Graphics/SVG/1.1/DTD/svg11.dtd">
<svg version="1.1" id="Camada_1" xmlns="http://www.w3.org/2000/svg" xmlns:xlink="http://www.w3.org/1999/xlink" x="0px" y="0px"
	 width="185.399px" height="39.833px" viewBox="0 0 185.399 39.833" enable-background="new 0 0 185.399 39.833"
	 xml:space="preserve">
<g id="Layer_2">
</g>
<g id="Layer_1">
	<g>
		<g>
			<g>
				<path fill="#094AB2" d="M29.119,3.488l9.766,11.569c-3.267,3.848-6.517,7.698-9.766,11.545
					c7.595,1.493,13.719-5.286,13.719-11.545c0-8.642-7.708-11.659-12.38-11.665C29.976,3.392,29.525,3.43,29.119,3.488z"/>
				<polygon fill="#094AB2" points="139.034,3.833 147.915,26.165 152.314,26.165 161.19,3.833 154.98,3.833 149.978,16.838 
					144.871,3.833 				"/>
				<rect x="132.557" y="3.833" fill="#094AB2" width="5.501" height="22.332"/>
				<polygon fill="#094AB2" points="116.479,3.833 116.479,8.703 121.073,8.703 121.073,26.165 127.101,26.165 127.101,8.703 
					131.638,8.703 131.638,3.833 				"/>
				<polygon fill="#094AB2" points="102.735,3.833 102.735,26.165 115.634,26.165 115.634,21.342 108.567,21.342 108.567,17.107 
					114.727,17.107 114.727,12.408 108.567,12.408 108.567,8.703 115.634,8.703 115.634,3.833 				"/>
				<path fill="#094AB2" d="M95.577,3.833v14.934c-0.452,1.326-0.934,2.168-2.892,2.654v5.152c5.046-0.194,8.797-3.438,8.826-7.806
					V3.833H95.577z"/>
				<path fill="#094AB2" d="M83.838,21.81h-3.15v-5.035h3.15C87.634,17.711,86.551,21.796,83.838,21.81L83.838,21.81z M80.688,8.219
					h3.15c1.735,0.949,1.735,3.256,0,4.19h-3.15V8.219L80.688,8.219z M87.588,14.409c4.763-3.57,2.049-9.687-2.243-10.577h-10.16
					V26.18h11.018C94.114,25.08,93.331,16.04,87.588,14.409z"/>
				<path fill="#094AB2" d="M170.652,21.51c-3.465,0-6.284-2.91-6.284-6.483c0-3.569,2.818-6.479,6.284-6.479
					c3.468,0,6.285,2.91,6.285,6.479C176.937,18.6,174.12,21.51,170.652,21.51L170.652,21.51z M170.682,3.392
					c-6.779,0-12.309,5.235-12.309,11.635c0,6.395,5.53,11.622,12.309,11.622c6.785,0,12.319-5.229,12.319-11.622
					C182.999,8.627,177.465,3.392,170.682,3.392z"/>
				<path fill="#094AB2" d="M62.215,21.674c-3.468,0-6.286-2.906-6.286-6.478c0-3.571,2.818-6.481,6.286-6.481
					c3.46,0,6.28,2.91,6.28,6.481S65.674,21.674,62.215,21.674L62.215,21.674z M62.243,3.564c-6.785,0-12.315,5.229-12.315,11.632
					c0,6.388,5.531,11.621,12.315,11.621c6.779,0,12.31-5.234,12.31-11.621C74.552,8.792,69.021,3.564,62.243,3.564z"/>
				<path fill="#094AB2" d="M121.064,33.258l1.501-0.145c0.089,0.505,0.272,0.873,0.552,1.111c0.272,0.237,0.648,0.354,1.118,0.354
					c0.496,0,0.871-0.105,1.125-0.312c0.253-0.214,0.38-0.459,0.38-0.739c0-0.184-0.056-0.335-0.165-0.465
					c-0.104-0.124-0.285-0.239-0.556-0.325c-0.173-0.069-0.59-0.181-1.235-0.341c-0.827-0.201-1.409-0.457-1.743-0.756
					c-0.47-0.421-0.705-0.935-0.705-1.537c0-0.392,0.111-0.755,0.333-1.097c0.222-0.338,0.541-0.597,0.955-0.773
					c0.416-0.177,0.919-0.267,1.509-0.267c0.959,0,1.681,0.21,2.167,0.632c0.482,0.426,0.739,0.981,0.765,1.686l-1.546,0.064
					c-0.064-0.389-0.207-0.672-0.427-0.843c-0.217-0.175-0.541-0.26-0.976-0.26c-0.452,0-0.801,0.091-1.056,0.276
					c-0.165,0.118-0.25,0.274-0.25,0.475c0,0.182,0.08,0.336,0.233,0.464c0.193,0.161,0.667,0.336,1.42,0.514
					c0.756,0.176,1.305,0.361,1.668,0.551c0.36,0.187,0.64,0.448,0.849,0.778c0.201,0.329,0.301,0.733,0.301,1.214
					c0.001,0.441-0.123,0.851-0.364,1.231c-0.247,0.385-0.589,0.673-1.031,0.855c-0.448,0.188-1.002,0.279-1.67,0.279
					c-0.967,0-1.712-0.221-2.23-0.669C121.472,34.765,121.166,34.114,121.064,33.258z"/>
				<path fill="#094AB2" d="M133.505,33.891c-0.398,0.445-0.901,0.666-1.517,0.666c-0.615,0-1.125-0.222-1.525-0.672
					c-0.399-0.447-0.602-1.103-0.602-1.967c0-0.88,0.196-1.538,0.586-1.976c0.389-0.435,0.904-0.656,1.54-0.656
					c0.639,0,1.148,0.215,1.535,0.646c0.382,0.434,0.574,1.088,0.574,1.963C134.095,32.782,133.901,33.445,133.505,33.891
					L133.505,33.891z M134.683,29.014c-0.679-0.701-1.586-1.051-2.71-1.051c-0.624,0-1.174,0.102-1.65,0.3
					c-0.357,0.156-0.689,0.382-0.988,0.693c-0.304,0.309-0.54,0.662-0.717,1.048c-0.228,0.53-0.349,1.181-0.349,1.963
					c0,1.212,0.338,2.174,1.011,2.869c0.669,0.691,1.577,1.04,2.712,1.04c1.124,0,2.023-0.348,2.69-1.043
					c0.673-0.702,1.01-1.665,1.01-2.901C135.693,30.683,135.357,29.714,134.683,29.014z"/>
				<path fill="#094AB2" d="M139.595,31.334h-1.141v-1.945h1.202c0.629,0,1.007,0.009,1.13,0.029
					c0.25,0.041,0.443,0.138,0.583,0.298c0.135,0.159,0.204,0.363,0.204,0.626c0,0.227-0.055,0.415-0.159,0.573
					c-0.103,0.151-0.246,0.261-0.433,0.321C140.798,31.298,140.334,31.334,139.595,31.334L139.595,31.334z M142.85,34.254
					c-0.366-0.596-0.659-1.009-0.876-1.242c-0.22-0.235-0.493-0.448-0.83-0.644c0.673-0.097,1.178-0.333,1.518-0.706
					c0.332-0.371,0.504-0.849,0.504-1.421c0-0.454-0.111-0.852-0.336-1.207c-0.223-0.351-0.516-0.597-0.889-0.734
					c-0.367-0.136-0.962-0.205-1.781-0.205h-3.252v7.652h1.547v-3.194h0.312c0.355,0,0.612,0.025,0.777,0.085
					c0.161,0.059,0.319,0.162,0.464,0.317c0.147,0.158,0.418,0.535,0.812,1.126l1.121,1.666h1.85L142.85,34.254z"/>
				<path fill="#094AB2" d="M149.544,33.891c-0.401,0.445-0.902,0.666-1.52,0.666c-0.617,0-1.124-0.222-1.525-0.672
					c-0.4-0.447-0.6-1.103-0.6-1.967c0-0.88,0.195-1.538,0.585-1.976c0.39-0.435,0.902-0.656,1.54-0.656
					c0.635,0,1.146,0.215,1.532,0.646c0.382,0.434,0.577,1.088,0.577,1.963C150.132,32.782,149.935,33.445,149.544,33.891
					L149.544,33.891z M150.716,29.014c-0.679-0.701-1.581-1.051-2.705-1.051c-0.624,0-1.175,0.102-1.654,0.3
					c-0.355,0.156-0.686,0.382-0.988,0.693c-0.3,0.309-0.537,0.662-0.711,1.048c-0.232,0.53-0.347,1.181-0.347,1.963
					c0,1.212,0.333,2.174,1.003,2.869c0.671,0.691,1.576,1.04,2.717,1.04c1.124,0,2.021-0.348,2.692-1.043
					c0.674-0.702,1.008-1.665,1.008-2.901C151.73,30.683,151.391,29.714,150.716,29.014z"/>
				<path fill="#094AB2" d="M157.837,32.937l1.495,0.47c-0.228,0.836-0.612,1.459-1.146,1.866c-0.532,0.4-1.21,0.602-2.031,0.602
					c-1.018,0-1.855-0.348-2.505-1.04c-0.656-0.694-0.987-1.645-0.987-2.846c0-1.275,0.335-2.263,0.989-2.97
					c0.659-0.703,1.523-1.058,2.596-1.058c0.936,0,1.696,0.279,2.281,0.832c0.348,0.33,0.612,0.798,0.784,1.411l-1.531,0.364
					c-0.091-0.399-0.276-0.713-0.566-0.938c-0.288-0.232-0.639-0.345-1.045-0.345c-0.565,0-1.028,0.201-1.382,0.613
					c-0.352,0.401-0.529,1.066-0.529,1.976c0,0.968,0.173,1.655,0.52,2.065c0.347,0.412,0.8,0.617,1.36,0.617
					c0.409,0,0.762-0.13,1.058-0.391C157.492,33.909,157.706,33.491,157.837,32.937z"/>
				<path fill="#094AB2" d="M162.626,32.718l1.032-2.839l1.056,2.839H162.626L162.626,32.718z M164.493,28.095h-1.637l-2.976,7.652
					h1.638l0.632-1.74h3.055l0.672,1.74h1.681L164.493,28.095z"/>
				<path fill="#094AB2" d="M172.976,34.107c-0.144,0.162-0.328,0.265-0.558,0.305c-0.152,0.031-0.508,0.05-1.063,0.05h-1.43v-2.046
					h1.248c0.701,0,1.158,0.032,1.371,0.105c0.21,0.075,0.369,0.192,0.484,0.348c0.105,0.162,0.168,0.356,0.168,0.586
					C173.197,33.728,173.119,33.945,172.976,34.107L172.976,34.107z M169.925,29.371h0.889c0.727,0,1.169,0.006,1.319,0.025
					c0.261,0.028,0.452,0.123,0.582,0.265c0.133,0.151,0.194,0.344,0.194,0.58c0.002,0.246-0.069,0.448-0.227,0.597
					c-0.15,0.154-0.357,0.239-0.619,0.273c-0.148,0.016-0.521,0.027-1.125,0.027h-1.012L169.925,29.371L169.925,29.371z
					 M174.416,32.376c-0.248-0.325-0.611-0.562-1.077-0.694c0.333-0.152,0.591-0.376,0.789-0.675
					c0.192-0.299,0.289-0.624,0.289-0.982c0-0.334-0.081-0.632-0.234-0.899c-0.157-0.268-0.351-0.481-0.589-0.638
					c-0.236-0.162-0.502-0.267-0.796-0.315c-0.297-0.054-0.751-0.078-1.357-0.078h-3.063v7.652h2.61
					c0.986-0.005,1.606-0.023,1.862-0.055c0.409-0.041,0.758-0.163,1.038-0.36c0.281-0.195,0.499-0.458,0.661-0.787
					c0.161-0.33,0.244-0.672,0.244-1.018C174.792,33.089,174.666,32.703,174.416,32.376z"/>
				<path fill="#094AB2" d="M178.061,32.718l1.032-2.839l1.059,2.839H178.061L178.061,32.718z M179.935,28.095h-1.638l-2.978,7.652
					h1.635l0.633-1.74h3.06l0.67,1.74H183L179.935,28.095z"/>
				<path fill="#094AB2" d="M25.431,21.027c-2.405,0-4.483-1.439-5.418-3.495l2.151-2.573l-2.115-2.381
					c0.95-2.024,3.006-3.426,5.383-3.426c3.256,0,5.931,2.67,5.931,5.947C31.361,18.356,28.686,21.027,25.431,21.027L25.431,21.027z
					 M13.502,18.74c0.796-1.043,1.271-2.343,1.271-3.745c0-1.162-0.325-2.255-0.886-3.188l2.82,3.249L13.502,18.74L13.502,18.74z
					 M24.682,5.244c-3.192,2.317-4.364,4.542-4.876,7.064l-7.802-8.82H6.678l5.788,6.679c-1.07-0.868-2.427-1.394-3.901-1.394
					c-3.424,0-6.22,2.801-6.22,6.224c0,3.411,2.797,6.205,6.22,6.205c1.718,0,3.284-0.708,4.41-1.849l-6.296,7.25h5.325l7.77-8.78
					c0.611,2.616,2.13,5.348,5.026,7.13l8.654-9.895L24.682,5.244z"/>
			</g>
		</g>
	</g>
</g>
</svg>
