<?xml version="1.0" encoding="utf-8"?>
<!-- Generator: Adobe Illustrator 17.0.0, SVG Export Plug-In . SVG Version: 6.00 Build 0)  -->
<!DOCTYPE svg PUBLIC "-//W3C//DTD SVG 1.1//EN" "http://www.w3.org/Graphics/SVG/1.1/DTD/svg11.dtd">
<svg version="1.1" id="Camada_1" xmlns="http://www.w3.org/2000/svg" xmlns:xlink="http://www.w3.org/1999/xlink" x="0px" y="0px"
	 width="245.25px" height="39.833px" viewBox="0 0 245.25 39.833" enable-background="new 0 0 245.25 39.833" xml:space="preserve">
<g id="Layer_2">
</g>
<g id="Layer_1">
	<g>
		<g>
			<g>
				<path fill="#094AB2" d="M37.878,4.519l12.961,15.354C46.504,24.98,42.19,30.09,37.878,35.195
					c10.08,1.981,18.207-7.015,18.207-15.322c0-11.469-10.23-15.473-16.43-15.481C39.016,4.392,38.417,4.442,37.878,4.519z"/>
				<polygon fill="#094AB2" points="183.753,4.977 195.54,34.615 201.378,34.615 213.158,4.977 204.916,4.977 198.278,22.237 
					191.5,4.977 				"/>
				<rect x="175.157" y="4.977" fill="#094AB2" width="7.301" height="29.638"/>
				<polygon fill="#094AB2" points="153.819,4.977 153.819,11.441 159.916,11.441 159.916,34.615 167.916,34.615 167.916,11.441 
					173.938,11.441 173.938,4.977 				"/>
				<polygon fill="#094AB2" points="135.579,4.977 135.579,34.615 152.698,34.615 152.698,28.215 143.319,28.215 143.319,22.594 
					151.494,22.594 151.494,16.358 143.319,16.358 143.319,11.441 152.698,11.441 152.698,4.977 				"/>
				<path fill="#094AB2" d="M126.079,4.977v19.82c-0.6,1.76-1.24,2.877-3.838,3.522v6.838c6.697-0.257,11.675-4.563,11.714-10.36
					V4.977H126.079z"/>
				<path fill="#094AB2" d="M110.499,28.836h-4.181v-6.682h4.181C115.537,23.396,114.1,28.817,110.499,28.836L110.499,28.836z
					 M106.319,10.798h4.181c2.303,1.259,2.303,4.321,0,5.561h-4.181V10.798L106.319,10.798z M115.476,19.013
					c6.321-4.738,2.719-12.856-2.977-14.037H99.015v29.659h14.623C124.137,33.175,123.098,21.178,115.476,19.013z"/>
				<path fill="#094AB2" d="M225.715,28.438c-4.599,0-8.34-3.862-8.34-8.604c0-4.737,3.74-8.599,8.34-8.599
					c4.603,0,8.341,3.862,8.341,8.599C234.057,24.575,230.318,28.438,225.715,28.438L225.715,28.438z M225.755,4.392
					c-8.997,0-16.336,6.948-16.336,15.442c0,8.487,7.339,15.424,16.336,15.424c9.005,0,16.349-6.94,16.349-15.424
					C242.102,11.34,234.757,4.392,225.755,4.392z"/>
				<path fill="#094AB2" d="M81.802,28.655c-4.603,0-8.343-3.857-8.343-8.597c0-4.739,3.74-8.601,8.343-8.601
					c4.592,0,8.335,3.862,8.335,8.601S86.393,28.655,81.802,28.655L81.802,28.655z M81.839,4.62c-9.005,0-16.344,6.94-16.344,15.438
					c0,8.478,7.341,15.423,16.344,15.423c8.997,0,16.337-6.946,16.337-15.423C98.175,11.559,90.835,4.62,81.839,4.62z"/>
				<path fill="#094AB2" d="M32.984,27.796c-3.192,0-5.95-1.91-7.191-4.638l2.855-3.415l-2.807-3.16
					c1.261-2.686,3.989-4.547,7.144-4.547c4.321,0,7.871,3.544,7.871,7.893C40.854,24.252,37.304,27.796,32.984,27.796
					L32.984,27.796z M17.152,24.761c1.056-1.384,1.687-3.11,1.687-4.97c0-1.542-0.431-2.993-1.176-4.231l3.743,4.312L17.152,24.761
					L17.152,24.761z M31.99,6.85c-4.236,3.075-5.792,6.028-6.471,9.375L15.164,4.519H8.096l7.682,8.864
					c-1.42-1.152-3.221-1.85-5.177-1.85c-4.544,0-8.255,3.717-8.255,8.26c0,4.527,3.712,8.235,8.255,8.235
					c2.28,0,4.358-0.94,5.853-2.454l-8.356,9.622h7.067l10.312-11.652c0.811,3.472,2.827,7.098,6.67,9.463l11.485-13.132L31.99,6.85
					z"/>
			</g>
		</g>
	</g>
</g>
</svg>
