<?xml version="1.0" encoding="utf-8"?>
<!-- Generator: Adobe Illustrator 17.0.0, SVG Export Plug-In . SVG Version: 6.00 Build 0)  -->
<!DOCTYPE svg PUBLIC "-//W3C//DTD SVG 1.1//EN" "http://www.w3.org/Graphics/SVG/1.1/DTD/svg11.dtd">
<svg version="1.1" id="Camada_1" xmlns="http://www.w3.org/2000/svg" xmlns:xlink="http://www.w3.org/1999/xlink" x="0px" y="0px"
	 width="122.427px" height="119px" viewBox="0 0 122.427 119" enable-background="new 0 0 122.427 119" xml:space="preserve">
<path fill="#FFFFFF" d="M17.784,84.207c-2.829,0-7.862,1.572-7.862,1.572v5.391c0,0,1.876-1.797,6.514-1.797
	s4.268,2.696,4.268,2.696s-0.792-0.449-4.942-0.449c-6.225,0-8.312,4.259-8.312,7.188s3.588,5.841,7.188,5.841
	s5.841-3.37,5.841-3.37v2.696l8.985-0.225c0,0,0-3.383,0-11.681S18.969,84.207,17.784,84.207z M18.682,99.033
	c-2.258,0.915-3.708-2.127-1.572-2.921c2.136-0.793,3.594-0.225,3.594-0.225S20.94,98.117,18.682,99.033z"/>
<path fill="#FFFFFF" d="M31.711,104.085l9.659,0.225V92.404c0,0-0.239-1.348,1.348-1.348c1.587,0,1.348,1.348,1.348,1.348
	l0.225,11.906h9.21V89.259c0,0-0.961-4.717-6.514-4.717c-4.577,0-6.29,3.594-6.29,3.594v-2.92h-8.986V104.085z"/>
<path fill="#FFFFFF" d="M70.348,85.105v3.37c0,0-2.687-3.878-6.29-4.043c-3.602-0.166-8.312,2.325-8.312,10.109
	s5.04,9.21,8.312,9.21c3.272,0,6.29-3.37,6.29-3.37s0.687,5.572-6.29,5.841c-1.687,0.217-6.964-1.797-6.964-1.797v6.065
	c0,0,3.523,0.985,4.268,1.123c0.745,0.138,4.934,0.745,8.536,0c3.602-0.745,8.761-2.358,8.761-8.536c0-4.317,0-17.971,0-17.971
	h-8.311V85.105z M67.653,97.91c0,0-2.022,0.369-2.022-3.819s2.022-3.594,2.022-3.594s2.022-0.755,2.022,3.594
	S67.653,97.91,67.653,97.91z"/>
<path fill="#FFFFFF" d="M105.391,84.207c-13.033,0-12.13,10.558-12.13,10.558s-0.806,9.884,12.13,9.884
	c12.936,0,11.681-9.659,11.681-9.659S118.424,84.207,105.391,84.207z M105.167,99.033c-0.581,0-2.022-0.815-2.022-4.493
	c0-3.677,1.666-4.493,2.246-4.493s2.022,0.751,2.022,4.493C107.413,98.282,105.748,99.033,105.167,99.033z"/>
<rect x="81.937" y="77.468" fill="#FFFFFF" width="8.985" height="26.507"/>
<path fill="#FFFFFF" d="M85.482,49.091l0.789-1.58l0.789-0.338l0.789-0.451h0.338l0.451,0.451h0.676l0.451-0.451l1.127-0.789
	l1.24-0.338l0.789-0.451l0.789-0.338l0.789-1.58l0.789-1.58l1.127-1.127l0.338-0.451l0.451,0.451l0.338,0.789l0.451,1.58
	l0.338,1.127l0.451-1.58l0.338-3.158v-0.338l-0.338-1.58l-0.451-1.58l-0.789-1.918l-0.789,1.918l-0.338,2.369l-0.789-0.451
	l-0.789-0.789l-0.338-0.676l-1.24-0.451l-2.369-0.789h-0.789l-0.789-1.127l-0.338-0.451v-0.338l0.789-0.451l1.127-0.338l0.789-0.451
	l1.24-0.789l1.58-0.338l3.045,0.338h0.451v-0.338l-0.451-0.789l-1.127-1.127l-1.127-0.789l-3.609-1.24l-1.918-0.789l-1.918-0.789
	l-2.369-1.127l-1.58-1.58l-0.451-0.789l-0.338-0.338l0.338-1.58h-0.789l-1.128-0.45l-0.338-0.789v-0.338l-1.24-0.451l-0.789-0.338
	l-1.58-1.24l-0.338-0.338l-0.451-0.451l-1.127-0.338h-1.58h-1.127h-1.24l-0.789-0.338l0.789,1.127h-1.917h-1.58l-1.918,0.338
	l-1.58,0.451h-2.369l-3.496-0.789l-3.609-1.58h-1.127l-1.58,0.451l-3.158,1.465l-1.58,0.789h-0.338l-3.496,1.58l0.338,0.451
	l0.789,0.338l-1.127,1.24l-3.947,3.045l-0.338,1.58l-0.789,1.58v0.789l-2.031,3.947l-2.369,3.947l1.58-0.789l-0.789,1.918
	l-0.338,1.127l-0.789,2.031v1.58v0.338v2.369v0.789v1.918l0.338,2.031l-0.338,1.58l-0.451,1.918l-1.127,3.158l3.496-1.24
	l-1.918,2.031l-1.24,1.127l-1.918,1.918l-0.789,1.58l-0.789,2.369v3.158l0.451,3.158l0.789,2.707l0.789,2.707l1.127,2.369
	l1.58,2.707l0.456,0.683h1.766l-0.641-1.47l-1.58-3.834v-2.369l-0.451-1.918l0.451-2.031l0.338-2.369l0.789-1.127l0.789-0.789
	l1.24-0.789l0.789-1.127l-2.369,1.127l-2.369,1.58v-1.58l0.338-1.58l2.031-2.707l0.338-1.24v-1.127l0.451-0.789l0.338-0.789
	l0.451-0.789v-0.338v-1.24v-0.338l-0.451-0.451l-0.789-0.789v-0.337l0.451-0.451l0.789-1.467l0.789-2.031l0.789-3.496l0.338-2.369
	v-0.789l-0.789-0.789l-0.338-0.338v-0.451v-1.58l0.789-2.256l0.789-3.158l1.918-2.369l2.707-3.158l1.24-1.58l1.127-1.58h-2.369
	l0.789-1.467l1.58-0.789l1.127-0.789l1.58-0.791l0.789-1.24l1.237-0.789h1.58l0.789-0.338l0.676-0.789v1.127v0.46h-0.676
	l-0.451,0.789l4.285,1.127l4.738,0.789l-0.789,1.24l-0.451,0.676l0.451,0.789l0.338,0.789v0.451l-0.338,1.127l-1.919,2.03
	l-1.24,1.465l-1.127,2.369v0.451v0.34l0.338,0.451h2.031v0.789l-0.451,0.789l-1.58,1.58l-0.338,1.127l-0.451,1.127l-0.338,2.369
	l-0.789,2.707l-0.451,1.24v1.127l0.451,2.031l0.789,0.789l0.338,0.338l0.451-0.338l0.349-0.793l0.451-0.789l-0.451-2.369l0.451-1.24
	l0.338-0.676l0.451-1.24l1.127-0.789l1.58-1.127l1.127-1.58l1.24-1.24l0.338,0.451l0.789,0.338l-0.789,0.789l-0.338,1.58
	l-0.451,2.82v2.707v1.918l0.451,1.24l1.127-0.789l0.451-1.58l0.789-1.24l1.127-0.789l1.127-0.338l0.451-0.451l0.338-0.338
	l0.789-1.58l0.789-0.338l0.451,0.338v0.451l0.338,0.789l0.451,0.338l1.58,0.789h1.465l1.58-0.451l1.24-0.338h0.338l0.457,0.791
	v0.338l-0.451,0.451l-0.789,1.127l-1.127,1.24l-0.789,1.58V49.9v1.923v1.58l0.338,0.789l0.789,0.789l1.24,0.789l0.789,0.451
	l0.789-0.451l1.127-1.127l1.24-2.031l1.127-1.127v1.58l-0.451,1.58v1.58v0.789l0.451,0.676l0.789,0.451h1.127h1.24h0.338
	l0.789-0.451l0.789-0.338h1.582h1.127h0.451l0.789,0.789l0.338,0.338v0.789l-0.338,0.789l-0.451,0.451h-0.338l-3.158,0.338
	l-2.707,0.789l0.338,0.451l0.789,0.338h1.24l0.789,0.451h0.338l0.338,0.789v0.789v1.127l0.451,1.918l-0.451,1.24v0.338l-0.676,0.451
	v1.127l-0.451,0.789l-0.789,0.338h-1.58v1.239h3.958v-0.015l0.789-0.789l0.338-1.127l0.451-1.58v-1.58l-0.451-2.031l0.451-1.127
	l0.338-1.127l0.789-1.24l1.24-1.127l1.58-1.24l1.467-1.127L98,57.33l0.789-1.58v-1.58l-0.451-1.58L98,50.672v-2.37v-0.338
	l-0.451,0.338h-1.127l-1.918,0.451l-1.58,0.789l-1.24,1.127l-0.789,1.918l-0.789,1.24l-1.127,0.789l-2.369,1.58h-0.789l-0.338-0.451
	l-0.451-1.127l-0.338-1.58v-0.789L85.482,49.091z M72.503,29.145h-1.58l-1.918,0.338v-0.676l0.338-0.789l1.24-1.24l1.127-1.127
	l1.58-1.24l0.455,0.446l0.338,0.338l1.127,1.58l0.789,1.58l0.451,1.127L72.503,29.145z M77.575,22.151L76.448,21.7l-0.789-0.789
	l-0.789-0.338l-1.127-0.451l-2.031-0.789l0.451-1.127l0.789-0.789h1.127h1.127l1.242,0.789l0.338,0.338v0.453l-0.002,0.787
	l0.451,0.789l1.58,1.127L77.575,22.151z"/>
<path fill="#FFFFFF" d="M61.282,4C30.098,4,4.818,29.28,4.818,60.464c0,7.516,1.481,14.681,4.149,21.238
	c0.919-0.281,4.664-1.382,7.688-1.647C8.546,58.82,14.467,34.852,35.694,20.683l-1.118,2.19l-0.813,3.056l-0.316,0.212l-0.623,1.12
	C17.507,42.171,13.416,59.51,20.463,79.18L18.3,79.994l0.136-0.001c3.739,0,6.897,0.743,9.354,2.092V80.67h1.953
	c-1.474-2.695-2.637-5.704-3.401-9.042l-3.947-3.158l2.82-5.527l1.127-2.369v-0.789h-1.918l3.496-4.625l1.127-1.58L29.836,52
	l0.451-1.58v-1.127v-0.789l-0.451-1.58v-1.58v-0.789v-1.58v-0.338v-0.789l0.451-1.58l-2.369-1.24l2.707-4.285l0.789-1.127
	l1.918-3.158l1.58-3.496V26.51l0.789-2.369l1.24-1.918l0.331-0.331l0.062-0.144c0.004-0.004,0.018-0.031,0.022-0.038l1.162-2.645
	l1.472-1.578l2.031-1.58l3.947-1.918l1.465-0.789l2.369-0.789l2.369-0.789l1.916-0.338h1.24l1.127,0.338l2.82,1.24l2.963,0.769
	l0.016-0.016l-2.188-1.204l7.783-1.127l1.127-0.451l1.242,0.451l1.58,0.338l0.789,0.451h0.789h3.045L78,12.411l1.58,1.24
	l0.451,0.338l0.789,0.789h0.338l1.127,0.451l0.789,0.676l0.789,0.789l5.076,0.789l-1.916,3.613l1.918,1.58l3.609,1.127l3.834,1.58
	l2.031,1.127l1.58,1.58l0.789,1.58l0.338,1.58v1.58v0.789l0.451,1.918l0.338,1.58l0.404,2.128l0.024,0.075v0.049l0.022,0.117v0.338
	l-0.451,3.609l-0.338,1.467l-0.451,2.031v0.338v0.789v0.789v1.573h-0.002v0.451l0.789,1.918v1.918v2.369l-0.338,0.451l-0.789,2.256
	l-1.24,1.58l-1.918,1.58l-1.918,1.58l-0.451,1.127v3.158c-0.117,1.383-0.319,2.712-0.582,4h0.422v9.997
	c2.691-1.86,6.162-2.809,10.377-2.809c3.16,0,5.878,0.556,8.16,1.624c2.646-6.535,4.114-13.672,4.114-21.156
	C117.746,29.28,92.466,4,61.282,4z M106.142,79.018l-3.604-1.463c3.783-9.127,4.751-19.447,1.562-31.51l0.639-2.731l0.449-1.352
	l0.422-2.879C110.906,51.448,111.529,66.195,106.142,79.018z"/>
<path fill="#FFFFFF" d="M83.239,106.138c-1.641,0-3.393,0.615-3.393,2.032s2.293,2.461,2.293,2.461s1.734,0.652,1.436,1.119
	c-0.298,0.466-3.729-0.373-3.729-0.373v1.92c0,0,1.678,0.615,3.001,0.615s2.424-0.559,2.703-0.932s1.436-1.268-0.317-3.095
	c-0.429-0.41-2.61-1.212-2.61-1.566c0-0.354,3.542,0.093,3.542,0.093v-2.181L83.239,106.138z"/>
<path fill="#FFFFFF" d="M100.3,107.965v1.864h1.025c0,0,0,2.125,0,2.89c0,0.764,0.839,1.38,1.79,1.38s1.902-0.671,1.902-0.671
	l0.006-1.678c0,0-1.55,0.63-1.554,0.279c-0.003-0.351-0.021-2.233-0.021-2.233l0.878-0.022l0.019-1.808h-0.858l0.093-1.752h-1.137
	c0,0-0.896,0.845-0.988,1.044c-0.092,0.199-0.037,0.671-0.037,0.671L100.3,107.965z"/>
<path fill="#FFFFFF" d="M115.391,107.783c-1.311,0-2.712,0.492-2.712,1.624c0,1.133,1.833,1.967,1.833,1.967
	s1.386,0.522,1.148,0.894c-0.238,0.373-2.981-0.298-2.981-0.298v1.535c0,0,1.341,0.492,2.399,0.492c1.058,0,1.937-0.447,2.161-0.745
	c0.224-0.298,1.148-1.013-0.253-2.474c-0.343-0.328-2.086-0.969-2.086-1.252c0-0.283,2.832,0.075,2.832,0.075v-1.744
	L115.391,107.783z"/>
<path fill="#FFFFFF" d="M89.556,107.806c-0.854,0-2.373,0.474-2.373,0.474v1.627c0,0,0.566-0.542,1.966-0.542
	s1.288,0.814,1.288,0.814s-0.239-0.136-1.492-0.136c-1.879,0-2.509,1.285-2.509,2.17c0,0.884,1.083,1.763,2.17,1.763
	c1.087,0,1.763-1.017,1.763-1.017v0.814l2.712-0.068c0,0,0-1.021,0-3.526S89.914,107.806,89.556,107.806z M89.828,112.281
	c-0.682,0.276-1.119-0.642-0.474-0.881c0.645-0.239,1.084-0.068,1.084-0.068S90.509,112.004,89.828,112.281z"/>
<path fill="#FFFFFF" d="M93.456,113.806l2.915,0.068v-3.594c0,0-0.072-0.407,0.407-0.407c0.479,0,0.407,0.407,0.407,0.407
	l0.068,3.594h2.78v-4.543c0,0-0.29-1.424-1.966-1.424c-1.381,0-1.898,1.085-1.898,1.085v-0.881h-2.712L93.456,113.806
	L93.456,113.806z"/>
<path fill="#FFFFFF" d="M108.855,107.864c-3.859,0-3.592,3.126-3.592,3.126s-0.239,2.927,3.592,2.927s3.459-2.86,3.459-2.86
	S112.714,107.864,108.855,107.864z M108.789,112.254c-0.172,0-0.599-0.241-0.599-1.33c0-1.089,0.493-1.33,0.665-1.33
	s0.599,0.222,0.599,1.33C109.454,112.032,108.961,112.254,108.789,112.254z"/>
</svg>
