<?xml version="1.0" encoding="utf-8"?>
<!-- Generator: Adobe Illustrator 17.0.0, SVG Export Plug-In . SVG Version: 6.00 Build 0)  -->
<!DOCTYPE svg PUBLIC "-//W3C//DTD SVG 1.1//EN" "http://www.w3.org/Graphics/SVG/1.1/DTD/svg11.dtd">
<svg version="1.1" id="Camada_1" xmlns="http://www.w3.org/2000/svg" xmlns:xlink="http://www.w3.org/1999/xlink" x="0px" y="0px"
	 width="64.388px" height="25.662px" viewBox="0 0 64.388 25.662" enable-background="new 0 0 64.388 25.662" xml:space="preserve">
<g>
	<path fill="#FFFFFF" d="M22.523,17.574c-0.361-0.309-0.656-0.33-0.886-0.063c-0.102,0.118-0.131,0.251-0.087,0.395
		c0.044,0.145,0.15,0.288,0.317,0.432c0.161,0.138,0.322,0.221,0.484,0.251c0.162,0.029,0.293-0.014,0.391-0.13
		c0.112-0.131,0.148-0.272,0.108-0.426C22.811,17.88,22.702,17.727,22.523,17.574z"/>
	<path fill="#FFFFFF" d="M13.383,21.908c-0.023-0.001-0.086,0-0.188,0.004l-0.065,1.378c0.056,0.011,0.125,0.019,0.209,0.023
		c0.176,0.008,0.318-0.051,0.425-0.179c0.107-0.127,0.166-0.308,0.177-0.544C13.96,22.154,13.775,21.927,13.383,21.908z"/>
	<polygon fill="#FFFFFF" points="11.048,22.58 11.579,22.713 11.522,21.861 	"/>
</g>
<path fill="#FFFFFF" d="M32.683,13.17c0,0.862,0.203,2.618-1.094,2.618c-0.719,0-0.812-0.69-0.812-1.254
	C30.777,13.123,31.589,13.217,32.683,13.17L32.683,13.17L32.683,13.17L32.683,13.17z M59.696,15.741
	c-0.812,0-1.016-0.517-1.016-2.932c0-1.646,0.078-2.477,1.016-2.477c0.937,0,1.015,0.831,1.015,2.477
	C60.712,15.224,60.509,15.741,59.696,15.741L59.696,15.741L59.696,15.741L59.696,15.741z M59.696,17.152
	c2.843,0,3.218-1.74,3.218-4.217c0-2.164-0.313-4.014-3.218-4.014c-2.906,0-3.218,1.85-3.218,4.014
	C56.478,15.412,56.853,17.152,59.696,17.152L59.696,17.152L59.696,17.152L59.696,17.152z M52.408,5.675v11.32h2.203V5.675H52.408
	L52.408,5.675L52.408,5.675z M46.502,13.28c0-2.415,0.14-2.994,0.969-2.994c0.812,0,0.89,0.988,0.89,2.728
	c0,1.677-0.109,2.509-0.906,2.509C46.393,15.522,46.502,14.017,46.502,13.28L46.502,13.28L46.502,13.28L46.502,13.28z M48.47,9.078
	v0.925h-0.031l0,0c-0.313-0.737-0.984-1.082-1.766-1.082c-2.296,0-2.328,2.211-2.328,3.951c0,1.787-0.109,4.014,2.312,4.014
	c0.719,0,1.343-0.314,1.672-0.925l0,0h0.031v1.521l0,0c0,0.8-0.265,1.317-0.812,1.317c-0.344,0-0.593-0.11-0.734-0.314
	c-0.14-0.188-0.188-0.47-0.188-0.8l0,0H44.47l0,0c0.047,1.928,1.453,2.352,3.093,2.352c3.031,0,2.999-2.164,2.999-2.712l0,0V9.078
	H48.47L48.47,9.078L48.47,9.078z M38.897,9.078h-2.203v7.918h2.203v-5.456l0,0c0-0.705,0.125-1.254,0.828-1.254
	c0.703,0,0.828,0.549,0.828,1.254l0,0v5.456h2.203v-6.35l0,0c0-1.098-0.922-1.724-1.968-1.724c-0.406,0-0.766,0.063-1.078,0.22
	c-0.297,0.141-0.562,0.376-0.781,0.737l0,0h-0.031V9.078L38.897,9.078L38.897,9.078z M34.838,11.571c0-1.443-0.359-2.65-3.156-2.65
	c-0.844,0-1.562,0.141-2.062,0.517c-0.516,0.361-0.812,0.972-0.812,1.928l0,0h2.156l0,0c0-0.627,0.063-1.207,0.828-1.207
	c0.797,0,0.891,0.486,0.891,1.16l0,0v0.611l0,0c-2.046-0.031-4.062,0.078-4.062,2.697c0,1.38,0.563,2.524,2.094,2.524
	c0.953,0,1.593-0.392,2.062-1.207l0,0h0.031l0.094,1.051h2.046l0,0c-0.047-0.486-0.109-0.988-0.109-1.474l0,0L34.838,11.571
	L34.838,11.571z"/>
<g>
	<path fill="#FFFFFF" d="M21.618,7.853L21.45,7.447l-0.163,0.406l-0.075,0.499l-0.163-0.093l-0.168-0.168l-0.07-0.14L20.55,7.853
		l-0.504-0.168h-0.163l-0.168-0.238l-0.07-0.093v-0.07l0.163-0.098l0.238-0.07l0.168-0.093l0.261-0.168l0.336-0.07l0.644,0.07h0.093
		v-0.07l-0.093-0.168l-0.238-0.238L20.979,6.21l-0.765-0.261l-0.406-0.168l-0.401-0.163L18.903,5.38l-0.331-0.336l-0.093-0.163
		l-0.075-0.075l0.075-0.331H18.31l-0.238-0.098l-0.07-0.163V4.139l-0.266-0.093l-0.163-0.07l-0.336-0.261l-0.07-0.075l-0.093-0.093
		l-0.238-0.07H16.5h-0.238h-0.261l-0.168-0.075l0.168,0.238h-0.406h-0.331l-0.406,0.075l-0.336,0.093h-0.499L13.285,3.64
		l-0.761-0.331h-0.238l-0.336,0.093L11.284,3.71l-0.331,0.168h-0.075l-0.737,0.336l0.075,0.093l0.163,0.07l-0.238,0.261L9.31,5.282
		L9.235,5.618L9.072,5.949v0.168L8.643,6.952l-0.499,0.83l0.331-0.168L8.307,8.021l-0.07,0.238L8.069,8.688v0.336v0.07v0.499v0.168
		v0.406l0.075,0.429l-0.075,0.331l-0.093,0.406l-0.238,0.667l0.737-0.261l-0.406,0.429l-0.261,0.238l-0.406,0.401l-0.163,0.336
		L7.07,13.643v0.667l0.093,0.667l0.168,0.569L7.5,16.121l0.238,0.499l0.331,0.574l0.336,0.499l0.331,0.429l0.075-0.168l-0.406-0.928
		l-0.336-0.812v-0.499l-0.093-0.406l0.093-0.425l0.075-0.504l0.163-0.238l0.168-0.163l0.261-0.168l0.168-0.238l-0.499,0.238
		l-0.504,0.331v-0.331l0.075-0.336l0.429-0.569l0.07-0.261v-0.238l0.093-0.168l0.075-0.168l0.093-0.163v-0.075v-0.261v-0.07
		l-0.093-0.093L8.475,11.24v-0.07l0.093-0.098l0.168-0.308l0.168-0.429l0.163-0.737l0.075-0.499V8.931L8.974,8.763l-0.07-0.07V8.595
		V8.263l0.163-0.476L9.235,7.12l0.406-0.499l0.569-0.667l0.266-0.336l0.238-0.331h-0.504l0.168-0.313l0.336-0.163l0.238-0.168
		l0.331-0.168l0.168-0.261l0.261-0.168h0.331l0.168-0.07l0.145-0.168v0.238v0.098h-0.145l-0.093,0.168l0.9,0.238l1.003,0.168
		l-0.168,0.261l-0.093,0.14l0.093,0.168l0.07,0.168v0.093l-0.07,0.238l-0.406,0.429l-0.261,0.308l-0.238,0.504V7.12v0.07
		l0.075,0.098h0.425v0.163l-0.093,0.168l-0.331,0.336l-0.075,0.238l-0.093,0.238l-0.07,0.499L12.618,9.5L12.52,9.761v0.238
		l0.098,0.429l0.168,0.168l0.07,0.07l0.093-0.07l0.075-0.168l0.093-0.168l-0.093-0.499L13.117,9.5l0.075-0.14l0.093-0.266
		l0.238-0.163l0.336-0.238l0.238-0.336l0.261-0.261l0.07,0.093l0.168,0.075l-0.168,0.163l-0.07,0.336L14.26,9.36v0.569v0.406
		l0.098,0.261l0.238-0.168l0.093-0.331l0.168-0.261l0.238-0.168l0.238-0.07L15.427,9.5l0.075-0.07l0.163-0.336l0.168-0.07
		l0.093,0.07v0.098l0.075,0.168l0.093,0.07l0.336,0.168h0.308L17.069,9.5l0.261-0.07h0.075l0.093,0.168v0.07l-0.093,0.093
		l-0.168,0.238l-0.238,0.261l-0.163,0.336v0.238v0.406v0.331l0.07,0.168l0.168,0.168l0.261,0.168l0.163,0.093l0.168-0.093
		l0.238-0.238l0.261-0.429l0.238-0.238v0.331l-0.093,0.336v0.331v0.168l0.093,0.14l0.168,0.098h0.238h0.261h0.07l0.168-0.098
		l0.168-0.07h0.331h0.238h0.098l0.163,0.168l0.075,0.07v0.168l-0.075,0.168l-0.093,0.093h-0.07l-0.667,0.07l-0.574,0.168
		l0.075,0.093l0.163,0.075h0.261l0.168,0.093h0.07l0.075,0.168v0.168v0.238l0.093,0.401l-0.093,0.261v0.075l-0.145,0.093v0.238
		l-0.093,0.168l-0.168,0.07h-0.331v1.003v0.499l-0.075,0.499h0.005v0.233v0.168h0.07l0.429-0.574l0.308-0.667l0.098-0.499v-0.07
		v-0.168v-0.163l0.163-0.168l0.075-0.238l0.093-0.336v-0.331l-0.093-0.429l0.093-0.238l0.07-0.238l0.168-0.261l0.261-0.238
		l0.336-0.261l0.308-0.238l0.261-0.336l0.168-0.331v-0.336l-0.098-0.331l-0.07-0.406v-0.499v-0.075l-0.093,0.075h-0.238
		l-0.406,0.093l-0.336,0.168l-0.261,0.238l-0.163,0.406l-0.168,0.261l-0.238,0.163l-0.499,0.336h-0.168l-0.07-0.093l-0.098-0.238
		l-0.07-0.336v-0.168l0.168-0.667l0.163-0.331l0.168-0.07l0.168-0.098h0.07l0.098,0.098h0.14l0.098-0.098l0.238-0.163l0.261-0.075
		l0.163-0.093l0.168-0.07l0.168-0.336l0.163-0.331l0.238-0.238l0.075-0.098l0.093,0.098l0.07,0.163l0.098,0.336l0.07,0.238
		l0.098-0.336l0.07-0.667V8.52l-0.07-0.331L21.618,7.853z M16.158,6.415h-0.331l-0.406,0.07v-0.14l0.07-0.168l0.266-0.261
		l0.238-0.238l0.331-0.261l0.098,0.093l0.07,0.07l0.238,0.336L16.9,6.247l0.093,0.238L16.158,6.415z M17.232,4.936l-0.238-0.093
		l-0.168-0.168l-0.163-0.07l-0.238-0.093l-0.429-0.168l0.093-0.238l0.168-0.168h0.238h0.238l0.261,0.168l0.07,0.07v0.098v0.163
		l0.098,0.168l0.331,0.238L17.232,4.936z"/>
	<g>
		<path fill="#FFFFFF" d="M13.72,0.935c-6.584,0-11.922,5.337-11.922,11.921S7.136,24.778,13.72,24.778s11.921-5.337,11.921-11.922
			S20.304,0.935,13.72,0.935z M8.707,4.842l0.07-0.07l0.261-0.597l0.313-0.331L9.78,3.508l0.83-0.406l0.313-0.163l0.499-0.168
			l0.499-0.168l0.406-0.07h0.261l0.238,0.07l0.593,0.261l0.644,0.168l-0.476-0.261l1.642-0.238l0.238-0.093l0.266,0.093l0.331,0.07
			l0.168,0.098h0.163h0.644l0.336,0.07l0.331,0.261l0.098,0.07l0.163,0.168h0.075l0.238,0.093l0.163,0.145l0.168,0.168l1.073,0.163
			L19.28,4.604l0.406,0.331l0.761,0.243l0.812,0.331l0.429,0.238l0.331,0.336l0.168,0.331l0.07,0.336v0.331V7.25l0.093,0.406
			l0.075,0.331l0.093,0.499v0.075l-0.093,0.761L22.35,9.629l-0.093,0.429v0.07v0.168v0.168v0.331v0.093l0.168,0.406v0.406V12.2
			l-0.075,0.098l-0.163,0.476l-0.261,0.331l-0.406,0.336l-0.406,0.331L21.02,14.01v0.667c-0.667,7.825-12.752,8.454-14.553,0.597
			l-0.831-0.667l0.593-1.166l0.238-0.499v-0.168H6.061l0.742-0.975l0.238-0.336l0.163-0.331l0.098-0.336v-0.238V10.39l-0.098-0.331
			V9.723V9.559V9.223v-0.07V8.985l0.098-0.331L6.799,8.388l0.574-0.9L7.541,7.25l0.401-0.667l0.336-0.742V5.747l0.168-0.499
			L8.707,4.842z M8.318,4.457L8.081,4.92L7.91,5.565L7.843,5.61L7.712,5.846c-3.234,3.148-4.097,6.809-2.61,10.962l-0.766,0.288
			C2.565,12.587,3.802,7.472,8.318,4.457z M4.678,18.372C4.54,18.32,4.428,18.211,4.34,18.047c-0.078-0.145-0.11-0.286-0.097-0.425
			l0.248-0.028c-0.008,0.057-0.006,0.123,0.007,0.195c0.013,0.073,0.032,0.133,0.058,0.182c0.046,0.086,0.107,0.143,0.183,0.17
			c0.076,0.028,0.15,0.021,0.223-0.018c0.055-0.029,0.098-0.071,0.129-0.125c0.031-0.054,0.043-0.155,0.036-0.303l-0.009-0.164
			c-0.007-0.139,0.013-0.249,0.06-0.331c0.048-0.083,0.121-0.15,0.221-0.204c0.121-0.065,0.245-0.076,0.371-0.033
			c0.126,0.043,0.225,0.132,0.297,0.267c0.097,0.18,0.134,0.321,0.114,0.423l-0.229,0.038c0.006-0.041,0.002-0.098-0.011-0.169
			c-0.013-0.071-0.033-0.133-0.061-0.185c-0.041-0.076-0.093-0.124-0.16-0.144c-0.066-0.021-0.133-0.013-0.2,0.023
			c-0.042,0.022-0.075,0.05-0.101,0.084c-0.026,0.034-0.042,0.07-0.051,0.111c-0.008,0.04-0.01,0.114-0.005,0.223l0.008,0.167
			c0.007,0.139-0.014,0.251-0.063,0.334c-0.049,0.084-0.13,0.156-0.242,0.216C4.946,18.418,4.816,18.425,4.678,18.372z
			 M5.063,19.059l-0.144-0.207l1.514-1.055l0.144,0.207L5.063,19.059z M6.051,20.018c-0.147-0.007-0.288-0.076-0.422-0.204
			c-0.119-0.113-0.193-0.238-0.223-0.374l0.227-0.104c0.01,0.057,0.033,0.119,0.067,0.184c0.035,0.065,0.072,0.117,0.112,0.155
			c0.071,0.068,0.147,0.103,0.227,0.105c0.08,0.003,0.149-0.026,0.206-0.086c0.043-0.045,0.071-0.098,0.084-0.159
			c0.013-0.062-0.007-0.161-0.06-0.299l-0.059-0.153c-0.05-0.129-0.065-0.241-0.046-0.333c0.02-0.093,0.069-0.18,0.147-0.262
			c0.095-0.099,0.21-0.148,0.343-0.146c0.133,0.002,0.255,0.056,0.365,0.162c0.147,0.141,0.227,0.264,0.239,0.367l-0.205,0.107
			c-0.007-0.041-0.028-0.093-0.062-0.158c-0.034-0.064-0.072-0.116-0.115-0.157c-0.062-0.059-0.127-0.089-0.196-0.087
			c-0.07,0.001-0.131,0.029-0.183,0.084c-0.033,0.034-0.056,0.071-0.07,0.111c-0.014,0.04-0.019,0.08-0.014,0.121
			c0.005,0.04,0.026,0.112,0.064,0.213l0.059,0.157c0.049,0.13,0.064,0.243,0.043,0.337c-0.021,0.095-0.075,0.188-0.164,0.28
			C6.319,19.979,6.197,20.025,6.051,20.018z M6.552,20.75l1.064-1.22l-0.442-0.386l0.149-0.171l1.095,0.955l-0.149,0.171
			l-0.462-0.403l-1.064,1.22L6.552,20.75z M8.395,22.061L7.494,21.45l1.035-1.528l0.913,0.618l-0.127,0.188L8.61,20.251
			l-0.288,0.425l0.505,0.342l-0.12,0.177l-0.505-0.342l-0.373,0.551l0.693,0.469L8.395,22.061z M10.023,22.885l0.302-1.167
			l-0.877,0.927l-0.057-0.027l0.136-1.272l-0.695,0.984l-0.217-0.101l1.093-1.527l0.104,0.049l-0.171,1.406l0.937-1.049l0.102,0.048
			l-0.44,1.83L10.023,22.885z M11.634,23.319l-0.029-0.408l-0.666-0.167l-0.226,0.345l-0.274-0.068l1.18-1.634l0.065,0.016
			l0.221,1.983L11.634,23.319z M13.238,23.535l-0.371-0.018l0.087-1.843c0.237,0.003,0.389,0.006,0.455,0.009
			c0.258,0.012,0.458,0.1,0.601,0.264c0.143,0.163,0.208,0.375,0.195,0.635C14.173,23.246,13.851,23.564,13.238,23.535z
			 M14.547,23.501l-0.196-1.835l1.096-0.117l0.024,0.225l-0.846,0.09l0.055,0.51l0.606-0.064l0.023,0.213l-0.606,0.065l0.07,0.661
			l0.832-0.089l0.024,0.225L14.547,23.501z M16.863,23.052l-0.635-1.733l1.035-0.379l0.078,0.213l-0.799,0.293l0.177,0.482
			l0.572-0.209l0.074,0.201l-0.572,0.21l0.229,0.625l0.785-0.288l0.078,0.213L16.863,23.052z M19.355,22.019l-1.474-0.746l0.62,1.17
			l-0.212,0.112l-0.864-1.631l0.089-0.048l1.418,0.693l-0.598-1.128l0.212-0.112l0.876,1.653L19.355,22.019z M20.342,21.233
			c-0.041,0.142-0.14,0.263-0.296,0.364c-0.137,0.09-0.275,0.133-0.414,0.132l-0.049-0.244c0.058,0.003,0.123-0.004,0.195-0.023
			c0.071-0.019,0.131-0.043,0.177-0.073c0.083-0.053,0.134-0.119,0.155-0.196c0.021-0.077,0.009-0.151-0.036-0.221
			c-0.034-0.052-0.079-0.092-0.136-0.119s-0.158-0.03-0.305-0.011l-0.162,0.022c-0.138,0.019-0.249,0.008-0.335-0.032
			c-0.086-0.041-0.16-0.108-0.221-0.203c-0.075-0.116-0.096-0.238-0.063-0.367c0.033-0.129,0.113-0.235,0.241-0.318
			c0.172-0.111,0.309-0.16,0.412-0.148l0.056,0.224c-0.042-0.002-0.098,0.006-0.168,0.024c-0.07,0.018-0.13,0.043-0.179,0.075
			c-0.072,0.047-0.116,0.103-0.13,0.171c-0.015,0.068-0.002,0.133,0.04,0.197c0.026,0.04,0.056,0.07,0.092,0.093
			c0.036,0.023,0.074,0.037,0.114,0.042c0.041,0.005,0.114,0,0.222-0.013l0.166-0.022c0.138-0.018,0.251-0.007,0.338,0.035
			c0.088,0.042,0.166,0.117,0.235,0.223C20.366,20.962,20.383,21.092,20.342,21.233z M20.892,20.874l-1.252-1.356l0.185-0.171
			l1.252,1.356L20.892,20.874z M22.286,19.546L20.65,19.32l0.966,0.905L21.452,20.4l-1.347-1.262l0.069-0.074l1.566,0.195
			l-0.932-0.872l0.164-0.175l1.366,1.278L22.286,19.546z M22.915,18.606c-0.152,0.176-0.339,0.256-0.562,0.238
			c-0.222-0.018-0.442-0.12-0.657-0.305c-0.203-0.174-0.328-0.37-0.377-0.589c-0.049-0.218,0-0.414,0.148-0.587
			c0.167-0.195,0.357-0.29,0.572-0.286c0.214,0.004,0.434,0.103,0.658,0.295c0.23,0.197,0.366,0.405,0.407,0.62
			C23.144,18.208,23.081,18.413,22.915,18.606z M22.431,16.465c0.799-1.927,1.003-4.106,0.33-6.653l0.135-0.577L22.99,8.95
			l0.089-0.608c1.118,2.611,1.25,5.724,0.112,8.432L22.431,16.465z"/>
		<path fill="#FFFFFF" d="M8.475,7.615L8.307,8.021l-0.07,0.238L8.069,8.688v0.336v0.07v0.499v0.168v0.406l0.075,0.429l-0.075,0.331
			l-0.093,0.406l-0.238,0.667l0.737-0.261l-0.406,0.429l-0.261,0.238l-0.406,0.401l-0.163,0.336L7.07,13.643v0.667l0.093,0.667
			l0.168,0.569L7.5,16.121l0.238,0.499l0.331,0.574l0.336,0.499l0.331,0.429l0.075-0.168l-0.406-0.928l-0.336-0.812v-0.499
			l-0.093-0.406l0.093-0.425l0.075-0.504l0.163-0.238l0.168-0.163l0.261-0.168l0.168-0.238l-0.499,0.238l-0.504,0.331v-0.331
			l0.075-0.336l0.429-0.569l0.07-0.261v-0.238l0.093-0.168l0.075-0.168l0.093-0.163v-0.075v-0.261v-0.07l-0.093-0.093L8.475,11.24
			v-0.07l0.093-0.098l0.168-0.308l0.168-0.429l0.163-0.737l0.075-0.499V8.931L8.974,8.763l-0.07-0.07V8.595V8.263l0.163-0.476
			L9.235,7.12l0.406-0.499l0.569-0.667l0.266-0.336l0.238-0.331h-0.504l0.168-0.313l0.336-0.163l0.238-0.168l0.331-0.168
			l0.168-0.261l0.261-0.168h0.331l0.168-0.07l0.145-0.168v0.238v0.098h-0.145l-0.093,0.168l0.9,0.238l1.003,0.168l-0.168,0.261
			l-0.093,0.14l0.093,0.168l0.07,0.168v0.093l-0.07,0.238l-0.406,0.429l-0.261,0.308l-0.238,0.504V7.12v0.07l0.075,0.098h0.425
			v0.163l-0.093,0.168l-0.331,0.336l-0.075,0.238l-0.093,0.238l-0.07,0.499L12.618,9.5L12.52,9.761v0.238l0.098,0.429l0.168,0.168
			l0.07,0.07l0.093-0.07l0.075-0.168l0.093-0.168l-0.093-0.499L13.117,9.5l0.075-0.14l0.093-0.266l0.238-0.163l0.336-0.238
			l0.238-0.336l0.261-0.261l0.07,0.093l0.168,0.075l-0.168,0.163l-0.07,0.336L14.26,9.36v0.569v0.406l0.098,0.261l0.238-0.168
			l0.093-0.331l0.168-0.261l0.238-0.168l0.238-0.07L15.427,9.5l0.075-0.07l0.163-0.336l0.168-0.07l0.093,0.07v0.098l0.075,0.168
			l0.093,0.07l0.336,0.168h0.308L17.069,9.5l0.261-0.07h0.075l0.093,0.168v0.07l-0.093,0.093l-0.168,0.238l-0.238,0.261
			l-0.163,0.336v0.238v0.406v0.331l0.07,0.168l0.168,0.168l0.261,0.168l0.163,0.093l0.168-0.093l0.238-0.238l0.261-0.429
			l0.238-0.238v0.331l-0.093,0.336v0.331v0.168l0.093,0.14l0.168,0.098h0.238h0.261h0.07l0.168-0.098l0.168-0.07h0.331h0.238h0.098
			l0.163,0.168l0.075,0.07v0.168l-0.075,0.168l-0.093,0.093h-0.07l-0.667,0.07l-0.574,0.168l0.075,0.093l0.163,0.075h0.261
			l0.168,0.093h0.07l0.075,0.168v0.168v0.238l0.093,0.401l-0.093,0.261v0.075l-0.145,0.093v0.238l-0.093,0.168l-0.168,0.07h-0.331
			v1.003v0.499l-0.075,0.499h0.005v0.233v0.168h0.07l0.429-0.574l0.308-0.667l0.098-0.499v-0.07v-0.168v-0.163l0.163-0.168
			l0.075-0.238l0.093-0.336v-0.331l-0.093-0.429l0.093-0.238l0.07-0.238l0.168-0.261l0.261-0.238l0.336-0.261l0.308-0.238
			l0.261-0.336l0.168-0.331v-0.336l-0.098-0.331l-0.07-0.406v-0.499v-0.075l-0.093,0.075h-0.238l-0.406,0.093l-0.336,0.168
			l-0.261,0.238l-0.163,0.406l-0.168,0.261l-0.238,0.163l-0.499,0.336h-0.168l-0.07-0.093l-0.098-0.238l-0.07-0.336v-0.168
			l0.168-0.667l0.163-0.331l0.168-0.07l0.168-0.098h0.07l0.098,0.098h0.14l0.098-0.098l0.238-0.163l0.261-0.075l0.163-0.093
			l0.168-0.07l0.168-0.336l0.163-0.331l0.238-0.238l0.075-0.098l0.093,0.098l0.07,0.163l0.098,0.336l0.07,0.238l0.098-0.336
			l0.07-0.667V8.52l-0.07-0.331l-0.098-0.336L21.45,7.447l-0.163,0.406l-0.075,0.499l-0.163-0.093l-0.168-0.168l-0.07-0.14
			L20.55,7.853l-0.504-0.168h-0.163l-0.168-0.238l-0.07-0.093v-0.07l0.163-0.098l0.238-0.07l0.168-0.093l0.261-0.168l0.336-0.07
			l0.644,0.07h0.093v-0.07l-0.093-0.168l-0.238-0.238L20.979,6.21l-0.765-0.261l-0.406-0.168l-0.401-0.163L18.903,5.38l-0.331-0.336
			l-0.093-0.163l-0.075-0.075l0.075-0.331H18.31l-0.238-0.098l-0.07-0.163V4.139l-0.266-0.093l-0.163-0.07l-0.336-0.261l-0.07-0.075
			l-0.093-0.093l-0.238-0.07H16.5h-0.238h-0.261l-0.168-0.075l0.168,0.238h-0.406h-0.331l-0.406,0.075l-0.336,0.093h-0.499
			L13.285,3.64l-0.761-0.331h-0.238l-0.336,0.093L11.284,3.71l-0.331,0.168h-0.075l-0.737,0.336l0.075,0.093l0.163,0.07
			l-0.238,0.261L9.31,5.282L9.235,5.618L9.072,5.949v0.168L8.643,6.952l-0.499,0.83L8.475,7.615z M16.089,4.106l0.168-0.168h0.238
			h0.238l0.261,0.168l0.07,0.07v0.098v0.163l0.098,0.168l0.331,0.238l-0.261,0.093l-0.238-0.093l-0.168-0.168l-0.163-0.07
			l-0.238-0.093l-0.429-0.168L16.089,4.106z M15.421,6.345l0.07-0.168l0.266-0.261l0.238-0.238l0.331-0.261l0.098,0.093l0.07,0.07
			l0.238,0.336L16.9,6.247l0.093,0.238l-0.835-0.07h-0.331l-0.406,0.07V6.345z"/>
	</g>
</g>
<path fill="#FFFFFF" d="M10.134,17.367c0,0.243,0.057,0.738-0.308,0.738c-0.202,0-0.229-0.194-0.229-0.353
	C9.598,17.354,9.826,17.38,10.134,17.367L10.134,17.367L10.134,17.367L10.134,17.367z M17.742,18.091
	c-0.229,0-0.286-0.146-0.286-0.826c0-0.464,0.022-0.698,0.286-0.698s0.286,0.234,0.286,0.698
	C18.028,17.945,17.971,18.091,17.742,18.091L17.742,18.091L17.742,18.091L17.742,18.091z M17.742,18.489
	c0.801,0,0.907-0.49,0.907-1.188c0-0.609-0.088-1.131-0.907-1.131s-0.907,0.521-0.907,1.131
	C16.836,17.998,16.942,18.489,17.742,18.489L17.742,18.489L17.742,18.489L17.742,18.489z M15.69,15.256v3.188h0.621v-3.188H15.69
	L15.69,15.256L15.69,15.256z M14.026,17.398c0-0.68,0.04-0.844,0.273-0.844c0.229,0,0.251,0.278,0.251,0.768
	c0,0.473-0.031,0.706-0.255,0.706C13.996,18.029,14.026,17.605,14.026,17.398L14.026,17.398L14.026,17.398L14.026,17.398z
	 M14.581,16.214v0.26h-0.009l0,0c-0.088-0.208-0.277-0.305-0.497-0.305c-0.647,0-0.656,0.622-0.656,1.113
	c0,0.503-0.031,1.131,0.651,1.131c0.202,0,0.378-0.088,0.471-0.26l0,0h0.009v0.428l0,0c0,0.225-0.075,0.371-0.229,0.371
	c-0.097,0-0.167-0.031-0.207-0.088c-0.04-0.053-0.053-0.133-0.053-0.225l0,0h-0.607l0,0c0.013,0.543,0.409,0.663,0.871,0.663
	c0.853,0,0.845-0.609,0.845-0.764l0,0v-2.323L14.581,16.214L14.581,16.214L14.581,16.214z M11.884,16.214h-0.621v2.23h0.621v-1.537
	l0,0c0-0.199,0.035-0.353,0.233-0.353c0.198,0,0.233,0.154,0.233,0.353l0,0v1.537h0.621v-1.788l0,0c0-0.309-0.259-0.486-0.554-0.486
	c-0.114,0-0.216,0.018-0.304,0.062c-0.084,0.04-0.158,0.106-0.22,0.208l0,0h-0.009L11.884,16.214L11.884,16.214L11.884,16.214z
	 M10.742,16.917c0-0.406-0.101-0.746-0.889-0.746c-0.237,0-0.44,0.04-0.581,0.146c-0.145,0.102-0.229,0.274-0.229,0.543l0,0H9.65
	l0,0c0-0.177,0.018-0.34,0.233-0.34c0.224,0,0.251,0.137,0.251,0.327l0,0v0.172l0,0c-0.576-0.009-1.144,0.022-1.144,0.76
	c0,0.389,0.159,0.711,0.59,0.711c0.268,0,0.449-0.111,0.581-0.34l0,0h0.009l0.027,0.296h0.576l0,0
	c-0.013-0.137-0.031-0.278-0.031-0.415l0,0L10.742,16.917L10.742,16.917z"/>
</svg>
