<?xml version="1.0" encoding="utf-8"?>
<!-- Generator: Adobe Illustrator 17.0.0, SVG Export Plug-In . SVG Version: 6.00 Build 0)  -->
<!DOCTYPE svg PUBLIC "-//W3C//DTD SVG 1.1//EN" "http://www.w3.org/Graphics/SVG/1.1/DTD/svg11.dtd">
<svg version="1.1" id="Camada_1" xmlns="http://www.w3.org/2000/svg" xmlns:xlink="http://www.w3.org/1999/xlink" x="0px" y="0px"
	 width="34px" height="27px" viewBox="-8.344 -0.792 34 27" enable-background="new -8.344 -0.792 34 27" xml:space="preserve">
<g id="Layer_2">
</g>
<g>
	<path fill="none" d="M8.312,7.678c-0.325,0-0.652,0.342-0.684,0.573C7.585,8.565,7.521,8.837,7.996,9.095
		c0.078,0.005,0.92,0.001,0.92,0.001s0.021-0.691,0.016-0.989C8.927,7.809,8.636,7.678,8.312,7.678z"/>
	<path fill="none" d="M11.762,8.107c-0.131,0-0.292,0.081-0.471,0.429c-0.005,0.048,0,0.559,0,0.559h0.559
		c0,0,0.351-0.125,0.335-0.447C12.169,8.327,11.893,8.107,11.762,8.107z"/>
	<path fill="#FFFFFF" d="M12.688,3.677c-1.483-0.524-3.506-0.534-4.524-0.168S6.362,4.156,5.427,5.241S4.129,7.38,3.919,7.978
		s-0.172,2.041-0.112,2.625c0.06,0.583,0.503,1.641,0.615,1.843c0.112,0.201,0.566,0.968,0.671,1.117
		c0.105,0.15,1.031,1.183,1.061,1.229c0.284,0.516,0.337,0.866,0,1.173c-0.337,0.306-0.377,0.832-0.056,1.229
		s0.857,0.735,0.056,1.34c-0.419,0.403-0.355,0.739-0.28,1.06c0.074,0.322,0.447,0.726,0.447,0.726l0.335,0.168l0.279-0.112
		l0.423-0.442l-0.302-0.588c0,0-0.304-0.226,0.175-0.525c0.913-0.554,0.125-1.625-0.032-1.812c-0.636-0.583-0.084-0.797,0.096-0.954
		c0.389-0.442-0.133-1.633-0.238-1.812s-0.689-0.931-0.907-1.192s-0.391-0.512-0.667-0.938c-0.277-0.426-0.693-1.557-0.715-1.797
		C4.662,9.56,4.835,8.61,5.038,8.027s0.439-1.156,1.351-2.241s1.485-1.133,2.21-1.463s2.362-0.316,3.768,0.35
		s1.801,1.091,2.592,2.273c0.791,1.182,0.624,2.666,0.684,2.83c0.06,0.164,0.386,0.101,0.565,0.101c0.18,0,0.376-0.074,0.391-0.224
		c0.014-0.15-0.184-2.26-0.671-3.128C15.44,5.658,14.171,4.201,12.688,3.677z"/>
	<path fill="#FFFFFF" d="M11.683,7.169c-0.335,0.008-1.065,0.016-1.224,1.209c-0.008,0.287,0.016,0.717,0.016,0.717H9.95
		c0,0,0-0.787-0.016-1.449c-0.016-0.662-1.15-1.009-1.812-1.034C7.459,6.588,6.524,7.22,6.468,8.473
		c-0.056,1.253,1.368,1.653,1.368,1.653l1.082-0.064l-0.048,1.574c0,0,0.236,0.179,0.58,0.195c0.343,0.016,0.502-0.179,0.502-0.179
		V9.877h0.492c0,0,0.008,0.9,0.048,1.029c0.04,0.128,0.309,0.079,0.446,0.079c0.136,0,0.39,0.08,0.398-0.064
		c0.008-0.143-0.042-1.1-0.042-1.1l1.074-0.012c0,0,0.874-0.362,0.907-1.161S12.018,7.161,11.683,7.169z M8.916,9.095
		c0,0-0.841,0.005-0.92-0.001c-0.475-0.257-0.41-0.53-0.367-0.845C7.66,8.02,7.988,7.678,8.312,7.678
		c0.324,0,0.616,0.131,0.621,0.429C8.938,8.405,8.916,9.095,8.916,9.095z M11.85,9.095h-0.559c0,0-0.005-0.511,0-0.559
		c0.179-0.348,0.339-0.429,0.471-0.429s0.407,0.22,0.423,0.541C12.201,8.969,11.85,9.095,11.85,9.095z"/>
	<path fill="#FFFFFF" d="M9.282,22.67c-0.203-0.014-1.223,0.395-3.275,0.795c-0.203,0.03-1.128,0.254-1.128,0.254
		s-0.31,0.347-1.351-0.206C3.323,23.324,3.352,23.1,3.352,23.1s0.032-0.353,0.032-0.732s-0.318-0.954-0.318-0.954
		s-0.207-0.065-0.207-0.254c0-0.189,0.318-0.382,0.318-0.382s0.127-0.321,0.127-0.525s-0.461-0.652-0.461-0.652
		s-0.194-0.125-0.191-0.207c0.074-0.372,0.208-0.205,0.318-0.747c0-0.577-0.514-0.927-0.652-1.065s-1.065-0.557-1.065-0.557
		S0.76,16.835,0.76,16.58c0-0.255,0.318-0.525,0.318-0.525l1.176-1.478c0,0,0.461-0.846,0.461-1.733c0-0.887-0.413-1.7-0.413-1.7
		s-0.238-1.17-0.238-2.909c0.044-6.396,7.193-6.813,7.441-6.82C9.63,1.421,11,1.383,11,1.383l0.181-0.442l-0.224-0.335L9.673,0.495
		c0,0-7.087,0.5-8.434,5.92C0.947,7.477,0.959,8.201,0.959,8.201l0.056,1.061l0.447,2.457c0,0,0.168,0.996,0.168,1.452
		s-0.503,1.34-0.503,1.34l-1.005,1.286c0,0-0.354,0.486-0.335,0.837c0.019,0.351,0.358,0.693,0.391,0.726
		c0.034,0.034,0.615,0.335,0.615,0.335l0.781,0.559c0,0,0.387,0.299,0.391,0.447c0.005,0.148-0.168,0.391-0.168,0.391
		s-0.182,0.298-0.168,0.503s0.224,0.447,0.224,0.447s0.279,0.268,0.279,0.391c0,0.123-0.168,0.391-0.168,0.391
		s-0.112,0.155-0.112,0.335s0.108,0.443,0.335,0.671s0.279,0.671,0.279,0.671s-0.056,0.481-0.056,0.837
		c0,0.356,0.216,0.742,0.391,0.893C2.975,24.381,4.196,24.9,4.866,24.9s1.063-0.138,1.173-0.168c1.55-0.211,3.58-1.161,3.63-1.285
		s0-0.391,0-0.391S9.486,22.685,9.282,22.67z"/>
</g>
</svg>
