<?xml version="1.0" encoding="utf-8"?>
<!-- Generator: Adobe Illustrator 17.0.0, SVG Export Plug-In . SVG Version: 6.00 Build 0)  -->
<!DOCTYPE svg PUBLIC "-//W3C//DTD SVG 1.1//EN" "http://www.w3.org/Graphics/SVG/1.1/DTD/svg11.dtd">
<svg version="1.1" id="Camada_1" xmlns="http://www.w3.org/2000/svg" xmlns:xlink="http://www.w3.org/1999/xlink" x="0px" y="0px"
	 width="186.125px" height="39.833px" viewBox="0 0 186.125 39.833" enable-background="new 0 0 186.125 39.833"
	 xml:space="preserve">
<g id="Layer_2">
</g>
<g id="Layer_1">
	<g>
		<g>
			<g>
				<path fill="#144077" d="M28.37,14.489l9.858,11.678c-3.298,3.884-6.578,7.77-9.858,11.653
					c7.666,1.507,13.848-5.336,13.848-11.653c0-8.723-7.78-11.768-12.496-11.774C29.235,14.392,28.78,14.43,28.37,14.489z"/>
				<polygon fill="#144077" points="139.316,14.837 148.28,37.379 152.721,37.379 161.68,14.837 155.412,14.837 150.363,27.964 
					145.208,14.837 				"/>
				<rect x="132.778" y="14.837" fill="#144077" width="5.553" height="22.541"/>
				<polygon fill="#144077" points="116.549,14.837 116.549,19.753 121.187,19.753 121.187,37.379 127.271,37.379 127.271,19.753 
					131.851,19.753 131.851,14.837 				"/>
				<polygon fill="#144077" points="102.677,14.837 102.677,37.379 115.697,37.379 115.697,32.51 108.563,32.51 108.563,28.236 
					114.781,28.236 114.781,23.493 108.563,23.493 108.563,19.753 115.697,19.753 115.697,14.837 				"/>
				<path fill="#144077" d="M95.451,14.837v15.074c-0.456,1.338-0.943,2.188-2.919,2.679v5.2c5.093-0.196,8.88-3.47,8.909-7.879
					V14.837H95.451z"/>
				<path fill="#144077" d="M83.602,32.983h-3.18v-5.082h3.18C87.434,28.845,86.341,32.969,83.602,32.983L83.602,32.983z
					 M80.423,19.264h3.18c1.751,0.958,1.751,3.287,0,4.229h-3.18V19.264L80.423,19.264z M87.387,25.512
					c4.808-3.603,2.068-9.778-2.264-10.676H74.868v22.558h11.121C93.975,36.283,93.184,27.159,87.387,25.512z"/>
				<path fill="#144077" d="M171.23,32.68c-3.497,0-6.343-2.937-6.343-6.544c0-3.602,2.844-6.54,6.343-6.54
					c3.501,0,6.344,2.937,6.344,6.54C177.574,29.743,174.731,32.68,171.23,32.68L171.23,32.68z M171.261,14.392
					c-6.843,0-12.424,5.284-12.424,11.744c0,6.455,5.582,11.731,12.424,11.731c6.849,0,12.435-5.278,12.435-11.731
					C183.693,19.676,178.107,14.392,171.261,14.392z"/>
				<path fill="#144077" d="M61.777,32.845c-3.501,0-6.345-2.933-6.345-6.539c0-3.604,2.844-6.542,6.345-6.542
					c3.492,0,6.339,2.937,6.339,6.542C68.115,29.911,65.268,32.845,61.777,32.845L61.777,32.845z M61.805,14.566
					c-6.849,0-12.431,5.278-12.431,11.741c0,6.448,5.583,11.73,12.431,11.73c6.843,0,12.425-5.283,12.425-11.73
					C74.229,19.843,68.646,14.566,61.805,14.566z"/>
				<path fill="#144077" d="M24.648,32.192c-2.428,0-4.525-1.452-5.469-3.528l2.171-2.597l-2.135-2.403
					c0.959-2.043,3.034-3.458,5.433-3.458c3.287,0,5.987,2.695,5.987,6.003C30.633,29.496,27.933,32.192,24.648,32.192
					L24.648,32.192z M12.607,29.884c0.803-1.053,1.283-2.365,1.283-3.78c0-1.173-0.328-2.276-0.894-3.218l2.846,3.279L12.607,29.884
					L12.607,29.884z M23.891,16.261c-3.222,2.339-4.405,4.585-4.922,7.13l-7.875-8.903H5.719l5.842,6.742
					c-1.08-0.876-2.45-1.407-3.938-1.407c-3.456,0-6.278,2.827-6.278,6.282c0,3.443,2.823,6.263,6.278,6.263
					c1.734,0,3.315-0.715,4.451-1.866L5.72,37.821h5.375l7.843-8.862c0.617,2.641,2.15,5.398,5.073,7.197l8.735-9.988L23.891,16.261
					z"/>
			</g>
		</g>
	</g>
</g>
<g>
	<path fill="#144077" d="M79.695,7.022l1.292,0.41c-0.198,0.72-0.528,1.255-0.988,1.604c-0.461,0.35-1.045,0.524-1.753,0.524
		c-0.876,0-1.597-0.299-2.161-0.898c-0.564-0.599-0.847-1.417-0.847-2.456c0-1.099,0.284-1.952,0.851-2.559
		c0.567-0.608,1.313-0.912,2.237-0.912c0.807,0,1.463,0.238,1.967,0.715c0.3,0.282,0.525,0.688,0.675,1.216L79.65,4.982
		c-0.078-0.342-0.241-0.612-0.489-0.81c-0.248-0.198-0.548-0.297-0.902-0.297c-0.489,0-0.886,0.176-1.191,0.527
		s-0.457,0.92-0.457,1.706c0,0.834,0.15,1.429,0.45,1.783c0.3,0.354,0.69,0.531,1.17,0.531c0.354,0,0.659-0.113,0.914-0.338
		C79.401,7.859,79.584,7.505,79.695,7.022z"/>
	<path fill="#144077" d="M82.131,9.448v-6.6h4.893v1.116h-3.561v1.463h3.313V6.54h-3.313v1.796h3.687v1.112H82.131z"/>
	<path fill="#144077" d="M88.293,9.448v-6.6h1.297l2.701,4.407V2.849h1.238v6.6h-1.337l-2.661-4.304v4.304H88.293z"/>
	<path fill="#144077" d="M96.424,9.448V3.965h-1.958V2.849h5.245v1.116h-1.954v5.483H96.424z"/>
	<path fill="#144077" d="M100.574,9.448v-6.6h2.805c0.705,0,1.218,0.059,1.537,0.178c0.32,0.119,0.576,0.33,0.768,0.633
		c0.192,0.303,0.288,0.649,0.288,1.04c0,0.495-0.146,0.904-0.437,1.227c-0.291,0.322-0.727,0.526-1.306,0.61
		c0.288,0.168,0.526,0.353,0.714,0.554c0.188,0.201,0.44,0.558,0.758,1.071l0.806,1.288h-1.593l-0.963-1.436
		c-0.342-0.513-0.576-0.836-0.703-0.97c-0.126-0.133-0.259-0.225-0.4-0.274c-0.141-0.05-0.365-0.074-0.671-0.074h-0.27v2.755
		H100.574z M101.907,5.64h0.986c0.639,0,1.039-0.027,1.197-0.081c0.159-0.054,0.284-0.147,0.374-0.279
		c0.09-0.132,0.135-0.297,0.135-0.496c0-0.222-0.059-0.401-0.178-0.538c-0.119-0.137-0.286-0.223-0.502-0.259
		c-0.108-0.015-0.432-0.023-0.972-0.023h-1.04V5.64z"/>
	<path fill="#144077" d="M106.958,6.189c0-0.672,0.1-1.236,0.301-1.693c0.15-0.336,0.355-0.638,0.615-0.905
		c0.259-0.267,0.544-0.465,0.853-0.594c0.411-0.174,0.885-0.261,1.422-0.261c0.973,0,1.75,0.301,2.334,0.905
		c0.583,0.603,0.875,1.442,0.875,2.516c0,1.065-0.29,1.899-0.869,2.501c-0.579,0.602-1.354,0.902-2.323,0.902
		c-0.981,0-1.762-0.299-2.341-0.898S106.958,7.239,106.958,6.189z M108.331,6.144c0,0.747,0.172,1.313,0.518,1.699
		s0.783,0.579,1.314,0.579s0.967-0.191,1.308-0.574c0.341-0.382,0.511-0.957,0.511-1.722c0-0.756-0.166-1.32-0.498-1.693
		c-0.332-0.372-0.772-0.558-1.321-0.558s-0.992,0.188-1.328,0.565C108.499,4.817,108.331,5.385,108.331,6.144z"/>
	<path fill="#144077" d="M116.961,9.448v-6.6h4.893v1.116h-3.561v1.463h3.313V6.54h-3.313v1.796h3.687v1.112H116.961z"/>
	<path fill="#144077" d="M123.106,2.849h2.435c0.55,0,0.968,0.042,1.256,0.126c0.388,0.114,0.719,0.317,0.995,0.608
		s0.486,0.647,0.63,1.069c0.145,0.422,0.217,0.942,0.217,1.56c0,0.543-0.067,1.011-0.203,1.405c-0.165,0.48-0.4,0.869-0.706,1.166
		c-0.231,0.225-0.544,0.401-0.937,0.527c-0.295,0.093-0.688,0.14-1.18,0.14h-2.507V2.849z M124.438,3.965v4.372h0.995
		c0.372,0,0.641-0.021,0.806-0.063c0.216-0.054,0.396-0.146,0.538-0.275c0.142-0.129,0.259-0.341,0.349-0.637
		c0.09-0.296,0.135-0.699,0.135-1.209s-0.045-0.902-0.135-1.175s-0.216-0.486-0.378-0.639c-0.162-0.153-0.368-0.257-0.617-0.311
		c-0.187-0.042-0.551-0.063-1.094-0.063H124.438z"/>
	<path fill="#144077" d="M129.76,2.849h1.332v3.574c0,0.567,0.017,0.935,0.05,1.103c0.057,0.27,0.192,0.487,0.407,0.65
		c0.215,0.164,0.508,0.246,0.88,0.246c0.378,0,0.663-0.077,0.855-0.232c0.192-0.154,0.308-0.344,0.347-0.569
		s0.059-0.599,0.059-1.121V2.849h1.333v3.466c0,0.792-0.036,1.352-0.108,1.679s-0.205,0.603-0.398,0.828s-0.452,0.405-0.776,0.538
		c-0.324,0.134-0.748,0.2-1.27,0.2c-0.631,0-1.108-0.073-1.434-0.218c-0.326-0.146-0.583-0.334-0.772-0.567
		c-0.189-0.233-0.313-0.477-0.374-0.732c-0.087-0.378-0.13-0.936-0.13-1.674V2.849z"/>
	<path fill="#144077" d="M140.649,7.022l1.292,0.41c-0.198,0.72-0.527,1.255-0.988,1.604c-0.461,0.35-1.045,0.524-1.753,0.524
		c-0.877,0-1.597-0.299-2.161-0.898s-0.847-1.417-0.847-2.456c0-1.099,0.284-1.952,0.851-2.559c0.567-0.608,1.313-0.912,2.237-0.912
		c0.808,0,1.464,0.238,1.968,0.715c0.3,0.282,0.525,0.688,0.675,1.216l-1.318,0.315c-0.078-0.342-0.241-0.612-0.488-0.81
		c-0.248-0.198-0.549-0.297-0.903-0.297c-0.489,0-0.886,0.176-1.19,0.527s-0.457,0.92-0.457,1.706c0,0.834,0.15,1.429,0.45,1.783
		s0.69,0.531,1.171,0.531c0.354,0,0.658-0.113,0.913-0.338C140.355,7.859,140.538,7.505,140.649,7.022z"/>
	<path fill="#144077" d="M149.036,9.448h-1.449l-0.576-1.499h-2.639l-0.545,1.499h-1.413l2.57-6.6h1.409L149.036,9.448z
		 M146.583,6.837l-0.909-2.449l-0.892,2.449H146.583z"/>
	<path fill="#144077" d="M153.966,7.022l1.292,0.41c-0.198,0.72-0.527,1.255-0.988,1.604c-0.461,0.35-1.045,0.524-1.753,0.524
		c-0.877,0-1.597-0.299-2.161-0.898s-0.847-1.417-0.847-2.456c0-1.099,0.284-1.952,0.851-2.559c0.567-0.608,1.313-0.912,2.237-0.912
		c0.808,0,1.464,0.238,1.968,0.715c0.3,0.282,0.525,0.688,0.675,1.216l-1.318,0.315c-0.078-0.342-0.241-0.612-0.488-0.81
		c-0.248-0.198-0.549-0.297-0.903-0.297c-0.489,0-0.886,0.176-1.19,0.527s-0.457,0.92-0.457,1.706c0,0.834,0.15,1.429,0.45,1.783
		s0.69,0.531,1.171,0.531c0.354,0,0.658-0.113,0.913-0.338C153.672,7.859,153.854,7.505,153.966,7.022z"/>
	<path fill="#144077" d="M156.36,9.448v-6.6h1.333v6.6H156.36z"/>
	<path fill="#144077" d="M158.691,6.189c0-0.672,0.101-1.236,0.302-1.693c0.15-0.336,0.355-0.638,0.614-0.905
		c0.26-0.267,0.544-0.465,0.854-0.594c0.411-0.174,0.885-0.261,1.423-0.261c0.972,0,1.75,0.301,2.334,0.905
		c0.584,0.603,0.875,1.442,0.875,2.516c0,1.065-0.289,1.899-0.868,2.501s-1.354,0.902-2.323,0.902c-0.981,0-1.762-0.299-2.341-0.898
		S158.691,7.239,158.691,6.189z M160.064,6.144c0,0.747,0.173,1.313,0.518,1.699c0.346,0.386,0.784,0.579,1.314,0.579
		c0.531,0,0.968-0.191,1.309-0.574c0.34-0.382,0.511-0.957,0.511-1.722c0-0.756-0.166-1.32-0.498-1.693
		c-0.331-0.372-0.771-0.558-1.321-0.558c-0.549,0-0.991,0.188-1.327,0.565C160.232,4.817,160.064,5.385,160.064,6.144z"/>
	<path fill="#144077" d="M166.147,9.448v-6.6h1.296l2.701,4.407V2.849h1.238v6.6h-1.337l-2.661-4.304v4.304H166.147z"/>
	<path fill="#144077" d="M178.743,9.448h-1.449l-0.576-1.499h-2.639l-0.545,1.499h-1.413l2.57-6.6h1.409L178.743,9.448z
		 M176.29,6.837l-0.909-2.449l-0.892,2.449H176.29z"/>
	<path fill="#144077" d="M179.486,9.448V2.903h1.332v5.434h3.313v1.112H179.486z"/>
</g>
</svg>
