<?xml version="1.0" encoding="utf-8"?>
<!-- Generator: Adobe Illustrator 17.0.0, SVG Export Plug-In . SVG Version: 6.00 Build 0)  -->
<!DOCTYPE svg PUBLIC "-//W3C//DTD SVG 1.1//EN" "http://www.w3.org/Graphics/SVG/1.1/DTD/svg11.dtd">
<svg version="1.1" id="Camada_1" xmlns="http://www.w3.org/2000/svg" xmlns:xlink="http://www.w3.org/1999/xlink" x="0px" y="0px"
	 width="43.792px" height="39.833px" viewBox="0 0 43.792 39.833" enable-background="new 0 0 43.792 39.833" xml:space="preserve">
<g id="Layer_2">
</g>
<g id="Layer_1">
	<g>
		<g>
			<g>
				<path fill="#FFFFFF" d="M28.633,7.929l10.08,11.941c-3.372,3.972-6.727,7.946-10.08,11.917
					c7.839,1.541,14.161-5.456,14.161-11.917c0-8.92-7.956-12.034-12.778-12.04C29.518,7.83,29.052,7.869,28.633,7.929z"/>
				<path fill="#FFFFFF" d="M24.827,26.033c-2.482,0-4.627-1.485-5.592-3.607l2.22-2.656l-2.183-2.458
					c0.981-2.089,3.103-3.536,5.556-3.536c3.361,0,6.122,2.756,6.122,6.138C30.948,23.276,28.186,26.033,24.827,26.033
					L24.827,26.033z M12.514,23.672c0.822-1.077,1.312-2.418,1.312-3.866c0-1.199-0.335-2.328-0.915-3.291l2.911,3.354
					L12.514,23.672L12.514,23.672z M24.054,9.742c-3.295,2.392-4.504,4.688-5.033,7.291l-8.053-9.104H5.47l5.974,6.894
					c-1.104-0.896-2.505-1.439-4.027-1.439c-3.534,0-6.42,2.891-6.42,6.424c0,3.521,2.887,6.405,6.42,6.405
					c1.773,0,3.39-0.731,4.552-1.909l-6.499,7.483h5.496l8.02-9.063c0.631,2.7,2.199,5.52,5.188,7.359l8.933-10.213L24.054,9.742z"
					/>
			</g>
		</g>
	</g>
</g>
</svg>
