<?xml version="1.0" encoding="utf-8"?>
<!-- Generator: Adobe Illustrator 17.0.0, SVG Export Plug-In . SVG Version: 6.00 Build 0)  -->
<!DOCTYPE svg PUBLIC "-//W3C//DTD SVG 1.1//EN" "http://www.w3.org/Graphics/SVG/1.1/DTD/svg11.dtd">
<svg version="1.1" id="Layer_1" xmlns="http://www.w3.org/2000/svg" xmlns:xlink="http://www.w3.org/1999/xlink" x="0px" y="0px"
	 width="129.766px" height="75.667px" viewBox="0 0 129.766 75.667" enable-background="new 0 0 129.766 75.667"
	 xml:space="preserve">
<g>
	<path fill="#ED1F25" d="M99.468,1c0.846,0.738,1.425,1.76,1.566,2.878c0.496,3.552-0.813,7.072-0.347,10.622
		c0.093,1.672,1.923,2.737,3.404,1.921c0.083-0.083,0.249-0.254,0.332-0.34c-0.088-0.431-0.179-0.861-0.264-1.292
		c2.402,1.702,4.95,3.336,6.697,5.76c-1.234,2.908-3.386,5.226-5.697,7.309c0.023-1.485-0.269-3.105-1.118-4.175
		c-1.101-1.558-3.562-2.934-4.808-4.754c-0.081-0.103-0.247-0.312-0.327-0.418c-1.181-1.538-1.568-3.676-1.08-5.549
		c0.541-2.654,1.745-5.131,2.13-7.82C100.165,3.742,99.72,2.362,99.468,1z"/>
</g>
<g>
	<path fill="#EB262A" d="M94.73,18.276c-0.569-1.853-0.788-4.167,0.853-5.556c-0.211,1.465-0.529,2.951,0.005,4.396
		C95.301,17.5,95.017,17.888,94.73,18.276z"/>
</g>
<g>
	<path fill="#EC1E25" d="M102.824,29.32c-1.616,0.529-3.225,1.161-4.934,1.314c-2.168,0.269-4.325-0.181-6.465-0.466
		c-0.577-0.843-0.911-1.838-0.846-2.865c-0.073-1.249,0.737-2.266,1.03-3.53h0.094c-0.526,2.434,2.949,4.272,4.887,2.951
		c0.904-0.539,0.919-1.732,0.67-2.636c-0.697-1.999-1.74-3.852-2.53-5.813c0.287-0.388,0.571-0.775,0.858-1.161
		c1.458,2.689,4.116,4.388,5.881,6.838c0.368,0.511,0.477,0.694,0.918,1.806C102.775,27.165,102.98,28.016,102.824,29.32z"/>
</g>
<g>
	<path fill="#65403A" d="M98.904,18.51c0.081,0.106,0.247,0.315,0.327,0.418C99.151,18.824,98.985,18.615,98.904,18.51z"/>
</g>
<g>
	<path fill="#9E0D0F" d="M110.855,20.549c1.707,2.676,1.148,6.266-0.587,8.781c-2.15,2.535-5.514,3.895-8.814,3.756
		c1.722-1.327,3.369-2.966,3.703-5.229C107.469,25.775,109.621,23.457,110.855,20.549z"/>
</g>
<g>
	<path fill="#A00F10" d="M97.89,30.634c1.709-0.154,3.318-0.785,4.934-1.314c-0.375,2.183-2.432,3.943-4.678,3.784
		c-2.558,0.257-5.179-0.889-6.722-2.935C93.564,30.453,95.722,30.904,97.89,30.634z"/>
</g>
<g>
	<path fill="#034A8E" d="M13.337,31.737c2.095,3.862,3.868,8.219,5.773,12.182c-1.589,0.018-3.296-0.236-4.885-0.181l0.074,0.181
		c-0.217-0.566-0.601-1.301-0.855-1.85c-0.305,0.534-0.663,1.283-0.907,1.845c-1.609,0.018-3.229-0.004-4.827-0.173
		C9.536,39.803,11.411,35.627,13.337,31.737z"/>
</g>
<g>
	<path fill="#034A8F" d="M33.167,33.392c3.414-0.645,7.006,0.131,9.874,2.085c0,1.81,0.076,3.625-0.04,5.435
		c-2.029-1.787-4.519-3.346-7.339-3.117c-3.555-0.227-6.697,2.724-7.006,6.216c-1.682-0.01-3.363-0.013-5.045,0.01
		C23.991,38.871,28.036,34.231,33.167,33.392z"/>
</g>
<g>
	<path fill="#024A8E" d="M45.893,33.566c1.619-0.015,3.238-0.005,4.856-0.018c0.005,2.603,0.008,5.204,0.01,7.807
		c3.044-0.005,6.085,0.023,9.129-0.013c0.023-2.603-0.035-5.206,0.025-7.81c1.604,0.04,3.21,0.038,4.816,0.03
		c-0.008,3.426,0.015,6.855-0.005,10.282c-6.279,0.04-12.558-0.018-18.834,0.025C45.86,40.436,45.88,36.999,45.893,33.566z"/>
</g>
<g>
	<path fill="#024A8F" d="M67.316,33.533c1.609,0.028,3.215,0.013,4.824-0.01c0.06,3.452,0.015,6.906,0.025,10.357
		c-1.609-0.015-3.217-0.018-4.826-0.013C67.291,40.423,67.339,36.977,67.316,33.533z"/>
	<path fill="#024A8F" d="M74.771,33.532c4.416,0.033,8.832,0.028,13.247-0.008c0.04,1.448,0.023,2.895-0.005,4.34
		c-2.832,0.01-5.665-0.015-8.497,0.013c-0.015,1.309-0.028,2.621,0.035,3.927c2.82,0.033,5.639,0.005,8.462,0.015
		c0.008,0.685,0.015,1.367,0.023,2.052c-4.426-0.043-8.849-0.04-13.275,0.008C74.761,40.43,74.733,36.981,74.771,33.532z"/>
	<path fill="#024A8F" d="M114.319,33.554c4.401,0.003,8.804,0.07,13.205-0.045c0.05,1.46,0.043,2.923,0.02,4.383
		c-2.8-0.015-5.602-0.013-8.401-0.01c0.005,1.314,0.008,2.631-0.008,3.945c2.795,0.02,5.592,0.005,8.389,0.01
		c0.02,0.685,0.033,1.367,0.04,2.052c-4.428-0.05-8.857-0.04-13.285,0.005C114.347,40.447,114.224,37.001,114.319,33.554z"/>
</g>
<g>
	<path fill="#044A8F" d="M90.656,33.5c1.941,0.707,3.829,1.629,5.901,1.903c0.305,0.712,0.677,1.407,0.856,2.168
		c0.055,0.121,0.166,0.363,0.222,0.483c0.911,1.866,1.649,3.817,2.465,5.73c-1.667,0.018-3.333,0.04-4.997,0.118
		c-0.239-0.534-0.509-1.06-0.627-1.634c-0.06-0.118-0.184-0.352-0.244-0.471c-0.486-0.984-0.944-1.994-1.269-3.044
		c-0.058-0.118-0.176-0.357-0.237-0.478C91.947,36.728,91.323,35.101,90.656,33.5z"/>
</g>
<g>
	<path fill="#044A8E" d="M105.741,35.412c2.032-0.29,3.937-1.085,5.808-1.898c-1.347,3.504-2.93,6.916-4.393,10.375
		c-1.679-0.083-3.244-0.206-4.921-0.113C103.552,41.006,104.479,38.207,105.741,35.412z"/>
</g>
<g>
	<path fill="#394556" d="M97.343,37.412c0.055,0.121,0.166,0.363,0.222,0.483C97.509,37.774,97.399,37.533,97.343,37.412z"/>
</g>
<g>
	<path fill="#394554" d="M92.656,38.117c0.06,0.121,0.179,0.36,0.237,0.478C92.834,38.477,92.716,38.238,92.656,38.117z"/>
</g>
<g>
	<path fill="#3A4657" d="M94.161,41.639c0.06,0.118,0.184,0.352,0.244,0.471C94.345,41.991,94.221,41.757,94.161,41.639z"/>
</g>
<g>
	<path fill="#032E62" d="M2,56.085c1.881-4.209,3.877-8.368,5.808-12.555c1.599,0.169,3.21,0.204,4.819,0.186
		c-1.855,4.131-3.661,8.285-5.544,12.402C5.389,56.102,3.694,56.143,2,56.085z"/>
</g>
<g>
	<path fill="#022D62" d="M14.225,43.738c1.589-0.055,3.177-0.06,4.766-0.078c1.903,4.144,3.927,8.232,5.73,12.422
		c-1.707,0.043-3.414,0.023-5.121,0.018c-0.791-1.843-1.626-3.666-2.429-5.503c-2.039-0.03-4.081,0.03-6.123-0.033
		c0.587-1.362,1.098-2.774,1.848-4.053c0.712-0.345,1.636-0.083,2.432-0.161C14.973,45.473,14.583,44.612,14.225,43.738z"/>
	<path fill="#022D62" d="M23.646,43.703c1.682-0.023,3.363-0.02,5.045-0.01c-0.652,3.804,2.017,8.041,6.014,8.346
		c3.185,0.425,6.047-1.349,8.331-3.366l-0.005,0.116c-0.06,1.858-0.023,3.718,0.008,5.576c-5.289,3.937-14.041,2.782-17.515-3.039
		C24.024,49.098,23.563,46.347,23.646,43.703z"/>
	<path fill="#022D62" d="M67.339,43.693c1.609-0.005,3.217-0.003,4.826,0.013c-0.018,4.131,0.025,8.263-0.025,12.394
		c-1.594,0.01-3.185,0.018-4.776,0.005C67.314,51.968,67.379,47.832,67.339,43.693z"/>
	<path fill="#022D62" d="M74.761,43.711c4.426-0.048,8.849-0.05,13.275-0.008c0,0.647-0.008,1.297-0.018,1.944
		c-2.822,0.06-5.647,0.035-8.472,0.015c-0.076,1.991-0.03,3.985-0.03,5.979c2.835,0.023,5.67,0.003,8.504,0.008
		c0.01,1.483,0.018,2.963,0.003,4.446c-4.418,0.05-8.834,0.018-13.253,0.015C74.73,51.978,74.768,47.845,74.761,43.711z"/>
</g>
<g>
	<path fill="#012E62" d="M45.886,43.698c6.276-0.043,12.555,0.015,18.834-0.025c-0.005,4.141,0.005,8.28-0.015,12.422
		c-1.596,0.018-3.19,0.008-4.783,0.008c-0.053-3.457-0.015-6.916-0.025-10.375c-3.046-0.05-6.095-0.01-9.144-0.025
		c-0.008,3.469,0.038,6.936-0.025,10.405c-1.599,0.018-3.2,0.02-4.801,0C45.879,51.971,45.944,47.835,45.886,43.698z"/>
	<path fill="#012E62" d="M114.279,43.708c4.428-0.045,8.857-0.055,13.285-0.005c-0.003,0.889-0.005,1.777-0.02,2.666
		c-2.802,0.015-5.607,0.01-8.409,0.008c-0.045,1.752-0.01,3.507-0.018,5.259c2.81,0.035,5.622,0.018,8.431,0.005
		c0.03,1.485,0.028,2.971-0.013,4.456c-4.411,0.04-8.822,0.023-13.232,0.013C114.239,51.976,114.264,47.842,114.279,43.708z"/>
</g>
<g>
	<path fill="#022E63" d="M95.032,43.743c1.664-0.078,3.331-0.101,4.997-0.118c1.183,2.875,2.465,5.71,3.603,8.603
		c-0.856,1.83-1.518,3.744-2.472,5.526C98.949,53.162,97.149,48.378,95.032,43.743z"/>
</g>
<g>
	<path fill="#042D64" d="M102.235,43.606c1.677-0.093,3.358-0.055,5.038,0.028c-0.896,1.951-1.631,3.975-2.593,5.894
		C103.748,47.609,102.884,45.64,102.235,43.606z"/>
</g>
<g>
	<path fill="#323941" d="M43.032,48.789c0.378,1.803,0.357,3.771,0.008,5.576C43.009,52.507,42.971,50.647,43.032,48.789z"/>
</g>
<g>
	<path fill="#848587" d="M86.983,68.088c0.081,0.091,0.244,0.277,0.325,0.368C87.228,68.365,87.064,68.179,86.983,68.088z"/>
</g>
<g>
	<path fill="#898A8D" d="M91.772,61.951c0.005,0.005,0.015,0.015,0.02,0.023C91.787,61.966,91.777,61.956,91.772,61.951z"/>
	<path fill="#898A8D" d="M91.792,61.973c0.116,0.065,0.35,0.196,0.468,0.262C92.142,62.17,91.908,62.039,91.792,61.973z"/>
	<path fill="#898A8D" d="M92.26,62.235c0.113,0.068,0.342,0.206,0.458,0.274C92.603,62.442,92.374,62.303,92.26,62.235z"/>
	<path fill="#898A8D" d="M86.004,64.861c0.055-0.118,0.164-0.357,0.219-0.476C86.168,64.503,86.059,64.743,86.004,64.861z"/>
	<path fill="#898A8D" d="M31.937,66.774c0.028-0.023,0.086-0.073,0.113-0.098C32.022,66.701,31.964,66.752,31.937,66.774z"/>
	<path fill="#898A8D" d="M46.878,66.731c0.008,0.028,0.023,0.086,0.028,0.113C46.901,66.817,46.886,66.759,46.878,66.731z"/>
	<path fill="#898A8D" d="M31.871,67.346c0.018-0.141,0.05-0.428,0.065-0.571C31.921,66.918,31.889,67.205,31.871,67.346z"/>
</g>
<g>
	<path fill="#818285" d="M24.693,62.133h0.867v7.842h3.34v0.838h-4.207V62.133z"/>
	<path fill="#818285" d="M35.634,62.133l4.048,8.68h-0.937l-1.365-2.856H33.64l-1.352,2.856H31.32l4.101-8.68H35.634z
		 M35.524,63.978l-1.487,3.142h2.968L35.524,63.978z"/>
	<path fill="#818285" d="M42.845,70.813v-8.68h0.189l5.776,6.653v-6.653h0.856v8.68h-0.195l-5.729-6.572v6.572H42.845z"/>
	<path fill="#818285" d="M61.964,63.591l-0.673,0.637c-0.484-0.476-1.014-0.837-1.59-1.083c-0.576-0.246-1.138-0.369-1.685-0.369
		c-0.68,0-1.329,0.167-1.944,0.501c-0.616,0.334-1.093,0.788-1.431,1.36s-0.507,1.177-0.507,1.814c0,0.653,0.175,1.273,0.525,1.861
		c0.35,0.588,0.834,1.05,1.452,1.387s1.294,0.504,2.03,0.504c0.893,0,1.648-0.251,2.266-0.755c0.617-0.504,0.983-1.157,1.097-1.959
		h-2.767v-0.837h3.741c-0.008,1.341-0.406,2.406-1.195,3.195c-0.789,0.789-1.844,1.183-3.166,1.183c-1.605,0-2.875-0.547-3.812-1.64
		c-0.72-0.842-1.08-1.815-1.08-2.921c0-0.822,0.207-1.587,0.62-2.295s0.979-1.262,1.699-1.661c0.72-0.399,1.534-0.599,2.443-0.599
		c0.735,0,1.428,0.133,2.077,0.398C60.713,62.579,61.347,63.004,61.964,63.591z"/>
	<path fill="#818285" d="M65.972,62.133h0.867v5.24c0,0.622,0.012,1.009,0.035,1.162c0.043,0.342,0.144,0.628,0.301,0.859
		c0.157,0.23,0.399,0.423,0.726,0.578s0.655,0.233,0.985,0.233c0.287,0,0.563-0.061,0.826-0.183
		c0.264-0.122,0.484-0.291,0.661-0.508c0.177-0.216,0.307-0.478,0.39-0.785c0.059-0.22,0.088-0.672,0.088-1.357v-5.24h0.868v5.24
		c0,0.775-0.076,1.401-0.228,1.879c-0.151,0.478-0.454,0.894-0.909,1.248c-0.454,0.354-1.004,0.531-1.649,0.531
		c-0.7,0-1.3-0.167-1.8-0.501s-0.834-0.777-1.003-1.328c-0.106-0.338-0.159-0.948-0.159-1.829V62.133z"/>
	<path fill="#818285" d="M79.214,62.133l4.048,8.68h-0.937l-1.365-2.856h-3.739l-1.352,2.856h-0.968l4.101-8.68H79.214z
		 M79.104,63.978l-1.487,3.142h2.968L79.104,63.978z"/>
	<path fill="#818285" d="M94.793,63.591l-0.673,0.637c-0.484-0.476-1.014-0.837-1.59-1.083c-0.576-0.246-1.138-0.369-1.685-0.369
		c-0.68,0-1.329,0.167-1.944,0.501c-0.616,0.334-1.093,0.788-1.431,1.36s-0.507,1.177-0.507,1.814c0,0.653,0.175,1.273,0.525,1.861
		c0.35,0.588,0.834,1.05,1.452,1.387s1.294,0.504,2.03,0.504c0.893,0,1.648-0.251,2.266-0.755c0.617-0.504,0.983-1.157,1.097-1.959
		h-2.767v-0.837h3.741c-0.008,1.341-0.406,2.406-1.195,3.195c-0.789,0.789-1.844,1.183-3.166,1.183c-1.605,0-2.875-0.547-3.812-1.64
		c-0.72-0.842-1.08-1.815-1.08-2.921c0-0.822,0.207-1.587,0.62-2.295s0.979-1.262,1.699-1.661c0.72-0.399,1.534-0.599,2.443-0.599
		c0.735,0,1.428,0.133,2.077,0.398C93.542,62.579,94.175,63.004,94.793,63.591z"/>
	<path fill="#818285" d="M98.777,62.133h4.974v0.85h-4.106v2.72h4.071v0.85h-4.071v3.411h4.071v0.85h-4.939V62.133z"/>
	<path fill="#818285" d="M106.166,69.196l0.738-0.442c0.519,0.956,1.119,1.434,1.8,1.434c0.291,0,0.564-0.068,0.82-0.204
		c0.256-0.136,0.451-0.317,0.584-0.546c0.133-0.228,0.201-0.47,0.201-0.726c0-0.291-0.099-0.576-0.295-0.855
		c-0.271-0.386-0.767-0.85-1.487-1.393c-0.724-0.547-1.174-0.942-1.351-1.186c-0.307-0.409-0.46-0.852-0.46-1.328
		c0-0.378,0.09-0.722,0.271-1.033c0.181-0.311,0.436-0.556,0.764-0.734c0.329-0.179,0.686-0.269,1.071-0.269
		c0.409,0,0.792,0.101,1.148,0.304c0.356,0.203,0.732,0.575,1.13,1.118l-0.708,0.537c-0.327-0.433-0.605-0.718-0.835-0.855
		c-0.23-0.138-0.481-0.207-0.752-0.207c-0.35,0-0.636,0.106-0.858,0.318c-0.223,0.212-0.333,0.474-0.333,0.785
		c0,0.189,0.039,0.372,0.118,0.549c0.079,0.177,0.222,0.37,0.431,0.578c0.114,0.11,0.488,0.399,1.121,0.868
		c0.751,0.555,1.267,1.048,1.546,1.481s0.419,0.867,0.419,1.304c0,0.629-0.239,1.176-0.717,1.64
		c-0.478,0.464-1.059,0.696-1.744,0.696c-0.527,0-1.005-0.141-1.434-0.422S106.527,69.857,106.166,69.196z"/>
</g>
</svg>
