<?xml version="1.0" encoding="utf-8"?>
<!-- Generator: Adobe Illustrator 17.0.0, SVG Export Plug-In . SVG Version: 6.00 Build 0)  -->
<!DOCTYPE svg PUBLIC "-//W3C//DTD SVG 1.1//EN" "http://www.w3.org/Graphics/SVG/1.1/DTD/svg11.dtd">
<svg version="1.1" id="Camada_1" xmlns="http://www.w3.org/2000/svg" xmlns:xlink="http://www.w3.org/1999/xlink" x="0px" y="0px"
	 width="122.427px" height="119px" viewBox="-14.438 -23 122.427 119" enable-background="new -14.438 -23 122.427 119"
	 xml:space="preserve">
<path fill-rule="evenodd" clip-rule="evenodd" fill="#FFFFFF" d="M3.763,63.095c-2.829,0-7.862,1.572-7.862,1.572v5.391
	c0,0,1.876-1.797,6.514-1.797s4.268,2.696,4.268,2.696s-0.792-0.449-4.942-0.449c-6.225,0-8.312,4.259-8.312,7.188
	s3.588,5.841,7.188,5.841s5.841-3.37,5.841-3.37v2.696l8.985-0.225c0,0,0-3.383,0-11.681S4.948,63.095,3.763,63.095z M4.661,77.921
	C2.403,78.836,0.953,75.794,3.089,75c2.136-0.793,3.594-0.225,3.594-0.225S6.919,77.005,4.661,77.921z"/>
<path fill-rule="evenodd" clip-rule="evenodd" fill="#FFFFFF" d="M17.69,82.973l9.659,0.225V71.292c0,0-0.239-1.348,1.348-1.348
	s1.348,1.348,1.348,1.348l0.225,11.906h9.21V68.147c0,0-0.961-4.717-6.514-4.717c-4.577,0-6.29,3.594-6.29,3.594v-2.92H17.69V82.973
	z"/>
<path fill-rule="evenodd" clip-rule="evenodd" fill="#FFFFFF" d="M56.327,63.993v3.37c0,0-2.687-3.878-6.29-4.043
	c-3.602-0.166-8.312,2.325-8.312,10.109s5.04,9.21,8.312,9.21s6.29-3.37,6.29-3.37s0.687,5.572-6.29,5.841
	c-1.687,0.217-6.964-1.797-6.964-1.797v6.065c0,0,3.523,0.985,4.268,1.123c0.745,0.138,4.934,0.745,8.536,0
	c3.602-0.745,8.761-2.358,8.761-8.536c0-4.317,0-17.971,0-17.971H56.327z M53.632,76.798c0,0-2.022,0.369-2.022-3.819
	s2.022-3.594,2.022-3.594s2.022-0.755,2.022,3.594S53.632,76.798,53.632,76.798z"/>
<path fill-rule="evenodd" clip-rule="evenodd" fill="#FFFFFF" d="M91.37,63.095c-13.033,0-12.13,10.558-12.13,10.558
	s-0.806,9.884,12.13,9.884s11.681-9.659,11.681-9.659S104.403,63.095,91.37,63.095z M91.146,77.921
	c-0.581,0-2.022-0.815-2.022-4.493c0-3.677,1.666-4.493,2.246-4.493s2.022,0.751,2.022,4.493
	C93.392,77.17,91.727,77.921,91.146,77.921z"/>
<path fill-rule="evenodd" clip-rule="evenodd" fill="#FFFFFF" d="M26.379,58.435l3.786,0.088v-4.666c0,0-0.094-0.528,0.528-0.528
	s0.528,0.528,0.528,0.528l0.088,4.666h3.61v-5.899c0,0-0.377-1.849-2.553-1.849c-1.794,0-2.465,1.409-2.465,1.409v-1.145h-3.522
	V58.435z"/>
<path fill-rule="evenodd" clip-rule="evenodd" fill="#FFFFFF" d="M41.026,50.895c-5.108,0-4.754,4.138-4.754,4.138
	s-0.316,3.874,4.754,3.874s4.578-3.786,4.578-3.786S46.134,50.895,41.026,50.895z M40.938,56.705c-0.228,0-0.792-0.32-0.792-1.761
	c0-1.441,0.653-1.761,0.88-1.761s0.792,0.294,0.792,1.761C41.819,56.411,41.166,56.705,40.938,56.705z"/>
<polygon fill="#FFFFFF" points="49.393,50.643 50.67,55.256 52.086,50.643 55.343,50.643 52.185,58.655 48.823,58.655 
	45.996,50.643 "/>
<path fill-rule="evenodd" clip-rule="evenodd" fill="#FFFFFF" d="M60.479,50.643c-5.108,0-4.754,4.138-4.754,4.138
	s-0.316,3.874,4.754,3.874s4.578-3.786,4.578-3.786S65.587,50.643,60.479,50.643z M60.391,56.454c-0.228,0-0.792-0.32-0.792-1.761
	c0-1.441,0.653-1.761,0.88-1.761s0.792,0.294,0.792,1.761C61.271,56.16,60.619,56.454,60.391,56.454z"/>
<rect x="67.916" y="56.356" fill-rule="evenodd" clip-rule="evenodd" fill="#FFFFFF" width="8.985" height="26.507"/>
<path fill="#FFFFFF" d="M71.461,27.979l0.789-1.58l0.789-0.338l0.789-0.451h0.338l0.451,0.451h0.676l0.451-0.451l1.127-0.789
	l1.24-0.338l0.789-0.451l0.789-0.338l0.789-1.58l0.789-1.58l1.127-1.127l0.338-0.451l0.451,0.451l0.338,0.789l0.451,1.58
	l0.338,1.127l0.451-1.58l0.338-3.158v-0.338l-0.338-1.58l-0.451-1.58l-0.789-1.918l-0.789,1.918l-0.338,2.369l-0.789-0.451
	l-0.789-0.789l-0.338-0.676l-1.24-0.451l-2.369-0.789h-0.789l-0.789-1.127l-0.338-0.451v-0.338l0.789-0.451l1.127-0.338l0.789-0.451
	l1.24-0.789l1.58-0.338l3.045,0.338h0.451V9.597l-0.451-0.789l-1.127-1.127l-1.127-0.789l-3.609-1.24l-1.918-0.789l-1.918-0.789
	l-2.369-1.127l-1.58-1.58l-0.451-0.789l-0.338-0.338l0.338-1.58h-0.789L67.507-1.79l-0.338-0.789v-0.338l-1.24-0.451L65.14-3.706
	l-1.58-1.24l-0.338-0.338l-0.451-0.451l-1.127-0.338h-1.58h-1.127h-1.24l-0.789-0.338l0.789,1.127H55.78h-1.58l-1.918,0.338
	l-1.58,0.451h-2.369l-3.496-0.789l-3.609-1.58h-1.127l-1.58,0.451l-3.158,1.465l-1.58,0.789h-0.338l-3.496,1.58l0.338,0.451
	l0.789,0.338l-1.127,1.24l-3.947,3.045l-0.338,1.58l-0.789,1.58v0.789l-2.031,3.947l-2.369,3.947l1.58-0.789l-0.789,1.918
	l-0.338,1.127l-0.789,2.031v1.58v0.338v2.369v0.789v1.918l0.338,2.031l-0.338,1.58l-0.451,1.918l-1.127,3.158l3.496-1.24
	l-1.918,2.031l-1.24,1.127l-1.918,1.918l-0.789,1.58l-0.789,2.369v3.158l0.451,3.158l0.789,2.707l0.789,2.707l1.127,2.369
	l1.58,2.707l0.456,0.683h1.766l-0.641-1.47l-1.58-3.834v-2.369l-0.451-1.918l0.451-2.031l0.338-2.369l0.789-1.127l0.789-0.789
	l1.24-0.789l0.789-1.127l-2.369,1.127l-2.369,1.58v-1.58l0.338-1.58l2.031-2.707l0.338-1.24v-1.127l0.451-0.789l0.338-0.789
	l0.451-0.789v-0.338v-1.24v-0.338l-0.451-0.451l-0.789-0.789V30.37l0.451-0.451l0.789-1.467l0.789-2.031l0.789-3.496l0.338-2.369
	v-0.789l-0.789-0.789l-0.338-0.338v-0.451v-1.58l0.789-2.256l0.789-3.158l1.918-2.369l2.707-3.158l1.24-1.58l1.127-1.58h-2.369
	l0.789-1.467l1.58-0.789l1.127-0.789l1.58-0.791l0.789-1.24l1.237-0.789h1.58l0.789-0.338l0.676-0.789v1.127v0.46h-0.676
	l-0.451,0.789l4.285,1.127l4.738,0.789l-0.789,1.24l-0.451,0.676l0.451,0.789l0.338,0.789v0.451l-0.338,1.127L45.619,6.91
	l-1.24,1.465l-1.127,2.369v0.451v0.34l0.338,0.451h2.031v0.789l-0.451,0.789l-1.58,1.58l-0.338,1.127l-0.451,1.127l-0.338,2.369
	l-0.789,2.707l-0.451,1.24v1.127l0.451,2.031l0.789,0.789l0.338,0.338l0.451-0.338l0.349-0.793l0.451-0.789l-0.451-2.369l0.451-1.24
	l0.338-0.676l0.451-1.24l1.127-0.789l1.58-1.127l1.127-1.58l1.24-1.24l0.338,0.451l0.789,0.338l-0.789,0.789l-0.338,1.58
	l-0.451,2.82v2.707v1.918l0.451,1.24l1.127-0.789l0.451-1.58l0.789-1.24l1.127-0.789l1.127-0.338l0.451-0.451l0.338-0.338
	l0.789-1.58l0.789-0.338l0.451,0.338v0.451l0.338,0.789l0.451,0.338l1.58,0.789h1.465l1.58-0.451l1.24-0.338h0.338l0.457,0.791
	v0.338l-0.451,0.451l-0.789,1.127l-1.127,1.24l-0.789,1.58v1.127v1.923v1.58l0.338,0.789l0.789,0.789l1.24,0.789l0.789,0.451
	l0.789-0.451l1.127-1.127l1.24-2.031l1.127-1.127v1.58l-0.451,1.58v1.58v0.789l0.451,0.676l0.789,0.451h1.127h1.24h0.338
	l0.789-0.451l0.789-0.338h1.582h1.127h0.451l0.789,0.789l0.338,0.338v0.789l-0.338,0.789l-0.451,0.451h-0.338l-3.158,0.338
	l-2.707,0.789l0.338,0.451l0.789,0.338h1.24l0.789,0.451h0.338l0.338,0.789v0.789v1.127l0.451,1.918l-0.451,1.24v0.338l-0.676,0.451
	v1.127l-0.451,0.789l-0.789,0.338h-1.58v1.239h3.958v-0.015l0.789-0.789l0.338-1.127l0.451-1.58v-1.58l-0.451-2.031l0.451-1.127
	l0.338-1.127l0.789-1.24l1.24-1.127l1.58-1.24l1.467-1.127l1.24-1.58l0.789-1.58v-1.58l-0.451-1.58l-0.338-1.918V27.19v-0.338
	l-0.451,0.338h-1.127l-1.918,0.451l-1.58,0.789l-1.24,1.127l-0.789,1.918l-0.789,1.24l-1.127,0.789l-2.369,1.58h-0.789l-0.338-0.451
	l-0.451-1.127l-0.338-1.58v-0.789L71.461,27.979z M58.482,8.033h-1.58l-1.918,0.338V7.695l0.338-0.789l1.24-1.24l1.127-1.127
	l1.58-1.24l0.455,0.446l0.338,0.338l1.127,1.58l0.789,1.58l0.451,1.127L58.482,8.033z M63.554,1.039l-1.127-0.451l-0.789-0.789
	l-0.789-0.338L59.722-0.99l-2.031-0.789l0.451-1.127l0.789-0.789h1.127h1.127l1.242,0.789l0.338,0.338v0.453l-0.002,0.787
	l0.451,0.789l1.58,1.127L63.554,1.039z"/>
<path fill="#FFFFFF" d="M47.261-17.112c-31.184,0-56.464,25.28-56.464,56.464c0,7.516,1.481,14.681,4.149,21.238
	c0.919-0.281,4.664-1.382,7.688-1.647C-5.475,37.708,0.446,13.74,21.673-0.429l-1.118,2.19l-0.813,3.056l-0.316,0.212l-0.623,1.12
	C3.486,21.059-0.605,38.398,6.442,58.068l-2.163,0.814l0.136-0.001c3.739,0,6.897,0.743,9.354,2.092v-1.415h1.953
	c-1.474-2.695-2.637-5.704-3.401-9.042l-3.947-3.158l2.82-5.527l1.127-2.369v-0.789h-1.918l3.496-4.625l1.127-1.58l0.789-1.58
	l0.451-1.58v-1.127v-0.789l-0.451-1.58v-1.58v-0.789v-1.58v-0.338v-0.789l0.451-1.58l-2.369-1.24l2.707-4.285l0.789-1.127
	l1.918-3.158l1.58-3.496V5.398l0.789-2.369l1.24-1.918l0.331-0.331l0.062-0.144c0.004-0.004,0.018-0.031,0.022-0.038l1.162-2.645
	l1.472-1.578l2.031-1.58l3.947-1.918l1.465-0.789l2.369-0.789l2.369-0.789l1.916-0.338h1.24l1.127,0.338l2.82,1.24l2.963,0.769
	l0.016-0.016l-2.188-1.204l7.783-1.127l1.127-0.451l1.242,0.451l1.58,0.338l0.789,0.451h0.789h3.045l1.58,0.338l1.58,1.24
	l0.451,0.338l0.789,0.789h0.338l1.127,0.451l0.789,0.676l0.789,0.789l5.076,0.789l-1.916,3.613l1.918,1.58l3.609,1.127l3.834,1.58
	l2.031,1.127l1.58,1.58l0.789,1.58l0.338,1.58v1.58v0.789l0.451,1.918l0.338,1.58l0.404,2.128l0.024,0.075v0.049l0.022,0.117v0.338
	l-0.451,3.609l-0.338,1.467L87.1,25.819v0.338v0.789v0.789v1.573h-0.002v0.451l0.789,1.918v1.918v2.369l-0.338,0.451l-0.789,2.256
	l-1.24,1.58l-1.918,1.58l-1.918,1.58l-0.451,1.127v3.158c-0.117,1.383-0.319,2.712-0.582,4h0.422v9.997
	c2.691-1.86,6.162-2.809,10.377-2.809c3.16,0,5.878,0.556,8.16,1.624c2.646-6.535,4.114-13.672,4.114-21.156
	C103.725,8.168,78.445-17.112,47.261-17.112z M92.121,57.906l-3.604-1.463c3.783-9.127,4.751-19.447,1.562-31.51l0.639-2.731
	l0.449-1.352l0.422-2.879C96.885,30.336,97.508,45.083,92.121,57.906z"/>
</svg>
