<?xml version="1.0" encoding="utf-8"?>
<!-- Generator: Adobe Illustrator 17.0.0, SVG Export Plug-In . SVG Version: 6.00 Build 0)  -->
<!DOCTYPE svg PUBLIC "-//W3C//DTD SVG 1.1//EN" "http://www.w3.org/Graphics/SVG/1.1/DTD/svg11.dtd">
<svg version="1.1" id="Camada_1" xmlns="http://www.w3.org/2000/svg" xmlns:xlink="http://www.w3.org/1999/xlink" x="0px" y="0px"
	 width="75.063px" height="25.417px" viewBox="0 0 75.063 25.417" enable-background="new 0 0 75.063 25.417" xml:space="preserve">
<g id="Layer_2">
</g>
<g>
	<path fill="none" d="M9.38,7.974c-0.319,0-0.641,0.336-0.672,0.563C8.666,8.846,8.603,9.113,9.07,9.367
		c0.077,0.005,0.904,0.001,0.904,0.001S9.995,8.689,9.99,8.396S9.699,7.974,9.38,7.974z"/>
	<path fill="none" d="M52.787,9.675c0,0-1.263-0.18-1.263,4.06s1.263,3.969,1.263,3.969s1.353,0.271,1.353-3.969
		S52.787,9.675,52.787,9.675z"/>
	<path fill="none" d="M12.771,8.396c-0.129,0-0.287,0.08-0.463,0.422c-0.005,0.047,0,0.549,0,0.549h0.549
		c0,0,0.345-0.123,0.329-0.439C13.171,8.612,12.9,8.396,12.771,8.396z"/>
	<rect x="20.762" y="2.548" fill="#FFFFFF" width="3.248" height="2.977"/>
	<rect x="20.762" y="7.059" fill="#FFFFFF" width="3.248" height="14.344"/>
	<path fill="#FFFFFF" d="M13.681,4.042c-1.458-0.515-3.446-0.525-4.446-0.165c-1,0.36-1.771,0.636-2.69,1.702
		c-0.919,1.066-1.276,2.102-1.482,2.69c-0.206,0.588-0.169,2.006-0.11,2.58c0.059,0.573,0.494,1.613,0.604,1.811
		c0.11,0.198,0.556,0.951,0.659,1.098c0.103,0.147,1.013,1.163,1.043,1.208c0.279,0.507,0.331,0.851,0,1.153
		c-0.331,0.301-0.371,0.818-0.055,1.208c0.316,0.39,0.842,0.722,0.055,1.317C6.847,19.04,6.91,19.37,6.984,19.686
		C7.057,20.002,7.423,20.4,7.423,20.4l0.329,0.165l0.274-0.11l0.416-0.434l-0.297-0.578c0,0-0.299-0.222,0.172-0.516
		c0.897-0.544,0.123-1.597-0.031-1.781c-0.625-0.573-0.083-0.783,0.094-0.938c0.382-0.434-0.131-1.605-0.234-1.781
		s-0.677-0.915-0.891-1.172s-0.384-0.503-0.656-0.922c-0.272-0.419-0.681-1.53-0.703-1.766c-0.103-0.743,0.067-1.677,0.266-2.25
		S6.593,7.181,7.49,6.115s1.459-1.114,2.172-1.438s2.321-0.311,3.703,0.344s1.77,1.072,2.547,2.234s0.613,2.62,0.672,2.781
		s0.379,0.099,0.555,0.099c0.177,0,0.37-0.073,0.384-0.22s-0.181-2.221-0.659-3.074C16.386,5.989,15.138,4.557,13.681,4.042z"/>
	<path fill="#FFFFFF" d="M34.113,9.134c-0.124-0.439-0.345-1.468-1.173-1.985c-0.295-0.213-1.277-0.472-1.894-0.451
		c-0.618,0.021-1.232,0.85-1.534,1.173c-0.302,0.323-0.722,1.083-0.722,1.083V7.059h-2.977l-0.09,14.254h3.157V11.118
		c0,0,0.209-1.624,1.263-1.624c0.864-0.043,0.994,0.404,0.992,0.812c-0.002,0.408,0,11.006,0,11.006h3.067
		c0,0,0.014-11.223,0-11.367S34.237,9.573,34.113,9.134z"/>
	<rect x="43.586" y="2.548" fill="#FFFFFF" width="3.248" height="2.977"/>
	<rect x="43.586" y="7.059" fill="#FFFFFF" width="3.248" height="14.344"/>
	<path fill="#FFFFFF" d="M67.402,9.134c-0.124-0.439-0.345-1.468-1.173-1.985c-0.295-0.213-1.277-0.472-1.894-0.451
		c-0.618,0.021-1.232,0.85-1.534,1.173c-0.302,0.323-0.722,1.083-0.722,1.083V2.548h-2.977l-0.09,18.764h3.157V11.118
		c0,0,0.052-1.624,1.263-1.624c1.023-0.024,0.992,0.925,0.992,0.812v11.006h3.067c0,0,0.014-11.223,0-11.367
		S67.525,9.573,67.402,9.134z"/>
	<path fill="#FFFFFF" d="M12.693,7.474c-0.329,0.008-1.047,0.016-1.203,1.188c-0.008,0.282,0.016,0.705,0.016,0.705H10.99
		c0,0,0-0.773-0.016-1.424s-1.13-0.992-1.781-1.016s-1.57,0.597-1.625,1.828s1.344,1.625,1.344,1.625l1.063-0.063l-0.047,1.547
		c0,0,0.232,0.176,0.57,0.192c0.337,0.016,0.493-0.176,0.493-0.176v-1.745h0.484c0,0,0.008,0.885,0.047,1.011
		s0.304,0.078,0.438,0.078s0.383,0.079,0.391-0.063c0.008-0.141-0.041-1.081-0.041-1.081l1.056-0.012c0,0,0.859-0.356,0.891-1.141
		S13.022,7.466,12.693,7.474z M9.974,9.367c0,0-0.827,0.005-0.904-0.001c-0.467-0.253-0.403-0.521-0.361-0.83
		C8.739,8.31,9.062,7.974,9.38,7.974S9.985,8.103,9.99,8.396S9.974,9.367,9.974,9.367z M12.857,9.367h-0.549
		c0,0-0.005-0.502,0-0.549c0.176-0.342,0.333-0.422,0.463-0.422s0.4,0.216,0.416,0.532C13.202,9.243,12.857,9.367,12.857,9.367z"/>
	<path fill="#FFFFFF" d="M38.624,11.299c-1.388-1.699,1.248-1.95,1.714-1.804c0.466,0.146,1.263,0.361,1.263,0.361l0.09-2.526
		c0,0-0.497-0.458-2.526-0.361c-2.029,0.097-3.66,1.888-3.699,3.518s0.831,3.057,2.346,4.601c1.514,1.543,1.036,0.99,1.443,1.534
		c1.019,2.922-1.804,2.075-1.804,2.075l-1.714-0.541c0,0,0,0.013,0,0.037c0,0.319,0,2.85,0,2.85s1.417,0.719,3.067,0.631
		c1.65-0.087,3.706-1.708,3.609-3.969c-0.097-2.262-2.165-4.511-2.165-4.511S40.012,12.998,38.624,11.299z"/>
	<path fill="#FFFFFF" d="M54.321,6.969l-0.09,1.804h-0.09c0,0-0.976-1.481-1.263-1.624c-0.287-0.143-0.3-0.361-1.443-0.361
		s-2.977,0.694-2.977,6.856c0,5.323,0.977,5.691,1.624,6.315c1.382,0.977,2.181,0.458,2.526,0.271
		c0.345-0.187,1.534-1.714,1.534-1.714s0.264,1.508,0.18,2.075c-0.072,0.488-1.183,1.866-2.616,1.804s-2.436-0.631-2.436-0.631
		l-0.18,2.616c0,0,0.923,0.48,1.353,0.541c0.43,0.061,1.609,0.184,2.797,0c1.187-0.184,2.469-0.936,2.797-1.263
		s1.029-1.298,1.173-2.526c0.143-1.228,0-14.163,0-14.163H54.321z M52.787,17.704c0,0-1.263,0.271-1.263-3.969
		s1.263-4.06,1.263-4.06s1.353-0.18,1.353,4.06S52.787,17.704,52.787,17.704z"/>
	<path fill="#FFFFFF" d="M74.258,9.495V7.059l-1.624-0.09V3.36h-3.067l-0.09,3.699h-0.902v2.436h0.992c0,0,0,6.122,0,8.931
		s1.18,3.248,2.616,3.248s1.985-0.722,1.985-0.722l0.09-2.165l-1.173,0.18c0,0-0.541,0.145-0.541-0.812s0.09-8.66,0.09-8.66H74.258z
		"/>
	<path fill="#FFFFFF" d="M10.333,22.708c-0.2-0.014-1.202,0.388-3.219,0.781c-0.2,0.029-1.109,0.25-1.109,0.25
		S5.7,24.08,4.677,23.537c-0.2-0.186-0.172-0.406-0.172-0.406s0.031-0.347,0.031-0.719s-0.313-0.938-0.313-0.938
		s-0.203-0.064-0.203-0.25s0.313-0.375,0.313-0.375s0.125-0.315,0.125-0.516s-0.453-0.641-0.453-0.641s-0.191-0.123-0.188-0.203
		c0.073-0.366,0.204-0.201,0.313-0.734c0-0.567-0.505-0.911-0.641-1.047s-1.047-0.547-1.047-0.547s-0.484-0.187-0.484-0.438
		s0.313-0.516,0.313-0.516l1.156-1.453c0,0,0.453-0.831,0.453-1.703S3.474,11.38,3.474,11.38S3.24,10.23,3.24,8.521
		c0.043-6.286,7.069-6.696,7.313-6.703c0.122,0.007,1.469-0.031,1.469-0.031l0.178-0.434l-0.22-0.329l-1.262-0.11
		c0,0-6.965,0.491-8.289,5.818C2.142,7.776,2.153,8.488,2.153,8.488l0.055,1.043l0.439,2.415c0,0,0.165,0.979,0.165,1.427
		s-0.494,1.317-0.494,1.317L1.33,15.954c0,0-0.348,0.478-0.329,0.823s0.352,0.681,0.384,0.714c0.033,0.033,0.604,0.329,0.604,0.329
		l0.768,0.549c0,0,0.38,0.294,0.384,0.439c0.005,0.145-0.165,0.384-0.165,0.384s-0.179,0.293-0.165,0.494s0.22,0.439,0.22,0.439
		s0.274,0.263,0.274,0.384s-0.165,0.384-0.165,0.384s-0.11,0.152-0.11,0.329c0,0.177,0.106,0.435,0.329,0.659
		s0.274,0.659,0.274,0.659s-0.055,0.473-0.055,0.823s0.212,0.729,0.384,0.878c0.173,0.149,1.373,0.659,2.031,0.659
		c0.658,0,1.045-0.136,1.153-0.165c1.523-0.207,3.518-1.141,3.568-1.263c0.05-0.122,0-0.384,0-0.384S10.534,22.723,10.333,22.708z"
		/>
</g>
</svg>
