<?xml version="1.0" encoding="utf-8"?>
<!-- Generator: Adobe Illustrator 17.0.0, SVG Export Plug-In . SVG Version: 6.00 Build 0)  -->
<!DOCTYPE svg PUBLIC "-//W3C//DTD SVG 1.1//EN" "http://www.w3.org/Graphics/SVG/1.1/DTD/svg11.dtd">
<svg version="1.1" id="Layer_1" xmlns="http://www.w3.org/2000/svg" xmlns:xlink="http://www.w3.org/1999/xlink" x="0px" y="0px"
	 width="183.763px" height="54.081px" viewBox="0 0 183.763 54.081" enable-background="new 0 0 183.763 54.081"
	 xml:space="preserve">
<g>
	<g>
		<path d="M69.631,36.169h-1.598c-0.855,0-1.649,0.282-2.381,0.845c-0.396,0.293-0.783,0.594-1.158,0.908
			c-0.565,0.335-1.244,0.5-2.037,0.5c-1.19,0-2.187-0.34-2.991-1.017c-0.805-0.678-1.206-1.488-1.206-2.428
			c0-2.986,2.862-4.562,8.583-4.73v-2.067c0-1.587-0.168-2.752-0.502-3.494c-0.334-0.74-0.929-1.111-1.784-1.111
			c-0.586,0-1.086,0.225-1.504,0.673c-0.417,0.45-0.626,1.017-0.626,1.708v0.125c0,1.149-0.522,1.764-1.567,1.848l-1.848-1.754
			c0.125-0.96,0.689-1.738,1.692-2.333c1.002-0.596,2.276-0.894,3.822-0.894c1.815,0,3.121,0.423,3.915,1.27
			c0.792,0.845,1.189,2.239,1.189,4.181V36.169z M66.844,34.791v-3.915c-3.654,0.125-5.481,1.306-5.481,3.539
			c0,0.836,0.208,1.503,0.626,2.005c0.418,0.501,0.949,0.751,1.597,0.751c0.627,0,1.243-0.214,1.849-0.642
			C66.039,36.101,66.509,35.522,66.844,34.791z"/>
		<path d="M89.615,38.642c0,2.214-0.454,3.785-1.363,4.714c-0.908,0.93-2.48,1.394-4.713,1.394h-0.72v-0.375h0.626
			c1.253,0,2.134-0.371,2.647-1.113c0.511-0.74,0.767-1.935,0.767-3.586v-3.978h-0.313c-1.024,1.817-2.391,2.724-4.104,2.724
			c-1.671,0-3.002-0.657-3.994-1.972c-0.992-1.316-1.487-3.112-1.487-5.389c0-2.589,0.474-4.589,1.425-5.998
			c0.95-1.41,2.26-2.115,3.932-2.115c1.399,0,2.672,0.565,3.822,1.691c0.772,0.774,1.93,1.171,3.476,1.192L89.615,38.642
			L89.615,38.642z M86.858,27.429c-0.794-2.151-1.942-3.226-3.446-3.226c-2.234,0-3.352,2.141-3.352,6.422
			c0,4.364,1.076,6.546,3.227,6.546c1.085,0,1.951-0.469,2.599-1.41c0.648-0.94,0.972-2.245,0.972-3.915V27.429z"/>
		<path d="M107.969,36.169h-1.597c-0.857,0-1.65,0.282-2.381,0.845c-0.397,0.293-0.783,0.594-1.159,0.908
			c-0.565,0.335-1.244,0.5-2.037,0.5c-1.189,0-2.187-0.34-2.991-1.017c-0.804-0.678-1.206-1.488-1.206-2.428
			c0-2.986,2.861-4.562,8.582-4.73v-2.067c0-1.587-0.167-2.752-0.501-3.494c-0.333-0.74-0.929-1.111-1.784-1.111
			c-0.586,0-1.086,0.225-1.504,0.673c-0.418,0.45-0.626,1.017-0.626,1.708v0.125c0,1.149-0.522,1.764-1.567,1.848l-1.846-1.754
			c0.124-0.96,0.688-1.738,1.691-2.333c1.002-0.596,2.276-0.894,3.821-0.894c1.816,0,3.121,0.423,3.916,1.27
			c0.793,0.845,1.189,2.239,1.189,4.181v7.769H107.969z M105.182,34.791v-3.915c-3.654,0.125-5.481,1.306-5.481,3.539
			c0,0.836,0.208,1.503,0.626,2.005c0.418,0.501,0.95,0.751,1.598,0.751c0.626,0,1.242-0.214,1.848-0.642
			C104.378,36.101,104.847,35.522,105.182,34.791z"/>
		<path d="M123.976,22.897h-4.229v11.924c0,1.171,0.143,1.953,0.429,2.349c0.286,0.397,0.949,0.596,1.99,0.596h0.274v0.313h-3.591
			c-1.26,0-1.89-1.065-1.89-3.195V22.897h-2.402c-0.257-0.062-0.385-0.198-0.385-0.407c0-0.23,0.126-0.376,0.376-0.439
			c2.757-0.021,4.135-2.422,4.135-7.204h1.064v7.204h4.229V22.897z"/>
		<path d="M144.992,38.08h-2.412c-1.692,0-2.537-0.95-2.537-2.849v-4.477c0-2.548-0.115-4.197-0.344-4.949
			c-0.314-1.106-1.055-1.66-2.224-1.66c-1.045,0-1.989,0.611-2.835,1.832c-0.845,1.222-1.268,2.605-1.268,4.151v7.953h-2.756V18.203
			c0-1.357-0.117-2.234-0.345-2.631c-0.313-0.523-0.982-0.783-2.005-0.783h-0.093V14.35h5.199v12.518h0.345
			c1.211-2.943,2.986-4.416,5.324-4.416c2.464,0,3.697,1.401,3.697,4.198v8.14c0,1.045,0.093,1.754,0.282,2.129
			c0.293,0.564,0.918,0.846,1.878,0.846h0.094L144.992,38.08L144.992,38.08z"/>
		<path d="M162.626,30.814c0,5.074-2.036,7.61-6.108,7.61c-4.051,0-6.076-2.536-6.076-7.61c0-5.242,2.025-7.864,6.076-7.864
			c1.901,0,3.393,0.69,4.48,2.068C162.083,26.397,162.626,28.328,162.626,30.814z M159.839,30.814c0-2.527-0.256-4.366-0.768-5.513
			c-0.512-1.149-1.362-1.723-2.553-1.723c-1.169,0-2.01,0.584-2.521,1.754c-0.512,1.17-0.768,2.996-0.768,5.482
			c0,2.422,0.261,4.176,0.784,5.262c0.542,1.148,1.441,1.722,2.694,1.722c1.168,0,1.994-0.575,2.474-1.722
			C159.621,35.031,159.839,33.277,159.839,30.814z"/>
		<path d="M177.253,26.083c-0.313-1.545-1.346-2.319-3.1-2.319c-0.856,0-1.54,0.231-2.051,0.689
			c-0.512,0.46-0.767,1.054-0.767,1.786c0,0.835,0.892,1.796,2.677,2.882c1.786,1.085,2.855,1.796,3.212,2.129
			c0.875,0.794,1.314,1.776,1.314,2.944c0,1.274-0.464,2.292-1.393,3.054c-0.929,0.762-2.187,1.142-3.774,1.142
			c-1.15,0-2.204-0.24-3.164-0.719c-0.835-0.397-1.253-0.763-1.253-1.098c0-0.291,0.145-0.437,0.439-0.437
			c0.041,0,0.135,0.042,0.282,0.126c1.315,0.773,2.443,1.159,3.382,1.159c2.006,0,3.008-0.752,3.008-2.255
			c0-0.835-0.418-1.567-1.254-2.192c-0.042-0.043-1.045-0.648-3.007-1.817c-1.963-1.168-2.944-2.464-2.944-3.884
			c0-1.274,0.464-2.312,1.393-3.117c0.93-0.802,2.135-1.206,3.619-1.206c1.482,0,2.704,0.24,3.664,0.721v2.412h-0.282V26.083z"/>
	</g>
	<path fill="#AD1015" d="M65.021,21.878c2.926,0.018,4.284,1.01,4.899,2.102l0,0c-0.79-2.757,0.247-4.921,0.247-4.921l-9.132,3.367
		C62.226,22.169,63.144,21.867,65.021,21.878z"/>
</g>
<g>
	<path fill="#FAA61A" d="M8.886,42.206c0,0,18.488-10.562,23.411-35.706c6.871,3.604,7.663,4.249,7.663,4.249
		s-6.833,27.424-23.084,36.805C13.522,45.309,8.886,42.206,8.886,42.206z"/>
	<path fill="#FAA61A" d="M3.83,23.212c0,0,8.504-9.43,8.619-13.471c5.956-0.139,8.109-5.063,8.109-5.063s7.615,11.904-12.297,25.534
		C7.448,26.506,3.83,23.212,3.83,23.212z"/>
	<path fill="#FAA61A" d="M23.072,49.389c0,0,20.774-9.061,23.194-32.81C53.105,29.207,45.003,49.993,23.072,49.389z"/>
	<path fill="#AD1015" d="M23.072,49.389c0,0,9.432-21.623-10.623-39.647c6.897-3.554,8.109-5.063,8.109-5.063
		s20.178,17.288,11.973,43.529C28.029,49.619,23.072,49.389,23.072,49.389z"/>
	<path fill="#AD1015" d="M8.886,42.206l7.989,5.349c0,0,7.186-19.725-9.538-33.043c-2.252,6.369-3.507,8.7-3.507,8.7
		S12.534,31.896,8.886,42.206z"/>
	<path fill="#AD1015" d="M41.943,42.572c0,0,4.378-20.707-9.646-36.073C44.725,8.919,57.413,25.806,41.943,42.572z"/>
</g>
</svg>
