<?xml version="1.0" encoding="utf-8"?>
<!-- Generator: Adobe Illustrator 17.0.0, SVG Export Plug-In . SVG Version: 6.00 Build 0)  -->
<!DOCTYPE svg PUBLIC "-//W3C//DTD SVG 1.1//EN" "http://www.w3.org/Graphics/SVG/1.1/DTD/svg11.dtd">
<svg version="1.1" id="Camada_1" xmlns="http://www.w3.org/2000/svg" xmlns:xlink="http://www.w3.org/1999/xlink" x="0px" y="0px"
	 width="174px" height="51.25px" viewBox="0 0 174 51.25" enable-background="new 0 0 174 51.25" xml:space="preserve">
<g>
	<path fill="#FFFFFF" d="M28.836,17.874c-1.457-0.626-3.079-0.993-4.701-0.993c-1.589,0-3.643,0.697-3.643,3.212
		c0,4.006,10.132,2.315,10.132,10.062c0,5.07-4.006,6.988-8.675,6.988c-2.514,0-3.642-0.33-5.925-0.895l0.429-4.17
		c1.59,0.861,3.411,1.42,5.232,1.42c1.754,0,4.105-0.891,4.105-2.977c0-4.403-10.13-2.58-10.13-10.231
		c0-5.166,4.006-7.054,8.077-7.054c1.986,0,3.842,0.269,5.528,0.829L28.836,17.874z"/>
	<path fill="#FFFFFF" d="M38.136,13.638h13.641v3.64H42.77v5.695h8.245v3.64H42.77v6.489h9.075v3.645h-13.71V13.638z"/>
	<path fill="#FFFFFF" d="M59.454,13.638h5.001c4.965,0,10.894-0.168,10.894,6.256c0,2.713-1.822,4.968-4.769,5.364v0.066
		c1.258,0.097,1.985,1.354,2.448,2.382l3.711,9.039h-5.166l-2.782-7.217c-0.661-1.721-1.257-2.387-3.211-2.387h-1.489v9.604h-4.637
		V13.638z M64.091,23.502h1.522c2.285,0,4.901-0.331,4.901-3.212c0-2.784-2.583-3.013-4.901-3.013h-1.522V23.502z"/>
	<path fill="#FFFFFF" d="M89.222,3.48h-4.553H2.472v44.321h82.197h4.553h82.196V3.48H89.222z M84.669,43.246H7.021V8.03h77.647
		V43.246z M114.08,17.278h-6.622v19.468h-4.634V17.278h-6.622v-3.64h17.878V17.278z M134.042,36.746h-13.707V13.638h13.641v3.64
		h-9.004v5.695h8.24v3.64h-8.24v6.489h9.07V36.746z M153.606,37.143c-7.481,0-12.681-3.74-12.681-11.553
		c0-7.915,4.835-12.353,12.681-12.353c1.521,0,3.542,0.3,5.23,0.962l-0.33,3.908c-1.754-0.997-3.345-1.226-4.998-1.226
		c-4.77,0-7.747,3.64-7.747,8.378c0,4.699,2.911,8.24,7.846,8.24c1.819,0,3.973-0.396,5.067-0.957l0.195,3.875
		C157.182,36.813,155.359,37.143,153.606,37.143z"/>
</g>
<g>
</g>
<g>
</g>
<g>
</g>
<g>
</g>
<g>
</g>
<g>
</g>
<g>
</g>
<g>
</g>
<g>
</g>
<g>
</g>
<g>
</g>
<g>
</g>
<g>
</g>
<g>
</g>
<g>
</g>
</svg>
