<?xml version="1.0" encoding="utf-8"?>
<!DOCTYPE svg PUBLIC "-//W3C//DTD SVG 1.1//EN" "http://www.w3.org/Graphics/SVG/1.1/DTD/svg11.dtd">
<svg version="1.1" xmlns="http://www.w3.org/2000/svg" xmlns:xlink="http://www.w3.org/1999/xlink" x="0px" y="0px"
	 width="144px" height="144px" viewBox="4.25 0.25 144 144" enable-background="new 4.25 0.25 144 144" xml:space="preserve">
<g>
	<path d="M45.61,18.2c10.17-5.18,20.35-10.36,30.6-15.37c11.271,5.08,22.71,9.78,33.99,14.86c1.45,0.61,3.1,1.44,4.649,0.6
		c10.34-5.06,20.601-10.28,30.851-15.51c0.03,41.06-0.021,82.119,0.03,123.18c-10.791,5.3-21.57,10.641-32.451,15.76
		c-11.35-5.07-22.93-9.63-34.34-14.56c-1.199-0.47-2.549-1.44-3.859-0.761c-10.12,4.961-20.17,10.051-30.33,14.9
		c-1.17,0.75-2.42-0.359-3.54-0.65c-11.44-4.969-22.97-9.77-34.44-14.699c0.04-41.051,0-82.1,0.02-123.15
		c11.47,5.11,23.02,10.03,34.49,15.13C42.61,18.58,44.24,18.97,45.61,18.2 M47.3,29.72c-2.86,1.84-5.9-0.21-8.61-1.26
		c-6.96-3.24-14.14-6.05-20.95-9.6c-0.19,4.37-0.05,8.73-0.1,13.09c9.24,4.16,18.28,8.78,27.51,12.95
		c11.34-0.21,22.65-1.84,34.01-1.93c6.279,6,13.02,11.5,19.3,17.5c12.149-6.54,24.14-13.37,36.33-19.84
		c0.149-6.8,0.45-13.6,0.649-20.4c-6.609,3.38-13.25,6.74-19.969,9.91c-2.121,1.03-4.291-0.54-6.281-1.2
		C98.21,24.1,87.141,19.45,76.2,14.52C66.57,19.59,57.06,24.91,47.3,29.72 M103.57,63.66c0.02,0.29,0.05,0.87,0.07,1.16
		c10.649,8.77,21.09,17.81,31.739,26.59c-0.18-15.021-0.44-30.05-0.55-45.07C124.43,52.14,114.109,58.11,103.57,63.66 M17.66,67.26
		c9.48,1,19.53,3.54,26.17,10.87c4.63,0.24,9.18,2.4,11.61,6.471c4.03,5.859,6.45,14.5,14.72,15.52c6.96-3,15.17-1.49,21.689,2.07
		c9.021,5.51,12.86,16.039,14.99,25.859c2.77,0.551,5.65,3.54,8.45,1.61c6.399-3.44,12.771-6.97,19.39-9.979
		c0.221-2.73,0.211-5.48,0.18-8.221C113.71,95.07,93.8,77.21,73.89,59.35c-10.48,0.31-20.91,1.78-31.39,2.081
		C34.22,57.76,25.87,54.19,17.76,50.15C17.52,55.85,17.69,61.56,17.66,67.26z"/>
</g>
</svg>
