<?xml version="1.0" encoding="utf-8"?>
<!DOCTYPE svg PUBLIC "-//W3C//DTD SVG 1.1//EN" "http://www.w3.org/Graphics/SVG/1.1/DTD/svg11.dtd">
<svg version="1.1" xmlns="http://www.w3.org/2000/svg" xmlns:xlink="http://www.w3.org/1999/xlink" x="0px" y="0px"
	 width="114px" height="114px" viewBox="0.432 -6.567 114 114" enable-background="new 0.432 -6.567 114 114" xml:space="preserve">
<path d="M3.208,18.382l51.848-0.047l-0.079,5.438l7.393-5.686h49.438v74.157H3.057L3.208,18.382L3.208,18.382z M10.865,31.3
	c0,11.433-0.154,22.798-0.154,34.125l-0.079,2.835c5.791,2.248,7.774,3.609,32.8,2.616c-1.738,11.068-1.303,13.764,5.652,16.884
	c18.491,0,37.886,0.188,55.876,0.188l0.313-56.647h-0.313h-4.779H15.805h-4.78L10.865,31.3L10.865,31.3z M96.702,64.487v-4.854
	h-2.527H20.549v4.854h3.794H96.702L96.702,64.487z M96.702,56.8v-5.228H20.549V56.8h3.162H96.702L96.702,56.8z M96.702,43.51H20.549
	v5.229H96.7V43.51H96.702z M96.702,36.197H20.549v1.313v3.166H96.7v-4.479H96.702z"/>
<path d="M56.164,21.895l3.866-4.572c5.479-0.262,7.202-0.651,7.446-1.184c0.295-0.646-1.595-1.691-1.719-4.745
	c-0.063-1.521,0.969-2.657,1.625-3.29c0.846-0.815,2.026-1,1.835-2.296c-0.417-2.791-9.992-5.03-10.674-2.044
	c-0.206,0.898,0.384,1.646,0.243,2.563c-0.258,1.683-0.899,2.38-1.498,3.135c-1.729,2.183-4.781,2.266-4.844,2.699
	c-0.155,1.116,1.443,2.831,4.419,3.999C56.867,16.16,56.164,21.875,56.164,21.895L56.164,21.895z M60.445,3.518
	c0.621-0.997,8.098,1.22,7.479,2.417c-0.339,0.655-2.354,0.363-4.244-0.188C61.741,5.184,59.923,4.356,60.445,3.518z"/>
</svg>
