<?xml version="1.0" encoding="utf-8"?>
<!DOCTYPE svg PUBLIC "-//W3C//DTD SVG 1.1//EN" "http://www.w3.org/Graphics/SVG/1.1/DTD/svg11.dtd">
<svg version="1.1" xmlns="http://www.w3.org/2000/svg" xmlns:xlink="http://www.w3.org/1999/xlink" x="0px" y="0px"
	 width="183px" height="183px" viewBox="-14.5 -14.5 183 183" enable-background="new -14.5 -14.5 183 183" xml:space="preserve">
<g>
	<path d="M20.707,3.124c39.96-0.03,79.932-0.34,119.891,0.16c-0.15,49.31-0.189,98.62,0.01,147.929
		c-39.969,0.281-79.939,0.051-119.911,0.111c-0.11-7-0.11-13.99,0-20.98c5.35,0.021,10.71,0.051,16.06-0.211
		c0.18-3.869,0.18-7.738-0.01-11.609c-5.35-0.25-10.71-0.221-16.07-0.198c-0.02-3.33-0.02-6.66-0.01-9.991
		c5.37,0.03,10.73,0.061,16.09-0.189c0.18-3.871,0.18-7.75-0.01-11.621c-5.35-0.25-10.72-0.219-16.07-0.198
		c-0.01-2.99-0.01-5.99,0-8.99c5.36,0.03,10.72,0.07,16.07-0.188c0.19-3.871,0.19-7.75,0-11.622c-5.35-0.25-10.71-0.22-16.07-0.189
		c-0.02-3.33-0.02-6.66-0.01-9.99c5.36,0.021,10.73,0.051,16.08-0.21c0.19-3.86,0.19-7.74,0-11.61c-5.35-0.25-10.72-0.22-16.08-0.2
		c0-2.99,0-5.99,0.01-8.99c5.36,0.03,10.72,0.06,16.07-0.19c0.19-3.87,0.19-7.75,0-11.62c-5.35-0.25-10.7-0.22-16.05-0.19
		C20.587,22.593,20.577,12.864,20.707,3.124 M47.757,26.173c0,1.77,0,3.55,0,5.32c23.44,0.07,46.882,0.06,70.32,0.01
		c0-1.78,0-3.56,0-5.33C94.639,26.104,71.197,26.093,47.757,26.173 M47.757,34.173c0,1.77,0,3.55,0,5.33
		c23.44,0.06,46.882,0.06,70.32,0c0-1.78,0-3.56,0-5.34C94.639,34.104,71.197,34.104,47.757,34.173 M47.757,43.173
		c0,1.77,0,3.55,0,5.33c23.44,0.06,46.882,0.06,70.32,0c0-1.78,0-3.56,0-5.34C94.639,43.104,71.197,43.104,47.757,43.173
		 M47.757,52.164c0,1.78,0,3.56,0,5.34c23.44,0.06,46.882,0.06,70.32,0c0-1.78,0-3.56,0-5.34
		C94.639,52.104,71.197,52.104,47.757,52.164 M47.757,62.173c0,1.77,0,3.551,0,5.32c23.44,0.07,46.882,0.07,70.32,0.01
		c0-1.779,0-3.56,0-5.33C94.639,62.104,71.197,62.104,47.757,62.173 M47.767,71.164c-0.01,1.779-0.02,3.561-0.02,5.34
		c23.45,0.061,46.892,0.061,70.33,0c0-1.779,0-3.561,0-5.33C94.639,71.103,71.197,71.103,47.767,71.164 M47.757,80.164
		c0,1.779,0,3.561,0,5.33c23.44,0.07,46.882,0.061,70.32,0.01c0-1.779,0-3.561,0-5.34C94.639,80.104,71.197,80.104,47.757,80.164
		 M120.816,105.293c3.789,3.891,7.521,7.871,11.709,11.352c1.802-1.941,4.08-3.603,5.17-6.07c-3.299-4.09-7.379-7.451-11.01-11.231
		C124.717,101.314,122.757,103.293,120.816,105.293 M93.717,108.244c-3.72,1.39-3.578,5.79-3.5,9.059
		c0.271,8.281-0.21,16.58,0.19,24.853c0.02,2.879,2.68,5.108,5.51,4.897c8.34,0.211,16.688-0.078,25.04,0.103
		c3,0.049,7.12,0.038,8.238-3.441c1-4.219,0.441-8.619,0.312-12.897c-2.198,1.567-4.239,3.35-6.159,5.238
		c0.131,1.711,0.26,3.422,0.399,5.131c-9.188,0.131-18.38,0.131-27.562,0.01c0.16-9.18,0.09-18.359,0.051-27.539
		c1.931,0.08,3.869,0.16,5.811,0.24c1.79-1.98,3.561-3.972,5.221-6.062C102.768,107.814,98.127,107.104,93.717,108.244
		 M101.309,124.604c0,3.99-0.07,7.98-0.262,11.972c3.95,0.069,7.91,0.09,11.86,0.02c5.27-6.18,11.39-11.561,16.948-17.471
		c-3.789-3.89-7.568-7.799-11.66-11.36C112.547,113.354,106.957,119.014,101.309,124.604z"/>
	<path d="M14.077,33.543c7.22-0.33,14.46-0.33,21.69,0c0.09,3.19,0.09,6.39,0,9.58c-7.23,0.33-14.47,0.33-21.7,0
		C13.977,39.934,13.977,36.733,14.077,33.543z"/>
	<path d="M14.077,54.543c7.22-0.33,14.46-0.33,21.68,0c0.1,3.19,0.1,6.39,0,9.58c-7.22,0.33-14.46,0.33-21.68,0
		C13.977,60.934,13.977,57.733,14.077,54.543z"/>
	<path d="M14.077,76.543c7.22-0.33,14.46-0.33,21.68,0c0.1,3.189,0.1,6.391,0.01,9.58c-7.23,0.33-14.47,0.33-21.7,0
		C13.977,82.923,13.977,79.734,14.077,76.543z"/>
	<path d="M14.077,97.543c7.22-0.33,14.46-0.33,21.68,0c0.1,3.189,0.1,6.391,0.01,9.58c-7.23,0.33-14.47,0.33-21.69,0
		C13.977,103.934,13.977,100.734,14.077,97.543z"/>
	<path d="M14.077,119.553c7.22-0.34,14.46-0.34,21.68-0.01c0.1,3.191,0.1,6.391,0.01,9.58c-7.23,0.33-14.47,0.33-21.69,0
		C13.977,125.934,13.977,122.734,14.077,119.553z"/>
	<path d="M103.217,129.064c1.342,1.59,2.672,3.188,3.979,4.809c-1.379,0.09-2.76,0.191-4.139,0.291
		C103.105,132.463,103.157,130.764,103.217,129.064z"/>
</g>
</svg>
