<?xml version="1.0" encoding="utf-8"?>
<!DOCTYPE svg PUBLIC "-//W3C//DTD SVG 1.1//EN" "http://www.w3.org/Graphics/SVG/1.1/DTD/svg11.dtd">
<svg version="1.1" xmlns="http://www.w3.org/2000/svg" xmlns:xlink="http://www.w3.org/1999/xlink" x="0px" y="0px"
	 width="95px" height="95px" viewBox="-0.567 2.308 95 95" enable-background="new -0.567 2.308 95 95" xml:space="preserve">
<g>
	<path d="M14.773,22.652l30.75-0.047l-0.047,5.438l4.386-5.686h29.319v74.157H14.683L14.773,22.652L14.773,22.652z M19.314,35.57
		c0,11.433-0.093,22.799-0.093,34.125l-0.047,2.834c3.435,2.248,4.612,3.61,19.453,2.616c-1.031,11.068-0.773,13.764,3.353,16.884
		c10.968,0,22.47,0.188,33.141,0.188l0.186-56.647h-0.186h-2.834H22.246h-2.835H19.314L19.314,35.57z M70.222,68.758v-4.854h-1.499
		H25.057v4.854h2.25H70.222L70.222,68.758z M70.222,61.07v-5.228H25.057v5.228h1.875H70.222L70.222,61.07z M70.222,47.78H25.057
		v5.229h45.165V47.78L70.222,47.78z M70.222,40.468H25.057v1.313v3.165h45.165V40.468z"/>
	<path d="M46.328,25.549l3.607-5.25c5.114-0.301,6.723-0.748,6.949-1.36c0.276-0.742-1.487-1.94-1.604-5.449
		c-0.059-1.744,0.902-3.051,1.518-3.776c0.789-0.938,1.893-1.148,1.712-2.637c-0.389-3.205-9.324-5.776-9.961-2.349
		c-0.192,1.034,0.358,1.895,0.229,2.944c-0.239,1.933-0.842,2.731-1.398,3.6c-1.613,2.504-4.462,2.602-4.521,3.102
		c-0.146,1.279,1.35,3.251,4.125,4.593C46.983,18.964,46.328,25.526,46.328,25.549L46.328,25.549z M50.322,4.444
		c0.579-1.144,7.556,1.402,6.979,2.776c-0.316,0.755-2.197,0.419-3.961-0.214C51.533,6.357,49.836,5.409,50.322,4.444z"/>
</g>
</svg>
