<?xml version="1.0" encoding="utf-8"?>
<!DOCTYPE svg PUBLIC "-//W3C//DTD SVG 1.1//EN" "http://www.w3.org/Graphics/SVG/1.1/DTD/svg11.dtd">
<svg xmlns="http://www.w3.org/2000/svg" version="1.1" height="640" width="640" y="0" x="0" viewBox="0 -32 640 640" >
    <g transform="matrix(1,0,0,-1,0,575.97732)">
        <path d="M 494.48,373.067l-95.627,95.627c-10.373,10.373-18.853,6.853-18.853-7.813l0.00-26.667 c0.00-14.667-10.72-32.027-23.867-38.587l-58.96-29.467C 284.053,359.60, 261.333,354.213, 246.667,354.213l-26.667,0.00 c-14.667,0.00-32.667,0.00-40.00,0.00s-4.853-8.48, 5.52-18.853l 76.133-76.133L 160.00,148.667l 115.76,96.453l 85.387-85.387c 10.373-10.373, 18.853-6.853, 18.853,7.813l0.00,53.333 c0.00,14.667, 5.36,37.387, 11.92,50.533l 29.467,58.96c 6.56,13.12, 23.92,23.867, 38.587,23.867l 26.667,0.00 C 501.333,354.213, 504.853,362.72, 494.48,373.067z" />
    </g>
</svg>
