<?xml version="1.0" encoding="utf-8"?>
<!DOCTYPE svg PUBLIC "-//W3C//DTD SVG 1.1//EN" "http://www.w3.org/Graphics/SVG/1.1/DTD/svg11.dtd">
<svg xmlns="http://www.w3.org/2000/svg" version="1.1" height="640" width="640" y="0" x="0" viewBox="0 -32 640 640" >
    <g transform="matrix(1,0,0,-1,0,575.97732)">
        <path d="M 613.242,507.933C 523.473,520.839, 424.285,528.00, 320.001,528.00c-104.288,0.00-203.472-7.161-293.246-20.067C 9.549,440.604,0.00,366.214,0.00,288.00c0.00-78.213, 9.549-152.604, 26.755-219.931C 116.529,55.161, 215.715,48.00, 320.001,48.00c 104.284,0.00, 203.47,7.161, 293.241,20.069C 630.45,135.396, 640.00,209.788, 640.00,288.00C 640.00,366.214, 630.45,440.604, 613.242,507.933z M 240.001,168.00L 240.001,408.00 l 200.00-120.00L 240.001,168.00z" />
    </g>
</svg>
