<?xml version="1.0" encoding="utf-8"?>
<!DOCTYPE svg PUBLIC "-//W3C//DTD SVG 1.1//EN" "http://www.w3.org/Graphics/SVG/1.1/DTD/svg11.dtd">
<svg xmlns="http://www.w3.org/2000/svg" version="1.1" height="640" width="640" y="0" x="0" viewBox="0 -32 640 640" >
    <g transform="matrix(1,0,0,-1,0,575.97732)">
        <path d="M 48.00,383.936l 544.00,0.00 c 18.24,0.00, 15.264,19.456, 6.176,22.624C 589.088,409.728, 488.00,447.936, 470.40,447.936l-28.80,0.00 l0.00,96.00 L 198.40,543.936 l0.00-96.00 L 169.60,447.936 c-17.60,0.00-118.688-38.208-127.776-41.376C 32.736,403.392, 29.728,383.936, 48.00,383.936z M 598.40,348.736L 41.60,348.736 c-17.60,0.00-35.20-20.80-35.20-38.40l0.00-112.00 c0.00-17.60, 17.60-38.40, 35.20-38.40l 63.424,0.00 l-28.224-160.00l 486.40,0.00 l-28.224,160.00L 598.40,159.936 c 17.60,0.00, 35.20,20.80, 35.20,38.40l0.00,112.00 C 633.60,327.936, 616.00,348.736, 598.40,348.736z M 140.80,63.936l 44.80,208.00l 268.80,0.00 l 44.768-208.00L 140.80,63.936 z" />
    </g>
</svg>
