<?xml version="1.0" encoding="utf-8"?>
<!DOCTYPE svg PUBLIC "-//W3C//DTD SVG 1.1//EN" "http://www.w3.org/Graphics/SVG/1.1/DTD/svg11.dtd">
<svg xmlns="http://www.w3.org/2000/svg" version="1.1" height="640" width="640" y="0" x="0" viewBox="0 -32 640 640" >
    <g transform="matrix(1,0,0,-1,0,575.97732)">
        <path d="M 540.00,608.00L 60.00,608.00 C 27.00,608.00,0.00,581.00,0.00,548.00l0.00-520.00 c0.00-33.00, 27.00-60.00, 60.00-60.00l 480.00,0.00 c 33.00,0.00, 60.00,27.00, 60.00,60.00L 600.00,548.00 C 600.00,581.00, 573.00,608.00, 540.00,608.00z M 520.00,48.00L 80.00,48.00 L 80.00,528.00 l 440.00,0.00 L 520.00,48.00 zM 160.00,248.00L 440.00,248.00L 440.00,208.00L 160.00,208.00zM 160.00,168.00L 440.00,168.00L 440.00,128.00L 160.00,128.00zM 200.00,428.00A60.00,60.00 4860.00 1 1 320.00,428A60.00,60.00 4860.00 1 1 200.00,428zM 300.00,368.00l-80.00,0.00 c-33.00,0.00-60.00-18.00-60.00-40.00l0.00-40.00 l 200.00,0.00 l0.00,40.00 C 360.00,350.00, 333.00,368.00, 300.00,368.00z" />
    </g>
</svg>
