<?xml version="1.0" encoding="utf-8"?>
<!DOCTYPE svg PUBLIC "-//W3C//DTD SVG 1.1//EN" "http://www.w3.org/Graphics/SVG/1.1/DTD/svg11.dtd">
<svg version="1.1" xmlns="http://www.w3.org/2000/svg" xmlns:xlink="http://www.w3.org/1999/xlink" x="0px" y="0px"
	 width="154px" height="154px" viewBox="0.25 -5.25 154 154" enable-background="new 0.25 -5.25 154 154" xml:space="preserve">
<g>
	<path d="M5,5c48.33,0,96.67,0,145,0c0,44.67,0,89.33,0,134c-48.33,0-96.67,0-145,0C5,94.33,5,49.67,5,5 M21,22c0,1.75,0,5.25,0,7
		c9,0,18,0,27,0c0-1.75,0-5.25,0-7C39,22,30,22,21,22 M55,22c0,1.75,0,5.25,0,7c26.33,0,52.67,0,79,0c0-1.75,0-5.25,0-7
		C107.67,22,81.33,22,55,22 M21,40c0,2.67,0,5.33,0,8c9,0,18,0,27,0c0-2.67,0-5.33,0-8C39,40,30,40,21,40 M55,40c0,2.67,0,5.33,0,8
		c26.33,0,52.67,0,79,0c0-2.67,0-5.33,0-8C107.67,40,81.33,40,55,40 M21,58c0,2.66,0,5.33,0,8c9,0,18,0,27,0c0-2.67,0-5.34,0-8
		C39,58,30,58,21,58 M55,58c0,2.66,0,5.33,0,8c26.33,0,52.67,0,79,0c0-2.67,0-5.34,0-8C107.67,58,81.33,58,55,58 M21,76
		c0,2.66,0,5.33,0,8c9,0,18,0,27,0c0-2.67,0-5.34,0-8C39,76,30,76,21,76 M55,76c0,2.66,0,5.33,0,8c26.33,0,52.67,0,79,0
		c0-2.67,0-5.34,0-8C107.67,76,81.33,76,55,76 M21,95c0,1.75,0,5.25,0,7c9,0,18,0,27,0c0-1.75,0-5.25,0-7C39,95,30,95,21,95 M55,95
		c0,1.75,0,5.25,0,7c26.33,0,52.67,0,79,0c0-1.75,0-5.25,0-7C107.67,95,81.33,95,55,95 M21,113c0,1.75,0,5.25,0,7c9,0,18,0,27,0
		c0-1.75,0-5.25,0-7C39,113,30,113,21,113 M55,113c0,1.75,0,5.25,0,7c26.33,0,52.67,0,79,0c0-1.75,0-5.25,0-7
		C107.67,113,81.33,113,55,113z"/>
</g>
</svg>
