<?xml version="1.0" encoding="utf-8"?>
<!DOCTYPE svg PUBLIC "-//W3C//DTD SVG 1.1//EN" "http://www.w3.org/Graphics/SVG/1.1/DTD/svg11.dtd">
<svg version="1.1" xmlns="http://www.w3.org/2000/svg" xmlns:xlink="http://www.w3.org/1999/xlink" x="0px" y="0px"
	 width="99px" height="99px" viewBox="-3 -0.143 99 99" enable-background="new -3 -0.143 99 99" xml:space="preserve">
<g>
	<polygon points="-0.752,11.625 26.341,0 53.53,10.686 26.53,22.028 10.123,15.653 24.28,9.186 20.53,7.686 5.998,14.342 	"/>
	<path d="M4.78,14.811l4.595,1.688l0.469,16.5l-3.469-1.031l0.469-13.969l-6.375,11.25L-3,27.841
		C-3.002,27.842,4.591,14.811,4.78,14.811z"/>
	<path d="M14.342,19.217l12,4.313l12.656-5.344l0.094,11.719l-12.563,5.346l-12.188-4.315
		C14.342,30.936,14.155,19.217,14.342,19.217z"/>
	<path d="M41.717,19.778l-0.094,6.375L72.84,26.25l0.097,65.905l-45.845,0.188l-0.143-53.86l-6.703-2.25l-0.072,62.483l59.056-0.02
		l-0.105-78.804C79.128,19.895,41.671,19.708,41.717,19.778z"/>
	<rect x="30.653" y="37.474" width="25.409" height="3.984"/>
	<rect x="30.653" y="49.099" width="25.409" height="3.983"/>
	<rect x="30.653" y="59.225" width="25.409" height="3.982"/>
	<rect x="30.653" y="70.1" width="25.409" height="3.982"/>
	<rect x="30.653" y="80.6" width="25.409" height="3.982"/>
	<rect x="59.879" y="69.516" width="9.399" height="3.422"/>
	<rect x="59.877" y="48.209" width="9.235" height="3.516"/>
	<rect x="63.182" y="55.52" width="3.587" height="9.656"/>
	<rect x="60.112" y="59.012" width="9.656" height="3.471"/>
	<rect x="63.182" y="77.082" width="3.587" height="9.654"/>
	<rect x="60.112" y="80.576" width="9.656" height="3.469"/>
	<rect x="63.182" y="33.77" width="3.587" height="9.656"/>
	<rect x="60.112" y="37.262" width="9.656" height="3.469"/>
</g>
</svg>
