<?xml version="1.0" encoding="utf-8"?>
<!DOCTYPE svg PUBLIC "-//W3C//DTD SVG 1.1//EN" "http://www.w3.org/Graphics/SVG/1.1/DTD/svg11.dtd">
<svg version="1.1" xmlns="http://www.w3.org/2000/svg" xmlns:xlink="http://www.w3.org/1999/xlink" x="0px" y="0px"
	 width="164px" height="164px" viewBox="1.625 -2.75 164 164" enable-background="new 1.625 -2.75 164 164" xml:space="preserve">
<g>
	<path d="M62.36,1.552c29.2,4.6,58.19,11.561,87.331,16.93c4.138,0.27,8.558,4.2,6.5,8.57c-8.101,24.99-16.091,50.091-25.851,74.48
		c1.291-6.97-6.699-5.23-10.699-3.45c7.85-22.27,15.3-44.68,23.22-66.92c1.969-2.05-1.791-1.99-2.841-2.56
		c-24.079-4.8-48.109-9.82-72.199-14.53c-9.57,24.61-18.01,49.66-27.53,74.279c-3.72,6.33-13.82,0.051-9.98-6.35
		c9.3-25.3,18.56-50.62,27.81-75.93C58.81,4.072,60.12,1.962,62.36,1.552z"/>
	<path d="M73.27,34.472c5.46-0.17,0.42,7.97,0.47,11.64C66.93,45.502,66.1,35.262,73.27,34.472z"/>
	<path d="M91.35,39.512c9.35,1.51,18.39,5.06,27.63,7.32c6.539,0.83,6.02,12.34-0.99,11.2c-9.42-1.73-18.68-4.48-27.96-6.87
		C84.04,49.412,85.85,40.532,91.35,39.512z"/>
	<path d="M63.25,58.482c6.42-1.16,0.93,7.83,1.45,11.7C57.73,70.442,56.71,60.002,63.25,58.482z"/>
	<path d="M80.15,64.422c9.98,0.76,19.359,5.76,29.05,8.37c6.25,1.62,4.601,10.47-1.08,11.71c-9.29-3.01-18.71-5.64-27.95-8.76
		C75.09,74.212,74.96,65.902,80.15,64.422z"/>
	<path d="M53.22,81.412c7.78-3.46,2.49,7.42,2.41,11.65C49.61,92.662,47.43,83.932,53.22,81.412z"/>
	<path d="M69.26,88.422c10.16-1.32,19.82,5.76,29.759,7.99c6.99,1.029,4.851,12.83-2,11.3c-9.339-2.62-18.529-5.92-27.719-9.03
		C64.73,97.313,65.91,90.122,69.26,88.422z"/>
	<path d="M5.94,90.872c22.52,8.78,44.83,18.101,67.24,27.13c-1.44,9.631,2.61,23.91,14.49,23.59c11.16,1.311,17.65-9.58,21.64-18.27
		c0.279-1.99,2.51-1.66,3.9-2.369c0.059,5.67,0.049,11.34-0.23,17c-5.42-0.381-7.87,4.738-7.131,9.51
		c-11.35,8.24-26.929,7.33-38.879,0.869c-16.33-7.49-32.69-14.939-49.01-22.469C6.04,119.043,2.54,103.452,5.94,90.872z"/>
	<path d="M122.35,102.482c4.561-1.061,2.521,3.81,2.75,6.609c0.811,11.17-2.229,22.271-0.569,33.43
		c3.819-0.469,7.5,0.971,5.149,5.32c-5.989,0.211-12.1,0.801-18.02-0.439c-1.34-4.98,3.359-4.93,7-4.811
		c-0.92-10.189,0.4-20.359,1.051-30.52c-3.08,1.869-6.421,4.541-8.48,0.041C114.19,108.202,118.17,104.952,122.35,102.482z"/>
	<path d="M141.32,103.512c7.849-3.229,17.019,1.57,19.438,9.551c2.92,9.289,2.26,20.08-1.979,28.879
		c-4.92,10.23-21.84,9.762-26.011-0.908C127.58,128.832,127.84,110.122,141.32,103.512 M145.21,108.473
		c-11.191,3.359-11,18.279-8.281,27.52c1.17,6.75,10.16,10.4,15.12,5.16c5.43-6.551,5.18-16,4.07-23.98
		C155.589,111.873,150.729,107.172,145.21,108.473z"/>
</g>
</svg>
