<?xml version="1.0" encoding="utf-8"?>
<!DOCTYPE svg PUBLIC "-//W3C//DTD SVG 1.1//EN" "http://www.w3.org/Graphics/SVG/1.1/DTD/svg11.dtd">
<svg xmlns="http://www.w3.org/2000/svg" version="1.1" height="640" width="640" y="0" x="0" viewBox="0 -32 640 640" >
    <g transform="matrix(1,0,0,-1,0,575.97732)">
        <path d="M 280.00,111.431L 151.716,259.715L 188.284,296.284L 280.00,224.569L 451.715,376.284L 488.285,339.716 zM 519.858,528.00c 0.049-0.041, 0.101-0.094, 0.143-0.144l0.00-479.714 c-0.041-0.049-0.094-0.101-0.143-0.143L 120.143,48.00 c-0.05,0.041-0.101,0.094-0.143,0.143L 120.00,527.857 c 0.041,0.05, 0.094,0.101, 0.144,0.143L 40.00,528.00 l0.00-480.00 c0.00-44.00, 36.00-80.00, 80.00-80.00l 400.00,0.00 c 44.00,0.00, 80.00,36.00, 80.00,80.00L 600.00,528.00 L 519.858,528.00 z M 400.00,528.00L 400.00,568.00 c0.00,22.091-17.909,40.00-40.00,40.00l-80.00,0.00 c-22.091,0.00-40.00-17.909-40.00-40.00l0.00-40.00 l-80.00,0.00 l0.00-80.00 l 320.00,0.00 L 480.00,528.00 L 400.00,528.00 z M 360.00,528.00l-80.00,0.00 L 280.00,568.00 l 80.00,0.00 L 360.00,528.00 z" />
    </g>
</svg>
