<?xml version="1.0" encoding="utf-8"?>
<!DOCTYPE svg PUBLIC "-//W3C//DTD SVG 1.1//EN" "http://www.w3.org/Graphics/SVG/1.1/DTD/svg11.dtd">
<svg version="1.1" xmlns="http://www.w3.org/2000/svg" xmlns:xlink="http://www.w3.org/1999/xlink" x="0px" y="0px"
	 width="2223px" height="2223.5px" viewBox="0 -206.5 2223 2223.5" enable-background="new 0 -206.5 2223 2223.5"
	 xml:space="preserve">
<g transform="matrix(1,0,0,-1,0,575.97732)">
	<path d="M1832.5-344.976l-31-167.156l222-168.169l-165-282.646l-248,115.489l-140-115.489l26-251.241l-305-84.085l-83,225.914
		l-191,26.34l-165-199.574l-279,173.234l114,224.901l-114,135.751l-248-26.34l-83,335.326l248,84.084v172.222l-196,168.169
		l170,277.581l248-110.424l109,110.424l-26,256.306l305,84.085l108-225.915l171-31.405l191,199.574l248-168.169l-82-224.901
		l82-140.816l279,25.327l83-307.973L1832.5-344.976z M650.5-332.819c0-62.811,11.667-121.736,35-176.78
		c23.333-55.043,55.333-103.164,96-144.362c40.667-41.197,88.167-73.615,142.5-97.255c54.333-23.638,112.5-35.457,174.5-35.457
		s120.333,11.819,175,35.457c54.667,23.64,102.167,56.058,142.5,97.255c40.333,41.198,72.333,89.319,96,144.362
		c23.667,55.044,35.5,113.97,35.5,176.78s-11.833,121.906-35.5,177.287c-23.667,55.381-55.667,103.502-96,144.362
		s-87.833,73.279-142.5,97.254c-54.667,23.977-113,35.964-175,35.964S978.333,110.062,924,86.085
		C869.667,62.11,822.167,29.691,781.5-11.169s-72.667-88.981-96-144.362C662.167-210.912,650.5-270.008,650.5-332.819z"/>
</g>
</svg>
