<?xml version="1.0" encoding="utf-8"?>
<!DOCTYPE svg PUBLIC "-//W3C//DTD SVG 1.1//EN" "http://www.w3.org/Graphics/SVG/1.1/DTD/svg11.dtd">
<svg xmlns="http://www.w3.org/2000/svg" version="1.1" height="2096" width="2048" y="0" x="0" viewBox="0 -1240 2048 2096" >
    <g transform="matrix(1,0,0,-1,0,575.97732)">
        <path d="M1173 1230q5 -102 41 -194t97 -170q-108 -81 -249 -96v460h111zM524 1230h250q-7 -83 -36.5 -159.5t-83.5 -142.5q-56 63 -90.5 138t-39.5 164zM974 1230v-457q-71 5 -135.5 30t-118.5 66q63 78 99 169.5t44 191.5h111zM524 1326q9 88 44 163.5t91 136.5q104 -133 115 -300h-250zM865 1326q-13 204 -140 359q54 39 116 63.5t133 32.5v-455h-109zM1262 1230h253q-9 -89 -45 -167t-93 -138q-50 65 -80 143.5t-35 161.5zM1062 1326v453q71 -6 135.5 -31.5t118.5 -67.5q-63 -75 -99 -163t-44 -191h-111zM1262 1326q7 84 37.5 157t82.5 138q56 -61 90.5 -133.5t42.5 -161.5h-253zM1734 692v-133h-69q-29 -69 -60 -162t-57 -203.5t-43 -236.5t-17 -262q0 -10 -10 -17q-2 -4 -7 -5.5t-10 -1.5q-11 0 -17 7q-1 1 -15.5 15t-40.5 38.5t-62.5 58t-81.5 73.5q-52 -42 -102 -86t-102 -92v-2q-7 -7 -20 -7q-12 0 -19 7v2q-52 48 -102.5 92t-101.5 86q-45 -40 -81.5 -73.5t-62.5 -58t-40.5 -38.5t-15.5 -15q-7 -7 -17 -7q-5 0 -10 1.5t-7 5.5h-3q-7 9 -7 17v23q0 109 -13.5 218t-37 215t-56 208.5t-70.5 199.5h-71v133h1429zM1020 389q-45 -29 -93 -63.5t-96 -71.5q50 -35 97 -70.5t92 -70.5q45 35 92 70.5t98 70.5q-48 37 -96.5 71.5t-93.5 63.5zM784 283q51 37 98 71.5t92 66.5q-63 43 -115 75.5t-87 52.5q-52 -35 -98 -70t-91 -68q50 -29 100.5 -61t100.5 -67zM1067 421q45 -32 92 -66.5t95 -71.5q52 35 103 67t101 61q-45 33 -91 68t-98 70q-35 -20 -87 -52.5t-115 -75.5zM1020 450q47 32 88.5 60.5t74.5 50.5h-325q33 -22 74.5 -50.5t87.5 -60.5zM433 561q7 -20 14 -43t15 -45q19 -8 35.5 -17t33.5 -18q39 30 79 62t81 61h-258zM504 350q17 -56 32.5 -118t28.5 -128q43 38 87.5 75t89.5 72q-50 33 -101 64.5t-103 61.5q-18 -15 -34 -27zM605 -246q24 24 63 60t89 81q-46 37 -90 69t-89 63q11 -65 18 -133t9 -140zM797 -71q83 72 182 152q-93 70 -192 141q-46 -38 -91.5 -75t-90.5 -75q48 -34 94.5 -68t97.5 -75zM1020 -263q47 43 92 82t93 78q-43 35 -88.5 73t-96.5 79q-50 -41 -96.5 -79t-87.5 -73l92 -78t92 -82zM1062 81q99 -80 182 -152q48 39 96 74t96 69q-45 38 -90.5 75t-91.5 75q-51 -36 -98 -71zM1436 -246q4 144 27 273q-45 -31 -89 -63t-90 -69q50 -45 89 -81t63 -60zM1476 104q13 66 28.5 128t32.5 118q-16 12 -34 27q-52 -30 -103 -61.5t-102 -64.5q45 -35 89.5 -72t88.5 -75zM1576 473q10 22 17.5 45t14.5 43h-260q42 -29 82.5 -61t79.5 -62q17 9 33 18t33 17z" />
    </g>
</svg>
