<?xml version="1.0" encoding="utf-8"?>
<!DOCTYPE svg PUBLIC "-//W3C//DTD SVG 1.1//EN" "http://www.w3.org/Graphics/SVG/1.1/DTD/svg11.dtd">
<svg xmlns="http://www.w3.org/2000/svg" version="1.1" height="2096" width="2048" y="0" x="0" viewBox="0 -1240 2048 2096" >
    <g transform="matrix(1,0,0,-1,0,575.97732)">
        <path d="M1023 1586q127 0 245 -24.5t220.5 -68.5t187 -106.5t144.5 -138.5t93 -163.5t33 -181.5q0 -92 -32 -178t-90 -161t-139.5 -137t-180.5 -107.5t-213.5 -71.5t-237.5 -29q-14 -59 -65 -110t-121.5 -88t-151 -58t-153.5 -21q-23 0 -47 0.5t-26 0.5q-13 2 -22.5 11.5t-9.5 23.5q2 13 11 22.5t24 11.5q2 0 14 2t29.5 9.5t37 23.5t36 44.5t27.5 71.5t11 105v10q-126 41 -227 106t-172 146.5t-109 176t-38 196.5q0 94 33 181.5t93 163.5t144 138.5t186.5 106.5t220.5 68.5t245 24.5z" />
    </g>
</svg>
