<?xml version="1.0" encoding="utf-8"?>
<!DOCTYPE svg PUBLIC "-//W3C//DTD SVG 1.1//EN" "http://www.w3.org/Graphics/SVG/1.1/DTD/svg11.dtd">
<svg xmlns="http://www.w3.org/2000/svg" version="1.1" height="2096" width="2048" y="0" x="0" viewBox="0 -1240 2048 2096" >
    <g transform="matrix(1,0,0,-1,0,575.97732)">
        <path d="M655 1499q-5 7 -5 15q0 6 3 12q2 8 7 14t12 8q1 0 11 3.5t25.5 7.5t36 7.5t41.5 3.5q46 0 73 -17q12 13 25.5 25t33 21t46 14.5t63.5 5.5q39 0 66 -6t45 -16t30 -21.5t21 -22.5q15 9 34.5 13t41.5 4q20 0 40 -3.5t36 -7.5t26 -7.5t11 -3.5q8 -2 13 -8t7 -14q1 -3 1.5 -5.5t0.5 -5.5q0 -10 -7 -16l-143 -226h-450zM1233 1211q79 -27 148 -74t125.5 -108t100.5 -134.5t74 -153t45.5 -163.5t15.5 -166q0 -100 -25.5 -176t-72.5 -131.5t-112.5 -93t-145.5 -60t-171.5 -32t-190.5 -9.5q-100 0 -191.5 9.5t-171.5 32t-145.5 60t-112 93t-72 131.5t-25.5 176q0 82 15.5 166t45.5 163.5t73.5 153t100 134.5t125.5 108t149 74h418zM1059 222q41 4 78.5 20t66 42t45 61t16.5 79q0 20 -4.5 39.5t-12.5 36.5q-20 35 -46.5 60t-64.5 46t-78 39v241q38 0 80.5 -14.5t71.5 -36.5v118q-52 20 -88.5 27t-63.5 7v94h-72v-96q-18 -4 -37.5 -10t-38.5 -15q-20 -9 -35.5 -20t-28.5 -24q-26 -30 -41.5 -64.5t-15.5 -73.5q0 -66 33 -113.5t90 -75.5q19 -10 37.5 -19t36.5 -18v-234q-22 0 -50 7t-48 13q-8 3 -19 8t-23 11.5t-25 13.5t-23 13l-6 3v-121q18 -8 38 -16.5t43 -15.5q26 -8 56.5 -12t56.5 -5v-111h72v116zM1059 522q38 -20 63 -43t25 -65q0 -36 -25.5 -61t-62.5 -30v199zM987 884v-209q-7 3 -20 10.5t-26 21t-22.5 33.5t-9.5 50q0 38 24 62.5t54 31.5z" />
    </g>
</svg>
