<?xml version="1.0" encoding="utf-8"?>
<!DOCTYPE svg PUBLIC "-//W3C//DTD SVG 1.1//EN" "http://www.w3.org/Graphics/SVG/1.1/DTD/svg11.dtd">
<svg xmlns="http://www.w3.org/2000/svg" version="1.1" height="2096" width="2048" y="0" x="0" viewBox="0 -1240 2048 2096" >
    <g transform="matrix(1,0,0,-1,0,575.97732)">
        <path d="M0 1234h2048v-1234h-2048v1234zM987 140q99 0 186.5 37.5t152.5 102.5t102.5 151.5t37.5 185.5q0 100 -37.5 187.5t-102.5 152.5t-152.5 102.5t-186.5 37.5t-186 -37.5t-152 -102.5t-102.5 -152.5t-37.5 -187.5q0 -99 37.5 -185.5t102.5 -151.5t152 -102.5t186 -37.5zM1235 477q0 -37 -11.5 -68t-37.5 -55q-49 -49 -140 -59v-101h-69v98q-96 0 -177 45v127q13 -11 34 -20.5t47 -18.5q28 -9 52 -14.5t44 -7.5v170q-91 32 -133 71q-57 50 -57 133q0 73 49 122q26 26 61 42t80 20v89h69v-86q48 -4 84.5 -11.5t60.5 -20.5v-126q-32 20 -69.5 31.5t-75.5 15.5v-177q94 -34 137 -74q52 -51 52 -125zM977 853q-34 -5 -50.5 -23t-16.5 -46q0 -50 67 -78v147zM1112 472q0 22 -16.5 41t-49.5 33v-141q66 12 66 67z" />
    </g>
</svg>
