<?xml version="1.0" encoding="utf-8"?>
<!DOCTYPE svg PUBLIC "-//W3C//DTD SVG 1.1//EN" "http://www.w3.org/Graphics/SVG/1.1/DTD/svg11.dtd">
<svg xmlns="http://www.w3.org/2000/svg" version="1.1" height="2096" width="2048" y="0" x="0" viewBox="0 -1240 2048 2096" >
    <g transform="matrix(1,0,0,-1,0,575.97732)">
        <path d="M30 83v1238q0 25 22 44.5t52 19.5h315q31 0 52.5 -20.5t21.5 -50.5v-1238q0 -31 -21.5 -53.5t-52.5 -22.5h-315q-30 0 -52 23.5t-22 59.5zM426 973v40q0 17 -13.5 31t-31.5 14h-239q-18 0 -33 -14t-15 -31v-40q0 -20 15 -34t33 -14h239q18 0 31.5 14t13.5 34zM426 1169v41q0 20 -13.5 33.5t-31.5 13.5h-239q-18 0 -33 -13.5t-15 -33.5v-41q0 -17 15 -31t33 -14h239q18 0 31.5 14t13.5 31zM559 83v1238q0 25 21 44.5t50 19.5h316q30 0 51.5 -20.5t21.5 -50.5v-1238q0 -31 -21.5 -53.5t-51.5 -22.5h-316q-29 0 -50 23.5t-21 59.5zM952 973v40q0 17 -12 31t-32 14h-237q-20 0 -35 -14t-15 -31v-40q0 -20 15 -34t35 -14h237q20 0 32 14t12 34zM952 1169v41q0 20 -12 33.5t-32 13.5h-237q-20 0 -35 -13.5t-15 -33.5v-41q0 -17 15 -31t35 -14h237q20 0 32 14t12 31zM1597 52l-523 1122q-5 10 -5 25q0 20 11 37.5t31 28.5l288 132q16 8 32 8q20 0 37 -12t28 -32l522 -1121q7 -14 7 -30q0 -20 -9.5 -35.5t-33.5 -31.5l-284 -134q-16 -7 -29 -7q-21 0 -41 13t-31 37zM1581 1025l-19 35q-5 13 -16 19.5t-23 6.5q-13 0 -20 -5l-216 -99q-13 -6 -20 -17.5t-7 -24.5q0 -10 4 -18l18 -37q5 -13 16.5 -19.5t23.5 -6.5t20 5l216 99q27 13 27 42q0 11 -4 20zM1496 1203l-17 37q-5 12 -16.5 19t-24.5 7q-10 0 -18 -4l-216 -100q-14 -6 -20.5 -17.5t-6.5 -25.5q0 -9 3 -18l19 -36q5 -14 16 -21t25 -7q11 0 19 4l215 102q27 13 27 41q0 9 -5 19z" />
    </g>
</svg>
