<?xml version="1.0" encoding="utf-8"?>
<!DOCTYPE svg PUBLIC "-//W3C//DTD SVG 1.1//EN" "http://www.w3.org/Graphics/SVG/1.1/DTD/svg11.dtd">
<svg xmlns="http://www.w3.org/2000/svg" version="1.1" height="2096" width="2048" y="0" x="0" viewBox="0 -1240 2048 2096" >
    <g transform="matrix(1,0,0,-1,0,575.97732)">
        <path d="M1008 -192h-278l-384 391l384 386h278l-247 -244q124 -26 264 -26q166 0 304 35.5t237 92.5t154 127.5t55 140.5q0 46 -23 91.5t-65 87.5l187 190q79 -80 122 -173t43 -196q0 -92 -35.5 -177t-101 -158t-157.5 -133t-204.5 -102.5t-243 -66t-272.5 -23.5q-146 0 -278 24v-4zM336 565l-189 -189q-65 74 -100.5 158t-35.5 177t35.5 178t101 158.5t157.5 133.5t204.5 102.5t243 65.5t272.5 23q61 0 120 -4.5t116 -12.5v15l-263 258h278l386 -386l-386 -389h-278l240 239q-50 8 -103 12.5t-110 4.5q-165 0 -302.5 -35.5t-236.5 -92.5t-154 -128t-55 -142q0 -35 15 -73t44 -73z" />
    </g>
</svg>
