<?xml version="1.0" encoding="utf-8"?>
<!DOCTYPE svg PUBLIC "-//W3C//DTD SVG 1.1//EN" "http://www.w3.org/Graphics/SVG/1.1/DTD/svg11.dtd">
<svg xmlns="http://www.w3.org/2000/svg" version="1.1" height="2096" width="2048" y="0" x="0" viewBox="0 -1240 2048 2096" >
    <g transform="matrix(1,0,0,-1,0,575.97732)">
        <path d="M624 459q5 1 23.5 3.5t48 5t67.5 4.5t83 2q69 0 148.5 -6.5t159 -25t153 -51t131.5 -84.5q5 -5 7.5 -15t2.5 -21q0 -9 -1 -17t-4 -13q-8 -13 -22 -13q-12 0 -18 7q-41 37 -92.5 61t-108.5 38t-117 19.5t-117 5.5q-62 0 -115.5 -4.5t-95 -10.5t-69.5 -11t-37 -6l-16 -3q-15 0 -28.5 10.5t-15.5 27.5q-1 4 -1 14q0 12 2.5 26t7 26.5t11 21t13.5 9.5zM715 897q0 -21 -3.5 -38.5t-14.5 -29.5q-6 1 -15.5 6t-20.5 9.5t-21.5 8.5t-17.5 4q-8 0 -19 -4t-22 -8.5t-20.5 -9.5t-15.5 -6q-12 13 -15.5 31.5t-3.5 40.5v47q0 18 3.5 35.5t8.5 34.5q-5 -3 -13.5 -5t-17.5 -4t-17.5 -3t-14.5 -1q-11 0 -19.5 6.5t-8.5 20.5q0 9 6 23q5 11 19 23.5t34 25t45 23t51 17.5q19 5 40.5 10.5t43 9.5t41 6.5t35.5 2.5q12 0 21.5 -1.5t14.5 -6.5q20 -13 20 -30q0 -8 -4.5 -14.5t-11.5 -10.5q-9 -5 -25 -13t-33.5 -15.5t-34.5 -13t-28 -6.5q15 -20 24 -49.5t9 -64.5zM1432 1146q26 -7 51 -17.5t45 -23t34 -25.5t19 -25q6 -12 6 -22q0 -13 -8.5 -20.5t-19.5 -7.5q-5 0 -13 0.5t-16.5 2t-16 3t-11.5 3.5q3 -15 7 -31.5t4 -34.5v-36q0 -26 -3 -47.5t-17 -35.5q-6 1 -15 6t-19.5 9.5t-21.5 8.5t-19 4t-19 -4t-22 -8.5t-20.5 -9.5t-15.5 -6q-11 14 -14 33t-3 42v44q0 35 9 64.5t26 49.5q-12 1 -29.5 6.5t-36 13t-35.5 15.5t-27 13q-15 10 -15 26q0 17 18 32q10 7 36 7q16 0 36 -2.5t41.5 -6.5t43 -9.5t41.5 -10.5zM1018 1704q131 0 252.5 -34t227 -96t192 -148.5t148.5 -192t96 -227t34 -252.5q0 -192 -71.5 -364.5t-207.5 -308.5q-67 -67 -144.5 -118.5t-163 -87t-177 -53.5t-186.5 -18q-131 0 -252.5 34t-227 95.5t-192 148t-148.5 192t-96 227.5t-34 253t34 252.5t96 227t148.5 192t192 148.5t227 96t252.5 34zM1018 -102q118 0 227.5 30.5t204.5 86.5t173 134t134 173t86.5 204.5t30.5 227.5t-30.5 227t-86.5 204t-134 173.5t-173 134.5t-204.5 86.5t-227.5 30.5t-227.5 -30.5t-204.5 -86.5t-173 -134.5t-134 -173.5t-86.5 -204t-30.5 -227t30.5 -227.5t86.5 -204.5t134 -173t173 -134t204.5 -86.5t227.5 -30.5z" />
    </g>
</svg>
