<?xml version="1.0" encoding="utf-8"?>
<!DOCTYPE svg PUBLIC "-//W3C//DTD SVG 1.1//EN" "http://www.w3.org/Graphics/SVG/1.1/DTD/svg11.dtd">
<svg xmlns="http://www.w3.org/2000/svg" version="1.1" height="2096" width="2509" y="0" x="0" viewBox="0 -1240 2509 2096" >
    <g transform="matrix(1,0,0,-1,0,575.97732)">
        <path d="M2135 1453q0 -76 -25.5 -143.5t-69.5 -118t-102.5 -79t-126.5 -28.5q-67 0 -125.5 28.5t-103 79t-69.5 118t-25 143.5q0 77 25 143.5t69.5 117t103 80t125.5 29.5q68 0 126.5 -29.5t102.5 -80t69.5 -117t25.5 -143.5zM1327 855q-36 21 -64 35t-49 23q11 23 27 36t36 25q68 38 99.5 51.5t43.5 16.5q106 -106 201 -154t190 -48q102 0 202 51.5t190 147.5q11 -2 41.5 -15t101.5 -53q22 -12 38 -26.5t29 -38t23.5 -59.5t20.5 -91q5 -33 11.5 -80t13.5 -102.5t12.5 -114.5t9.5 -116h-951q-6 50 -12 94t-13 77q-13 65 -27 115.5t-36.5 91.5t-55.5 73.5t-82 60.5zM10 67q4 57 9.5 115.5t12 114t13.5 102.5t12 80q11 55 21.5 92t23 60.5t28.5 38t38 26.5q34 19 58 31.5t41.5 20.5t28 11t15.5 4q106 -106 201 -152.5t191 -46.5q94 0 189 46t201 152q12 -2 43 -15.5t100 -53.5q22 -13 39 -26.5t29.5 -37t23 -60t20.5 -90.5q6 -33 12.5 -80t13 -102.5t12 -114t10.5 -115.5h-1386zM1026 1176q0 -77 -25 -144t-69.5 -117.5t-103 -80t-125.5 -29.5q-68 0 -126.5 29.5t-102.5 80t-69.5 117.5t-25.5 144t25.5 144t69.5 117.5t102.5 79.5t126.5 29q67 0 125.5 -29t103 -79.5t69.5 -117.5t25 -144z" />
    </g>
</svg>
