<?xml version="1.0" encoding="utf-8"?>
<!DOCTYPE svg PUBLIC "-//W3C//DTD SVG 1.1//EN" "http://www.w3.org/Graphics/SVG/1.1/DTD/svg11.dtd">
<svg xmlns="http://www.w3.org/2000/svg" version="1.1" height="2096" width="2509" y="0" x="0" viewBox="0 -1240 2509 2096" >
    <g transform="matrix(1,0,0,-1,0,575.97732)">
        <path d="M1642 1706q74 -73 147 -146l147 -147q36 -37 56 -73.5t29 -73t10.5 -73t1.5 -72.5v-1172q0 -20 -7.5 -37.5t-21 -31t-31 -21.5t-37.5 -8h-1367q-20 0 -38 8t-31.5 21.5t-21 31t-7.5 37.5v1757q0 41 28.5 69.5t69.5 28.5h781q37 0 73.5 -1.5t73 -10.5t73 -29t72.5 -57zM1448 1218h390q0 36 -8 63.5t-17 45.5q-11 21 -24 37l-195 187q-16 16 -37 29q-18 11 -45.5 20t-63.5 9v-391zM1838 1023h-586v586h-585v-1562h1171v976z" />
    </g>
</svg>
