<?xml version="1.0" encoding="utf-8"?>
<!DOCTYPE svg PUBLIC "-//W3C//DTD SVG 1.1//EN" "http://www.w3.org/Graphics/SVG/1.1/DTD/svg11.dtd">
<svg xmlns="http://www.w3.org/2000/svg" version="1.1" height="640" width="640" y="0" x="0" viewBox="0 -32 640 640" >
    <g transform="matrix(1,0,0,-1,0,575.97732)">
        <path d="M 610.00,128.00l-10.00,0.00 L 600.00,258.00 c0.00,38.597-31.401,70.00-70.00,70.00L 360.00,328.00 l0.00,80.00 l 10.00,0.00 c 16.50,0.00, 30.00,13.50, 30.00,30.00L 400.00,538.00 c0.00,16.50-13.50,30.00-30.00,30.00l-100.00,0.00 c-16.50,0.00-30.00-13.50-30.00-30.00l0.00-100.00 c0.00-16.50, 13.50-30.00, 30.00-30.00l 10.00,0.00 l0.00-80.00 L 110.00,328.00 c-38.597,0.00-70.00-31.402-70.00-70.00l0.00-130.00 l-10.00,0.00 c-16.50,0.00-30.00-13.50-30.00-30.00l0.00-100.00 c0.00-16.50, 13.50-30.00, 30.00-30.00l 100.00,0.00 c 16.50,0.00, 30.00,13.50, 30.00,30.00l0.00,100.00 c0.00,16.50-13.50,30.00-30.00,30.00l-10.00,0.00 l0.00,120.00 l 160.00,0.00 l0.00-120.00 l-10.00,0.00 c-16.50,0.00-30.00-13.50-30.00-30.00l0.00-100.00 c0.00-16.50, 13.50-30.00, 30.00-30.00l 100.00,0.00 c 16.50,0.00, 30.00,13.50, 30.00,30.00l0.00,100.00 c0.00,16.50-13.50,30.00-30.00,30.00l-10.00,0.00 l0.00,120.00 l 160.00,0.00 l0.00-120.00 l-10.00,0.00 c-16.50,0.00-30.00-13.50-30.00-30.00l0.00-100.00 c0.00-16.50, 13.50-30.00, 30.00-30.00l 100.00,0.00 c 16.50,0.00, 30.00,13.50, 30.00,30.00l0.00,100.00 C 640.00,114.50, 626.50,128.00, 610.00,128.00z M 120.00,8.00L 40.00,8.00 l0.00,80.00 l 80.00,0.00 L 120.00,8.00 z M 360.00,8.00l-80.00,0.00 l0.00,80.00 l 80.00,0.00 L 360.00,8.00 z M 280.00,448.00L 280.00,528.00 l 80.00,0.00 l0.00-80.00 L 280.00,448.00 z M 600.00,8.00l-80.00,0.00 l0.00,80.00 l 80.00,0.00 L 600.00,8.00 z" />
    </g>
</svg>
