<?xml version="1.0" encoding="utf-8"?>
<!DOCTYPE svg PUBLIC "-//W3C//DTD SVG 1.1//EN" "http://www.w3.org/Graphics/SVG/1.1/DTD/svg11.dtd">
<svg version="1.1" xmlns="http://www.w3.org/2000/svg" xmlns:xlink="http://www.w3.org/1999/xlink" x="0px" y="0px"
	 width="80px" height="80px" viewBox="-0.442 -0.067 80 80" enable-background="new -0.442 -0.067 80 80" xml:space="preserve">
<g>
	<ellipse cx="35.664" cy="21.513" rx="16.67" ry="17.25"/>
	<path d="M5.553,74.8l9.62,0.373c1.649-6.424,1.208-9.292,6.388-13.436L20.649,75.96h29.108L49.51,62.441
		c4.741,4.864,4.703,6.502,5.891,12.939l9.044-0.336l-0.249-7.548c-11.562,0.496-20.663-10.496-15.754-23.227
		C25.843,35.49,5.553,51.47,5.553,74.8z"/>
	<path d="M62.781,36.774c7.695,0,13.933,6.456,13.933,14.42c0,7.965-6.235,14.42-13.933,14.42c-7.694,0-13.933-6.455-13.933-14.42
		C48.849,43.23,55.087,36.774,62.781,36.774L62.781,36.774z M57.853,41.568l-4.087,3.672l5.359,5.764l-5.65,6.031l4.71,3.964
		l5.101-6.02l5.781,5.396l3.756-4.543l-5.649-4.826l5.483-5.519l-4.005-4.045l-5.337,5.641L57.853,41.568z"/>
</g>
</svg>
