<?xml version="1.0" encoding="utf-8"?>
<!DOCTYPE svg PUBLIC "-//W3C//DTD SVG 1.1//EN" "http://www.w3.org/Graphics/SVG/1.1/DTD/svg11.dtd">
<svg xmlns="http://www.w3.org/2000/svg" version="1.1" height="640" width="640" y="0" x="0" viewBox="0 -32 640 640" >
    <g transform="matrix(1,0,0,-1,0,575.97732)">
        <path d="M 624.384,32.576L 339.328,532.768C 335.392,539.68, 328.00,543.936, 320.00,543.936c-8.00,0.00-15.36-4.256-19.328-11.168L 15.648,32.576c-3.872-6.784-3.808-15.072, 0.16-21.792s 11.264-10.848, 19.136-10.848l 570.08,0.00 c 7.808,0.00, 15.136,4.128, 19.136,10.848C 628.128,17.504, 628.192,25.792, 624.384,32.576z M 355.20,63.936L 284.80,63.936 l0.00,64.00 l 70.40,0.00 L 355.20,63.936 z M 355.20,175.936L 284.80,175.936 l0.00,192.00 l 70.40,0.00 L 355.20,175.936 z" />
    </g>
</svg>
